M48
; DRILL file {KiCad 8.0.9} date 2026-03-24T23:39:12+0100
; FORMAT={-:-/ absolute / inch / decimal}
; #@! TF.CreationDate,2026-03-24T23:39:12+01:00
; #@! TF.GenerationSoftware,Kicad,Pcbnew,8.0.9
; #@! TF.FileFunction,NonPlated,1,2,NPTH
FMAT,2
INCH
; #@! TA.AperFunction,NonPlated,NPTH,ComponentDrill
T1C0.0256
; #@! TA.AperFunction,NonPlated,NPTH,ComponentDrill
T2C0.0689
; #@! TA.AperFunction,NonPlated,NPTH,ComponentDrill
T3C0.1570
%
G90
G05
T1
X5.5088Y-1.7399
X5.7363Y-1.7399
T2
X1.1125Y-1.9375
X1.1125Y-2.6875
X1.2025Y-4.9375
X1.2035Y-3.4375
X1.2995Y-4.1875
X1.5125Y-1.9375
X1.5125Y-2.6875
X1.6025Y-4.9375
X1.6035Y-3.4375
X1.6995Y-4.1875
X1.8625Y-2.6875
X2.0465Y-4.9375
X2.0475Y-3.4375
X2.05Y-1.9375
X2.2375Y-4.1875
X2.2625Y-2.6875
X2.4465Y-4.9375
X2.4475Y-3.4375
X2.45Y-1.9375
X2.6125Y-2.6875
X2.6375Y-4.1875
X2.7975Y-1.9375
X2.7975Y-3.4375
X2.8905Y-4.9375
X2.9875Y-4.1875
X3.0125Y-2.6875
X3.1975Y-1.9375
X3.1975Y-3.4375
X3.2905Y-4.9375
X3.3625Y-2.6875
X3.3875Y-4.1875
X3.5475Y-1.9375
X3.5475Y-3.4375
X3.7375Y-4.1875
X3.7625Y-2.6875
X3.9475Y-1.9375
X3.9475Y-3.4375
X4.1125Y-2.6875
X4.1375Y-4.1875
X4.2975Y-1.9375
X4.2975Y-3.4375
X4.3935Y-4.9375
X4.4875Y-4.1875
X4.5125Y-2.6875
X4.6975Y-1.9375
X4.6975Y-3.4375
X4.7935Y-4.9375
X4.8625Y-2.6875
X4.8875Y-4.1875
X5.0475Y-1.9375
X5.0475Y-3.4375
X5.2375Y-4.1875
X5.2625Y-2.6875
X5.4475Y-1.9375
X5.4475Y-3.4375
X5.6125Y-2.6875
X5.6125Y-4.9375
X5.6375Y-4.1875
X5.7975Y-1.9375
X5.7975Y-3.4375
X5.9875Y-4.1875
X6.0125Y-2.6875
X6.0125Y-4.9375
X6.1975Y-1.9375
X6.1975Y-3.4375
X6.2675Y-4.9375
X6.3625Y-2.6875
X6.3875Y-4.1875
X6.5475Y-1.9375
X6.5475Y-3.4375
X6.6675Y-4.9375
X6.7375Y-4.1875
X6.7625Y-2.6875
X6.9475Y-1.9375
X6.9475Y-3.4375
X7.1125Y-2.6875
X7.1375Y-4.1875
X7.2975Y-1.9375
X7.2975Y-3.4375
X7.4875Y-4.1875
X7.4875Y-4.9375
X7.5125Y-2.6875
X7.6975Y-1.9375
X7.6975Y-3.4375
X7.8625Y-2.6875
X7.8875Y-4.1875
X7.8875Y-4.9375
X8.0475Y-1.9375
X8.0475Y-3.4375
X8.2375Y-4.1875
X8.2375Y-4.9375
X8.2625Y-2.6875
X8.4475Y-1.9375
X8.4475Y-3.4375
X8.6125Y-2.6875
X8.6375Y-4.1875
X8.6375Y-4.9375
X8.7975Y-1.9375
X8.7975Y-3.4375
X8.9875Y-4.1875
X8.9875Y-4.9375
X9.0125Y-2.6875
X9.1975Y-1.9375
X9.1975Y-3.4375
X9.3875Y-4.1875
X9.3875Y-4.9375
X9.5495Y-2.6875
X9.6415Y-3.4375
X9.7365Y-1.9375
X9.7375Y-4.1875
X9.7375Y-4.9375
X9.9495Y-2.6875
X10.0415Y-3.4375
X10.1365Y-1.9375
X10.1375Y-4.1875
X10.1375Y-4.9375
T3
X1.3125Y-1.9375
X1.3125Y-2.6875
X1.4025Y-4.9375
X1.4035Y-3.4375
X1.4995Y-4.1875
X2.0625Y-2.6875
X2.2465Y-4.9375
X2.2475Y-3.4375
X2.25Y-1.9375
X2.4375Y-4.1875
X2.8125Y-2.6875
X2.9975Y-1.9375
X2.9975Y-3.4375
X3.0905Y-4.9375
X3.1875Y-4.1875
X3.5625Y-2.6875
X3.7475Y-1.9375
X3.7475Y-3.4375
X3.9375Y-4.1875
X3.9375Y-4.6125
X4.125Y-4.6125
X4.3125Y-2.6875
X4.4975Y-1.9375
X4.4975Y-3.4375
X4.5935Y-4.9375
X4.6875Y-4.1875
X5.0625Y-2.6875
X5.0625Y-4.6125
X5.2475Y-1.9375
X5.2475Y-3.4375
X5.4375Y-4.1875
X5.8125Y-2.6875
X5.8125Y-4.9375
X5.9975Y-1.9375
X5.9975Y-3.4375
X6.0Y-4.6125
X6.1875Y-4.1875
X6.4675Y-4.9375
X6.5625Y-2.6875
X6.7475Y-1.9375
X6.7475Y-3.4375
X6.9375Y-4.1875
X6.9375Y-4.6125
X7.3125Y-2.6875
X7.4975Y-1.9375
X7.4975Y-3.4375
X7.6875Y-4.1875
X7.6875Y-4.6125
X7.6875Y-4.9375
X8.0625Y-2.6875
X8.2475Y-1.9375
X8.2475Y-3.4375
X8.4375Y-4.1875
X8.4375Y-4.9375
X8.8125Y-2.6875
X8.9975Y-1.9375
X8.9975Y-3.4375
X9.1875Y-4.1875
X9.1875Y-4.9375
X9.7495Y-2.6875
X9.8415Y-3.4375
X9.9365Y-1.9375
X9.9375Y-4.1875
X9.9375Y-4.9375
M30
