M48
; DRILL file {KiCad 8.0.9} date 2026-03-24T23:39:12+0100
; FORMAT={-:-/ absolute / inch / decimal}
; #@! TF.CreationDate,2026-03-24T23:39:12+01:00
; #@! TF.GenerationSoftware,Kicad,Pcbnew,8.0.9
; #@! TF.FileFunction,Plated,1,2,PTH
FMAT,2
INCH
; #@! TA.AperFunction,Plated,PTH,ViaDrill
T1C0.0157
; #@! TA.AperFunction,Plated,PTH,ComponentDrill
T2C0.0236
; #@! TA.AperFunction,Plated,PTH,ComponentDrill
T3C0.0394
; #@! TA.AperFunction,Plated,PTH,ComponentDrill
T4C0.0591
; #@! TA.AperFunction,Plated,PTH,ComponentDrill
T5C0.1181
; #@! TA.AperFunction,Plated,PTH,ComponentDrill
T6C0.1200
%
G90
G05
T1
X5.3723Y-2.8051
X5.3875Y-1.6625
X5.472Y-2.8051
X5.5135Y-3.7185
X5.5625Y-1.9375
X5.6175Y-2.2838
X5.6246Y-3.5551
X5.6246Y-3.7498
X5.6707Y-3.4206
X5.6875Y-1.9375
X5.7496Y-3.4998
X5.772Y-4.0679
X5.7812Y-2.3125
X5.8098Y-4.0679
X5.8141Y-3.9392
X5.8434Y-3.7185
X5.8525Y-1.6625
X5.8746Y-2.2499
X5.8746Y-3.8123
X5.8746Y-3.8488
X5.9884Y-3.5551
X6.0053Y-2.3124
X6.0312Y-3.7188
X6.0621Y-2.2499
X6.1282Y-2.8051
X6.1578Y-3.6742
X6.1578Y-3.7128
X6.1578Y-3.75
X6.2138Y-2.8051
X6.2165Y-3.75
X6.3255Y-3.5551
X6.3446Y-3.6873
X6.4108Y-3.6873
X6.411Y-3.5551
T3
X1.2141Y-1.6619
X1.2141Y-2.2328
X1.3125Y-2.2328
X1.4109Y-1.6619
X1.4109Y-2.2328
X9.8341Y-1.6619
X9.8341Y-2.2328
X9.9325Y-2.2328
X10.0309Y-1.6619
X10.0309Y-2.2328
T5
X1.1625Y-1.8375
X1.1625Y-2.5875
X1.2525Y-4.8375
X1.2535Y-3.3375
X1.3495Y-4.0875
X1.4125Y-1.7375
X1.4125Y-2.4875
X1.5025Y-4.7375
X1.5035Y-3.2375
X1.5995Y-3.9875
X1.9125Y-2.5875
X2.0965Y-4.8375
X2.0975Y-3.3375
X2.1Y-1.8375
X2.1625Y-2.4875
X2.2875Y-4.0875
X2.3465Y-4.7375
X2.3475Y-3.2375
X2.35Y-1.7375
X2.5375Y-3.9875
X2.6625Y-2.5875
X2.8475Y-1.8375
X2.8475Y-3.3375
X2.9125Y-2.4875
X2.9405Y-4.8375
X3.0375Y-4.0875
X3.0975Y-1.7375
X3.0975Y-3.2375
X3.1905Y-4.7375
X3.2875Y-3.9875
X3.4125Y-2.5875
X3.5975Y-1.8375
X3.5975Y-3.3375
X3.6625Y-2.4875
X3.7875Y-4.0875
X3.8475Y-1.7375
X3.8475Y-3.2375
X4.0375Y-3.9875
X4.1625Y-2.5875
X4.3475Y-1.8375
X4.3475Y-3.3375
X4.4125Y-2.4875
X4.4435Y-4.8375
X4.5375Y-4.0875
X4.5975Y-1.7375
X4.5975Y-3.2375
X4.6935Y-4.7375
X4.7875Y-3.9875
X4.9125Y-2.5875
X5.0975Y-3.3375
X5.1475Y-2.1375
X5.1625Y-2.4875
X5.2875Y-4.0875
X5.3475Y-3.2375
X5.3975Y-2.0375
X5.5375Y-3.9875
X5.6625Y-2.5875
X5.6625Y-4.8375
X5.8475Y-3.3375
X5.8975Y-2.1375
X5.9125Y-2.4875
X5.9125Y-4.7375
X6.0375Y-4.0875
X6.0975Y-3.2375
X6.1475Y-2.0375
X6.2875Y-3.9875
X6.3175Y-4.8375
X6.4125Y-2.5875
X6.5675Y-4.7375
X6.5975Y-1.8375
X6.5975Y-3.3375
X6.6625Y-2.4875
X6.7875Y-4.0875
X6.8475Y-1.7375
X6.8475Y-3.2375
X7.0375Y-3.9875
X7.1625Y-2.5875
X7.3475Y-1.8375
X7.3475Y-3.3375
X7.4125Y-2.4875
X7.5375Y-4.0875
X7.5375Y-4.8375
X7.5975Y-1.7375
X7.5975Y-3.2375
X7.7875Y-3.9875
X7.7875Y-4.7375
X7.9125Y-2.5875
X8.0975Y-1.8375
X8.0975Y-3.3375
X8.1625Y-2.4875
X8.2875Y-4.0875
X8.2875Y-4.8375
X8.3475Y-1.7375
X8.3475Y-3.2375
X8.5375Y-3.9875
X8.5375Y-4.7375
X8.6625Y-2.5875
X8.8475Y-1.8375
X8.8475Y-3.3375
X8.9125Y-2.4875
X9.0375Y-4.0875
X9.0375Y-4.8375
X9.0975Y-1.7375
X9.0975Y-3.2375
X9.2875Y-3.9875
X9.2875Y-4.7375
X9.5995Y-2.5875
X9.6915Y-3.3375
X9.7865Y-1.8375
X9.7875Y-4.0875
X9.7875Y-4.8375
X9.8495Y-2.4875
X9.9415Y-3.2375
X10.0365Y-1.7375
X10.0375Y-3.9875
X10.0375Y-4.7375
T6
X3.9375Y-5.2125
X4.125Y-5.2125
X5.0625Y-5.2125
X6.0Y-5.2125
X6.9375Y-5.2125
X7.6875Y-5.2125
T2
G00X5.4525Y-1.5844
M15
G01X5.4525Y-1.608
M16
G05
G00X5.4525Y-1.7391
M15
G01X5.4525Y-1.7824
M16
G05
G00X5.7926Y-1.5844
M15
G01X5.7926Y-1.608
M16
G05
G00X5.7926Y-1.7391
M15
G01X5.7926Y-1.7824
M16
G05
T4
G00X1.092Y-1.9631
M15
G01X1.092Y-1.9119
M16
G05
G00X1.533Y-1.9631
M15
G01X1.533Y-1.9119
M16
G05
G00X9.712Y-1.9631
M15
G01X9.712Y-1.9119
M16
G05
G00X10.153Y-1.9631
M15
G01X10.153Y-1.9119
M16
G05
M30
