%TF.GenerationSoftware,KiCad,Pcbnew,8.0.9*%
%TF.CreationDate,2026-03-25T14:18:42+01:00*%
%TF.ProjectId,the PETER keyboard STM,74686520-5045-4544-9552-206b6579626f,rev?*%
%TF.SameCoordinates,Original*%
%TF.FileFunction,Copper,L2,Bot*%
%TF.FilePolarity,Positive*%
%FSLAX46Y46*%
G04 Gerber Fmt 4.6, Leading zero omitted, Abs format (unit mm)*
G04 Created by KiCad (PCBNEW 8.0.9) date 2026-03-25 14:18:42*
%MOMM*%
%LPD*%
G01*
G04 APERTURE LIST*
G04 Aperture macros list*
%AMRoundRect*
0 Rectangle with rounded corners*
0 $1 Rounding radius*
0 $2 $3 $4 $5 $6 $7 $8 $9 X,Y pos of 4 corners*
0 Add a 4 corners polygon primitive as box body*
4,1,4,$2,$3,$4,$5,$6,$7,$8,$9,$2,$3,0*
0 Add four circle primitives for the rounded corners*
1,1,$1+$1,$2,$3*
1,1,$1+$1,$4,$5*
1,1,$1+$1,$6,$7*
1,1,$1+$1,$8,$9*
0 Add four rect primitives between the rounded corners*
20,1,$1+$1,$2,$3,$4,$5,0*
20,1,$1+$1,$4,$5,$6,$7,0*
20,1,$1+$1,$6,$7,$8,$9,0*
20,1,$1+$1,$8,$9,$2,$3,0*%
G04 Aperture macros list end*
%TA.AperFunction,ComponentPad*%
%ADD10C,2.000000*%
%TD*%
%TA.AperFunction,ComponentPad*%
%ADD11RoundRect,0.500000X0.500000X-0.500000X0.500000X0.500000X-0.500000X0.500000X-0.500000X-0.500000X0*%
%TD*%
%TA.AperFunction,ComponentPad*%
%ADD12RoundRect,0.550000X0.550000X-1.150000X0.550000X1.150000X-0.550000X1.150000X-0.550000X-1.150000X0*%
%TD*%
%TA.AperFunction,ComponentPad*%
%ADD13C,4.000000*%
%TD*%
%TA.AperFunction,SMDPad,CuDef*%
%ADD14R,1.100000X1.100000*%
%TD*%
%TA.AperFunction,ComponentPad*%
%ADD15C,3.300000*%
%TD*%
%TA.AperFunction,SMDPad,CuDef*%
%ADD16R,1.650000X2.500000*%
%TD*%
%TA.AperFunction,SMDPad,CuDef*%
%ADD17RoundRect,0.250000X1.025000X1.000000X-1.025000X1.000000X-1.025000X-1.000000X1.025000X-1.000000X0*%
%TD*%
%TA.AperFunction,SMDPad,CuDef*%
%ADD18RoundRect,0.140000X-0.140000X-0.170000X0.140000X-0.170000X0.140000X0.170000X-0.140000X0.170000X0*%
%TD*%
%TA.AperFunction,SMDPad,CuDef*%
%ADD19RoundRect,0.150000X0.150000X-0.512500X0.150000X0.512500X-0.150000X0.512500X-0.150000X-0.512500X0*%
%TD*%
%TA.AperFunction,SMDPad,CuDef*%
%ADD20R,0.600000X1.450000*%
%TD*%
%TA.AperFunction,SMDPad,CuDef*%
%ADD21R,0.300000X1.450000*%
%TD*%
%TA.AperFunction,ComponentPad*%
%ADD22O,1.000000X1.600000*%
%TD*%
%TA.AperFunction,ComponentPad*%
%ADD23O,1.000000X2.100000*%
%TD*%
%TA.AperFunction,SMDPad,CuDef*%
%ADD24RoundRect,0.075000X0.521491X-0.415425X-0.415425X0.521491X-0.521491X0.415425X0.415425X-0.521491X0*%
%TD*%
%TA.AperFunction,SMDPad,CuDef*%
%ADD25RoundRect,0.075000X0.521491X0.415425X0.415425X0.521491X-0.521491X-0.415425X-0.415425X-0.521491X0*%
%TD*%
%TA.AperFunction,SMDPad,CuDef*%
%ADD26RoundRect,0.140000X-0.170000X0.140000X-0.170000X-0.140000X0.170000X-0.140000X0.170000X0.140000X0*%
%TD*%
%TA.AperFunction,SMDPad,CuDef*%
%ADD27RoundRect,0.250000X-0.375000X-0.625000X0.375000X-0.625000X0.375000X0.625000X-0.375000X0.625000X0*%
%TD*%
%TA.AperFunction,SMDPad,CuDef*%
%ADD28RoundRect,0.250000X-1.025000X-1.000000X1.025000X-1.000000X1.025000X1.000000X-1.025000X1.000000X0*%
%TD*%
%TA.AperFunction,SMDPad,CuDef*%
%ADD29RoundRect,0.140000X0.219203X0.021213X0.021213X0.219203X-0.219203X-0.021213X-0.021213X-0.219203X0*%
%TD*%
%TA.AperFunction,SMDPad,CuDef*%
%ADD30RoundRect,0.135000X-0.185000X0.135000X-0.185000X-0.135000X0.185000X-0.135000X0.185000X0.135000X0*%
%TD*%
%TA.AperFunction,SMDPad,CuDef*%
%ADD31RoundRect,0.150000X0.587500X0.150000X-0.587500X0.150000X-0.587500X-0.150000X0.587500X-0.150000X0*%
%TD*%
%TA.AperFunction,SMDPad,CuDef*%
%ADD32RoundRect,0.225000X0.375000X-0.225000X0.375000X0.225000X-0.375000X0.225000X-0.375000X-0.225000X0*%
%TD*%
%TA.AperFunction,SMDPad,CuDef*%
%ADD33RoundRect,0.140000X0.140000X0.170000X-0.140000X0.170000X-0.140000X-0.170000X0.140000X-0.170000X0*%
%TD*%
%TA.AperFunction,SMDPad,CuDef*%
%ADD34RoundRect,0.200000X0.200000X0.800000X-0.200000X0.800000X-0.200000X-0.800000X0.200000X-0.800000X0*%
%TD*%
%TA.AperFunction,ViaPad*%
%ADD35C,0.800000*%
%TD*%
%TA.AperFunction,Conductor*%
%ADD36C,0.500000*%
%TD*%
%TA.AperFunction,Conductor*%
%ADD37C,0.250000*%
%TD*%
%TA.AperFunction,Conductor*%
%ADD38C,0.254000*%
%TD*%
%TA.AperFunction,Conductor*%
%ADD39C,0.350000*%
%TD*%
%TA.AperFunction,Conductor*%
%ADD40C,0.200000*%
%TD*%
G04 APERTURE END LIST*
D10*
%TO.P,SW1,A,A*%
%TO.N,ROTARY_A*%
X30837500Y-56712500D03*
%TO.P,SW1,B,B*%
%TO.N,ROTARY_B*%
X35837500Y-56712500D03*
D11*
%TO.P,SW1,C,C*%
%TO.N,GND*%
X33337500Y-56712500D03*
D12*
%TO.P,SW1,MP*%
%TO.N,N/C*%
X27737500Y-49212500D03*
X38937500Y-49212500D03*
D10*
%TO.P,SW1,S1,S1*%
%TO.N,Net-(D1-A)*%
X35837500Y-42212500D03*
%TO.P,SW1,S2,S2*%
%TO.N,COL0*%
X30837500Y-42212500D03*
%TD*%
D13*
%TO.P,S2,*%
%TO.N,*%
X176212500Y-132397500D03*
X152400000Y-132397500D03*
%TD*%
%TO.P,S3,*%
%TO.N,*%
X128587500Y-132397500D03*
X104775000Y-132397500D03*
%TD*%
D10*
%TO.P,SW12,A,A*%
%TO.N,ROTARY_D*%
X249785500Y-56712500D03*
%TO.P,SW12,B,B*%
%TO.N,ROTARY_C*%
X254785500Y-56712500D03*
D11*
%TO.P,SW12,C,C*%
%TO.N,GND*%
X252285500Y-56712500D03*
D12*
%TO.P,SW12,MP*%
%TO.N,N/C*%
X246685500Y-49212500D03*
X257885500Y-49212500D03*
D10*
%TO.P,SW12,S1,S1*%
%TO.N,Net-(D12-A)*%
X254785500Y-42212500D03*
%TO.P,SW12,S2,S2*%
%TO.N,COL11*%
X249785500Y-42212500D03*
%TD*%
D13*
%TO.P,S1,*%
%TO.N,*%
X195262500Y-132397500D03*
X100012500Y-132397500D03*
%TD*%
D14*
%TO.P,D40,1,K*%
%TO.N,ROW3*%
X107156250Y-109350000D03*
%TO.P,D40,2,A*%
%TO.N,Net-(D40-A)*%
X107156250Y-106550000D03*
%TD*%
D15*
%TO.P,MX56,1,COL*%
%TO.N,COL9*%
X210502500Y-122872500D03*
D16*
X208677500Y-122872500D03*
D17*
X206952500Y-122872500D03*
%TO.P,MX56,2,ROW*%
%TO.N,Net-(D56-A)*%
X220402500Y-120332500D03*
D16*
X218652500Y-120332500D03*
D15*
X216852500Y-120332500D03*
%TD*%
D14*
%TO.P,D28,1,K*%
%TO.N,ROW2*%
X102393750Y-90300000D03*
%TO.P,D28,2,A*%
%TO.N,Net-(D28-A)*%
X102393750Y-87500000D03*
%TD*%
D18*
%TO.P,C5,1*%
%TO.N,+3V3*%
X154813675Y-94306283D03*
%TO.P,C5,2*%
%TO.N,GND*%
X155773675Y-94306283D03*
%TD*%
D15*
%TO.P,MX51,1,COL*%
%TO.N,COL2*%
X74688700Y-122872500D03*
D16*
X72863700Y-122872500D03*
D17*
X71138700Y-122872500D03*
%TO.P,MX51,2,ROW*%
%TO.N,Net-(D51-A)*%
X84588700Y-120332500D03*
D16*
X82838700Y-120332500D03*
D15*
X81038700Y-120332500D03*
%TD*%
D18*
%TO.P,C6,1*%
%TO.N,+3V3*%
X154781250Y-95250000D03*
%TO.P,C6,2*%
%TO.N,GND*%
X155741250Y-95250000D03*
%TD*%
D15*
%TO.P,MX52,1,COL*%
%TO.N,COL4*%
X112864900Y-122872500D03*
D16*
X111039900Y-122872500D03*
D17*
X109314900Y-122872500D03*
%TO.P,MX52,2,ROW*%
%TO.N,Net-(D52-A)*%
X122764900Y-120332500D03*
D16*
X121014900Y-120332500D03*
D15*
X119214900Y-120332500D03*
%TD*%
%TO.P,MX13,1,COL*%
%TO.N,COL0*%
X29527500Y-65722500D03*
D16*
X27702500Y-65722500D03*
D17*
X25977500Y-65722500D03*
%TO.P,MX13,2,ROW*%
%TO.N,Net-(D13-A)*%
X39427500Y-63182500D03*
D16*
X37677500Y-63182500D03*
D15*
X35877500Y-63182500D03*
%TD*%
D19*
%TO.P,U4,1,I/O1*%
%TO.N,D_P*%
X143634500Y-57208000D03*
%TO.P,U4,2,GND*%
%TO.N,GND*%
X142684500Y-57208000D03*
%TO.P,U4,3,I/O2*%
%TO.N,D_N*%
X141734500Y-57208000D03*
%TO.P,U4,4,I/O2*%
%TO.N,D_USB_N*%
X141734500Y-54933000D03*
%TO.P,U4,5,VBUS*%
%TO.N,VBUS*%
X142684500Y-54933000D03*
%TO.P,U4,6,I/O1*%
%TO.N,D_USB_P*%
X143634500Y-54933000D03*
%TD*%
D20*
%TO.P,J3,A1,GND*%
%TO.N,GND*%
X139562500Y-45637500D03*
%TO.P,J3,A4,VBUS*%
%TO.N,VBUS*%
X140362500Y-45637500D03*
D21*
%TO.P,J3,A5,CC1*%
%TO.N,/CC1*%
X141562500Y-45637500D03*
%TO.P,J3,A6,D+*%
%TO.N,D_USB_P*%
X142562500Y-45637500D03*
%TO.P,J3,A7,D-*%
%TO.N,D_USB_N*%
X143062500Y-45637500D03*
%TO.P,J3,A8,SBU1*%
%TO.N,unconnected-(J3-SBU1-PadA8)*%
X144062500Y-45637500D03*
D20*
%TO.P,J3,A9,VBUS*%
%TO.N,VBUS*%
X145262500Y-45637500D03*
%TO.P,J3,A12,GND*%
%TO.N,GND*%
X146062500Y-45637500D03*
%TO.P,J3,B1,GND*%
X146062500Y-45637500D03*
%TO.P,J3,B4,VBUS*%
%TO.N,VBUS*%
X145262500Y-45637500D03*
D21*
%TO.P,J3,B5,CC2*%
%TO.N,/CC2*%
X144562500Y-45637500D03*
%TO.P,J3,B6,D+*%
%TO.N,D_USB_P*%
X143562500Y-45637500D03*
%TO.P,J3,B7,D-*%
%TO.N,D_USB_N*%
X142062500Y-45637500D03*
%TO.P,J3,B8,SBU2*%
%TO.N,unconnected-(J3-SBU2-PadB8)*%
X141062500Y-45637500D03*
D20*
%TO.P,J3,B9,VBUS*%
%TO.N,VBUS*%
X140362500Y-45637500D03*
%TO.P,J3,B12,GND*%
%TO.N,GND*%
X139562500Y-45637500D03*
D22*
%TO.P,J3,S1,SHIELD*%
X138492500Y-40542500D03*
D23*
X138492500Y-44722500D03*
D22*
X147132500Y-40542500D03*
D23*
X147132500Y-44722500D03*
%TD*%
D14*
%TO.P,D21,1,K*%
%TO.N,ROW1*%
X192881250Y-71250000D03*
%TO.P,D21,2,A*%
%TO.N,Net-(D21-A)*%
X192881250Y-68450000D03*
%TD*%
%TO.P,D26,1,K*%
%TO.N,ROW2*%
X64293750Y-90300000D03*
%TO.P,D26,2,A*%
%TO.N,Net-(D26-A)*%
X64293750Y-87500000D03*
%TD*%
%TO.P,D9,1,K*%
%TO.N,ROW0*%
X197643750Y-52200000D03*
%TO.P,D9,2,A*%
%TO.N,Net-(D9-A)*%
X197643750Y-49400000D03*
%TD*%
D24*
%TO.P,U2,1,VBAT*%
%TO.N,+3V3*%
X153319126Y-95455038D03*
%TO.P,U2,2,PC13*%
%TO.N,ROTARY_D*%
X152965572Y-95808592D03*
%TO.P,U2,3,PC14*%
%TO.N,ROTARY_C*%
X152612019Y-96162145D03*
%TO.P,U2,4,PC15*%
%TO.N,COL11*%
X152258465Y-96515699D03*
%TO.P,U2,5,PF0*%
%TO.N,COL10*%
X151904912Y-96869252D03*
%TO.P,U2,6,PF1*%
%TO.N,COL9*%
X151551359Y-97222805D03*
%TO.P,U2,7,NRST*%
%TO.N,NRST*%
X151197805Y-97576359D03*
%TO.P,U2,8,VSSA*%
%TO.N,GND*%
X150844252Y-97929912D03*
%TO.P,U2,9,VDDA*%
%TO.N,+3V3*%
X150490699Y-98283465D03*
%TO.P,U2,10,PA0*%
%TO.N,COL8*%
X150137145Y-98637019D03*
%TO.P,U2,11,PA1*%
%TO.N,COL7*%
X149783592Y-98990572D03*
%TO.P,U2,12,PA2*%
%TO.N,COL6*%
X149430038Y-99344126D03*
D25*
%TO.P,U2,13,PA3*%
%TO.N,unconnected-(U2-PA3-Pad13)*%
X147432462Y-99344126D03*
%TO.P,U2,14,PA4*%
%TO.N,unconnected-(U2-PA4-Pad14)*%
X147078908Y-98990572D03*
%TO.P,U2,15,PA5*%
%TO.N,unconnected-(U2-PA5-Pad15)*%
X146725355Y-98637019D03*
%TO.P,U2,16,PA6*%
%TO.N,unconnected-(U2-PA6-Pad16)*%
X146371801Y-98283465D03*
%TO.P,U2,17,PA7*%
%TO.N,COL5*%
X146018248Y-97929912D03*
%TO.P,U2,18,PB0*%
%TO.N,COL4*%
X145664695Y-97576359D03*
%TO.P,U2,19,PB1*%
%TO.N,COL3*%
X145311141Y-97222805D03*
%TO.P,U2,20,PB2*%
%TO.N,COL2*%
X144957588Y-96869252D03*
%TO.P,U2,21,PB10*%
%TO.N,COL1*%
X144604035Y-96515699D03*
%TO.P,U2,22,PB11*%
%TO.N,COL0*%
X144250481Y-96162145D03*
%TO.P,U2,23,VSS*%
%TO.N,GND*%
X143896928Y-95808592D03*
%TO.P,U2,24,VDD*%
%TO.N,+3V3*%
X143543374Y-95455038D03*
D24*
%TO.P,U2,25,PB12*%
%TO.N,ROW3*%
X143543374Y-93457462D03*
%TO.P,U2,26,PB13*%
%TO.N,ROW4*%
X143896928Y-93103908D03*
%TO.P,U2,27,PB14*%
%TO.N,ROW0*%
X144250481Y-92750355D03*
%TO.P,U2,28,PB15*%
%TO.N,ROW1*%
X144604035Y-92396801D03*
%TO.P,U2,29,PA8*%
%TO.N,ROW2*%
X144957588Y-92043248D03*
%TO.P,U2,30,PA9*%
%TO.N,ROTARY_A*%
X145311141Y-91689695D03*
%TO.P,U2,31,PA10*%
%TO.N,ROTARY_B*%
X145664695Y-91336141D03*
%TO.P,U2,32,PA11*%
%TO.N,D_N*%
X146018248Y-90982588D03*
%TO.P,U2,33,PA12*%
%TO.N,D_P*%
X146371801Y-90629035D03*
%TO.P,U2,34,PA13*%
%TO.N,unconnected-(U2-PA13-Pad34)*%
X146725355Y-90275481D03*
%TO.P,U2,35,VSS*%
%TO.N,GND*%
X147078908Y-89921928D03*
%TO.P,U2,36,VDDIO2*%
%TO.N,+3V3*%
X147432462Y-89568374D03*
D25*
%TO.P,U2,37,PA14*%
%TO.N,unconnected-(U2-PA14-Pad37)*%
X149430038Y-89568374D03*
%TO.P,U2,38,PA15*%
%TO.N,unconnected-(U2-PA15-Pad38)*%
X149783592Y-89921928D03*
%TO.P,U2,39,PB3*%
%TO.N,unconnected-(U2-PB3-Pad39)*%
X150137145Y-90275481D03*
%TO.P,U2,40,PB4*%
%TO.N,unconnected-(U2-PB4-Pad40)*%
X150490699Y-90629035D03*
%TO.P,U2,41,PB5*%
%TO.N,unconnected-(U2-PB5-Pad41)*%
X150844252Y-90982588D03*
%TO.P,U2,42,PB6*%
%TO.N,unconnected-(U2-PB6-Pad42)*%
X151197805Y-91336141D03*
%TO.P,U2,43,PB7*%
%TO.N,unconnected-(U2-PB7-Pad43)*%
X151551359Y-91689695D03*
%TO.P,U2,44,BOOT0*%
%TO.N,BOOT0*%
X151904912Y-92043248D03*
%TO.P,U2,45,PB8*%
%TO.N,unconnected-(U2-PB8-Pad45)*%
X152258465Y-92396801D03*
%TO.P,U2,46,PB9*%
%TO.N,unconnected-(U2-PB9-Pad46)*%
X152612019Y-92750355D03*
%TO.P,U2,47,VSS*%
%TO.N,GND*%
X152965572Y-93103908D03*
%TO.P,U2,48,VDD*%
%TO.N,+3V3*%
X153319126Y-93457462D03*
%TD*%
D26*
%TO.P,C7,1*%
%TO.N,NRST*%
X147567809Y-101612552D03*
%TO.P,C7,2*%
%TO.N,GND*%
X147567809Y-102572552D03*
%TD*%
D14*
%TO.P,D50,1,K*%
%TO.N,ROW4*%
X64093250Y-128400000D03*
%TO.P,D50,2,A*%
%TO.N,Net-(D50-A)*%
X64093250Y-125600000D03*
%TD*%
D15*
%TO.P,MX37,1,COL*%
%TO.N,COL0*%
X34277300Y-103822500D03*
D16*
X32452300Y-103822500D03*
D17*
X30727300Y-103822500D03*
%TO.P,MX37,2,ROW*%
%TO.N,Net-(D37-A)*%
X44177300Y-101282500D03*
D16*
X42427300Y-101282500D03*
D15*
X40627300Y-101282500D03*
%TD*%
%TO.P,MX19,1,COL*%
%TO.N,COL6*%
X143827500Y-65722500D03*
D16*
X142002500Y-65722500D03*
D17*
X140277500Y-65722500D03*
%TO.P,MX19,2,ROW*%
%TO.N,Net-(D19-A)*%
X153727500Y-63182500D03*
D16*
X151977500Y-63182500D03*
D15*
X150177500Y-63182500D03*
%TD*%
D14*
%TO.P,D44,1,K*%
%TO.N,ROW3*%
X183356250Y-109350000D03*
%TO.P,D44,2,A*%
%TO.N,Net-(D44-A)*%
X183356250Y-106550000D03*
%TD*%
D27*
%TO.P,F1,1*%
%TO.N,VBUS*%
X141284500Y-59531250D03*
%TO.P,F1,2*%
%TO.N,+5V*%
X144084500Y-59531250D03*
%TD*%
D15*
%TO.P,MX54,1,COL*%
%TO.N,COL7*%
X160464500Y-122872500D03*
D16*
X158639500Y-122872500D03*
D17*
X156914500Y-122872500D03*
%TO.P,MX54,2,ROW*%
%TO.N,Net-(D54-A)*%
X170364500Y-120332500D03*
D16*
X168614500Y-120332500D03*
D15*
X166814500Y-120332500D03*
%TD*%
D14*
%TO.P,D45,1,K*%
%TO.N,ROW3*%
X202406250Y-109350000D03*
%TO.P,D45,2,A*%
%TO.N,Net-(D45-A)*%
X202406250Y-106550000D03*
%TD*%
D15*
%TO.P,MX7,1,COL*%
%TO.N,COL6*%
X156146500Y-51752500D03*
D16*
X157971500Y-51752500D03*
D28*
X159696500Y-51752500D03*
%TO.P,MX7,2,ROW*%
%TO.N,Net-(D7-A)*%
X146246500Y-54292500D03*
D16*
X147996500Y-54292500D03*
D15*
X149796500Y-54292500D03*
%TD*%
D29*
%TO.P,C1,1*%
%TO.N,+3V3*%
X145385303Y-88219364D03*
%TO.P,C1,2*%
%TO.N,GND*%
X144706481Y-87540542D03*
%TD*%
D14*
%TO.P,D17,1,K*%
%TO.N,ROW1*%
X116681250Y-71250000D03*
%TO.P,D17,2,A*%
%TO.N,Net-(D17-A)*%
X116681250Y-68450000D03*
%TD*%
D30*
%TO.P,R2,1*%
%TO.N,/CC1*%
X141287500Y-47398750D03*
%TO.P,R2,2*%
%TO.N,GND*%
X141287500Y-48418750D03*
%TD*%
D14*
%TO.P,D52,1,K*%
%TO.N,ROW4*%
X123825050Y-128400000D03*
%TO.P,D52,2,A*%
%TO.N,Net-(D52-A)*%
X123825050Y-125600000D03*
%TD*%
D15*
%TO.P,MX46,1,COL*%
%TO.N,COL9*%
X210502500Y-103822500D03*
D16*
X208677500Y-103822500D03*
D17*
X206952500Y-103822500D03*
%TO.P,MX46,2,ROW*%
%TO.N,Net-(D46-A)*%
X220402500Y-101282500D03*
D16*
X218652500Y-101282500D03*
D15*
X216852500Y-101282500D03*
%TD*%
D14*
%TO.P,D58,1,K*%
%TO.N,ROW4*%
X259556250Y-128400000D03*
%TO.P,D58,2,A*%
%TO.N,Net-(D58-A)*%
X259556250Y-125600000D03*
%TD*%
%TO.P,D38,1,K*%
%TO.N,ROW3*%
X69056250Y-109350000D03*
%TO.P,D38,2,A*%
%TO.N,Net-(D38-A)*%
X69056250Y-106550000D03*
%TD*%
D15*
%TO.P,MX48,1,COL*%
%TO.N,COL11*%
X248602500Y-103822500D03*
D16*
X246777500Y-103822500D03*
D17*
X245052500Y-103822500D03*
%TO.P,MX48,2,ROW*%
%TO.N,Net-(D48-A)*%
X258502500Y-101282500D03*
D16*
X256752500Y-101282500D03*
D15*
X254952500Y-101282500D03*
%TD*%
%TO.P,MX14,1,COL*%
%TO.N,COL1*%
X48577500Y-65722500D03*
D16*
X46752500Y-65722500D03*
D17*
X45027500Y-65722500D03*
%TO.P,MX14,2,ROW*%
%TO.N,Net-(D14-A)*%
X58477500Y-63182500D03*
D16*
X56727500Y-63182500D03*
D15*
X54927500Y-63182500D03*
%TD*%
%TO.P,MX12,1,COL*%
%TO.N,COL11*%
X248577100Y-46672500D03*
D16*
X246752100Y-46672500D03*
D17*
X245027100Y-46672500D03*
%TO.P,MX12,2,ROW*%
%TO.N,Net-(D12-A)*%
X258477100Y-44132500D03*
D16*
X256727100Y-44132500D03*
D15*
X254927100Y-44132500D03*
%TD*%
%TO.P,MX30,1,COL*%
%TO.N,COL5*%
X129476500Y-84772500D03*
D16*
X127651500Y-84772500D03*
D17*
X125926500Y-84772500D03*
%TO.P,MX30,2,ROW*%
%TO.N,Net-(D30-A)*%
X139376500Y-82232500D03*
D16*
X137626500Y-82232500D03*
D15*
X135826500Y-82232500D03*
%TD*%
D14*
%TO.P,D35,1,K*%
%TO.N,ROW2*%
X235743750Y-90300000D03*
%TO.P,D35,2,A*%
%TO.N,Net-(D35-A)*%
X235743750Y-87500000D03*
%TD*%
D15*
%TO.P,MX15,1,COL*%
%TO.N,COL2*%
X67627500Y-65722500D03*
D16*
X65802500Y-65722500D03*
D17*
X64077500Y-65722500D03*
%TO.P,MX15,2,ROW*%
%TO.N,Net-(D15-A)*%
X77527500Y-63182500D03*
D16*
X75777500Y-63182500D03*
D15*
X73977500Y-63182500D03*
%TD*%
D14*
%TO.P,D23,1,K*%
%TO.N,ROW1*%
X230981250Y-71281800D03*
%TO.P,D23,2,A*%
%TO.N,Net-(D23-A)*%
X230981250Y-68481800D03*
%TD*%
%TO.P,D42,1,K*%
%TO.N,ROW3*%
X145256250Y-109350000D03*
%TO.P,D42,2,A*%
%TO.N,Net-(D42-A)*%
X145256250Y-106550000D03*
%TD*%
%TO.P,D47,1,K*%
%TO.N,ROW3*%
X240506250Y-109350000D03*
%TO.P,D47,2,A*%
%TO.N,Net-(D47-A)*%
X240506250Y-106550000D03*
%TD*%
%TO.P,D4,1,K*%
%TO.N,ROW0*%
X102393750Y-52200000D03*
%TO.P,D4,2,A*%
%TO.N,Net-(D4-A)*%
X102393750Y-49400000D03*
%TD*%
%TO.P,D3,1,K*%
%TO.N,ROW0*%
X83343750Y-52200000D03*
%TO.P,D3,2,A*%
%TO.N,Net-(D3-A)*%
X83343750Y-49400000D03*
%TD*%
D31*
%TO.P,U3,1,GND*%
%TO.N,GND*%
X152534350Y-57783700D03*
%TO.P,U3,2,VO*%
%TO.N,+3V3*%
X152534350Y-59683700D03*
%TO.P,U3,3,VI*%
%TO.N,+5V*%
X150659350Y-58733700D03*
%TD*%
D15*
%TO.P,MX26,1,COL*%
%TO.N,COL1*%
X53276500Y-84772500D03*
D16*
X51451500Y-84772500D03*
D17*
X49726500Y-84772500D03*
%TO.P,MX26,2,ROW*%
%TO.N,Net-(D26-A)*%
X63176500Y-82232500D03*
D16*
X61426500Y-82232500D03*
D15*
X59626500Y-82232500D03*
%TD*%
D14*
%TO.P,D27,1,K*%
%TO.N,ROW2*%
X83343750Y-90300000D03*
%TO.P,D27,2,A*%
%TO.N,Net-(D27-A)*%
X83343750Y-87500000D03*
%TD*%
%TO.P,D12,1,K*%
%TO.N,ROW0*%
X242093750Y-52200000D03*
%TO.P,D12,2,A*%
%TO.N,Net-(D12-A)*%
X242093750Y-49400000D03*
%TD*%
D15*
%TO.P,MX11,1,COL*%
%TO.N,COL10*%
X224726500Y-46672500D03*
D16*
X222901500Y-46672500D03*
D17*
X221176500Y-46672500D03*
%TO.P,MX11,2,ROW*%
%TO.N,Net-(D11-A)*%
X234626500Y-44132500D03*
D16*
X232876500Y-44132500D03*
D15*
X231076500Y-44132500D03*
%TD*%
%TO.P,MX45,1,COL*%
%TO.N,COL8*%
X191452500Y-103822500D03*
D16*
X189627500Y-103822500D03*
D17*
X187902500Y-103822500D03*
%TO.P,MX45,2,ROW*%
%TO.N,Net-(D45-A)*%
X201352500Y-101282500D03*
D16*
X199602500Y-101282500D03*
D15*
X197802500Y-101282500D03*
%TD*%
%TO.P,MX18,1,COL*%
%TO.N,COL5*%
X124777500Y-65722500D03*
D16*
X122952500Y-65722500D03*
D17*
X121227500Y-65722500D03*
%TO.P,MX18,2,ROW*%
%TO.N,Net-(D18-A)*%
X134677500Y-63182500D03*
D16*
X132927500Y-63182500D03*
D15*
X131127500Y-63182500D03*
%TD*%
D14*
%TO.P,D1,1,K*%
%TO.N,ROW0*%
X41275000Y-52200000D03*
%TO.P,D1,2,A*%
%TO.N,Net-(D1-A)*%
X41275000Y-49400000D03*
%TD*%
D15*
%TO.P,MX32,1,COL*%
%TO.N,COL7*%
X167576500Y-84772500D03*
D16*
X165751500Y-84772500D03*
D17*
X164026500Y-84772500D03*
%TO.P,MX32,2,ROW*%
%TO.N,Net-(D32-A)*%
X177476500Y-82232500D03*
D16*
X175726500Y-82232500D03*
D15*
X173926500Y-82232500D03*
%TD*%
%TO.P,MX22,1,COL*%
%TO.N,COL9*%
X200977500Y-65722500D03*
D16*
X199152500Y-65722500D03*
D17*
X197427500Y-65722500D03*
%TO.P,MX22,2,ROW*%
%TO.N,Net-(D22-A)*%
X210877500Y-63182500D03*
D16*
X209127500Y-63182500D03*
D15*
X207327500Y-63182500D03*
%TD*%
D30*
%TO.P,R1,1*%
%TO.N,BOOT0*%
X157900140Y-93203487D03*
%TO.P,R1,2*%
%TO.N,GND*%
X157900140Y-94223487D03*
%TD*%
D15*
%TO.P,MX35,1,COL*%
%TO.N,COL10*%
X224726500Y-84772500D03*
D16*
X222901500Y-84772500D03*
D17*
X221176500Y-84772500D03*
%TO.P,MX35,2,ROW*%
%TO.N,Net-(D35-A)*%
X234626500Y-82232500D03*
D16*
X232876500Y-82232500D03*
D15*
X231076500Y-82232500D03*
%TD*%
D14*
%TO.P,D37,1,K*%
%TO.N,ROW3*%
X45243750Y-109350000D03*
%TO.P,D37,2,A*%
%TO.N,Net-(D37-A)*%
X45243750Y-106550000D03*
%TD*%
D15*
%TO.P,MX27,1,COL*%
%TO.N,COL2*%
X72326500Y-84772500D03*
D16*
X70501500Y-84772500D03*
D17*
X68776500Y-84772500D03*
%TO.P,MX27,2,ROW*%
%TO.N,Net-(D27-A)*%
X82226500Y-82232500D03*
D16*
X80476500Y-82232500D03*
D15*
X78676500Y-82232500D03*
%TD*%
%TO.P,MX43,1,COL*%
%TO.N,COL6*%
X153352500Y-103822500D03*
D16*
X151527500Y-103822500D03*
D17*
X149802500Y-103822500D03*
%TO.P,MX43,2,ROW*%
%TO.N,Net-(D43-A)*%
X163252500Y-101282500D03*
D16*
X161502500Y-101282500D03*
D15*
X159702500Y-101282500D03*
%TD*%
D14*
%TO.P,D39,1,K*%
%TO.N,ROW3*%
X88106250Y-109350000D03*
%TO.P,D39,2,A*%
%TO.N,Net-(D39-A)*%
X88106250Y-106550000D03*
%TD*%
%TO.P,D11,1,K*%
%TO.N,ROW0*%
X235743750Y-52200000D03*
%TO.P,D11,2,A*%
%TO.N,Net-(D11-A)*%
X235743750Y-49400000D03*
%TD*%
D15*
%TO.P,MX3,1,COL*%
%TO.N,COL2*%
X72326500Y-46672500D03*
D16*
X70501500Y-46672500D03*
D17*
X68776500Y-46672500D03*
%TO.P,MX3,2,ROW*%
%TO.N,Net-(D3-A)*%
X82226500Y-44132500D03*
D16*
X80476500Y-44132500D03*
D15*
X78676500Y-44132500D03*
%TD*%
D26*
%TO.P,C9,1*%
%TO.N,GND*%
X153978100Y-58253700D03*
%TO.P,C9,2*%
%TO.N,+3V3*%
X153978100Y-59213700D03*
%TD*%
D14*
%TO.P,D51,1,K*%
%TO.N,ROW4*%
X85693250Y-128400000D03*
%TO.P,D51,2,A*%
%TO.N,Net-(D51-A)*%
X85693250Y-125600000D03*
%TD*%
D30*
%TO.P,R3,1*%
%TO.N,/CC2*%
X144462500Y-47398750D03*
%TO.P,R3,2*%
%TO.N,GND*%
X144462500Y-48418750D03*
%TD*%
D15*
%TO.P,MX33,1,COL*%
%TO.N,COL8*%
X186626500Y-84772500D03*
D16*
X184801500Y-84772500D03*
D17*
X183076500Y-84772500D03*
%TO.P,MX33,2,ROW*%
%TO.N,Net-(D33-A)*%
X196526500Y-82232500D03*
D16*
X194776500Y-82232500D03*
D15*
X192976500Y-82232500D03*
%TD*%
D14*
%TO.P,D33,1,K*%
%TO.N,ROW2*%
X197643750Y-90300000D03*
%TO.P,D33,2,A*%
%TO.N,Net-(D33-A)*%
X197643750Y-87500000D03*
%TD*%
%TO.P,D7,1,K*%
%TO.N,ROW0*%
X155511500Y-45018500D03*
%TO.P,D7,2,A*%
%TO.N,Net-(D7-A)*%
X155511500Y-47818500D03*
%TD*%
%TO.P,D41,1,K*%
%TO.N,ROW3*%
X126206250Y-109350000D03*
%TO.P,D41,2,A*%
%TO.N,Net-(D41-A)*%
X126206250Y-106550000D03*
%TD*%
D15*
%TO.P,MX50,1,COL*%
%TO.N,COL1*%
X53251100Y-122872500D03*
D16*
X51426100Y-122872500D03*
D17*
X49701100Y-122872500D03*
%TO.P,MX50,2,ROW*%
%TO.N,Net-(D50-A)*%
X63151100Y-120332500D03*
D16*
X61401100Y-120332500D03*
D15*
X59601100Y-120332500D03*
%TD*%
D14*
%TO.P,D43,1,K*%
%TO.N,ROW3*%
X164306250Y-109350000D03*
%TO.P,D43,2,A*%
%TO.N,Net-(D43-A)*%
X164306250Y-106550000D03*
%TD*%
D15*
%TO.P,MX47,1,COL*%
%TO.N,COL10*%
X229552500Y-103822500D03*
D16*
X227727500Y-103822500D03*
D17*
X226002500Y-103822500D03*
%TO.P,MX47,2,ROW*%
%TO.N,Net-(D47-A)*%
X239452500Y-101282500D03*
D16*
X237702500Y-101282500D03*
D15*
X235902500Y-101282500D03*
%TD*%
D14*
%TO.P,D57,1,K*%
%TO.N,ROW4*%
X240506250Y-128400000D03*
%TO.P,D57,2,A*%
%TO.N,Net-(D57-A)*%
X240506250Y-125600000D03*
%TD*%
D15*
%TO.P,MX28,1,COL*%
%TO.N,COL3*%
X91376500Y-84772500D03*
D16*
X89551500Y-84772500D03*
D17*
X87826500Y-84772500D03*
%TO.P,MX28,2,ROW*%
%TO.N,Net-(D28-A)*%
X101276500Y-82232500D03*
D16*
X99526500Y-82232500D03*
D15*
X97726500Y-82232500D03*
%TD*%
D26*
%TO.P,C8,1*%
%TO.N,GND*%
X149215600Y-58253700D03*
%TO.P,C8,2*%
%TO.N,+5V*%
X149215600Y-59213700D03*
%TD*%
D14*
%TO.P,D13,1,K*%
%TO.N,ROW1*%
X40481250Y-71250000D03*
%TO.P,D13,2,A*%
%TO.N,Net-(D13-A)*%
X40481250Y-68450000D03*
%TD*%
%TO.P,D10,1,K*%
%TO.N,ROW0*%
X216693750Y-52200000D03*
%TO.P,D10,2,A*%
%TO.N,Net-(D10-A)*%
X216693750Y-49400000D03*
%TD*%
%TO.P,D16,1,K*%
%TO.N,ROW1*%
X97631250Y-71250000D03*
%TO.P,D16,2,A*%
%TO.N,Net-(D16-A)*%
X97631250Y-68450000D03*
%TD*%
D15*
%TO.P,MX6,1,COL*%
%TO.N,COL5*%
X137096500Y-51752500D03*
D16*
X138921500Y-51752500D03*
D28*
X140646500Y-51752500D03*
%TO.P,MX6,2,ROW*%
%TO.N,Net-(D6-A)*%
X127196500Y-54292500D03*
D16*
X128946500Y-54292500D03*
D15*
X130746500Y-54292500D03*
%TD*%
%TO.P,MX49,1,COL*%
%TO.N,COL0*%
X31813500Y-122872500D03*
D16*
X29988500Y-122872500D03*
D17*
X28263500Y-122872500D03*
%TO.P,MX49,2,ROW*%
%TO.N,Net-(D49-A)*%
X41713500Y-120332500D03*
D16*
X39963500Y-120332500D03*
D15*
X38163500Y-120332500D03*
%TD*%
%TO.P,MX10,1,COL*%
%TO.N,COL9*%
X205676500Y-46672500D03*
D16*
X203851500Y-46672500D03*
D17*
X202126500Y-46672500D03*
%TO.P,MX10,2,ROW*%
%TO.N,Net-(D10-A)*%
X215576500Y-44132500D03*
D16*
X213826500Y-44132500D03*
D15*
X212026500Y-44132500D03*
%TD*%
%TO.P,MX8,1,COL*%
%TO.N,COL7*%
X167576500Y-46672500D03*
D16*
X165751500Y-46672500D03*
D17*
X164026500Y-46672500D03*
%TO.P,MX8,2,ROW*%
%TO.N,Net-(D8-A)*%
X177476500Y-44132500D03*
D16*
X175726500Y-44132500D03*
D15*
X173926500Y-44132500D03*
%TD*%
D14*
%TO.P,D25,1,K*%
%TO.N,ROW2*%
X42862550Y-90300000D03*
%TO.P,D25,2,A*%
%TO.N,Net-(D25-A)*%
X42862550Y-87500000D03*
%TD*%
%TO.P,D32,1,K*%
%TO.N,ROW2*%
X178593750Y-90300000D03*
%TO.P,D32,2,A*%
%TO.N,Net-(D32-A)*%
X178593750Y-87500000D03*
%TD*%
%TO.P,D8,1,K*%
%TO.N,ROW0*%
X178593750Y-52200000D03*
%TO.P,D8,2,A*%
%TO.N,Net-(D8-A)*%
X178593750Y-49400000D03*
%TD*%
%TO.P,D48,1,K*%
%TO.N,ROW3*%
X259556250Y-109350000D03*
%TO.P,D48,2,A*%
%TO.N,Net-(D48-A)*%
X259556250Y-106550000D03*
%TD*%
%TO.P,D56,1,K*%
%TO.N,ROW4*%
X221456250Y-128400000D03*
%TO.P,D56,2,A*%
%TO.N,Net-(D56-A)*%
X221456250Y-125600000D03*
%TD*%
%TO.P,D30,1,K*%
%TO.N,ROW2*%
X140493750Y-90300000D03*
%TO.P,D30,2,A*%
%TO.N,Net-(D30-A)*%
X140493750Y-87500000D03*
%TD*%
%TO.P,D22,1,K*%
%TO.N,ROW1*%
X211931250Y-71250000D03*
%TO.P,D22,2,A*%
%TO.N,Net-(D22-A)*%
X211931250Y-68450000D03*
%TD*%
%TO.P,D53,1,K*%
%TO.N,ROW4*%
X154781250Y-128400000D03*
%TO.P,D53,2,A*%
%TO.N,Net-(D53-A)*%
X154781250Y-125600000D03*
%TD*%
%TO.P,D34,1,K*%
%TO.N,ROW2*%
X216693750Y-90300000D03*
%TO.P,D34,2,A*%
%TO.N,Net-(D34-A)*%
X216693750Y-87500000D03*
%TD*%
D15*
%TO.P,MX9,1,COL*%
%TO.N,COL8*%
X186626500Y-46672500D03*
D16*
X184801500Y-46672500D03*
D17*
X183076500Y-46672500D03*
%TO.P,MX9,2,ROW*%
%TO.N,Net-(D9-A)*%
X196526500Y-44132500D03*
D16*
X194776500Y-44132500D03*
D15*
X192976500Y-44132500D03*
%TD*%
D14*
%TO.P,D6,1,K*%
%TO.N,ROW0*%
X125412500Y-49400000D03*
%TO.P,D6,2,A*%
%TO.N,Net-(D6-A)*%
X125412500Y-52200000D03*
%TD*%
D15*
%TO.P,MX42,1,COL*%
%TO.N,COL5*%
X134302500Y-103822500D03*
D16*
X132477500Y-103822500D03*
D17*
X130752500Y-103822500D03*
%TO.P,MX42,2,ROW*%
%TO.N,Net-(D42-A)*%
X144202500Y-101282500D03*
D16*
X142452500Y-101282500D03*
D15*
X140652500Y-101282500D03*
%TD*%
D14*
%TO.P,D18,1,K*%
%TO.N,ROW1*%
X135731250Y-71250000D03*
%TO.P,D18,2,A*%
%TO.N,Net-(D18-A)*%
X135731250Y-68450000D03*
%TD*%
D15*
%TO.P,MX24,1,COL*%
%TO.N,COL11*%
X243827300Y-65722500D03*
D16*
X242002300Y-65722500D03*
D17*
X240277300Y-65722500D03*
%TO.P,MX24,2,ROW*%
%TO.N,Net-(D24-A)*%
X253727300Y-63182500D03*
D16*
X251977300Y-63182500D03*
D15*
X250177300Y-63182500D03*
%TD*%
%TO.P,MX20,1,COL*%
%TO.N,COL7*%
X162877500Y-65722500D03*
D16*
X161052500Y-65722500D03*
D17*
X159327500Y-65722500D03*
%TO.P,MX20,2,ROW*%
%TO.N,Net-(D20-A)*%
X172777500Y-63182500D03*
D16*
X171027500Y-63182500D03*
D15*
X169227500Y-63182500D03*
%TD*%
D32*
%TO.P,D_PWR1,1,A1*%
%TO.N,+5V*%
X146843750Y-60387500D03*
%TO.P,D_PWR1,2,A2*%
%TO.N,GND*%
X146843750Y-57087500D03*
%TD*%
D15*
%TO.P,MX1,1,COL*%
%TO.N,COL0*%
X29527500Y-46672500D03*
D16*
X27702500Y-46672500D03*
D17*
X25977500Y-46672500D03*
%TO.P,MX1,2,ROW*%
%TO.N,Net-(D1-A)*%
X39427500Y-44132500D03*
D16*
X37677500Y-44132500D03*
D15*
X35877500Y-44132500D03*
%TD*%
D14*
%TO.P,D19,1,K*%
%TO.N,ROW1*%
X154781250Y-71250000D03*
%TO.P,D19,2,A*%
%TO.N,Net-(D19-A)*%
X154781250Y-68450000D03*
%TD*%
%TO.P,D46,1,K*%
%TO.N,ROW3*%
X221456250Y-109350000D03*
%TO.P,D46,2,A*%
%TO.N,Net-(D46-A)*%
X221456250Y-106550000D03*
%TD*%
D15*
%TO.P,MX16,1,COL*%
%TO.N,COL3*%
X86677500Y-65722500D03*
D16*
X84852500Y-65722500D03*
D17*
X83127500Y-65722500D03*
%TO.P,MX16,2,ROW*%
%TO.N,Net-(D16-A)*%
X96577500Y-63182500D03*
D16*
X94827500Y-63182500D03*
D15*
X93027500Y-63182500D03*
%TD*%
%TO.P,MX38,1,COL*%
%TO.N,COL1*%
X58102500Y-103822500D03*
D16*
X56277500Y-103822500D03*
D17*
X54552500Y-103822500D03*
%TO.P,MX38,2,ROW*%
%TO.N,Net-(D38-A)*%
X68002500Y-101282500D03*
D16*
X66252500Y-101282500D03*
D15*
X64452500Y-101282500D03*
%TD*%
D14*
%TO.P,D31,1,K*%
%TO.N,ROW2*%
X159543750Y-90300000D03*
%TO.P,D31,2,A*%
%TO.N,Net-(D31-A)*%
X159543750Y-87500000D03*
%TD*%
D15*
%TO.P,MX31,1,COL*%
%TO.N,COL6*%
X148526500Y-84772500D03*
D16*
X146701500Y-84772500D03*
D17*
X144976500Y-84772500D03*
%TO.P,MX31,2,ROW*%
%TO.N,Net-(D31-A)*%
X158426500Y-82232500D03*
D16*
X156676500Y-82232500D03*
D15*
X154876500Y-82232500D03*
%TD*%
D14*
%TO.P,D29,1,K*%
%TO.N,ROW2*%
X121443750Y-90300000D03*
%TO.P,D29,2,A*%
%TO.N,Net-(D29-A)*%
X121443750Y-87500000D03*
%TD*%
D15*
%TO.P,MX53,1,COL*%
%TO.N,COL5*%
X143827500Y-122872500D03*
D16*
X142002500Y-122872500D03*
D17*
X140277500Y-122872500D03*
%TO.P,MX53,2,ROW*%
%TO.N,Net-(D53-A)*%
X153727500Y-120332500D03*
D16*
X151977500Y-120332500D03*
D15*
X150177500Y-120332500D03*
%TD*%
%TO.P,MX29,1,COL*%
%TO.N,COL4*%
X110426500Y-84772500D03*
D16*
X108601500Y-84772500D03*
D17*
X106876500Y-84772500D03*
%TO.P,MX29,2,ROW*%
%TO.N,Net-(D29-A)*%
X120326500Y-82232500D03*
D16*
X118576500Y-82232500D03*
D15*
X116776500Y-82232500D03*
%TD*%
%TO.P,MX39,1,COL*%
%TO.N,COL2*%
X77152500Y-103822500D03*
D16*
X75327500Y-103822500D03*
D17*
X73602500Y-103822500D03*
%TO.P,MX39,2,ROW*%
%TO.N,Net-(D39-A)*%
X87052500Y-101282500D03*
D16*
X85302500Y-101282500D03*
D15*
X83502500Y-101282500D03*
%TD*%
%TO.P,MX55,1,COL*%
%TO.N,COL8*%
X191452500Y-122872500D03*
D16*
X189627500Y-122872500D03*
D17*
X187902500Y-122872500D03*
%TO.P,MX55,2,ROW*%
%TO.N,Net-(D55-A)*%
X201352500Y-120332500D03*
D16*
X199602500Y-120332500D03*
D15*
X197802500Y-120332500D03*
%TD*%
D14*
%TO.P,D54,1,K*%
%TO.N,ROW4*%
X171450050Y-128400000D03*
%TO.P,D54,2,A*%
%TO.N,Net-(D54-A)*%
X171450050Y-125600000D03*
%TD*%
D15*
%TO.P,MX40,1,COL*%
%TO.N,COL3*%
X96202500Y-103822500D03*
D16*
X94377500Y-103822500D03*
D17*
X92652500Y-103822500D03*
%TO.P,MX40,2,ROW*%
%TO.N,Net-(D40-A)*%
X106102500Y-101282500D03*
D16*
X104352500Y-101282500D03*
D15*
X102552500Y-101282500D03*
%TD*%
%TO.P,MX21,1,COL*%
%TO.N,COL8*%
X181927500Y-65722500D03*
D16*
X180102500Y-65722500D03*
D17*
X178377500Y-65722500D03*
%TO.P,MX21,2,ROW*%
%TO.N,Net-(D21-A)*%
X191827500Y-63182500D03*
D16*
X190077500Y-63182500D03*
D15*
X188277500Y-63182500D03*
%TD*%
%TO.P,MX5,1,COL*%
%TO.N,COL4*%
X110426500Y-46672500D03*
D16*
X108601500Y-46672500D03*
D17*
X106876500Y-46672500D03*
%TO.P,MX5,2,ROW*%
%TO.N,Net-(D5-A)*%
X120326500Y-44132500D03*
D16*
X118576500Y-44132500D03*
D15*
X116776500Y-44132500D03*
%TD*%
D14*
%TO.P,D2,1,K*%
%TO.N,ROW0*%
X64293750Y-52200000D03*
%TO.P,D2,2,A*%
%TO.N,Net-(D2-A)*%
X64293750Y-49400000D03*
%TD*%
D15*
%TO.P,MX44,1,COL*%
%TO.N,COL7*%
X172402500Y-103822500D03*
D16*
X170577500Y-103822500D03*
D17*
X168852500Y-103822500D03*
%TO.P,MX44,2,ROW*%
%TO.N,Net-(D44-A)*%
X182302500Y-101282500D03*
D16*
X180552500Y-101282500D03*
D15*
X178752500Y-101282500D03*
%TD*%
%TO.P,MX36,1,COL*%
%TO.N,COL11*%
X246164100Y-84772500D03*
D16*
X244339100Y-84772500D03*
D17*
X242614100Y-84772500D03*
%TO.P,MX36,2,ROW*%
%TO.N,Net-(D36-A)*%
X256064100Y-82232500D03*
D16*
X254314100Y-82232500D03*
D15*
X252514100Y-82232500D03*
%TD*%
%TO.P,MX4,1,COL*%
%TO.N,COL3*%
X91376500Y-46672500D03*
D16*
X89551500Y-46672500D03*
D17*
X87826500Y-46672500D03*
%TO.P,MX4,2,ROW*%
%TO.N,Net-(D4-A)*%
X101276500Y-44132500D03*
D16*
X99526500Y-44132500D03*
D15*
X97726500Y-44132500D03*
%TD*%
D14*
%TO.P,D5,1,K*%
%TO.N,ROW0*%
X121443750Y-52200000D03*
%TO.P,D5,2,A*%
%TO.N,Net-(D5-A)*%
X121443750Y-49400000D03*
%TD*%
%TO.P,D24,1,K*%
%TO.N,ROW1*%
X254793750Y-71250000D03*
%TO.P,D24,2,A*%
%TO.N,Net-(D24-A)*%
X254793750Y-68450000D03*
%TD*%
%TO.P,D20,1,K*%
%TO.N,ROW1*%
X173831250Y-71250000D03*
%TO.P,D20,2,A*%
%TO.N,Net-(D20-A)*%
X173831250Y-68450000D03*
%TD*%
D15*
%TO.P,MX25,1,COL*%
%TO.N,COL0*%
X31838900Y-84772500D03*
D16*
X30013900Y-84772500D03*
D17*
X28288900Y-84772500D03*
%TO.P,MX25,2,ROW*%
%TO.N,Net-(D25-A)*%
X41738900Y-82232500D03*
D16*
X39988900Y-82232500D03*
D15*
X38188900Y-82232500D03*
%TD*%
D26*
%TO.P,C3,1*%
%TO.N,+3V3*%
X146588976Y-101606473D03*
%TO.P,C3,2*%
%TO.N,GND*%
X146588976Y-102566473D03*
%TD*%
D18*
%TO.P,C4,1*%
%TO.N,+3V3*%
X154819544Y-93318648D03*
%TO.P,C4,2*%
%TO.N,GND*%
X155779544Y-93318648D03*
%TD*%
D33*
%TO.P,C2,1*%
%TO.N,+3V3*%
X141758600Y-94450300D03*
%TO.P,C2,2*%
%TO.N,GND*%
X140798600Y-94450300D03*
%TD*%
D15*
%TO.P,MX17,1,COL*%
%TO.N,COL4*%
X105727500Y-65722500D03*
D16*
X103902500Y-65722500D03*
D17*
X102177500Y-65722500D03*
%TO.P,MX17,2,ROW*%
%TO.N,Net-(D17-A)*%
X115627500Y-63182500D03*
D16*
X113877500Y-63182500D03*
D15*
X112077500Y-63182500D03*
%TD*%
D14*
%TO.P,D36,1,K*%
%TO.N,ROW2*%
X257175000Y-90300000D03*
%TO.P,D36,2,A*%
%TO.N,Net-(D36-A)*%
X257175000Y-87500000D03*
%TD*%
D15*
%TO.P,MX41,1,COL*%
%TO.N,COL4*%
X115252500Y-103822500D03*
D16*
X113427500Y-103822500D03*
D17*
X111702500Y-103822500D03*
%TO.P,MX41,2,ROW*%
%TO.N,Net-(D41-A)*%
X125152500Y-101282500D03*
D16*
X123402500Y-101282500D03*
D15*
X121602500Y-101282500D03*
%TD*%
D14*
%TO.P,D14,1,K*%
%TO.N,ROW1*%
X59381250Y-71250000D03*
%TO.P,D14,2,A*%
%TO.N,Net-(D14-A)*%
X59381250Y-68450000D03*
%TD*%
D15*
%TO.P,MX34,1,COL*%
%TO.N,COL9*%
X205676500Y-84772500D03*
D16*
X203851500Y-84772500D03*
D17*
X202126500Y-84772500D03*
%TO.P,MX34,2,ROW*%
%TO.N,Net-(D34-A)*%
X215576500Y-82232500D03*
D16*
X213826500Y-82232500D03*
D15*
X212026500Y-82232500D03*
%TD*%
D14*
%TO.P,D49,1,K*%
%TO.N,ROW4*%
X42893250Y-128400000D03*
%TO.P,D49,2,A*%
%TO.N,Net-(D49-A)*%
X42893250Y-125600000D03*
%TD*%
%TO.P,D55,1,K*%
%TO.N,ROW4*%
X202406250Y-128400000D03*
%TO.P,D55,2,A*%
%TO.N,Net-(D55-A)*%
X202406250Y-125600000D03*
%TD*%
D15*
%TO.P,MX58,1,COL*%
%TO.N,COL11*%
X248602500Y-122872500D03*
D16*
X246777500Y-122872500D03*
D17*
X245052500Y-122872500D03*
%TO.P,MX58,2,ROW*%
%TO.N,Net-(D58-A)*%
X258502500Y-120332500D03*
D16*
X256752500Y-120332500D03*
D15*
X254952500Y-120332500D03*
%TD*%
D34*
%TO.P,SW3,1,1*%
%TO.N,+3V3*%
X164014800Y-93656600D03*
%TO.P,SW3,2,2*%
%TO.N,BOOT0*%
X159814800Y-93656600D03*
%TD*%
D15*
%TO.P,MX2,1,COL*%
%TO.N,COL1*%
X53340000Y-46672500D03*
D16*
X51515000Y-46672500D03*
D17*
X49790000Y-46672500D03*
%TO.P,MX2,2,ROW*%
%TO.N,Net-(D2-A)*%
X63240000Y-44132500D03*
D16*
X61490000Y-44132500D03*
D15*
X59690000Y-44132500D03*
%TD*%
%TO.P,MX57,1,COL*%
%TO.N,COL10*%
X229552500Y-122872500D03*
D16*
X227727500Y-122872500D03*
D17*
X226002500Y-122872500D03*
%TO.P,MX57,2,ROW*%
%TO.N,Net-(D57-A)*%
X239452500Y-120332500D03*
D16*
X237702500Y-120332500D03*
D15*
X235902500Y-120332500D03*
%TD*%
%TO.P,MX23,1,COL*%
%TO.N,COL10*%
X220027500Y-65722500D03*
D16*
X218202500Y-65722500D03*
D17*
X216477500Y-65722500D03*
%TO.P,MX23,2,ROW*%
%TO.N,Net-(D23-A)*%
X229927500Y-63182500D03*
D16*
X228177500Y-63182500D03*
D15*
X226377500Y-63182500D03*
%TD*%
D14*
%TO.P,D15,1,K*%
%TO.N,ROW1*%
X78581250Y-71250000D03*
%TO.P,D15,2,A*%
%TO.N,Net-(D15-A)*%
X78581250Y-68450000D03*
%TD*%
D35*
%TO.N,GND*%
X153978100Y-57146200D03*
X146609559Y-103323693D03*
X140044122Y-94450300D03*
X152534350Y-58733700D03*
X149215600Y-96831400D03*
X144462500Y-49212500D03*
X146843750Y-58737500D03*
X149215600Y-57146400D03*
X141287500Y-49212500D03*
X148421900Y-94450300D03*
X157900140Y-95250000D03*
X156409281Y-94306283D03*
X144036943Y-86882945D03*
X142685366Y-58007394D03*
X156409281Y-95250000D03*
X156409281Y-93324129D03*
X147568935Y-103323693D03*
%TO.N,+3V3*%
X142866000Y-95244000D03*
X146040800Y-88894400D03*
X162833248Y-93656600D03*
X153193750Y-94456250D03*
X149215600Y-97758403D03*
X161152248Y-93656600D03*
X147678006Y-100056006D03*
%TO.N,ROW0*%
X148653500Y-42227500D03*
X136842500Y-42227500D03*
%TO.N,ROW1*%
X157830286Y-71250000D03*
X136455996Y-71250000D03*
X138989500Y-71250000D03*
X155656900Y-71250000D03*
%TO.N,ROW2*%
X152105304Y-90300000D03*
X142866000Y-90300000D03*
X162838720Y-90300000D03*
X160667484Y-90300000D03*
%TD*%
D36*
%TO.N,ROW2*%
X140493750Y-90300000D02*
X142866000Y-90300000D01*
D37*
%TO.N,GND*%
X120414773Y-54765300D02*
X35716500Y-54765300D01*
D38*
X147567809Y-102572552D02*
X147567809Y-103285427D01*
D37*
X33337500Y-56712500D02*
X33337500Y-55709705D01*
X150844252Y-97929912D02*
X149877520Y-96963180D01*
D36*
X138492500Y-44722500D02*
X138492500Y-40542500D01*
D38*
X155779544Y-93318648D02*
X156310020Y-93318648D01*
D39*
X144462500Y-48418750D02*
X144462500Y-49212500D01*
D37*
X146083647Y-94450300D02*
X148421900Y-94450300D01*
D38*
X146062500Y-45637500D02*
X146217500Y-45637500D01*
D39*
X142684500Y-57208000D02*
X142684500Y-58006528D01*
D37*
X152965572Y-93103908D02*
X152204966Y-93864514D01*
X150790753Y-94450300D02*
X148421900Y-94450300D01*
X147078908Y-89921928D02*
X147836114Y-90679134D01*
D38*
X140798600Y-94450300D02*
X140044122Y-94450300D01*
X146588976Y-103303110D02*
X146609559Y-103323693D01*
D37*
X35716500Y-54765300D02*
X34281905Y-54765300D01*
D38*
X139562500Y-45637500D02*
X139407500Y-45637500D01*
D37*
X144393335Y-95312185D02*
X144393335Y-94905635D01*
X155692653Y-92607501D02*
X153461979Y-92607501D01*
X129460500Y-49682713D02*
X129460500Y-49731924D01*
X127663647Y-50700350D02*
X126136577Y-50700350D01*
D38*
X155773675Y-94306283D02*
X156409281Y-94306283D01*
D37*
X144393335Y-94905635D02*
X144014530Y-94526830D01*
X250902888Y-54765300D02*
X157152600Y-54765300D01*
X142255704Y-93798300D02*
X141450600Y-93798300D01*
D38*
X155741250Y-95250000D02*
X156368750Y-95250000D01*
D39*
X142684500Y-58006528D02*
X142685366Y-58007394D01*
D37*
X143896928Y-95808592D02*
X144669434Y-95036086D01*
D38*
X147132500Y-40542500D02*
X147132500Y-44722500D01*
D37*
X133834926Y-45308287D02*
X129460500Y-49682713D01*
D36*
X138492500Y-40542500D02*
X147132500Y-40542500D01*
D37*
X252285500Y-56712500D02*
X252285500Y-56147912D01*
D38*
X156310020Y-93318648D02*
X156315501Y-93324129D01*
X144694540Y-87540542D02*
X144036943Y-86882945D01*
D37*
X124722363Y-51286137D02*
X121828986Y-54179514D01*
X157152600Y-54765300D02*
X155552750Y-54765300D01*
X129460500Y-49731924D02*
X129077860Y-50114564D01*
D39*
X149215600Y-58253700D02*
X149215600Y-57146400D01*
D37*
X143896928Y-95808592D02*
X144393335Y-95312185D01*
D38*
X147567809Y-103285427D02*
X147568935Y-103286553D01*
D37*
X153461979Y-92607501D02*
X152965572Y-93103908D01*
D38*
X146588976Y-102566473D02*
X146588976Y-103303110D01*
D37*
X149559375Y-96831400D02*
X149215600Y-96831400D01*
X138492500Y-44722500D02*
X135249140Y-44722500D01*
D36*
X147132500Y-44722500D02*
X147132500Y-41272400D01*
D37*
X148421900Y-92093347D02*
X148421900Y-94450300D01*
D38*
X157900140Y-94223487D02*
X157900140Y-94929255D01*
D39*
X152534350Y-58733700D02*
X152534350Y-57783700D01*
X146843750Y-57087500D02*
X146843750Y-58737500D01*
D38*
X144706481Y-87540542D02*
X144694540Y-87540542D01*
D39*
X153978100Y-58253700D02*
X153978100Y-57146200D01*
X141287500Y-48418750D02*
X141287500Y-49212500D01*
D37*
X150790753Y-94450300D02*
G75*
G03*
X152204990Y-93864538I47J2000000D01*
G01*
X126136577Y-50700350D02*
G75*
G03*
X124722385Y-51286159I23J-1999950D01*
G01*
X34281905Y-54765300D02*
G75*
G03*
X33337500Y-55709705I-5J-944400D01*
G01*
X252285500Y-56147912D02*
G75*
G03*
X250902888Y-54765300I-1382600J12D01*
G01*
X135249140Y-44722500D02*
G75*
G03*
X133834906Y-45308267I-40J-2000000D01*
G01*
X121828986Y-54179514D02*
G75*
G02*
X120414773Y-54765281I-1414186J1414214D01*
G01*
D38*
X139407500Y-45637500D02*
G75*
G02*
X138492500Y-44722500I0J915000D01*
G01*
D37*
X155552750Y-54765300D02*
G75*
G03*
X152534400Y-57783700I50J-3018400D01*
G01*
X144014530Y-94526830D02*
G75*
G03*
X142255704Y-93798310I-1758830J-1758870D01*
G01*
X141450600Y-93798300D02*
G75*
G03*
X140798600Y-94450300I0J-652000D01*
G01*
X149877520Y-96963180D02*
G75*
G03*
X149559375Y-96831410I-318120J-318120D01*
G01*
X129077860Y-50114564D02*
G75*
G02*
X127663647Y-50700398I-1414260J1414164D01*
G01*
X144669434Y-95036086D02*
G75*
G02*
X146083647Y-94450333I1414166J-1414214D01*
G01*
D38*
X146217500Y-45637500D02*
G75*
G03*
X147132500Y-44722500I0J915000D01*
G01*
D37*
X148421900Y-92093347D02*
G75*
G03*
X147836138Y-90679110I-2000000J47D01*
G01*
X156409281Y-93324129D02*
G75*
G03*
X155692653Y-92607519I-716581J29D01*
G01*
%TO.N,+3V3*%
X143375490Y-95455038D02*
X143543374Y-95455038D01*
X146588976Y-101562695D02*
X146588976Y-101606473D01*
X147003569Y-89139481D02*
X147432462Y-89568374D01*
D38*
X154813675Y-94306283D02*
X153343717Y-94306283D01*
X154781250Y-93318648D02*
X154819544Y-93318648D01*
X153986148Y-93663852D02*
X153193750Y-94456250D01*
D39*
X153978100Y-59270900D02*
X154358900Y-59270900D01*
X161369484Y-93656600D02*
X161369484Y-95049779D01*
D38*
X153193750Y-93582838D02*
X153319126Y-93457462D01*
X153193750Y-94456250D02*
X153193750Y-95329662D01*
D39*
X158358900Y-76220372D02*
X160074835Y-76220372D01*
D37*
X145385303Y-88238903D02*
X146040800Y-88894400D01*
D39*
X162833248Y-93656600D02*
X164014800Y-93656600D01*
D38*
X153193750Y-94456250D02*
X153193750Y-93582838D01*
X152534350Y-59683700D02*
X153508100Y-59683700D01*
X153343717Y-94306283D02*
X153193750Y-94456250D01*
D37*
X149215600Y-97758403D02*
X149875997Y-97758403D01*
D38*
X153426234Y-94688734D02*
X153193750Y-94456250D01*
D39*
X159935463Y-96483800D02*
X156015050Y-96483800D01*
X156358900Y-61270900D02*
X156358900Y-74220372D01*
X161369484Y-77515021D02*
X161369484Y-93656600D01*
D38*
X153193750Y-95329662D02*
X153319126Y-95455038D01*
D37*
X146884306Y-100849706D02*
X147678006Y-100056006D01*
D39*
X161369484Y-93656600D02*
X161152248Y-93656600D01*
D37*
X150029022Y-97821788D02*
X150490699Y-98283465D01*
X146040800Y-88894400D02*
X146411891Y-88894400D01*
X145385303Y-88219364D02*
X145385303Y-88238903D01*
D38*
X154781250Y-95250000D02*
X154781250Y-93318648D01*
D37*
X142866000Y-95244000D02*
X142294120Y-94672120D01*
D39*
X160074835Y-76220372D02*
G75*
G02*
X161369428Y-77515021I-35J-1294628D01*
G01*
D37*
X142294120Y-94672120D02*
G75*
G03*
X141758600Y-94450289I-535520J-535480D01*
G01*
D39*
X154358900Y-59270900D02*
G75*
G02*
X156358900Y-61270900I0J-2000000D01*
G01*
D38*
X153508100Y-59683700D02*
G75*
G03*
X153978100Y-59213700I0J470000D01*
G01*
X154781250Y-95250000D02*
G75*
G02*
X153426205Y-94688763I-50J1916300D01*
G01*
D37*
X146884306Y-100849706D02*
G75*
G03*
X146588974Y-101562695I712994J-712994D01*
G01*
D39*
X161369484Y-95049779D02*
G75*
G02*
X159935463Y-96483784I-1433984J-21D01*
G01*
D37*
X142866000Y-95244000D02*
G75*
G03*
X143375490Y-95455042I509500J509500D01*
G01*
X149875997Y-97758403D02*
G75*
G02*
X150029021Y-97821789I3J-216397D01*
G01*
D39*
X158358900Y-76220372D02*
G75*
G02*
X156358928Y-74220372I0J1999972D01*
G01*
X156015050Y-96483800D02*
G75*
G02*
X154781300Y-95250000I50J1233800D01*
G01*
D38*
X154819544Y-93318648D02*
G75*
G03*
X153986115Y-93663819I-44J-1178652D01*
G01*
D37*
X146411891Y-88894400D02*
G75*
G02*
X147003582Y-89139468I9J-836800D01*
G01*
%TO.N,NRST*%
X148945532Y-96179400D02*
X148972419Y-96179400D01*
X148421900Y-100758461D02*
X148421900Y-96703032D01*
X148972419Y-96179400D02*
X149639391Y-96179406D01*
X149915025Y-96293579D02*
X151197805Y-97576359D01*
X148421900Y-96703032D02*
G75*
G02*
X148945532Y-96179400I523600J32D01*
G01*
X149639391Y-96179406D02*
G75*
G02*
X149915028Y-96293576I9J-389794D01*
G01*
X147567809Y-101612552D02*
G75*
G03*
X148421852Y-100758461I-9J854052D01*
G01*
D38*
%TO.N,+5V*%
X146843750Y-60387500D02*
X148355600Y-60387500D01*
X146843750Y-59872937D02*
X146843750Y-60387500D01*
X149215600Y-59527500D02*
X149215600Y-59213700D01*
X149695600Y-58733700D02*
X150659350Y-58733700D01*
X144084500Y-59531250D02*
X146502063Y-59531250D01*
X146502063Y-59531250D02*
G75*
G02*
X146843750Y-59872937I37J-341650D01*
G01*
X149215600Y-59213700D02*
G75*
G02*
X149695600Y-58733700I480000J0D01*
G01*
X148355600Y-60387500D02*
G75*
G03*
X149215600Y-59527500I0J860000D01*
G01*
D37*
%TO.N,ROW0*%
X41275000Y-52200000D02*
X24223600Y-52200000D01*
D36*
X133413427Y-42227500D02*
X136842500Y-42227500D01*
D37*
X24223600Y-95527553D02*
X135925504Y-95527553D01*
D36*
X164571427Y-52200000D02*
X178593750Y-52200000D01*
X121443750Y-52200000D02*
X121784073Y-52200000D01*
D37*
X22223600Y-54200000D02*
X22223600Y-93527553D01*
D36*
X155511500Y-45018500D02*
X155733073Y-45018500D01*
D37*
X144250481Y-92750355D02*
X143753277Y-92253151D01*
X137339718Y-94941766D02*
X139666196Y-92615287D01*
X141080410Y-92029500D02*
X143213336Y-92029500D01*
D36*
X125412500Y-49400000D02*
X131999214Y-42813286D01*
X41275000Y-52200000D02*
X121443750Y-52200000D01*
X148653500Y-42227500D02*
X151892073Y-42227500D01*
X178593750Y-52200000D02*
X242093750Y-52200000D01*
X123198287Y-51614213D02*
X125412500Y-49400000D01*
X157147287Y-45604287D02*
X163157214Y-51614214D01*
X153306287Y-42813287D02*
X155511500Y-45018500D01*
X123198287Y-51614213D02*
G75*
G02*
X121784073Y-52199981I-1414187J1414213D01*
G01*
X155733073Y-45018500D02*
G75*
G02*
X157147301Y-45604273I27J-2000000D01*
G01*
D37*
X24223600Y-95527553D02*
G75*
G02*
X22223647Y-93527553I0J1999953D01*
G01*
D36*
X151892073Y-42227500D02*
G75*
G02*
X153306301Y-42813273I27J-2000000D01*
G01*
D37*
X139666196Y-92615287D02*
G75*
G02*
X141080410Y-92029507I1414204J-1414213D01*
G01*
D36*
X163157214Y-51614214D02*
G75*
G03*
X164571427Y-52199981I1414186J1414214D01*
G01*
X131999214Y-42813286D02*
G75*
G02*
X133413427Y-42227519I1414186J-1414214D01*
G01*
D37*
X143213336Y-92029500D02*
G75*
G02*
X143753261Y-92253167I-36J-763600D01*
G01*
X24223600Y-52200000D02*
G75*
G03*
X22223600Y-54200000I0J-2000000D01*
G01*
X135925504Y-95527553D02*
G75*
G03*
X137339706Y-94941754I-4J1999953D01*
G01*
D36*
%TO.N,ROW1*%
X157862452Y-71250000D02*
X157830286Y-71217834D01*
X154781250Y-71250000D02*
X155647450Y-71250000D01*
D37*
X24362957Y-95150553D02*
X135769346Y-95150553D01*
X138429025Y-93319300D02*
X139510039Y-92238286D01*
D36*
X155647450Y-71250000D02*
X155656900Y-71259450D01*
D37*
X140924252Y-91652500D02*
X143446922Y-91652500D01*
D36*
X173831250Y-71250000D02*
X157862452Y-71250000D01*
D37*
X138429025Y-93319301D02*
X138429025Y-93319300D01*
X40481250Y-71250000D02*
X24625810Y-71250000D01*
D36*
X173831250Y-71250000D02*
X254793750Y-71250000D01*
D37*
X22625810Y-73250000D02*
X22625810Y-93413406D01*
X144151636Y-91944402D02*
X144604035Y-92396801D01*
D36*
X134929000Y-71250000D02*
X135731250Y-71250000D01*
X134929000Y-71250000D02*
X136455996Y-71250000D01*
X40481250Y-71250000D02*
X134929000Y-71250000D01*
X154781250Y-71250000D02*
X139009713Y-71250000D01*
D37*
X137183560Y-94564766D02*
X138429025Y-93319301D01*
D36*
X139009713Y-71250000D02*
X138989500Y-71229787D01*
D37*
X22625810Y-73250000D02*
G75*
G02*
X24625810Y-71250010I1999990J0D01*
G01*
X22625810Y-93413406D02*
G75*
G03*
X24362957Y-95150590I1737190J6D01*
G01*
X140924252Y-91652500D02*
G75*
G03*
X139510063Y-92238310I48J-2000000D01*
G01*
X143446922Y-91652500D02*
G75*
G02*
X144151622Y-91944416I-22J-996600D01*
G01*
X135769346Y-95150553D02*
G75*
G03*
X137183527Y-94564733I-46J1999953D01*
G01*
%TO.N,ROW2*%
X143214340Y-90300000D02*
X144957588Y-92043248D01*
D36*
X159543750Y-90300000D02*
X152260672Y-90300000D01*
D37*
X143214340Y-90300000D02*
X142866000Y-90300000D01*
D36*
X140493750Y-90300000D02*
X42862550Y-90300000D01*
X178593750Y-90300000D02*
X163020520Y-90300000D01*
X257175000Y-90300000D02*
X178593750Y-90300000D01*
X159543750Y-90300000D02*
X160485684Y-90300000D01*
D37*
%TO.N,ROW4*%
X143896928Y-93103908D02*
X143896928Y-93100128D01*
X139822355Y-92992287D02*
X137495875Y-95318767D01*
D36*
X259556250Y-128400000D02*
X42893250Y-128400000D01*
D37*
X24223600Y-128400000D02*
X42893250Y-128400000D01*
X143001079Y-92406500D02*
X141236569Y-92406500D01*
X136081662Y-95904553D02*
X24223600Y-95904553D01*
X143896928Y-93100128D02*
X143346291Y-92549491D01*
X22223600Y-97904553D02*
X22223600Y-126400000D01*
X137495875Y-95318767D02*
G75*
G02*
X136081662Y-95904540I-1414175J1414167D01*
G01*
X22223600Y-126400000D02*
G75*
G03*
X24223600Y-128400000I2000000J0D01*
G01*
X139822355Y-92992287D02*
G75*
G02*
X141236569Y-92406478I1414245J-1414213D01*
G01*
X143001079Y-92406500D02*
G75*
G02*
X143346301Y-92549481I21J-488200D01*
G01*
X22223600Y-97904553D02*
G75*
G02*
X24223600Y-95904550I2000000J3D01*
G01*
%TO.N,COL0*%
X143659700Y-96658553D02*
X41441247Y-96658553D01*
X144250481Y-96162145D02*
X143820805Y-96591821D01*
X143820805Y-96591821D02*
G75*
G02*
X143659700Y-96658548I-161105J161121D01*
G01*
X41441247Y-96658553D02*
G75*
G03*
X34277303Y-103822500I3J-7163947D01*
G01*
%TO.N,COL1*%
X143965281Y-97033753D02*
X143910231Y-97035553D01*
X144033565Y-97022430D02*
X143965281Y-97033753D01*
X144604035Y-96515699D02*
X144207182Y-96912552D01*
X143910231Y-97035553D02*
X64889447Y-97035553D01*
X144207182Y-96912552D02*
G75*
G02*
X144033560Y-97022411I-274282J241352D01*
G01*
X64889447Y-97035553D02*
G75*
G03*
X58102503Y-103822500I3J-6786947D01*
G01*
%TO.N,COL2*%
X144240853Y-97412553D02*
X83562447Y-97412553D01*
X144957588Y-96869252D02*
X144536924Y-97289917D01*
X83562447Y-97412553D02*
G75*
G03*
X77152503Y-103822500I3J-6409947D01*
G01*
X144536924Y-97289917D02*
G75*
G02*
X144240853Y-97412507I-296024J296117D01*
G01*
%TO.N,COL3*%
X144453400Y-97789553D02*
X102235447Y-97789553D01*
X145311141Y-97222805D02*
X144950156Y-97583790D01*
X102235447Y-97789553D02*
G75*
G03*
X96202453Y-103822500I-47J-6032947D01*
G01*
X144950156Y-97583790D02*
G75*
G02*
X144453400Y-97789543I-496756J496790D01*
G01*
%TO.N,COL4*%
X145660287Y-97580767D02*
X145252421Y-97988639D01*
X144822904Y-98166553D02*
X120908447Y-98166553D01*
X145664695Y-97576359D02*
X145660287Y-97580767D01*
X120908447Y-98166553D02*
G75*
G03*
X115252453Y-103822500I-47J-5655947D01*
G01*
X145252421Y-97988639D02*
G75*
G02*
X144822904Y-98166547I-429521J429539D01*
G01*
%TO.N,COL5*%
X146018248Y-97929912D02*
X145515982Y-98432179D01*
X145247100Y-98543553D02*
X139581447Y-98543553D01*
X145515982Y-98432179D02*
G75*
G02*
X145247100Y-98543554I-268882J268879D01*
G01*
X139581447Y-98543553D02*
G75*
G03*
X134302453Y-103822500I-47J-5278947D01*
G01*
%TO.N,COL6*%
X153352500Y-103266588D02*
X149430038Y-99344126D01*
X153352500Y-103822500D02*
X153352500Y-103266588D01*
%TO.N,COL7*%
X149783592Y-98990572D02*
X150303446Y-99510426D01*
X151354730Y-99414770D02*
X151496403Y-99273097D01*
X151738541Y-99172800D02*
X167752800Y-99172800D01*
X150303446Y-99510426D02*
X151123796Y-99510426D01*
X151123796Y-99510426D02*
G75*
G03*
X151354739Y-99414779I4J326626D01*
G01*
X151496403Y-99273097D02*
G75*
G02*
X151738541Y-99172819I242097J-242103D01*
G01*
X167752800Y-99172800D02*
G75*
G02*
X172402500Y-103822500I0J-4649700D01*
G01*
%TO.N,COL8*%
X151164759Y-99040623D02*
X151348933Y-98856448D01*
X151495350Y-98795800D02*
X186425800Y-98795800D01*
X150633552Y-99133426D02*
X150940713Y-99133426D01*
X150137145Y-98637019D02*
X150633552Y-99133426D01*
X150940713Y-99133426D02*
G75*
G03*
X151164748Y-99040612I-13J316826D01*
G01*
X151348933Y-98856448D02*
G75*
G02*
X151495350Y-98795775I146467J-146452D01*
G01*
X186425800Y-98795800D02*
G75*
G02*
X191452500Y-103822500I0J-5026700D01*
G01*
%TO.N,COL9*%
X153575781Y-98418800D02*
X203187200Y-98418800D01*
X151551359Y-97222805D02*
X152161568Y-97833014D01*
X203187200Y-98418800D02*
X205098800Y-98418800D01*
X152161568Y-97833014D02*
G75*
G03*
X153575781Y-98418813I1414232J1414214D01*
G01*
X205098800Y-98418800D02*
G75*
G02*
X210502500Y-103822500I0J-5403700D01*
G01*
%TO.N,COL10*%
X151904912Y-96869252D02*
X152491674Y-97456014D01*
X153905887Y-98041800D02*
X223771800Y-98041800D01*
X152491674Y-97456014D02*
G75*
G03*
X153905887Y-98041809I1414226J1414214D01*
G01*
X223771800Y-98041800D02*
G75*
G02*
X229552500Y-103822500I0J-5780700D01*
G01*
%TO.N,COL11*%
X154235993Y-97664800D02*
X242444800Y-97664800D01*
X152258465Y-96515699D02*
X152821780Y-97079014D01*
X242444800Y-97664800D02*
G75*
G02*
X248602500Y-103822500I0J-6157700D01*
G01*
X152821780Y-97079014D02*
G75*
G03*
X154235993Y-97664805I1414220J1414214D01*
G01*
D36*
%TO.N,Net-(D1-A)*%
X41275000Y-49400000D02*
X41145000Y-49400000D01*
X41145000Y-49400000D02*
G75*
G03*
X35877500Y-44132500I-5267500J0D01*
G01*
D37*
%TO.N,ROTARY_A*%
X139107996Y-76647201D02*
X141023320Y-76647201D01*
X141862014Y-77485895D02*
X141862014Y-87412141D01*
X31493821Y-59651900D02*
X135506032Y-59651900D01*
X137107996Y-61253864D02*
X137107996Y-74647201D01*
X30837500Y-56712500D02*
X30837500Y-58995579D01*
X142447801Y-88826355D02*
X145311141Y-91689695D01*
X139107996Y-76647201D02*
G75*
G02*
X137107999Y-74647201I4J2000001D01*
G01*
X135506032Y-59651900D02*
G75*
G02*
X137108000Y-61253864I-32J-1602000D01*
G01*
X142447801Y-88826355D02*
G75*
G02*
X141861981Y-87412141I1414199J1414255D01*
G01*
X30837500Y-58995579D02*
G75*
G03*
X31493821Y-59651900I656300J-21D01*
G01*
X141862014Y-77485895D02*
G75*
G03*
X141023320Y-76647186I-838714J-5D01*
G01*
%TO.N,ROTARY_B*%
X137505882Y-61270900D02*
X137505882Y-74563141D01*
X36642912Y-59270900D02*
X135505882Y-59270900D01*
X139137941Y-76195200D02*
X141080604Y-76195200D01*
X142246021Y-77360617D02*
X142246021Y-87089040D01*
X142831808Y-88503254D02*
X145664695Y-91336141D01*
X35837500Y-56712500D02*
X35837500Y-58465488D01*
X139137941Y-76195200D02*
G75*
G02*
X137505800Y-74563141I-41J1632100D01*
G01*
X135505882Y-59270900D02*
G75*
G02*
X137505900Y-61270900I18J-2000000D01*
G01*
X35837500Y-58465488D02*
G75*
G03*
X36642912Y-59270900I805400J-12D01*
G01*
X142246021Y-77360617D02*
G75*
G03*
X141080604Y-76195179I-1165421J17D01*
G01*
X142246021Y-87089040D02*
G75*
G03*
X142831832Y-88503230I1999979J40D01*
G01*
D36*
%TO.N,Net-(D2-A)*%
X64293750Y-49400000D02*
X64293750Y-48736250D01*
X64293750Y-48736250D02*
G75*
G03*
X59690000Y-44132500I-4603750J0D01*
G01*
%TO.N,Net-(D3-A)*%
X83343750Y-49400000D02*
X83343750Y-48799750D01*
X83343750Y-48799750D02*
G75*
G03*
X78676500Y-44132500I-4667250J0D01*
G01*
%TO.N,Net-(D4-A)*%
X102393750Y-49400000D02*
X102393750Y-48799750D01*
X102393750Y-48799750D02*
G75*
G03*
X97726500Y-44132500I-4667250J0D01*
G01*
%TO.N,Net-(D5-A)*%
X121443750Y-49400000D02*
X121443750Y-48799750D01*
X121443750Y-48799750D02*
G75*
G03*
X116776500Y-44132500I-4667250J0D01*
G01*
%TO.N,Net-(D6-A)*%
X128654000Y-52200000D02*
X125412500Y-52200000D01*
X130746500Y-54292500D02*
G75*
G03*
X128654000Y-52200000I-2092500J0D01*
G01*
D37*
%TO.N,ROTARY_D*%
X153481993Y-96325013D02*
X152965572Y-95808592D01*
X249785500Y-56712500D02*
X249785500Y-58341900D01*
X158433099Y-75793372D02*
X160144278Y-75793372D01*
X161804248Y-77453342D02*
X161804248Y-95148586D01*
X248856500Y-59270900D02*
X158790039Y-59270900D01*
X154896207Y-96910800D02*
X160042034Y-96910800D01*
X156790039Y-61270900D02*
X156790039Y-74150312D01*
X156790039Y-61270900D02*
G75*
G02*
X158790039Y-59270939I1999961J0D01*
G01*
X154896207Y-96910800D02*
G75*
G02*
X153481989Y-96325017I-7J2000000D01*
G01*
X160144278Y-75793372D02*
G75*
G02*
X161804228Y-77453342I22J-1659928D01*
G01*
X160042034Y-96910800D02*
G75*
G03*
X161804200Y-95148586I-34J1762200D01*
G01*
X249785500Y-58341900D02*
G75*
G02*
X248856500Y-59270900I-929000J0D01*
G01*
X156790039Y-74150312D02*
G75*
G03*
X158433099Y-75793361I1643061J12D01*
G01*
%TO.N,ROTARY_C*%
X152612019Y-96162145D02*
X153151888Y-96702014D01*
X162181248Y-95287800D02*
X162181248Y-90481800D01*
X254785500Y-58733800D02*
X254785500Y-56712500D01*
X154566101Y-97287800D02*
X160181248Y-97287800D01*
X162186720Y-90481800D02*
X162186720Y-77401500D01*
X157178286Y-73983606D02*
X157178286Y-61377014D01*
X160186720Y-75401500D02*
X158596180Y-75401500D01*
X158903400Y-59651900D02*
X253867400Y-59651900D01*
X253867400Y-59651900D02*
G75*
G03*
X254785500Y-58733800I0J918100D01*
G01*
X157178286Y-61377014D02*
G75*
G02*
X158903400Y-59651886I1725114J14D01*
G01*
X158596180Y-75401500D02*
G75*
G02*
X157178300Y-73983606I20J1417900D01*
G01*
X162186720Y-77401500D02*
G75*
G03*
X160186720Y-75401480I-2000020J0D01*
G01*
X154566101Y-97287800D02*
G75*
G02*
X153151887Y-96702015I-1J2000000D01*
G01*
X160181248Y-97287800D02*
G75*
G03*
X162181200Y-95287800I-48J2000000D01*
G01*
D36*
%TO.N,Net-(D7-A)*%
X149215600Y-48415700D02*
X149215600Y-53711600D01*
X153977800Y-46034600D02*
X151596700Y-46034600D01*
X155511500Y-47818500D02*
X155511500Y-47568300D01*
X155511500Y-47568300D02*
G75*
G03*
X153977800Y-46034600I-1533700J0D01*
G01*
X149215600Y-53711600D02*
G75*
G03*
X149796500Y-54292500I580900J0D01*
G01*
X151596700Y-46034600D02*
G75*
G03*
X149215600Y-48415700I0J-2381100D01*
G01*
%TO.N,Net-(D8-A)*%
X178593750Y-49400000D02*
X178593750Y-48799750D01*
X178593750Y-48799750D02*
G75*
G03*
X173926500Y-44132550I-4667250J-50D01*
G01*
%TO.N,Net-(D9-A)*%
X197643750Y-49400000D02*
X197643750Y-48799750D01*
X197643750Y-48799750D02*
G75*
G03*
X192976500Y-44132550I-4667250J-50D01*
G01*
%TO.N,Net-(D10-A)*%
X216693750Y-49400000D02*
X216693750Y-48799750D01*
X216693750Y-48799750D02*
G75*
G03*
X212026500Y-44132550I-4667250J-50D01*
G01*
%TO.N,Net-(D11-A)*%
X235743750Y-49400000D02*
X235743750Y-48799750D01*
X235743750Y-48799750D02*
G75*
G03*
X231076500Y-44132550I-4667250J-50D01*
G01*
%TO.N,Net-(D12-A)*%
X254927100Y-44132500D02*
X243186900Y-44132500D01*
X242078500Y-45240900D02*
X242078500Y-49384750D01*
X242078500Y-49384750D02*
G75*
G03*
X242093750Y-49400000I15300J50D01*
G01*
X243186900Y-44132500D02*
G75*
G03*
X242078500Y-45240900I0J-1108400D01*
G01*
%TO.N,Net-(D13-A)*%
X40481250Y-68450000D02*
X40481250Y-67786250D01*
X40481250Y-67786250D02*
G75*
G03*
X35877500Y-63182500I-4603750J0D01*
G01*
%TO.N,Net-(D14-A)*%
X59381250Y-68450000D02*
X59381250Y-67636250D01*
X59381250Y-67636250D02*
G75*
G03*
X54927500Y-63182500I-4453750J0D01*
G01*
%TO.N,Net-(D15-A)*%
X78581250Y-68450000D02*
X78581250Y-67786250D01*
X78581250Y-67786250D02*
G75*
G03*
X73977500Y-63182500I-4603750J0D01*
G01*
%TO.N,Net-(D16-A)*%
X97631250Y-68450000D02*
X97631250Y-67786250D01*
X97631250Y-67786250D02*
G75*
G03*
X93027500Y-63182500I-4603750J0D01*
G01*
%TO.N,Net-(D17-A)*%
X116681250Y-68450000D02*
X116681250Y-67786250D01*
X116681250Y-67786250D02*
G75*
G03*
X112077500Y-63182500I-4603750J0D01*
G01*
%TO.N,Net-(D18-A)*%
X135731250Y-68450000D02*
X135731250Y-67786250D01*
X135731250Y-67786250D02*
G75*
G03*
X131127500Y-63182500I-4603750J0D01*
G01*
%TO.N,Net-(D19-A)*%
X154781250Y-68450000D02*
X154781250Y-67786250D01*
X154781250Y-67786250D02*
G75*
G03*
X150177500Y-63182500I-4603750J0D01*
G01*
%TO.N,Net-(D20-A)*%
X173831250Y-68450000D02*
X173831250Y-67786250D01*
X173831250Y-67786250D02*
G75*
G03*
X169227500Y-63182500I-4603750J0D01*
G01*
%TO.N,Net-(D21-A)*%
X192881250Y-68450000D02*
X192881250Y-67786250D01*
X192881250Y-67786250D02*
G75*
G03*
X188277500Y-63182450I-4603750J50D01*
G01*
%TO.N,Net-(D22-A)*%
X211931250Y-68450000D02*
X211931250Y-67786250D01*
X211931250Y-67786250D02*
G75*
G03*
X207327500Y-63182450I-4603750J50D01*
G01*
%TO.N,Net-(D23-A)*%
X230981250Y-68481800D02*
X230981250Y-67786250D01*
X230981250Y-67786250D02*
G75*
G03*
X226377500Y-63182450I-4603750J50D01*
G01*
%TO.N,Net-(D24-A)*%
X254793750Y-68450000D02*
X254793750Y-67798950D01*
X254793750Y-67798950D02*
G75*
G03*
X250177300Y-63182550I-4616450J-50D01*
G01*
%TO.N,Net-(D25-A)*%
X42862550Y-87500000D02*
X42862550Y-86906150D01*
X42862550Y-86906150D02*
G75*
G03*
X38188900Y-82232500I-4673650J0D01*
G01*
%TO.N,Net-(D26-A)*%
X64293750Y-87500000D02*
X64293750Y-86899750D01*
X64293750Y-86899750D02*
G75*
G03*
X59626500Y-82232500I-4667250J0D01*
G01*
%TO.N,Net-(D27-A)*%
X83343750Y-87500000D02*
X83343750Y-86899750D01*
X83343750Y-86899750D02*
G75*
G03*
X78676500Y-82232500I-4667250J0D01*
G01*
%TO.N,Net-(D28-A)*%
X102393750Y-87500000D02*
X102393750Y-86899750D01*
X102393750Y-86899750D02*
G75*
G03*
X97726500Y-82232500I-4667250J0D01*
G01*
%TO.N,Net-(D29-A)*%
X121443750Y-87500000D02*
X121443750Y-86899750D01*
X121443750Y-86899750D02*
G75*
G03*
X116776500Y-82232500I-4667250J0D01*
G01*
%TO.N,Net-(D30-A)*%
X140493750Y-87500000D02*
X140493750Y-86899750D01*
X140493750Y-86899750D02*
G75*
G03*
X135826500Y-82232500I-4667250J0D01*
G01*
%TO.N,Net-(D31-A)*%
X159543750Y-87500000D02*
X159543750Y-86899750D01*
X159543750Y-86899750D02*
G75*
G03*
X154876500Y-82232500I-4667250J0D01*
G01*
%TO.N,Net-(D32-A)*%
X178593750Y-87500000D02*
X178593750Y-86899750D01*
X178593750Y-86899750D02*
G75*
G03*
X173926500Y-82232550I-4667250J-50D01*
G01*
%TO.N,Net-(D33-A)*%
X197643750Y-87500000D02*
X197643750Y-86899750D01*
X197643750Y-86899750D02*
G75*
G03*
X192976500Y-82232550I-4667250J-50D01*
G01*
%TO.N,Net-(D34-A)*%
X216693750Y-87500000D02*
X216693750Y-86899750D01*
X216693750Y-86899750D02*
G75*
G03*
X212026500Y-82232550I-4667250J-50D01*
G01*
%TO.N,Net-(D35-A)*%
X235743750Y-87500000D02*
X235743750Y-86899750D01*
X235743750Y-86899750D02*
G75*
G03*
X231076500Y-82232550I-4667250J-50D01*
G01*
%TO.N,Net-(D36-A)*%
X257175000Y-87500000D02*
X257175000Y-86893400D01*
X257175000Y-86893400D02*
G75*
G03*
X252514100Y-82232500I-4660900J0D01*
G01*
%TO.N,Net-(D37-A)*%
X45243750Y-106550000D02*
X45243750Y-105898950D01*
X45243750Y-105898950D02*
G75*
G03*
X40627300Y-101282500I-4616450J0D01*
G01*
%TO.N,Net-(D38-A)*%
X69056250Y-106550000D02*
X69056250Y-105886250D01*
X69056250Y-105886250D02*
G75*
G03*
X64452500Y-101282500I-4603750J0D01*
G01*
%TO.N,Net-(D39-A)*%
X88106250Y-106550000D02*
X88106250Y-105886250D01*
X88106250Y-105886250D02*
G75*
G03*
X83502500Y-101282500I-4603750J0D01*
G01*
%TO.N,Net-(D40-A)*%
X107156250Y-106550000D02*
X107156250Y-105886250D01*
X107156250Y-105886250D02*
G75*
G03*
X102552500Y-101282500I-4603750J0D01*
G01*
%TO.N,Net-(D41-A)*%
X126206250Y-106550000D02*
X126206250Y-105886250D01*
X126206250Y-105886250D02*
G75*
G03*
X121602500Y-101282500I-4603750J0D01*
G01*
%TO.N,Net-(D42-A)*%
X145256250Y-106550000D02*
X145256250Y-105886250D01*
X145256250Y-105886250D02*
G75*
G03*
X140652500Y-101282500I-4603750J0D01*
G01*
%TO.N,Net-(D43-A)*%
X164306250Y-106550000D02*
X164306250Y-105886250D01*
X164306250Y-105886250D02*
G75*
G03*
X159702500Y-101282500I-4603750J0D01*
G01*
%TO.N,Net-(D44-A)*%
X183356250Y-106550000D02*
X183356250Y-105886250D01*
X183356250Y-105886250D02*
G75*
G03*
X178752500Y-101282450I-4603750J50D01*
G01*
%TO.N,Net-(D45-A)*%
X202406250Y-106550000D02*
X202406250Y-105886250D01*
X202406250Y-105886250D02*
G75*
G03*
X197802500Y-101282450I-4603750J50D01*
G01*
%TO.N,Net-(D46-A)*%
X221456250Y-106550000D02*
X221456250Y-105886250D01*
X221456250Y-105886250D02*
G75*
G03*
X216852500Y-101282450I-4603750J50D01*
G01*
%TO.N,Net-(D47-A)*%
X240506250Y-106550000D02*
X240506250Y-105886250D01*
X240506250Y-105886250D02*
G75*
G03*
X235902500Y-101282450I-4603750J50D01*
G01*
%TO.N,Net-(D48-A)*%
X259556250Y-106550000D02*
X259556250Y-105886250D01*
X259556250Y-105886250D02*
G75*
G03*
X254952500Y-101282450I-4603750J50D01*
G01*
%TO.N,Net-(D49-A)*%
X42893250Y-125600000D02*
X42893250Y-125062250D01*
X42893250Y-125062250D02*
G75*
G03*
X38163500Y-120332500I-4729750J0D01*
G01*
%TO.N,Net-(D50-A)*%
X64093250Y-125600000D02*
X64093250Y-124824650D01*
X64093250Y-124824650D02*
G75*
G03*
X59601100Y-120332500I-4492150J0D01*
G01*
%TO.N,Net-(D51-A)*%
X85693250Y-125600000D02*
X85693250Y-124987050D01*
X85693250Y-124987050D02*
G75*
G03*
X81038700Y-120332500I-4654550J0D01*
G01*
%TO.N,Net-(D52-A)*%
X123825050Y-125600000D02*
X123825050Y-124942650D01*
X123825050Y-124942650D02*
G75*
G03*
X119214900Y-120332500I-4610150J0D01*
G01*
%TO.N,Net-(D53-A)*%
X154781250Y-125600000D02*
X154781250Y-124936250D01*
X154781250Y-124936250D02*
G75*
G03*
X150177500Y-120332500I-4603750J0D01*
G01*
%TO.N,Net-(D54-A)*%
X171450050Y-125600000D02*
X171450050Y-124968050D01*
X171450050Y-124968050D02*
G75*
G03*
X166814500Y-120332500I-4635550J0D01*
G01*
%TO.N,Net-(D55-A)*%
X202406250Y-125600000D02*
X202406250Y-124936250D01*
X202406250Y-124936250D02*
G75*
G03*
X197802500Y-120332450I-4603750J50D01*
G01*
%TO.N,Net-(D56-A)*%
X221456250Y-125600000D02*
X221456250Y-124936250D01*
X221456250Y-124936250D02*
G75*
G03*
X216852500Y-120332450I-4603750J50D01*
G01*
%TO.N,Net-(D57-A)*%
X240506250Y-125600000D02*
X240506250Y-124936250D01*
X240506250Y-124936250D02*
G75*
G03*
X235902500Y-120332450I-4603750J50D01*
G01*
%TO.N,Net-(D58-A)*%
X259556250Y-125600000D02*
X259556250Y-124936250D01*
X259556250Y-124936250D02*
G75*
G03*
X254952500Y-120332450I-4603750J50D01*
G01*
D39*
%TO.N,VBUS*%
X143659700Y-55897500D02*
X141771948Y-55897500D01*
X142684500Y-55668000D02*
X142684500Y-54933000D01*
D38*
X141278600Y-44331500D02*
X144324792Y-44331500D01*
D39*
X141132500Y-59379250D02*
X141284500Y-59531250D01*
D38*
X140362500Y-45637500D02*
X140362500Y-45247600D01*
D39*
X145262500Y-45637500D02*
X145262500Y-52078306D01*
D38*
X145262500Y-45269208D02*
X145262500Y-45637500D01*
D39*
X145048286Y-52595464D02*
X144739828Y-52903917D01*
X143659700Y-55897500D02*
X142914000Y-55897500D01*
X141132500Y-56536948D02*
X141132500Y-59379250D01*
X144124000Y-55897500D02*
X143659700Y-55897500D01*
X144462500Y-53573439D02*
X144462500Y-55559000D01*
X142914000Y-55897500D02*
G75*
G02*
X142684500Y-55668000I0J229500D01*
G01*
X144462500Y-55559000D02*
G75*
G02*
X144124000Y-55897500I-338500J0D01*
G01*
X144739828Y-52903917D02*
G75*
G03*
X144462516Y-53573439I669472J-669483D01*
G01*
X145262500Y-52078306D02*
G75*
G02*
X145048289Y-52595467I-731400J6D01*
G01*
D38*
X140362500Y-45247600D02*
G75*
G02*
X141278600Y-44331500I916100J0D01*
G01*
D39*
X141132500Y-56536948D02*
G75*
G02*
X141771948Y-55897500I639400J48D01*
G01*
D38*
X144324792Y-44331500D02*
G75*
G02*
X145262500Y-45269208I8J-937700D01*
G01*
%TO.N,/CC1*%
X141562500Y-47123750D02*
X141562500Y-45637500D01*
X141287500Y-47398750D02*
G75*
G03*
X141562550Y-47123750I0J275050D01*
G01*
D40*
%TO.N,D_USB_P*%
X143562500Y-45948070D02*
X143562500Y-45637500D01*
X143562500Y-45637500D02*
X143562500Y-44808500D01*
X142909500Y-53017073D02*
X142909500Y-47408933D01*
X142783339Y-44685500D02*
X143439500Y-44685500D01*
X143634500Y-54933000D02*
X143634500Y-54570500D01*
X143562500Y-46278136D02*
X143562500Y-45637500D01*
X143634500Y-54570500D02*
X143495287Y-54431287D01*
X142562500Y-45637500D02*
X142562500Y-44906339D01*
X143069406Y-47022849D02*
X143384562Y-46707704D01*
X143495287Y-54431287D02*
G75*
G02*
X142909519Y-53017073I1414213J1414187D01*
G01*
X142909500Y-47408933D02*
G75*
G02*
X143069398Y-47022841I546000J33D01*
G01*
X142562500Y-44906339D02*
G75*
G02*
X142783339Y-44685500I220800J39D01*
G01*
X143384562Y-46707704D02*
G75*
G03*
X143562522Y-46278136I-429562J429604D01*
G01*
X143562500Y-44808500D02*
G75*
G03*
X143439500Y-44685500I-123000J0D01*
G01*
D38*
%TO.N,/CC2*%
X144562500Y-47298750D02*
X144562500Y-45637500D01*
X144462500Y-47398750D02*
G75*
G03*
X144562450Y-47298750I0J99950D01*
G01*
D40*
%TO.N,D_USB_N*%
X141734500Y-54570500D02*
X141734500Y-54933000D01*
X141873713Y-54431287D02*
X141734500Y-54570500D01*
X143062500Y-45637500D02*
X143062500Y-46235605D01*
X142062500Y-46562500D02*
X142089500Y-46589500D01*
X142459500Y-47494830D02*
X142459500Y-53017073D01*
X142692372Y-46932628D02*
X142831350Y-46793650D01*
X142062500Y-45637500D02*
X142062500Y-46562500D01*
X143062500Y-46292552D02*
X143062500Y-45637500D01*
X142089500Y-46589500D02*
X142939500Y-46589500D01*
X142459500Y-53017073D02*
G75*
G02*
X141873727Y-54431301I-2000000J-27D01*
G01*
X142459500Y-47494830D02*
G75*
G02*
X142692351Y-46932607I795100J30D01*
G01*
X142939500Y-46589500D02*
G75*
G03*
X143062480Y-46292552I-296900J296900D01*
G01*
X143062500Y-46235605D02*
G75*
G02*
X142831349Y-46793649I-789200J5D01*
G01*
D37*
%TO.N,D_N*%
X137887500Y-64092924D02*
X137887500Y-74463871D01*
X142650000Y-77202286D02*
X142650000Y-86785913D01*
X141734500Y-57208000D02*
X141734500Y-58067510D01*
X142459500Y-59559131D02*
X142459500Y-61476451D01*
X143235786Y-88200126D02*
X146018248Y-90982588D01*
X141233651Y-62702300D02*
X139278124Y-62702300D01*
X139238754Y-75815125D02*
X141262839Y-75815125D01*
X141873714Y-58403602D02*
X142056637Y-58586527D01*
X142650000Y-86785913D02*
G75*
G03*
X143235792Y-88200120I2000000J13D01*
G01*
X142459500Y-61476451D02*
G75*
G02*
X141233651Y-62702300I-1225800J-49D01*
G01*
X137887500Y-74463871D02*
G75*
G03*
X139238754Y-75815200I1351300J-29D01*
G01*
X142056637Y-58586527D02*
G75*
G02*
X142459471Y-59559131I-972637J-972573D01*
G01*
X139278124Y-62702300D02*
G75*
G03*
X137887500Y-64092924I-24J-1390600D01*
G01*
X141734500Y-58067510D02*
G75*
G03*
X141873720Y-58403596I475300J10D01*
G01*
X141262839Y-75815125D02*
G75*
G02*
X142649975Y-77202286I-39J-1387175D01*
G01*
%TO.N,D_P*%
X143443172Y-58402005D02*
X143422286Y-58422892D01*
X139303411Y-75401500D02*
X141297050Y-75401500D01*
X141347586Y-63086613D02*
X139404403Y-63086613D01*
X143100000Y-77204450D02*
X143100000Y-86528807D01*
X143685787Y-87943021D02*
X146371801Y-90629035D01*
X142836500Y-59837105D02*
X142836500Y-61597699D01*
X138337500Y-64153516D02*
X138337500Y-74435589D01*
X143634500Y-57208000D02*
X143634500Y-57940100D01*
X142836500Y-61597699D02*
G75*
G02*
X141347586Y-63086600I-1488900J-1D01*
G01*
X143685787Y-87943021D02*
G75*
G02*
X143099995Y-86528807I1414213J1414221D01*
G01*
X142836500Y-59837105D02*
G75*
G02*
X143422283Y-58422889I2000000J5D01*
G01*
X138337500Y-64153516D02*
G75*
G02*
X139404403Y-63086600I1066900J16D01*
G01*
X141297050Y-75401500D02*
G75*
G02*
X143100000Y-77204450I-50J-1803000D01*
G01*
X143634500Y-57940100D02*
G75*
G02*
X143443166Y-58401999I-653200J0D01*
G01*
X139303411Y-75401500D02*
G75*
G02*
X138337500Y-74435589I-11J965900D01*
G01*
D38*
%TO.N,BOOT0*%
X159814800Y-93656600D02*
X158353253Y-93656600D01*
X152403320Y-91544840D02*
X156241493Y-91544840D01*
X151904912Y-92043248D02*
X152403320Y-91544840D01*
X156241493Y-91544840D02*
G75*
G02*
X157900160Y-93203487I7J-1658660D01*
G01*
X158353253Y-93656600D02*
G75*
G02*
X157900200Y-93203487I47J453100D01*
G01*
D37*
%TO.N,ROW3*%
X137652034Y-95695766D02*
X139978514Y-93369286D01*
X22604898Y-107350000D02*
X22604898Y-98078938D01*
D36*
X45243750Y-109350000D02*
X259556250Y-109350000D01*
D37*
X45243750Y-109350000D02*
X24604898Y-109350000D01*
X141392727Y-92783500D02*
X142677646Y-92783500D01*
X143005011Y-92919099D02*
X143543374Y-93457462D01*
X24402283Y-96281553D02*
X136237820Y-96281553D01*
X139978514Y-93369286D02*
G75*
G02*
X141392727Y-92783519I1414186J-1414214D01*
G01*
X143005011Y-92919099D02*
G75*
G03*
X142677646Y-92783478I-327411J-327401D01*
G01*
X137652034Y-95695766D02*
G75*
G02*
X136237820Y-96281581I-1414234J1414166D01*
G01*
X24604898Y-109350000D02*
G75*
G02*
X22604900Y-107350000I2J2000000D01*
G01*
X22604898Y-98078938D02*
G75*
G02*
X24402283Y-96281558I1797382J-2D01*
G01*
%TD*%
M02*
