0
SECTION
2
HEADER
9
$INSUNITS
70
4
0
ENDSEC
0
SECTION
2
TABLES
0
TABLE
2
LTYPE
0
LTYPE
72
65
70
64
2
CONTINUOUS
3
______
73
0
40
0
0
ENDTAB
0
TABLE
2
LAYER
0
ENDTAB
0
ENDSEC
0
SECTION
2
ENTITIES
0
LINE
8
0
10
2.525
20
-16.525
11
16.525
21
-16.525
0
LINE
8
0
10
16.525
20
-2.525
11
2.525
21
-2.525
0
LINE
8
0
10
16.525
20
-16.525
11
16.525
21
-2.525
0
LINE
8
0
10
2.525
20
-2.525
11
2.525
21
-16.525
0
LINE
8
0
10
26.3375
20
-16.525
11
40.3375
21
-16.525
0
LINE
8
0
10
40.3375
20
-2.525
11
26.3375
21
-2.525
0
LINE
8
0
10
40.3375
20
-16.525
11
40.3375
21
-2.525
0
LINE
8
0
10
26.3375
20
-2.525
11
26.3375
21
-16.525
0
LINE
8
0
10
45.3875
20
-16.525
11
59.3875
21
-16.525
0
LINE
8
0
10
59.3875
20
-2.525
11
45.3875
21
-2.525
0
LINE
8
0
10
59.3875
20
-16.525
11
59.3875
21
-2.525
0
LINE
8
0
10
45.3875
20
-2.525
11
45.3875
21
-16.525
0
LINE
8
0
10
64.4375
20
-16.525
11
78.4375
21
-16.525
0
LINE
8
0
10
78.4375
20
-2.525
11
64.4375
21
-2.525
0
LINE
8
0
10
78.4375
20
-16.525
11
78.4375
21
-2.525
0
LINE
8
0
10
64.4375
20
-2.525
11
64.4375
21
-16.525
0
LINE
8
0
10
83.4875
20
-16.525
11
97.4875
21
-16.525
0
LINE
8
0
10
97.4875
20
-2.525
11
83.4875
21
-2.525
0
LINE
8
0
10
97.4875
20
-16.525
11
97.4875
21
-2.525
0
LINE
8
0
10
83.4875
20
-2.525
11
83.4875
21
-16.525
0
LINE
8
0
10
102.5375
20
-16.525
11
116.5375
21
-16.525
0
LINE
8
0
10
116.5375
20
-2.525
11
102.5375
21
-2.525
0
LINE
8
0
10
116.5375
20
-16.525
11
116.5375
21
-2.525
0
LINE
8
0
10
102.5375
20
-2.525
11
102.5375
21
-16.525
0
LINE
8
0
10
121.5875
20
-16.525
11
135.5875
21
-16.525
0
LINE
8
0
10
135.5875
20
-2.525
11
121.5875
21
-2.525
0
LINE
8
0
10
135.5875
20
-16.525
11
135.5875
21
-2.525
0
LINE
8
0
10
121.5875
20
-2.525
11
121.5875
21
-16.525
0
LINE
8
0
10
140.6375
20
-16.525
11
154.6375
21
-16.525
0
LINE
8
0
10
154.6375
20
-2.525
11
140.6375
21
-2.525
0
LINE
8
0
10
154.6375
20
-16.525
11
154.6375
21
-2.525
0
LINE
8
0
10
140.6375
20
-2.525
11
140.6375
21
-16.525
0
LINE
8
0
10
159.6875
20
-16.525
11
173.6875
21
-16.525
0
LINE
8
0
10
173.6875
20
-2.525
11
159.6875
21
-2.525
0
LINE
8
0
10
173.6875
20
-16.525
11
173.6875
21
-2.525
0
LINE
8
0
10
159.6875
20
-2.525
11
159.6875
21
-16.525
0
LINE
8
0
10
178.7375
20
-16.525
11
192.7375
21
-16.525
0
LINE
8
0
10
192.7375
20
-2.525
11
178.7375
21
-2.525
0
LINE
8
0
10
192.7375
20
-16.525
11
192.7375
21
-2.525
0
LINE
8
0
10
178.7375
20
-2.525
11
178.7375
21
-16.525
0
LINE
8
0
10
197.7875
20
-16.525
11
211.7875
21
-16.525
0
LINE
8
0
10
211.7875
20
-2.525
11
197.7875
21
-2.525
0
LINE
8
0
10
211.7875
20
-16.525
11
211.7875
21
-2.525
0
LINE
8
0
10
197.7875
20
-2.525
11
197.7875
21
-16.525
0
LINE
8
0
10
221.6
20
-16.525
11
235.6
21
-16.525
0
LINE
8
0
10
235.6
20
-2.525
11
221.6
21
-2.525
0
LINE
8
0
10
235.6
20
-16.525
11
235.6
21
-2.525
0
LINE
8
0
10
221.6
20
-2.525
11
221.6
21
-16.525
0
LINE
8
0
10
2.525
20
-35.575
11
16.525
21
-35.575
0
LINE
8
0
10
16.525
20
-21.575
11
2.525
21
-21.575
0
LINE
8
0
10
16.525
20
-35.575
11
16.525
21
-21.575
0
LINE
8
0
10
2.525
20
-21.575
11
2.525
21
-35.575
0
LINE
8
0
10
21.575
20
-35.575
11
35.575
21
-35.575
0
LINE
8
0
10
35.575
20
-21.575
11
21.575
21
-21.575
0
LINE
8
0
10
35.575
20
-35.575
11
35.575
21
-21.575
0
LINE
8
0
10
21.575
20
-21.575
11
21.575
21
-35.575
0
LINE
8
0
10
40.625
20
-35.575
11
54.625
21
-35.575
0
LINE
8
0
10
54.625
20
-21.575
11
40.625
21
-21.575
0
LINE
8
0
10
54.625
20
-35.575
11
54.625
21
-21.575
0
LINE
8
0
10
40.625
20
-21.575
11
40.625
21
-35.575
0
LINE
8
0
10
59.675
20
-35.575
11
73.675
21
-35.575
0
LINE
8
0
10
73.675
20
-21.575
11
59.675
21
-21.575
0
LINE
8
0
10
73.675
20
-35.575
11
73.675
21
-21.575
0
LINE
8
0
10
59.675
20
-21.575
11
59.675
21
-35.575
0
LINE
8
0
10
78.725
20
-35.575
11
92.725
21
-35.575
0
LINE
8
0
10
92.725
20
-21.575
11
78.725
21
-21.575
0
LINE
8
0
10
92.725
20
-35.575
11
92.725
21
-21.575
0
LINE
8
0
10
78.725
20
-21.575
11
78.725
21
-35.575
0
LINE
8
0
10
97.775
20
-35.575
11
111.775
21
-35.575
0
LINE
8
0
10
111.775
20
-21.575
11
97.775
21
-21.575
0
LINE
8
0
10
111.775
20
-35.575
11
111.775
21
-21.575
0
LINE
8
0
10
97.775
20
-21.575
11
97.775
21
-35.575
0
LINE
8
0
10
116.825
20
-35.575
11
130.825
21
-35.575
0
LINE
8
0
10
130.825
20
-21.575
11
116.825
21
-21.575
0
LINE
8
0
10
130.825
20
-35.575
11
130.825
21
-21.575
0
LINE
8
0
10
116.825
20
-21.575
11
116.825
21
-35.575
0
LINE
8
0
10
135.875
20
-35.575
11
149.875
21
-35.575
0
LINE
8
0
10
149.875
20
-21.575
11
135.875
21
-21.575
0
LINE
8
0
10
149.875
20
-35.575
11
149.875
21
-21.575
0
LINE
8
0
10
135.875
20
-21.575
11
135.875
21
-35.575
0
LINE
8
0
10
154.925
20
-35.575
11
168.925
21
-35.575
0
LINE
8
0
10
168.925
20
-21.575
11
154.925
21
-21.575
0
LINE
8
0
10
168.925
20
-35.575
11
168.925
21
-21.575
0
LINE
8
0
10
154.925
20
-21.575
11
154.925
21
-35.575
0
LINE
8
0
10
173.975
20
-35.575
11
187.975
21
-35.575
0
LINE
8
0
10
187.975
20
-21.575
11
173.975
21
-21.575
0
LINE
8
0
10
187.975
20
-35.575
11
187.975
21
-21.575
0
LINE
8
0
10
173.975
20
-21.575
11
173.975
21
-35.575
0
LINE
8
0
10
193.025
20
-35.575
11
207.025
21
-35.575
0
LINE
8
0
10
207.025
20
-21.575
11
193.025
21
-21.575
0
LINE
8
0
10
207.025
20
-35.575
11
207.025
21
-21.575
0
LINE
8
0
10
193.025
20
-21.575
11
193.025
21
-35.575
0
LINE
8
0
10
216.8375
20
-35.575
11
230.8375
21
-35.575
0
LINE
8
0
10
230.8375
20
-21.575
11
216.8375
21
-21.575
0
LINE
8
0
10
230.8375
20
-35.575
11
230.8375
21
-21.575
0
LINE
8
0
10
216.8375
20
-21.575
11
216.8375
21
-35.575
0
LINE
8
0
10
4.90625
20
-54.625
11
18.90625
21
-54.625
0
LINE
8
0
10
18.90625
20
-40.625
11
4.90625
21
-40.625
0
LINE
8
0
10
18.90625
20
-54.625
11
18.90625
21
-40.625
0
LINE
8
0
10
4.90625
20
-40.625
11
4.90625
21
-54.625
0
LINE
8
0
10
26.3375
20
-54.625
11
40.3375
21
-54.625
0
LINE
8
0
10
40.3375
20
-40.625
11
26.3375
21
-40.625
0
LINE
8
0
10
40.3375
20
-54.625
11
40.3375
21
-40.625
0
LINE
8
0
10
26.3375
20
-40.625
11
26.3375
21
-54.625
0
LINE
8
0
10
45.3875
20
-54.625
11
59.3875
21
-54.625
0
LINE
8
0
10
59.3875
20
-40.625
11
45.3875
21
-40.625
0
LINE
8
0
10
59.3875
20
-54.625
11
59.3875
21
-40.625
0
LINE
8
0
10
45.3875
20
-40.625
11
45.3875
21
-54.625
0
LINE
8
0
10
64.4375
20
-54.625
11
78.4375
21
-54.625
0
LINE
8
0
10
78.4375
20
-40.625
11
64.4375
21
-40.625
0
LINE
8
0
10
78.4375
20
-54.625
11
78.4375
21
-40.625
0
LINE
8
0
10
64.4375
20
-40.625
11
64.4375
21
-54.625
0
LINE
8
0
10
83.4875
20
-54.625
11
97.4875
21
-54.625
0
LINE
8
0
10
97.4875
20
-40.625
11
83.4875
21
-40.625
0
LINE
8
0
10
97.4875
20
-54.625
11
97.4875
21
-40.625
0
LINE
8
0
10
83.4875
20
-40.625
11
83.4875
21
-54.625
0
LINE
8
0
10
102.5375
20
-54.625
11
116.5375
21
-54.625
0
LINE
8
0
10
116.5375
20
-40.625
11
102.5375
21
-40.625
0
LINE
8
0
10
116.5375
20
-54.625
11
116.5375
21
-40.625
0
LINE
8
0
10
102.5375
20
-40.625
11
102.5375
21
-54.625
0
LINE
8
0
10
121.5875
20
-54.625
11
135.5875
21
-54.625
0
LINE
8
0
10
135.5875
20
-40.625
11
121.5875
21
-40.625
0
LINE
8
0
10
135.5875
20
-54.625
11
135.5875
21
-40.625
0
LINE
8
0
10
121.5875
20
-40.625
11
121.5875
21
-54.625
0
LINE
8
0
10
140.6375
20
-54.625
11
154.6375
21
-54.625
0
LINE
8
0
10
154.6375
20
-40.625
11
140.6375
21
-40.625
0
LINE
8
0
10
154.6375
20
-54.625
11
154.6375
21
-40.625
0
LINE
8
0
10
140.6375
20
-40.625
11
140.6375
21
-54.625
0
LINE
8
0
10
159.6875
20
-54.625
11
173.6875
21
-54.625
0
LINE
8
0
10
173.6875
20
-40.625
11
159.6875
21
-40.625
0
LINE
8
0
10
173.6875
20
-54.625
11
173.6875
21
-40.625
0
LINE
8
0
10
159.6875
20
-40.625
11
159.6875
21
-54.625
0
LINE
8
0
10
178.7375
20
-54.625
11
192.7375
21
-54.625
0
LINE
8
0
10
192.7375
20
-40.625
11
178.7375
21
-40.625
0
LINE
8
0
10
192.7375
20
-54.625
11
192.7375
21
-40.625
0
LINE
8
0
10
178.7375
20
-40.625
11
178.7375
21
-54.625
0
LINE
8
0
10
197.7875
20
-54.625
11
211.7875
21
-54.625
0
LINE
8
0
10
211.7875
20
-40.625
11
197.7875
21
-40.625
0
LINE
8
0
10
211.7875
20
-54.625
11
211.7875
21
-40.625
0
LINE
8
0
10
197.7875
20
-40.625
11
197.7875
21
-54.625
0
LINE
8
0
10
219.21875
20
-54.625
11
233.21875
21
-54.625
0
LINE
8
0
10
233.21875
20
-40.625
11
219.21875
21
-40.625
0
LINE
8
0
10
233.21875
20
-54.625
11
233.21875
21
-40.625
0
LINE
8
0
10
219.21875
20
-40.625
11
219.21875
21
-54.625
0
LINE
8
0
10
7.2875
20
-73.675
11
21.2875
21
-73.675
0
LINE
8
0
10
21.2875
20
-59.675
11
7.2875
21
-59.675
0
LINE
8
0
10
21.2875
20
-73.675
11
21.2875
21
-59.675
0
LINE
8
0
10
7.2875
20
-59.675
11
7.2875
21
-73.675
0
LINE
8
0
10
31.1
20
-73.675
11
45.1
21
-73.675
0
LINE
8
0
10
45.1
20
-59.675
11
31.1
21
-59.675
0
LINE
8
0
10
45.1
20
-73.675
11
45.1
21
-59.675
0
LINE
8
0
10
31.1
20
-59.675
11
31.1
21
-73.675
0
LINE
8
0
10
50.15
20
-73.675
11
64.15
21
-73.675
0
LINE
8
0
10
64.15
20
-59.675
11
50.15
21
-59.675
0
LINE
8
0
10
64.15
20
-73.675
11
64.15
21
-59.675
0
LINE
8
0
10
50.15
20
-59.675
11
50.15
21
-73.675
0
LINE
8
0
10
69.2
20
-73.675
11
83.2
21
-73.675
0
LINE
8
0
10
83.2
20
-59.675
11
69.2
21
-59.675
0
LINE
8
0
10
83.2
20
-73.675
11
83.2
21
-59.675
0
LINE
8
0
10
69.2
20
-59.675
11
69.2
21
-73.675
0
LINE
8
0
10
88.25
20
-73.675
11
102.25
21
-73.675
0
LINE
8
0
10
102.25
20
-59.675
11
88.25
21
-59.675
0
LINE
8
0
10
102.25
20
-73.675
11
102.25
21
-59.675
0
LINE
8
0
10
88.25
20
-59.675
11
88.25
21
-73.675
0
LINE
8
0
10
107.3
20
-73.675
11
121.3
21
-73.675
0
LINE
8
0
10
121.3
20
-59.675
11
107.3
21
-59.675
0
LINE
8
0
10
121.3
20
-73.675
11
121.3
21
-59.675
0
LINE
8
0
10
107.3
20
-59.675
11
107.3
21
-73.675
0
LINE
8
0
10
126.35
20
-73.675
11
140.35
21
-73.675
0
LINE
8
0
10
140.35
20
-59.675
11
126.35
21
-59.675
0
LINE
8
0
10
140.35
20
-73.675
11
140.35
21
-59.675
0
LINE
8
0
10
126.35
20
-59.675
11
126.35
21
-73.675
0
LINE
8
0
10
145.4
20
-73.675
11
159.4
21
-73.675
0
LINE
8
0
10
159.4
20
-59.675
11
145.4
21
-59.675
0
LINE
8
0
10
159.4
20
-73.675
11
159.4
21
-59.675
0
LINE
8
0
10
145.4
20
-59.675
11
145.4
21
-73.675
0
LINE
8
0
10
164.45
20
-73.675
11
178.45
21
-73.675
0
LINE
8
0
10
178.45
20
-59.675
11
164.45
21
-59.675
0
LINE
8
0
10
178.45
20
-73.675
11
178.45
21
-59.675
0
LINE
8
0
10
164.45
20
-59.675
11
164.45
21
-73.675
0
LINE
8
0
10
183.5
20
-73.675
11
197.5
21
-73.675
0
LINE
8
0
10
197.5
20
-59.675
11
183.5
21
-59.675
0
LINE
8
0
10
197.5
20
-73.675
11
197.5
21
-59.675
0
LINE
8
0
10
183.5
20
-59.675
11
183.5
21
-73.675
0
LINE
8
0
10
202.55
20
-73.675
11
216.55
21
-73.675
0
LINE
8
0
10
216.55
20
-59.675
11
202.55
21
-59.675
0
LINE
8
0
10
216.55
20
-73.675
11
216.55
21
-59.675
0
LINE
8
0
10
202.55
20
-59.675
11
202.55
21
-73.675
0
LINE
8
0
10
221.6
20
-73.675
11
235.6
21
-73.675
0
LINE
8
0
10
235.6
20
-59.675
11
221.6
21
-59.675
0
LINE
8
0
10
235.6
20
-73.675
11
235.6
21
-59.675
0
LINE
8
0
10
221.6
20
-59.675
11
221.6
21
-73.675
0
LINE
8
0
10
4.90625
20
-92.725
11
18.90625
21
-92.725
0
LINE
8
0
10
18.90625
20
-78.725
11
4.90625
21
-78.725
0
LINE
8
0
10
18.90625
20
-92.725
11
18.90625
21
-78.725
0
LINE
8
0
10
4.90625
20
-78.725
11
4.90625
21
-92.725
0
LINE
8
0
10
26.3375
20
-92.725
11
40.3375
21
-92.725
0
LINE
8
0
10
40.3375
20
-78.725
11
26.3375
21
-78.725
0
LINE
8
0
10
40.3375
20
-92.725
11
40.3375
21
-78.725
0
LINE
8
0
10
26.3375
20
-78.725
11
26.3375
21
-92.725
0
LINE
8
0
10
47.76875
20
-92.725
11
61.76875
21
-92.725
0
LINE
8
0
10
61.76875
20
-78.725
11
47.76875
21
-78.725
0
LINE
8
0
10
61.76875
20
-92.725
11
61.76875
21
-78.725
0
LINE
8
0
10
47.76875
20
-78.725
11
47.76875
21
-92.725
0
LINE
8
0
10
85.86875
20
-92.725
11
99.86875
21
-92.725
0
LINE
8
0
10
99.86875
20
-78.725
11
85.86875
21
-78.725
0
LINE
8
0
10
99.86875
20
-92.725
11
99.86875
21
-78.725
0
LINE
8
0
10
85.86875
20
-78.725
11
85.86875
21
-92.725
0
LINE
8
0
10
77.43075
20
-93.725
11
84.43075
21
-93.725
0
LINE
8
0
10
84.43075
20
-78.725
11
77.43075
21
-78.725
0
LINE
8
0
10
84.43075
20
-93.725
11
84.43075
21
-78.725
0
LINE
8
0
10
77.43075
20
-78.725
11
77.43075
21
-93.725
0
LINE
8
0
10
101.30675
20
-93.725
11
108.30675
21
-93.725
0
LINE
8
0
10
108.30675
20
-78.725
11
101.30675
21
-78.725
0
LINE
8
0
10
108.30675
20
-93.725
11
108.30675
21
-78.725
0
LINE
8
0
10
101.30675
20
-78.725
11
101.30675
21
-93.725
0
LINE
8
0
10
116.825
20
-92.725
11
125.05575
21
-92.725
0
LINE
8
0
10
130.825
20
-78.725
11
125.05575
21
-78.725
0
LINE
8
0
10
125.05575
20
-78.725
11
116.825
21
-78.725
0
LINE
8
0
10
116.825
20
-78.725
11
116.825
21
-92.725
0
LINE
8
0
10
63.175
20
-93.725
11
70.175
21
-93.725
0
LINE
8
0
10
70.175
20
-78.725
11
63.175
21
-78.725
0
LINE
8
0
10
70.175
20
-93.725
11
70.175
21
-78.725
0
LINE
8
0
10
63.175
20
-78.725
11
63.175
21
-93.725
0
LINE
8
0
10
158.425
20
-93.725
11
165.425
21
-93.725
0
LINE
8
0
10
165.425
20
-78.725
11
164.45
21
-78.725
0
LINE
8
0
10
164.45
20
-78.725
11
158.425
21
-78.725
0
LINE
8
0
10
165.425
20
-93.725
11
165.425
21
-92.725
0
LINE
8
0
10
158.425
20
-78.725
11
158.425
21
-93.725
0
LINE
8
0
10
133.49375
20
-92.725
11
147.49375
21
-92.725
0
LINE
8
0
10
147.49375
20
-78.725
11
133.49375
21
-78.725
0
LINE
8
0
10
147.49375
20
-92.725
11
147.49375
21
-78.725
0
LINE
8
0
10
133.49375
20
-78.725
11
133.49375
21
-92.725
0
LINE
8
0
10
125.05575
20
-93.725
11
132.05575
21
-93.725
0
LINE
8
0
10
132.05575
20
-78.725
11
130.825
21
-78.725
0
LINE
8
0
10
132.05575
20
-93.725
11
132.05575
21
-78.725
0
LINE
8
0
10
125.05575
20
-92.725
11
125.05575
21
-93.725
0
LINE
8
0
10
148.93175
20
-93.725
11
155.93175
21
-93.725
0
LINE
8
0
10
155.93175
20
-78.725
11
148.93175
21
-78.725
0
LINE
8
0
10
155.93175
20
-93.725
11
155.93175
21
-78.725
0
LINE
8
0
10
148.93175
20
-78.725
11
148.93175
21
-93.725
0
LINE
8
0
10
165.425
20
-92.725
11
178.45
21
-92.725
0
LINE
8
0
10
178.45
20
-78.725
11
165.425
21
-78.725
0
LINE
8
0
10
178.45
20
-92.725
11
178.45
21
-78.725
0
LINE
8
0
10
183.5
20
-92.725
11
197.5
21
-92.725
0
LINE
8
0
10
197.5
20
-78.725
11
183.5
21
-78.725
0
LINE
8
0
10
197.5
20
-92.725
11
197.5
21
-78.725
0
LINE
8
0
10
183.5
20
-78.725
11
183.5
21
-92.725
0
LINE
8
0
10
202.55
20
-92.725
11
216.55
21
-92.725
0
LINE
8
0
10
216.55
20
-78.725
11
202.55
21
-78.725
0
LINE
8
0
10
216.55
20
-92.725
11
216.55
21
-78.725
0
LINE
8
0
10
202.55
20
-78.725
11
202.55
21
-92.725
0
LINE
8
0
10
221.6
20
-92.725
11
235.6
21
-92.725
0
LINE
8
0
10
235.6
20
-78.725
11
221.6
21
-78.725
0
LINE
8
0
10
235.6
20
-92.725
11
235.6
21
-78.725
0
LINE
8
0
10
221.6
20
-78.725
11
221.6
21
-92.725
0
ENDSEC
0
EOF