%TF.GenerationSoftware,KiCad,Pcbnew,(6.0.7)*%
%TF.CreationDate,2022-10-09T16:59:53+02:00*%
%TF.ProjectId,the PETER switchplate,74686520-5045-4544-9552-207377697463,rev?*%
%TF.SameCoordinates,Original*%
%TF.FileFunction,Profile,NP*%
%FSLAX46Y46*%
G04 Gerber Fmt 4.6, Leading zero omitted, Abs format (unit mm)*
G04 Created by KiCad (PCBNEW (6.0.7)) date 2022-10-09 16:59:53*
%MOMM*%
%LPD*%
G01*
G04 APERTURE LIST*
%TA.AperFunction,Profile*%
%ADD10C,0.100000*%
%TD*%
G04 APERTURE END LIST*
D10*
X172720000Y-125857000D02*
X172720000Y-123698000D01*
X185039000Y-87757000D02*
X199009000Y-87757000D01*
X199009000Y-87757000D02*
X199009000Y-101727000D01*
X199009000Y-101727000D02*
X185039000Y-101727000D01*
X185039000Y-101727000D02*
X185039000Y-87757000D01*
X172720000Y-143764000D02*
X172720000Y-139827000D01*
X165989000Y-87757000D02*
X179959000Y-87757000D01*
X179959000Y-87757000D02*
X179959000Y-101727000D01*
X179959000Y-101727000D02*
X165989000Y-101727000D01*
X165989000Y-101727000D02*
X165989000Y-87757000D01*
X111252000Y-123698000D02*
X111252000Y-125857000D01*
X113665000Y-106807000D02*
X127635000Y-106807000D01*
X127635000Y-106807000D02*
X127635000Y-120777000D01*
X127635000Y-120777000D02*
X113665000Y-120777000D01*
X113665000Y-120777000D02*
X113665000Y-106807000D01*
X125222000Y-125857000D02*
X125222000Y-123698000D01*
X108839000Y-49657000D02*
X122809000Y-49657000D01*
X122809000Y-49657000D02*
X122809000Y-63627000D01*
X122809000Y-63627000D02*
X108839000Y-63627000D01*
X108839000Y-63627000D02*
X108839000Y-49657000D01*
X30226000Y-125857000D02*
X44196000Y-125857000D01*
X44196000Y-125857000D02*
X44196000Y-139827000D01*
X44196000Y-139827000D02*
X30226000Y-139827000D01*
X30226000Y-139827000D02*
X30226000Y-125857000D01*
X148971000Y-125857000D02*
X148971000Y-123698000D01*
X148971000Y-143764000D02*
X148971000Y-139827000D01*
X51689000Y-87757000D02*
X65659000Y-87757000D01*
X65659000Y-87757000D02*
X65659000Y-101727000D01*
X65659000Y-101727000D02*
X51689000Y-101727000D01*
X51689000Y-101727000D02*
X51689000Y-87757000D01*
X158877000Y-139827000D02*
X158877000Y-143764000D01*
X158877000Y-143764000D02*
X148971000Y-143764000D01*
X132715000Y-106807000D02*
X146685000Y-106807000D01*
X146685000Y-106807000D02*
X146685000Y-120777000D01*
X146685000Y-120777000D02*
X132715000Y-120777000D01*
X132715000Y-120777000D02*
X132715000Y-106807000D01*
X142240000Y-139827000D02*
X142240000Y-125857000D01*
X111252000Y-139827000D02*
X111252000Y-143764000D01*
X25908000Y-46990000D02*
G75*
G03*
X23368000Y-49530000I0J-2540000D01*
G01*
X247015000Y-106807000D02*
X260985000Y-106807000D01*
X260985000Y-106807000D02*
X260985000Y-120777000D01*
X260985000Y-120777000D02*
X247015000Y-120777000D01*
X247015000Y-120777000D02*
X247015000Y-106807000D01*
X127889000Y-87757000D02*
X141859000Y-87757000D01*
X141859000Y-87757000D02*
X141859000Y-101727000D01*
X141859000Y-101727000D02*
X127889000Y-101727000D01*
X127889000Y-101727000D02*
X127889000Y-87757000D01*
X264922000Y-141351000D02*
X264922000Y-49530000D01*
X185039000Y-49657000D02*
X199009000Y-49657000D01*
X199009000Y-49657000D02*
X199009000Y-63627000D01*
X199009000Y-63627000D02*
X185039000Y-63627000D01*
X185039000Y-63627000D02*
X185039000Y-49657000D01*
X27940000Y-49657000D02*
X41910000Y-49657000D01*
X41910000Y-49657000D02*
X41910000Y-63627000D01*
X41910000Y-63627000D02*
X27940000Y-63627000D01*
X27940000Y-63627000D02*
X27940000Y-49657000D01*
X172720000Y-123698000D02*
X182626000Y-123698000D01*
X146939000Y-87757000D02*
X160909000Y-87757000D01*
X160909000Y-87757000D02*
X160909000Y-101727000D01*
X160909000Y-101727000D02*
X146939000Y-101727000D01*
X146939000Y-101727000D02*
X146939000Y-87757000D01*
X158877000Y-125857000D02*
X172720000Y-125857000D01*
X246888000Y-49657000D02*
X260858000Y-49657000D01*
X260858000Y-49657000D02*
X260858000Y-63627000D01*
X260858000Y-63627000D02*
X246888000Y-63627000D01*
X246888000Y-63627000D02*
X246888000Y-49657000D01*
X96393000Y-143764000D02*
X96393000Y-123698000D01*
X204089000Y-49657000D02*
X218059000Y-49657000D01*
X218059000Y-49657000D02*
X218059000Y-63627000D01*
X218059000Y-63627000D02*
X204089000Y-63627000D01*
X204089000Y-63627000D02*
X204089000Y-49657000D01*
X123190000Y-68707000D02*
X137160000Y-68707000D01*
X137160000Y-68707000D02*
X137160000Y-82677000D01*
X137160000Y-82677000D02*
X123190000Y-82677000D01*
X123190000Y-82677000D02*
X123190000Y-68707000D01*
X104140000Y-68707000D02*
X118110000Y-68707000D01*
X118110000Y-68707000D02*
X118110000Y-82677000D01*
X118110000Y-82677000D02*
X104140000Y-82677000D01*
X104140000Y-82677000D02*
X104140000Y-68707000D01*
X244602000Y-87757000D02*
X258572000Y-87757000D01*
X258572000Y-87757000D02*
X258572000Y-101727000D01*
X258572000Y-101727000D02*
X244602000Y-101727000D01*
X244602000Y-101727000D02*
X244602000Y-87757000D01*
X148971000Y-123698000D02*
X158877000Y-123698000D01*
X161290000Y-68707000D02*
X175260000Y-68707000D01*
X175260000Y-68707000D02*
X175260000Y-82677000D01*
X175260000Y-82677000D02*
X161290000Y-82677000D01*
X161290000Y-82677000D02*
X161290000Y-68707000D01*
X89789000Y-49657000D02*
X103759000Y-49657000D01*
X103759000Y-49657000D02*
X103759000Y-63627000D01*
X103759000Y-63627000D02*
X89789000Y-63627000D01*
X89789000Y-63627000D02*
X89789000Y-49657000D01*
X208915000Y-125857000D02*
X222885000Y-125857000D01*
X222885000Y-125857000D02*
X222885000Y-139827000D01*
X222885000Y-139827000D02*
X208915000Y-139827000D01*
X208915000Y-139827000D02*
X208915000Y-125857000D01*
X148971000Y-139827000D02*
X142240000Y-139827000D01*
X142240000Y-68707000D02*
X156210000Y-68707000D01*
X156210000Y-68707000D02*
X156210000Y-82677000D01*
X156210000Y-82677000D02*
X142240000Y-82677000D01*
X142240000Y-82677000D02*
X142240000Y-68707000D01*
X223139000Y-49657000D02*
X237109000Y-49657000D01*
X237109000Y-49657000D02*
X237109000Y-63627000D01*
X237109000Y-63627000D02*
X223139000Y-63627000D01*
X223139000Y-63627000D02*
X223139000Y-49657000D01*
X208915000Y-106807000D02*
X222885000Y-106807000D01*
X222885000Y-106807000D02*
X222885000Y-120777000D01*
X222885000Y-120777000D02*
X208915000Y-120777000D01*
X208915000Y-120777000D02*
X208915000Y-106807000D01*
X204089000Y-87757000D02*
X218059000Y-87757000D01*
X218059000Y-87757000D02*
X218059000Y-101727000D01*
X218059000Y-101727000D02*
X204089000Y-101727000D01*
X204089000Y-101727000D02*
X204089000Y-87757000D01*
X247015000Y-125857000D02*
X260985000Y-125857000D01*
X260985000Y-125857000D02*
X260985000Y-139827000D01*
X260985000Y-139827000D02*
X247015000Y-139827000D01*
X247015000Y-139827000D02*
X247015000Y-125857000D01*
X27940000Y-68707000D02*
X41910000Y-68707000D01*
X41910000Y-68707000D02*
X41910000Y-82677000D01*
X41910000Y-82677000D02*
X27940000Y-82677000D01*
X27940000Y-82677000D02*
X27940000Y-68707000D01*
X191770000Y-123571000D02*
X201676000Y-123571000D01*
X201676000Y-123571000D02*
X201676000Y-143637000D01*
X201676000Y-143637000D02*
X191770000Y-143637000D01*
X191770000Y-143637000D02*
X191770000Y-123571000D01*
X262382000Y-143891000D02*
G75*
G03*
X264922000Y-141351000I0J2540000D01*
G01*
X172720000Y-139827000D02*
X158877000Y-139827000D01*
X51689000Y-49657000D02*
X65659000Y-49657000D01*
X65659000Y-49657000D02*
X65659000Y-63627000D01*
X65659000Y-63627000D02*
X51689000Y-63627000D01*
X51689000Y-63627000D02*
X51689000Y-49657000D01*
X32639000Y-106807000D02*
X46609000Y-106807000D01*
X46609000Y-106807000D02*
X46609000Y-120777000D01*
X46609000Y-120777000D02*
X32639000Y-120777000D01*
X32639000Y-120777000D02*
X32639000Y-106807000D01*
X242189000Y-68707000D02*
X256159000Y-68707000D01*
X256159000Y-68707000D02*
X256159000Y-82677000D01*
X256159000Y-82677000D02*
X242189000Y-82677000D01*
X242189000Y-82677000D02*
X242189000Y-68707000D01*
X135128000Y-123698000D02*
X135128000Y-143764000D01*
X111252000Y-143764000D02*
X96393000Y-143764000D01*
X108839000Y-87757000D02*
X122809000Y-87757000D01*
X122809000Y-87757000D02*
X122809000Y-101727000D01*
X122809000Y-101727000D02*
X108839000Y-101727000D01*
X108839000Y-101727000D02*
X108839000Y-87757000D01*
X264922000Y-49530000D02*
G75*
G03*
X262382000Y-46990000I-2540000J0D01*
G01*
X135128000Y-143764000D02*
X125222000Y-143764000D01*
X165989000Y-49657000D02*
X179959000Y-49657000D01*
X179959000Y-49657000D02*
X179959000Y-63627000D01*
X179959000Y-63627000D02*
X165989000Y-63627000D01*
X165989000Y-63627000D02*
X165989000Y-49657000D01*
X170815000Y-106807000D02*
X184785000Y-106807000D01*
X184785000Y-106807000D02*
X184785000Y-120777000D01*
X184785000Y-120777000D02*
X170815000Y-120777000D01*
X170815000Y-120777000D02*
X170815000Y-106807000D01*
X89789000Y-87757000D02*
X103759000Y-87757000D01*
X103759000Y-87757000D02*
X103759000Y-101727000D01*
X103759000Y-101727000D02*
X89789000Y-101727000D01*
X89789000Y-101727000D02*
X89789000Y-87757000D01*
X227965000Y-106807000D02*
X241935000Y-106807000D01*
X241935000Y-106807000D02*
X241935000Y-120777000D01*
X241935000Y-120777000D02*
X227965000Y-120777000D01*
X227965000Y-120777000D02*
X227965000Y-106807000D01*
X151765000Y-106807000D02*
X165735000Y-106807000D01*
X165735000Y-106807000D02*
X165735000Y-120777000D01*
X165735000Y-120777000D02*
X151765000Y-120777000D01*
X151765000Y-120777000D02*
X151765000Y-106807000D01*
X44196000Y-101727000D02*
X30226000Y-101727000D01*
X30226000Y-101727000D02*
X30226000Y-87757000D01*
X30226000Y-87757000D02*
X44196000Y-87757000D01*
X44196000Y-87757000D02*
X44196000Y-101727000D01*
X46990000Y-68707000D02*
X60960000Y-68707000D01*
X60960000Y-68707000D02*
X60960000Y-82677000D01*
X60960000Y-82677000D02*
X46990000Y-82677000D01*
X46990000Y-82677000D02*
X46990000Y-68707000D01*
X180340000Y-68707000D02*
X194310000Y-68707000D01*
X194310000Y-68707000D02*
X194310000Y-82677000D01*
X194310000Y-82677000D02*
X180340000Y-82677000D01*
X180340000Y-82677000D02*
X180340000Y-68707000D01*
X85090000Y-68707000D02*
X99060000Y-68707000D01*
X99060000Y-68707000D02*
X99060000Y-82677000D01*
X99060000Y-82677000D02*
X85090000Y-82677000D01*
X85090000Y-82677000D02*
X85090000Y-68707000D01*
X75565000Y-106807000D02*
X89535000Y-106807000D01*
X89535000Y-106807000D02*
X89535000Y-120777000D01*
X89535000Y-120777000D02*
X75565000Y-120777000D01*
X75565000Y-120777000D02*
X75565000Y-106807000D01*
X199390000Y-68707000D02*
X213360000Y-68707000D01*
X213360000Y-68707000D02*
X213360000Y-82677000D01*
X213360000Y-82677000D02*
X199390000Y-82677000D01*
X199390000Y-82677000D02*
X199390000Y-68707000D01*
X227965000Y-125857000D02*
X241935000Y-125857000D01*
X241935000Y-125857000D02*
X241935000Y-139827000D01*
X241935000Y-139827000D02*
X227965000Y-139827000D01*
X227965000Y-139827000D02*
X227965000Y-125857000D01*
X142240000Y-125857000D02*
X148971000Y-125857000D01*
X23368000Y-49530000D02*
X23368000Y-141351000D01*
X182626000Y-123698000D02*
X182626000Y-143764000D01*
X146939000Y-49657000D02*
X160909000Y-49657000D01*
X160909000Y-49657000D02*
X160909000Y-63627000D01*
X160909000Y-63627000D02*
X146939000Y-63627000D01*
X146939000Y-63627000D02*
X146939000Y-49657000D01*
X158877000Y-123698000D02*
X158877000Y-125857000D01*
X182626000Y-143764000D02*
X172720000Y-143764000D01*
X189865000Y-106807000D02*
X203835000Y-106807000D01*
X203835000Y-106807000D02*
X203835000Y-120777000D01*
X203835000Y-120777000D02*
X189865000Y-120777000D01*
X189865000Y-120777000D02*
X189865000Y-106807000D01*
X66040000Y-68707000D02*
X80010000Y-68707000D01*
X80010000Y-68707000D02*
X80010000Y-82677000D01*
X80010000Y-82677000D02*
X66040000Y-82677000D01*
X66040000Y-82677000D02*
X66040000Y-68707000D01*
X127889000Y-49657000D02*
X141859000Y-49657000D01*
X141859000Y-49657000D02*
X141859000Y-63627000D01*
X141859000Y-63627000D02*
X127889000Y-63627000D01*
X127889000Y-63627000D02*
X127889000Y-49657000D01*
X70739000Y-87757000D02*
X84709000Y-87757000D01*
X84709000Y-87757000D02*
X84709000Y-101727000D01*
X84709000Y-101727000D02*
X70739000Y-101727000D01*
X70739000Y-101727000D02*
X70739000Y-87757000D01*
X73152000Y-125857000D02*
X87122000Y-125857000D01*
X87122000Y-125857000D02*
X87122000Y-139827000D01*
X87122000Y-139827000D02*
X73152000Y-139827000D01*
X73152000Y-139827000D02*
X73152000Y-125857000D01*
X111252000Y-125857000D02*
X125222000Y-125857000D01*
X25908000Y-46990000D02*
X262382000Y-46990000D01*
X125222000Y-143764000D02*
X125222000Y-139827000D01*
X125222000Y-123698000D02*
X135128000Y-123698000D01*
X25908000Y-143891000D02*
X262382000Y-143891000D01*
X51689000Y-125857000D02*
X65659000Y-125857000D01*
X65659000Y-125857000D02*
X65659000Y-139827000D01*
X65659000Y-139827000D02*
X51689000Y-139827000D01*
X51689000Y-139827000D02*
X51689000Y-125857000D01*
X56515000Y-106807000D02*
X70485000Y-106807000D01*
X70485000Y-106807000D02*
X70485000Y-120777000D01*
X70485000Y-120777000D02*
X56515000Y-120777000D01*
X56515000Y-120777000D02*
X56515000Y-106807000D01*
X23368000Y-141351000D02*
G75*
G03*
X25908000Y-143891000I2540000J0D01*
G01*
X223139000Y-87757000D02*
X237109000Y-87757000D01*
X237109000Y-87757000D02*
X237109000Y-101727000D01*
X237109000Y-101727000D02*
X223139000Y-101727000D01*
X223139000Y-101727000D02*
X223139000Y-87757000D01*
X96393000Y-123698000D02*
X111252000Y-123698000D01*
X218440000Y-68707000D02*
X232410000Y-68707000D01*
X232410000Y-68707000D02*
X232410000Y-82677000D01*
X232410000Y-82677000D02*
X218440000Y-82677000D01*
X218440000Y-82677000D02*
X218440000Y-68707000D01*
X125222000Y-139827000D02*
X111252000Y-139827000D01*
X70739000Y-49657000D02*
X84709000Y-49657000D01*
X84709000Y-49657000D02*
X84709000Y-63627000D01*
X84709000Y-63627000D02*
X70739000Y-63627000D01*
X70739000Y-63627000D02*
X70739000Y-49657000D01*
X94615000Y-106807000D02*
X108585000Y-106807000D01*
X108585000Y-106807000D02*
X108585000Y-120777000D01*
X108585000Y-120777000D02*
X94615000Y-120777000D01*
X94615000Y-120777000D02*
X94615000Y-106807000D01*
M02*
