%TF.GenerationSoftware,KiCad,Pcbnew,(6.0.7)*%
%TF.CreationDate,2022-10-26T22:21:46+02:00*%
%TF.ProjectId,the PETER switchplate,74686520-5045-4544-9552-207377697463,rev?*%
%TF.SameCoordinates,Original*%
%TF.FileFunction,Profile,NP*%
%FSLAX46Y46*%
G04 Gerber Fmt 4.6, Leading zero omitted, Abs format (unit mm)*
G04 Created by KiCad (PCBNEW (6.0.7)) date 2022-10-26 22:21:46*
%MOMM*%
%LPD*%
G01*
G04 APERTURE LIST*
%TA.AperFunction,Profile*%
%ADD10C,0.200000*%
%TD*%
%TA.AperFunction,Profile*%
%ADD11C,0.100000*%
%TD*%
G04 APERTURE END LIST*
D10*
X51752500Y-139857000D02*
X65752500Y-139857000D01*
X51752500Y-63657000D02*
X65752500Y-63657000D01*
X189865000Y-125857000D02*
X189865000Y-139857000D01*
X80040000Y-82707000D02*
X80040000Y-68707000D01*
X84802500Y-87757000D02*
X70802500Y-87757000D01*
X41940000Y-82707000D02*
X41940000Y-68707000D01*
X175290000Y-68707000D02*
X161290000Y-68707000D01*
X51752500Y-125857000D02*
X51752500Y-139857000D01*
X132715000Y-106807000D02*
X132715000Y-120807000D01*
X27940000Y-63657000D02*
X41940000Y-63657000D01*
X56515000Y-106807000D02*
X56515000Y-120807000D01*
X174346750Y-139857000D02*
X181346750Y-139857000D01*
X157470750Y-139857000D02*
X157470750Y-124857000D01*
X150470750Y-125857000D02*
X142240000Y-125857000D01*
X46990000Y-68707000D02*
X46990000Y-82707000D01*
X41940000Y-68707000D02*
X27940000Y-68707000D01*
X166052500Y-63657000D02*
X180052500Y-63657000D01*
X65752500Y-49657000D02*
X51752500Y-49657000D01*
X70802500Y-87757000D02*
X70802500Y-101757000D01*
X65752500Y-139857000D02*
X65752500Y-125857000D01*
X165765000Y-120807000D02*
X165765000Y-106807000D01*
X122902500Y-63657000D02*
X122902500Y-49657000D01*
X241965000Y-125857000D02*
X227965000Y-125857000D01*
X199102500Y-63657000D02*
X199102500Y-49657000D01*
X218152500Y-49657000D02*
X204152500Y-49657000D01*
X261015000Y-49657000D02*
X247015000Y-49657000D01*
X70802500Y-49657000D02*
X70802500Y-63657000D01*
X218152500Y-101757000D02*
X218152500Y-87757000D01*
X87183750Y-139857000D02*
X87183750Y-125857000D01*
X181346750Y-139857000D02*
X181346750Y-124857000D01*
X227965000Y-125857000D02*
X227965000Y-139857000D01*
X158908750Y-139857000D02*
X172908750Y-139857000D01*
X46702500Y-120807000D02*
X46702500Y-106807000D01*
D11*
X25273000Y-142367000D02*
X263525000Y-142367000D01*
D10*
X51752500Y-101757000D02*
X65752500Y-101757000D01*
X147002500Y-49657000D02*
X147002500Y-63657000D01*
X108615000Y-106807000D02*
X94615000Y-106807000D01*
X151765000Y-106807000D02*
X151765000Y-120807000D01*
X127665000Y-120807000D02*
X127665000Y-106807000D01*
X247015000Y-120807000D02*
X261015000Y-120807000D01*
X203865000Y-120807000D02*
X203865000Y-106807000D01*
X200413500Y-124857000D02*
X193413500Y-124857000D01*
X127952500Y-101757000D02*
X141952500Y-101757000D01*
X44321250Y-125857000D02*
X30321250Y-125857000D01*
X27940000Y-82707000D02*
X41940000Y-82707000D01*
X65752500Y-101757000D02*
X65752500Y-87757000D01*
X150470750Y-124857000D02*
X150470750Y-125857000D01*
X223202500Y-49657000D02*
X223202500Y-63657000D01*
D11*
X25205187Y-46983437D02*
G75*
G03*
X22665187Y-49523440I3J-2540003D01*
G01*
D10*
X70802500Y-101757000D02*
X84802500Y-101757000D01*
X189865000Y-106807000D02*
X189865000Y-120807000D01*
X161002500Y-101757000D02*
X161002500Y-87757000D01*
X241965000Y-120807000D02*
X241965000Y-106807000D01*
X158908750Y-125857000D02*
X158908750Y-139857000D01*
X241965000Y-139857000D02*
X241965000Y-125857000D01*
X193413500Y-125857000D02*
X189865000Y-125857000D01*
X142240000Y-82707000D02*
X156240000Y-82707000D01*
X185102500Y-87757000D02*
X185102500Y-101757000D01*
X103852500Y-101757000D02*
X103852500Y-87757000D01*
D11*
X266065000Y-139827000D02*
X265970835Y-49530000D01*
D10*
X70515000Y-106807000D02*
X56515000Y-106807000D01*
X161002500Y-49657000D02*
X147002500Y-49657000D01*
X127665000Y-106807000D02*
X113665000Y-106807000D01*
X30321250Y-139857000D02*
X44321250Y-139857000D01*
X141952500Y-101757000D02*
X141952500Y-87757000D01*
X203898500Y-125857000D02*
X200413500Y-125857000D01*
X180340000Y-82707000D02*
X194340000Y-82707000D01*
X185102500Y-63657000D02*
X199102500Y-63657000D01*
X213390000Y-82707000D02*
X213390000Y-68707000D01*
X73183750Y-139857000D02*
X87183750Y-139857000D01*
X199102500Y-87757000D02*
X185102500Y-87757000D01*
X127952500Y-87757000D02*
X127952500Y-101757000D01*
X46990000Y-82707000D02*
X60990000Y-82707000D01*
X247015000Y-139857000D02*
X261015000Y-139857000D01*
X242252500Y-68707000D02*
X242252500Y-82707000D01*
X111188500Y-125857000D02*
X111188500Y-124857000D01*
X227965000Y-106807000D02*
X227965000Y-120807000D01*
X261015000Y-139857000D02*
X261015000Y-125857000D01*
X204152500Y-101757000D02*
X218152500Y-101757000D01*
X103852500Y-63657000D02*
X103852500Y-49657000D01*
X32702500Y-120807000D02*
X46702500Y-120807000D01*
X141952500Y-87757000D02*
X127952500Y-87757000D01*
X147002500Y-101757000D02*
X161002500Y-101757000D01*
X94615000Y-106807000D02*
X94615000Y-120807000D01*
X118140000Y-82707000D02*
X118140000Y-68707000D01*
X122902500Y-49657000D02*
X108902500Y-49657000D01*
X184815000Y-120807000D02*
X184815000Y-106807000D01*
X237202500Y-87757000D02*
X223202500Y-87757000D01*
X161290000Y-82707000D02*
X175290000Y-82707000D01*
X84802500Y-63657000D02*
X84802500Y-49657000D01*
X94615000Y-120807000D02*
X108615000Y-120807000D01*
X261015000Y-106807000D02*
X247015000Y-106807000D01*
X208915000Y-125857000D02*
X208915000Y-139857000D01*
X84802500Y-101757000D02*
X84802500Y-87757000D01*
X166052500Y-87757000D02*
X166052500Y-101757000D01*
X30321250Y-101757000D02*
X44321250Y-101757000D01*
X60990000Y-68707000D02*
X46990000Y-68707000D01*
X147002500Y-63657000D02*
X161002500Y-63657000D01*
X122902500Y-87757000D02*
X108902500Y-87757000D01*
X180340000Y-68707000D02*
X180340000Y-82707000D01*
X80040000Y-68707000D02*
X66040000Y-68707000D01*
X244633750Y-87757000D02*
X244633750Y-101757000D01*
X126721750Y-139857000D02*
X133721750Y-139857000D01*
X156240000Y-139857000D02*
X157470750Y-139857000D01*
X247015000Y-63657000D02*
X261015000Y-63657000D01*
X247015000Y-125857000D02*
X247015000Y-139857000D01*
X127952500Y-63657000D02*
X141952500Y-63657000D01*
X174346750Y-124857000D02*
X174346750Y-139857000D01*
X65752500Y-63657000D02*
X65752500Y-49657000D01*
X170815000Y-120807000D02*
X184815000Y-120807000D01*
X89565000Y-106807000D02*
X75565000Y-106807000D01*
X133721750Y-139857000D02*
X133721750Y-124857000D01*
X156240000Y-82707000D02*
X156240000Y-68707000D01*
X189865000Y-120807000D02*
X203865000Y-120807000D01*
X142240000Y-125857000D02*
X142240000Y-139857000D01*
X85090000Y-68707000D02*
X85090000Y-82707000D01*
X60990000Y-82707000D02*
X60990000Y-68707000D01*
X111283750Y-139857000D02*
X114640000Y-139857000D01*
X241965000Y-106807000D02*
X227965000Y-106807000D01*
X261015000Y-63657000D02*
X261015000Y-49657000D01*
X227965000Y-139857000D02*
X241965000Y-139857000D01*
X218152500Y-63657000D02*
X218152500Y-49657000D01*
X99090000Y-82707000D02*
X99090000Y-68707000D01*
X180052500Y-101757000D02*
X180052500Y-87757000D01*
X99090000Y-68707000D02*
X85090000Y-68707000D01*
X123190000Y-82707000D02*
X137190000Y-82707000D01*
X161002500Y-87757000D02*
X147002500Y-87757000D01*
X223202500Y-63657000D02*
X237202500Y-63657000D01*
X84802500Y-49657000D02*
X70802500Y-49657000D01*
X109845750Y-139857000D02*
X111283750Y-139857000D01*
X200413500Y-125857000D02*
X200413500Y-124857000D01*
X107640000Y-139857000D02*
X109845750Y-139857000D01*
X237202500Y-49657000D02*
X223202500Y-49657000D01*
X114640000Y-139857000D02*
X125283750Y-139857000D01*
X146715000Y-120807000D02*
X146715000Y-106807000D01*
X44321250Y-139857000D02*
X44321250Y-125857000D01*
X256252500Y-68707000D02*
X242252500Y-68707000D01*
X258633750Y-87757000D02*
X244633750Y-87757000D01*
X258633750Y-101757000D02*
X258633750Y-87757000D01*
D11*
X265970800Y-49530000D02*
G75*
G03*
X263430835Y-46990000I-2540000J0D01*
G01*
D10*
X141952500Y-49657000D02*
X127952500Y-49657000D01*
X199390000Y-68707000D02*
X199390000Y-82707000D01*
X30321250Y-87757000D02*
X30321250Y-101757000D01*
X208915000Y-120807000D02*
X222915000Y-120807000D01*
X108902500Y-101757000D02*
X122902500Y-101757000D01*
X65752500Y-125857000D02*
X51752500Y-125857000D01*
X199102500Y-49657000D02*
X185102500Y-49657000D01*
X111188500Y-124857000D02*
X109845750Y-124857000D01*
X161290000Y-68707000D02*
X161290000Y-82707000D01*
X125283750Y-125857000D02*
X111188500Y-125857000D01*
X244633750Y-101757000D02*
X258633750Y-101757000D01*
X194340000Y-82707000D02*
X194340000Y-68707000D01*
X222915000Y-139857000D02*
X222915000Y-125857000D01*
X142240000Y-68707000D02*
X142240000Y-82707000D01*
X85090000Y-82707000D02*
X99090000Y-82707000D01*
X223202500Y-101757000D02*
X237202500Y-101757000D01*
X141952500Y-63657000D02*
X141952500Y-49657000D01*
X175290000Y-82707000D02*
X175290000Y-68707000D01*
X218440000Y-82707000D02*
X232440000Y-82707000D01*
X89852500Y-101757000D02*
X103852500Y-101757000D01*
X218440000Y-68707000D02*
X218440000Y-82707000D01*
X208915000Y-106807000D02*
X208915000Y-120807000D01*
X107640000Y-124857000D02*
X98488500Y-124857000D01*
X113665000Y-120807000D02*
X127665000Y-120807000D01*
X104140000Y-82707000D02*
X118140000Y-82707000D01*
X89852500Y-63657000D02*
X103852500Y-63657000D01*
X127952500Y-49657000D02*
X127952500Y-63657000D01*
X261015000Y-120807000D02*
X261015000Y-106807000D01*
X66040000Y-68707000D02*
X66040000Y-82707000D01*
X30321250Y-125857000D02*
X30321250Y-139857000D01*
X44321250Y-101757000D02*
X44321250Y-87757000D01*
X247015000Y-49657000D02*
X247015000Y-63657000D01*
X194340000Y-68707000D02*
X180340000Y-68707000D01*
X125283750Y-139857000D02*
X125283750Y-125857000D01*
D11*
X263430835Y-46990000D02*
X25205187Y-46983440D01*
D10*
X147002500Y-87757000D02*
X147002500Y-101757000D01*
X222915000Y-125857000D02*
X208915000Y-125857000D01*
X103852500Y-87757000D02*
X89852500Y-87757000D01*
X133721750Y-124857000D02*
X126721750Y-124857000D01*
X89565000Y-120807000D02*
X89565000Y-106807000D01*
X89852500Y-87757000D02*
X89852500Y-101757000D01*
X103852500Y-49657000D02*
X89852500Y-49657000D01*
D11*
X22665187Y-49523440D02*
X22733000Y-139827000D01*
D10*
X137190000Y-68707000D02*
X123190000Y-68707000D01*
X108902500Y-63657000D02*
X122902500Y-63657000D01*
X203865000Y-106807000D02*
X189865000Y-106807000D01*
X247015000Y-106807000D02*
X247015000Y-120807000D01*
X75565000Y-120807000D02*
X89565000Y-120807000D01*
X66040000Y-82707000D02*
X80040000Y-82707000D01*
X32702500Y-106807000D02*
X32702500Y-120807000D01*
X151765000Y-120807000D02*
X165765000Y-120807000D01*
X189865000Y-139857000D02*
X203898500Y-139857000D01*
X123190000Y-68707000D02*
X123190000Y-82707000D01*
X142240000Y-139857000D02*
X150470750Y-139857000D01*
X157470750Y-124857000D02*
X150470750Y-124857000D01*
X256252500Y-82707000D02*
X256252500Y-68707000D01*
X56515000Y-120807000D02*
X70515000Y-120807000D01*
X185102500Y-101757000D02*
X199102500Y-101757000D01*
X180052500Y-63657000D02*
X180052500Y-49657000D01*
X41940000Y-49657000D02*
X27940000Y-49657000D01*
X46702500Y-106807000D02*
X32702500Y-106807000D01*
X51752500Y-87757000D02*
X51752500Y-101757000D01*
X75565000Y-106807000D02*
X75565000Y-120807000D01*
X172908750Y-125857000D02*
X158908750Y-125857000D01*
X170815000Y-106807000D02*
X170815000Y-120807000D01*
X132715000Y-120807000D02*
X146715000Y-120807000D01*
X65752500Y-87757000D02*
X51752500Y-87757000D01*
X161002500Y-63657000D02*
X161002500Y-49657000D01*
X232440000Y-82707000D02*
X232440000Y-68707000D01*
X166052500Y-101757000D02*
X180052500Y-101757000D01*
X213390000Y-68707000D02*
X199390000Y-68707000D01*
X232440000Y-68707000D02*
X218440000Y-68707000D01*
X126721750Y-124857000D02*
X126721750Y-139857000D01*
X113665000Y-106807000D02*
X113665000Y-120807000D01*
X89852500Y-49657000D02*
X89852500Y-63657000D01*
X44321250Y-87757000D02*
X30321250Y-87757000D01*
X227965000Y-120807000D02*
X241965000Y-120807000D01*
X204152500Y-87757000D02*
X204152500Y-101757000D01*
X51752500Y-49657000D02*
X51752500Y-63657000D01*
X222915000Y-106807000D02*
X208915000Y-106807000D01*
X98488500Y-139857000D02*
X107640000Y-139857000D01*
X150470750Y-139857000D02*
X156240000Y-139857000D01*
X108902500Y-87757000D02*
X108902500Y-101757000D01*
X108615000Y-120807000D02*
X108615000Y-106807000D01*
X166052500Y-49657000D02*
X166052500Y-63657000D01*
X237202500Y-63657000D02*
X237202500Y-49657000D01*
X184815000Y-106807000D02*
X170815000Y-106807000D01*
X70515000Y-120807000D02*
X70515000Y-106807000D01*
X180052500Y-49657000D02*
X166052500Y-49657000D01*
X218152500Y-87757000D02*
X204152500Y-87757000D01*
X70802500Y-63657000D02*
X84802500Y-63657000D01*
X109845750Y-124857000D02*
X107640000Y-124857000D01*
X223202500Y-87757000D02*
X223202500Y-101757000D01*
X222915000Y-120807000D02*
X222915000Y-106807000D01*
X261015000Y-125857000D02*
X247015000Y-125857000D01*
X203898500Y-139857000D02*
X203898500Y-125857000D01*
X193413500Y-124857000D02*
X193413500Y-125857000D01*
X237202500Y-101757000D02*
X237202500Y-87757000D01*
X165765000Y-106807000D02*
X151765000Y-106807000D01*
X199390000Y-82707000D02*
X213390000Y-82707000D01*
D11*
X263525000Y-142367000D02*
G75*
G03*
X266065000Y-139827000I0J2540000D01*
G01*
D10*
X73183750Y-125857000D02*
X73183750Y-139857000D01*
X118140000Y-68707000D02*
X104140000Y-68707000D01*
X137190000Y-82707000D02*
X137190000Y-68707000D01*
X27940000Y-68707000D02*
X27940000Y-82707000D01*
X108902500Y-49657000D02*
X108902500Y-63657000D01*
X208915000Y-139857000D02*
X222915000Y-139857000D01*
X104140000Y-68707000D02*
X104140000Y-82707000D01*
X156240000Y-68707000D02*
X142240000Y-68707000D01*
X185102500Y-49657000D02*
X185102500Y-63657000D01*
D11*
X22733000Y-139827000D02*
G75*
G03*
X25273000Y-142367000I2540000J0D01*
G01*
D10*
X98488500Y-124857000D02*
X98488500Y-139857000D01*
X181346750Y-124857000D02*
X174346750Y-124857000D01*
X180052500Y-87757000D02*
X166052500Y-87757000D01*
X242252500Y-82707000D02*
X256252500Y-82707000D01*
X204152500Y-63657000D02*
X218152500Y-63657000D01*
X204152500Y-49657000D02*
X204152500Y-63657000D01*
X122902500Y-101757000D02*
X122902500Y-87757000D01*
X27940000Y-49657000D02*
X27940000Y-63657000D01*
X199102500Y-101757000D02*
X199102500Y-87757000D01*
X146715000Y-106807000D02*
X132715000Y-106807000D01*
X87183750Y-125857000D02*
X73183750Y-125857000D01*
X41940000Y-63657000D02*
X41940000Y-49657000D01*
X172908750Y-139857000D02*
X172908750Y-125857000D01*
M02*
