%TF.GenerationSoftware,KiCad,Pcbnew,(6.0.7)*%
%TF.CreationDate,2022-10-26T22:21:45+02:00*%
%TF.ProjectId,the PETER switchplate,74686520-5045-4544-9552-207377697463,rev?*%
%TF.SameCoordinates,Original*%
%TF.FileFunction,Legend,Top*%
%TF.FilePolarity,Positive*%
%FSLAX46Y46*%
G04 Gerber Fmt 4.6, Leading zero omitted, Abs format (unit mm)*
G04 Created by KiCad (PCBNEW (6.0.7)) date 2022-10-26 22:21:45*
%MOMM*%
%LPD*%
G01*
G04 APERTURE LIST*
%ADD10C,0.150000*%
G04 APERTURE END LIST*
D10*
X27416071Y-98886309D02*
X27416071Y-99648214D01*
X28082738Y-99172023D02*
X26368452Y-99172023D01*
X26177976Y-99267261D01*
X26082738Y-99457738D01*
X26082738Y-99648214D01*
X26082738Y-100314880D02*
X28082738Y-100314880D01*
X26082738Y-101172023D02*
X27130357Y-101172023D01*
X27320833Y-101076785D01*
X27416071Y-100886309D01*
X27416071Y-100600595D01*
X27320833Y-100410119D01*
X27225595Y-100314880D01*
X26177976Y-102886309D02*
X26082738Y-102695833D01*
X26082738Y-102314880D01*
X26177976Y-102124404D01*
X26368452Y-102029166D01*
X27130357Y-102029166D01*
X27320833Y-102124404D01*
X27416071Y-102314880D01*
X27416071Y-102695833D01*
X27320833Y-102886309D01*
X27130357Y-102981547D01*
X26939880Y-102981547D01*
X26749404Y-102029166D01*
X26082738Y-105362500D02*
X28082738Y-105362500D01*
X28082738Y-106124404D01*
X27987500Y-106314880D01*
X27892261Y-106410119D01*
X27701785Y-106505357D01*
X27416071Y-106505357D01*
X27225595Y-106410119D01*
X27130357Y-106314880D01*
X27035119Y-106124404D01*
X27035119Y-105362500D01*
X27130357Y-107362500D02*
X27130357Y-108029166D01*
X26082738Y-108314880D02*
X26082738Y-107362500D01*
X28082738Y-107362500D01*
X28082738Y-108314880D01*
X28082738Y-108886309D02*
X28082738Y-110029166D01*
X26082738Y-109457738D02*
X28082738Y-109457738D01*
X27130357Y-110695833D02*
X27130357Y-111362500D01*
X26082738Y-111648214D02*
X26082738Y-110695833D01*
X28082738Y-110695833D01*
X28082738Y-111648214D01*
X26082738Y-113648214D02*
X27035119Y-112981547D01*
X26082738Y-112505357D02*
X28082738Y-112505357D01*
X28082738Y-113267261D01*
X27987500Y-113457738D01*
X27892261Y-113552976D01*
X27701785Y-113648214D01*
X27416071Y-113648214D01*
X27225595Y-113552976D01*
X27130357Y-113457738D01*
X27035119Y-113267261D01*
X27035119Y-112505357D01*
%TO.C,G\u002A\u002A\u002A*%
G36*
X205464397Y-136158280D02*
G01*
X204218829Y-135015574D01*
X202844585Y-133749420D01*
X201442052Y-132446143D01*
X200088102Y-131177969D01*
X199742755Y-130851640D01*
X201873986Y-130851640D01*
X201990355Y-130998810D01*
X202365957Y-131397065D01*
X202935659Y-131981519D01*
X203634322Y-132687286D01*
X204396813Y-133449480D01*
X205157996Y-134203217D01*
X205852733Y-134883609D01*
X206415891Y-135425772D01*
X206782333Y-135764819D01*
X206888392Y-135846794D01*
X207134073Y-135802468D01*
X207749744Y-135682827D01*
X208621234Y-135510169D01*
X209005059Y-135433426D01*
X211099159Y-135132111D01*
X213328866Y-135017321D01*
X213428481Y-135017033D01*
X214563359Y-134997406D01*
X215286490Y-134942444D01*
X215561642Y-134855554D01*
X215545147Y-134818015D01*
X215233804Y-134700741D01*
X214526616Y-134504480D01*
X213510879Y-134251329D01*
X212273891Y-133963382D01*
X211421423Y-133774304D01*
X209131052Y-133251134D01*
X207216565Y-132754628D01*
X205561181Y-132250435D01*
X204048122Y-131704206D01*
X203177599Y-131349453D01*
X202495151Y-131069796D01*
X202011501Y-130889195D01*
X201873986Y-130851640D01*
X199742755Y-130851640D01*
X198859606Y-130017125D01*
X197833433Y-129035838D01*
X197238984Y-128457377D01*
X194657967Y-125968025D01*
X191983658Y-123488349D01*
X191721666Y-123254199D01*
X193519363Y-123254199D01*
X193677709Y-123444568D01*
X194116061Y-123889286D01*
X194779392Y-124534611D01*
X195612675Y-125326800D01*
X196301985Y-125971897D01*
X198036019Y-127503679D01*
X199723709Y-128806659D01*
X201440883Y-129915230D01*
X203263368Y-130863787D01*
X205266990Y-131686726D01*
X207527577Y-132418441D01*
X210120956Y-133093327D01*
X213122953Y-133745780D01*
X213689951Y-133859028D01*
X215210382Y-134158426D01*
X216319461Y-134368829D01*
X217090750Y-134496204D01*
X217597812Y-134546516D01*
X217914210Y-134525731D01*
X218113505Y-134439816D01*
X218269262Y-134294736D01*
X218323697Y-134234836D01*
X218592905Y-133884814D01*
X218662424Y-133730333D01*
X218466505Y-133541659D01*
X217930667Y-133199249D01*
X217148881Y-132753790D01*
X216215114Y-132255975D01*
X215223335Y-131756491D01*
X214267512Y-131306029D01*
X213748347Y-131079523D01*
X212999172Y-130784302D01*
X211898678Y-130374848D01*
X210558063Y-129891370D01*
X209088522Y-129374075D01*
X207896386Y-128963456D01*
X205650362Y-128173737D01*
X203312495Y-127308143D01*
X200992062Y-126410004D01*
X198798337Y-125522647D01*
X196840597Y-124689398D01*
X195228118Y-123953587D01*
X195075736Y-123880078D01*
X194322623Y-123530674D01*
X193769963Y-123305404D01*
X193523433Y-123246764D01*
X193519363Y-123254199D01*
X191721666Y-123254199D01*
X189259399Y-121053598D01*
X186528529Y-118699023D01*
X183834387Y-116459875D01*
X181220314Y-114371402D01*
X178729649Y-112468856D01*
X178427692Y-112250388D01*
X180943873Y-112250388D01*
X182429688Y-113587489D01*
X184742130Y-115649768D01*
X186765083Y-117412395D01*
X188525626Y-118897176D01*
X190050837Y-120125913D01*
X191367792Y-121120410D01*
X192503571Y-121902472D01*
X193485251Y-122493901D01*
X193501774Y-122502988D01*
X195369232Y-123460443D01*
X197637508Y-124509576D01*
X200231335Y-125619799D01*
X203075446Y-126760523D01*
X206094574Y-127901159D01*
X209213451Y-129011121D01*
X211024235Y-129624073D01*
X213216257Y-130386042D01*
X215025103Y-131095203D01*
X216552439Y-131793969D01*
X217704126Y-132410766D01*
X218397686Y-132794536D01*
X218926328Y-133059270D01*
X219150471Y-133141803D01*
X219366803Y-132976853D01*
X219709170Y-132560453D01*
X219872744Y-132328022D01*
X220419795Y-131514241D01*
X218984775Y-130436584D01*
X217676955Y-129527680D01*
X216052129Y-128530561D01*
X214089571Y-127434753D01*
X211768558Y-126229781D01*
X209068365Y-124905168D01*
X205968268Y-123450440D01*
X202447542Y-121855122D01*
X198973579Y-120321680D01*
X196212195Y-119114550D01*
X193836056Y-118073570D01*
X191788201Y-117173329D01*
X190011669Y-116388414D01*
X188449501Y-115693415D01*
X187044734Y-115062920D01*
X185740409Y-114471517D01*
X184479564Y-113893796D01*
X183205239Y-113304344D01*
X182313481Y-112889236D01*
X180943873Y-112250388D01*
X178427692Y-112250388D01*
X176405733Y-110787487D01*
X174291905Y-109362545D01*
X172431506Y-108229280D01*
X172228187Y-108115030D01*
X170877751Y-107413324D01*
X169243855Y-106642137D01*
X167433925Y-105845237D01*
X165555384Y-105066396D01*
X163715659Y-104349383D01*
X162022173Y-103737969D01*
X160582353Y-103275923D01*
X159901716Y-103092635D01*
X156768920Y-102462868D01*
X153270393Y-101985034D01*
X149508340Y-101668482D01*
X145584962Y-101522566D01*
X142792063Y-101527054D01*
X138699252Y-101600000D01*
X137987430Y-102328689D01*
X137438907Y-102926861D01*
X136961509Y-103506628D01*
X136870662Y-103629918D01*
X136465716Y-104202459D01*
X140899892Y-104204607D01*
X145086104Y-104268072D01*
X148888119Y-104461406D01*
X152398991Y-104795429D01*
X155711775Y-105280961D01*
X158919522Y-105928822D01*
X161633519Y-106615351D01*
X163301784Y-107099492D01*
X164894862Y-107607351D01*
X166288802Y-108097002D01*
X167359656Y-108526520D01*
X167570405Y-108623431D01*
X169005845Y-109374174D01*
X170785292Y-110416981D01*
X172902516Y-111747875D01*
X175351288Y-113362879D01*
X178125379Y-115258017D01*
X179862491Y-116471000D01*
X182912659Y-118671702D01*
X185598273Y-120734050D01*
X187992180Y-122718813D01*
X190167225Y-124686760D01*
X192196256Y-126698659D01*
X192488018Y-127003260D01*
X194063224Y-128608613D01*
X195920993Y-130418380D01*
X197977422Y-132355005D01*
X200148609Y-134340928D01*
X202350648Y-136298593D01*
X204499639Y-138150441D01*
X205035764Y-138602028D01*
X205994065Y-139423777D01*
X206767059Y-140123610D01*
X207308511Y-140656662D01*
X207572185Y-140978070D01*
X207562003Y-141053279D01*
X207225955Y-140902988D01*
X206603235Y-140476265D01*
X205736098Y-139809338D01*
X204666801Y-138938431D01*
X203437601Y-137899771D01*
X202090753Y-136729585D01*
X200668515Y-135464098D01*
X199213143Y-134139536D01*
X197766894Y-132792127D01*
X196390712Y-131476230D01*
X194236683Y-129387501D01*
X192363208Y-127577241D01*
X190725794Y-126008439D01*
X189279947Y-124644080D01*
X187981174Y-123447152D01*
X186784983Y-122380641D01*
X185646879Y-121407534D01*
X184522370Y-120490818D01*
X183366962Y-119593480D01*
X182136162Y-118678506D01*
X180785478Y-117708884D01*
X179270414Y-116647600D01*
X177546479Y-115457642D01*
X175569180Y-114101996D01*
X175207987Y-113854687D01*
X173130863Y-112452952D01*
X171330420Y-111293660D01*
X169719228Y-110335153D01*
X168209857Y-109535776D01*
X166714878Y-108853873D01*
X165146862Y-108247786D01*
X163418378Y-107675859D01*
X161441998Y-107096437D01*
X160447205Y-106821812D01*
X157615373Y-106162164D01*
X154385058Y-105607533D01*
X150842483Y-105167243D01*
X147073874Y-104850619D01*
X143165455Y-104666984D01*
X140104657Y-104622073D01*
X138503184Y-104640052D01*
X137308682Y-104711201D01*
X136431306Y-104859533D01*
X135781209Y-105109061D01*
X135268546Y-105483797D01*
X134803471Y-106007755D01*
X134773156Y-106047018D01*
X134352757Y-106629018D01*
X134073267Y-107081595D01*
X134003677Y-107259081D01*
X134244451Y-107343616D01*
X134933826Y-107427656D01*
X136022381Y-107507235D01*
X137460694Y-107578387D01*
X138423775Y-107613839D01*
X141381403Y-107713604D01*
X143900725Y-107805492D01*
X146041269Y-107893527D01*
X147862562Y-107981729D01*
X149424136Y-108074121D01*
X150785517Y-108174725D01*
X152006235Y-108287562D01*
X153145819Y-108416655D01*
X154263798Y-108566025D01*
X155419699Y-108739695D01*
X155668383Y-108778923D01*
X157494381Y-109085425D01*
X158995868Y-109383137D01*
X160342743Y-109713423D01*
X161704908Y-110117650D01*
X163138971Y-110597796D01*
X165022452Y-111260238D01*
X166552759Y-111825772D01*
X167842384Y-112345166D01*
X169003819Y-112869185D01*
X170149556Y-113448599D01*
X171392086Y-114134173D01*
X172843901Y-114976676D01*
X172850736Y-114980698D01*
X174089716Y-115730045D01*
X175235221Y-116472998D01*
X176370324Y-117270560D01*
X177578100Y-118183739D01*
X178941624Y-119273539D01*
X180543970Y-120600966D01*
X180822000Y-120834388D01*
X182295250Y-122090420D01*
X183857937Y-123452958D01*
X185409993Y-124832659D01*
X186851350Y-126140180D01*
X188081944Y-127286179D01*
X188541607Y-127726659D01*
X189540652Y-128687692D01*
X190712090Y-129801205D01*
X192012715Y-131027313D01*
X193399321Y-132326129D01*
X194828702Y-133657769D01*
X196257653Y-134982348D01*
X197642967Y-136259981D01*
X198941439Y-137450781D01*
X200109864Y-138514865D01*
X201105034Y-139412346D01*
X201883745Y-140103340D01*
X202402790Y-140547960D01*
X202578023Y-140684305D01*
X202918282Y-140942021D01*
X202874237Y-141036413D01*
X202661191Y-141048649D01*
X202383995Y-140991484D01*
X202002039Y-140792764D01*
X201472032Y-140419109D01*
X200750685Y-139837143D01*
X199794707Y-139013487D01*
X198560808Y-137914762D01*
X198346819Y-137722131D01*
X197269275Y-136742956D01*
X196022331Y-135596442D01*
X194665367Y-134338432D01*
X193257764Y-133024769D01*
X191858905Y-131711296D01*
X190528171Y-130453855D01*
X189324944Y-129308292D01*
X188308605Y-128330447D01*
X187538535Y-127576165D01*
X187261956Y-127297804D01*
X186352754Y-126407258D01*
X185192837Y-125330581D01*
X183853040Y-124128233D01*
X182404193Y-122860671D01*
X180917130Y-121588354D01*
X179462682Y-120371739D01*
X178111683Y-119271284D01*
X176934963Y-118347448D01*
X176003355Y-117660688D01*
X175838971Y-117547853D01*
X174194625Y-116479438D01*
X172444669Y-115411507D01*
X170685814Y-114398138D01*
X169014771Y-113493412D01*
X167528251Y-112751410D01*
X166322966Y-112226210D01*
X166320941Y-112225429D01*
X162728671Y-110994947D01*
X158962539Y-110018223D01*
X154961553Y-109284543D01*
X150664719Y-108783191D01*
X146011044Y-108503451D01*
X144949538Y-108471001D01*
X143170408Y-108419408D01*
X141377951Y-108356977D01*
X139697055Y-108288811D01*
X138252611Y-108220010D01*
X137169509Y-108155673D01*
X137091259Y-108150075D01*
X135516364Y-108068177D01*
X134329361Y-108098341D01*
X133432631Y-108259819D01*
X132728557Y-108571864D01*
X132119519Y-109053731D01*
X132022500Y-109149770D01*
X131575827Y-109645003D01*
X131305798Y-110025867D01*
X131268811Y-110131453D01*
X131470429Y-110333116D01*
X131999227Y-110670963D01*
X132747935Y-111077589D01*
X132881361Y-111144723D01*
X133795297Y-111691526D01*
X134968376Y-112542419D01*
X136364292Y-113666279D01*
X137946741Y-115031985D01*
X139679416Y-116608412D01*
X141526013Y-118364439D01*
X143014855Y-119831564D01*
X144174588Y-120954073D01*
X145551261Y-122225514D01*
X147074687Y-123586257D01*
X148674680Y-124976672D01*
X150281053Y-126337130D01*
X151823620Y-127608002D01*
X153232192Y-128729659D01*
X154436584Y-129642472D01*
X155170343Y-130158618D01*
X156868477Y-131277700D01*
X158642605Y-132421042D01*
X160428162Y-133549137D01*
X162160586Y-134622482D01*
X163775309Y-135601571D01*
X165207769Y-136446901D01*
X166393399Y-137118965D01*
X167267635Y-137578261D01*
X167399299Y-137641048D01*
X169346281Y-138547737D01*
X170896308Y-139274057D01*
X172088824Y-139840292D01*
X172963273Y-140266726D01*
X173559099Y-140573642D01*
X173915748Y-140781325D01*
X174072663Y-140910059D01*
X174069288Y-140980127D01*
X173952481Y-141010954D01*
X173541363Y-140930128D01*
X172782047Y-140659158D01*
X171746323Y-140231702D01*
X170505978Y-139681419D01*
X169132798Y-139041967D01*
X167698573Y-138347007D01*
X166275090Y-137630196D01*
X164934136Y-136925194D01*
X163747500Y-136265660D01*
X163405608Y-136065863D01*
X160453000Y-134268552D01*
X157654385Y-132475362D01*
X155093817Y-130742225D01*
X152855349Y-129125076D01*
X152057598Y-128514338D01*
X150566252Y-127317887D01*
X148907215Y-125932895D01*
X147175324Y-124442792D01*
X145465411Y-122931012D01*
X143872310Y-121480984D01*
X142490857Y-120176140D01*
X141765739Y-119459957D01*
X139481584Y-117205017D01*
X137440562Y-115309252D01*
X135639435Y-113769958D01*
X134074960Y-112584434D01*
X132743898Y-111749979D01*
X132185312Y-111472620D01*
X130679964Y-110801809D01*
X130095070Y-111405823D01*
X129699799Y-111864977D01*
X129163132Y-112553462D01*
X128564439Y-113361395D01*
X127983088Y-114178894D01*
X127498451Y-114896075D01*
X127189896Y-115403055D01*
X127150035Y-115483059D01*
X127154106Y-115733484D01*
X127435130Y-115991493D01*
X128047382Y-116284568D01*
X129045135Y-116640193D01*
X130070560Y-116961906D01*
X130998016Y-117281818D01*
X131973302Y-117700890D01*
X133025846Y-118239659D01*
X134185073Y-118918665D01*
X135480410Y-119758445D01*
X136941282Y-120779540D01*
X138597116Y-122002487D01*
X140477339Y-123447825D01*
X142611376Y-125136092D01*
X145028654Y-127087828D01*
X147631505Y-129218947D01*
X150700923Y-131709658D01*
X153582965Y-133976507D01*
X156252694Y-136001082D01*
X158685175Y-137764968D01*
X160855472Y-139249751D01*
X162738651Y-140437019D01*
X163149220Y-140678014D01*
X163761520Y-141031438D01*
X163186525Y-141042359D01*
X162699919Y-140910523D01*
X161900392Y-140523152D01*
X160837433Y-139910323D01*
X159560533Y-139102113D01*
X158119184Y-138128597D01*
X156562876Y-137019853D01*
X156539951Y-137003108D01*
X155934224Y-136543522D01*
X155023671Y-135829671D01*
X153856871Y-134900689D01*
X152482401Y-133795709D01*
X150948839Y-132553863D01*
X149304763Y-131214285D01*
X147598750Y-129816109D01*
X146703677Y-129079223D01*
X144952318Y-127645206D01*
X143206851Y-126234863D01*
X141520871Y-124890199D01*
X139947977Y-123653216D01*
X138541765Y-122565919D01*
X137355833Y-121670311D01*
X136443778Y-121008395D01*
X136134785Y-120796500D01*
X133688531Y-119317346D01*
X131018357Y-117964947D01*
X128335176Y-116843880D01*
X127714760Y-116621573D01*
X126779765Y-116298298D01*
X126248512Y-117168927D01*
X125889292Y-117821125D01*
X125512499Y-118606627D01*
X125159480Y-119423924D01*
X124871585Y-120171510D01*
X124690161Y-120747876D01*
X124656556Y-121051514D01*
X124662520Y-121062442D01*
X124954823Y-121172259D01*
X125577904Y-121285186D01*
X126037049Y-121340078D01*
X126985745Y-121493072D01*
X128252625Y-121779193D01*
X129701933Y-122160265D01*
X131197915Y-122598111D01*
X132604813Y-123054554D01*
X133786871Y-123491418D01*
X133997592Y-123578695D01*
X134889219Y-123926088D01*
X135726714Y-124200480D01*
X136213194Y-124319378D01*
X136811631Y-124520749D01*
X136991912Y-124788831D01*
X137186225Y-125041176D01*
X137718885Y-125469503D01*
X138514478Y-126018036D01*
X139419853Y-126584528D01*
X140379841Y-127211818D01*
X141625881Y-128106662D01*
X143108376Y-129228993D01*
X144777729Y-130538740D01*
X146584341Y-131995834D01*
X148478614Y-133560206D01*
X150410953Y-135191786D01*
X152331758Y-136850506D01*
X154191432Y-138496295D01*
X154433731Y-138714068D01*
X157037990Y-141059283D01*
X156119708Y-141056281D01*
X155818547Y-141039907D01*
X155521444Y-140969471D01*
X155180393Y-140809872D01*
X154747387Y-140526009D01*
X154174417Y-140082779D01*
X153413477Y-139445082D01*
X152416558Y-138577816D01*
X151135653Y-137445879D01*
X150918984Y-137253689D01*
X148278045Y-134947762D01*
X145870161Y-132927848D01*
X143632294Y-131145144D01*
X141501405Y-129550850D01*
X139414458Y-128096161D01*
X137412870Y-126797644D01*
X136464221Y-126202982D01*
X134798165Y-127579079D01*
X134063627Y-128156613D01*
X133349245Y-128635782D01*
X132591100Y-129034292D01*
X131725273Y-129369853D01*
X130687845Y-129660172D01*
X129414897Y-129922958D01*
X127842512Y-130175920D01*
X125906769Y-130436764D01*
X123543751Y-130723200D01*
X123380028Y-130742402D01*
X121558184Y-130947529D01*
X119797825Y-131130550D01*
X118191169Y-131283033D01*
X116830429Y-131396545D01*
X115807822Y-131462654D01*
X115355312Y-131476230D01*
X114397921Y-131508470D01*
X113055381Y-131598218D01*
X111423960Y-131735020D01*
X109599927Y-131908420D01*
X107679550Y-132107961D01*
X105759100Y-132323187D01*
X103934845Y-132543643D01*
X102303053Y-132758873D01*
X100959994Y-132958421D01*
X100001936Y-133131831D01*
X99895810Y-133155303D01*
X98626846Y-133505919D01*
X97065141Y-134028734D01*
X95338807Y-134673284D01*
X93575954Y-135389107D01*
X91904693Y-136125738D01*
X90453136Y-136832716D01*
X90143809Y-136996631D01*
X89158822Y-137551863D01*
X87959429Y-138261320D01*
X86720959Y-139019980D01*
X85929112Y-139521216D01*
X84883225Y-140182638D01*
X84123293Y-140622843D01*
X83550971Y-140885473D01*
X83067916Y-141014173D01*
X82575785Y-141052585D01*
X82476840Y-141053279D01*
X81404034Y-141053279D01*
X83735718Y-139569581D01*
X85408145Y-138490579D01*
X86768584Y-137574903D01*
X87916290Y-136751006D01*
X88950520Y-135947340D01*
X89970532Y-135092359D01*
X90086727Y-134991585D01*
X91577165Y-133629828D01*
X91860865Y-133350000D01*
X95228120Y-133350000D01*
X95503472Y-133281975D01*
X96113190Y-133103445D01*
X96926497Y-132852732D01*
X96944533Y-132847059D01*
X97807031Y-132597924D01*
X98999211Y-132283561D01*
X100368545Y-131942889D01*
X101762507Y-131614826D01*
X101866389Y-131591227D01*
X103398300Y-131242679D01*
X104496146Y-130978076D01*
X105205781Y-130770063D01*
X105573059Y-130591285D01*
X105643833Y-130414387D01*
X105463956Y-130212013D01*
X105079282Y-129956808D01*
X104845686Y-129813834D01*
X104042994Y-129377956D01*
X103065478Y-128928814D01*
X102013505Y-128502257D01*
X100987438Y-128134132D01*
X100087643Y-127860289D01*
X99414486Y-127716575D01*
X99068330Y-127738840D01*
X99059367Y-127747073D01*
X98934348Y-127975873D01*
X98702746Y-128465020D01*
X98545813Y-128813308D01*
X98301510Y-129325865D01*
X98020642Y-129807786D01*
X97642308Y-130343164D01*
X97105607Y-131016093D01*
X96349639Y-131910665D01*
X96051910Y-132256967D01*
X95589682Y-132812463D01*
X95293776Y-133205967D01*
X95228120Y-133350000D01*
X91860865Y-133350000D01*
X93142581Y-132085779D01*
X94667186Y-130480641D01*
X96035187Y-128935620D01*
X96960905Y-127795938D01*
X97629817Y-126926303D01*
X95984509Y-126170186D01*
X95174596Y-125829066D01*
X94532632Y-125616252D01*
X94178263Y-125570168D01*
X94154362Y-125582445D01*
X93984946Y-125853301D01*
X93718804Y-126401170D01*
X93414958Y-127104099D01*
X92577778Y-128740569D01*
X91526293Y-130134179D01*
X90438647Y-131117108D01*
X89728400Y-131691052D01*
X89073275Y-132310559D01*
X88912243Y-132486396D01*
X88441529Y-132915987D01*
X87615243Y-133545492D01*
X86488057Y-134338730D01*
X85114644Y-135259520D01*
X83549676Y-136271681D01*
X81847825Y-137339032D01*
X80063763Y-138425392D01*
X78845834Y-139148125D01*
X77406770Y-139971352D01*
X76309137Y-140548491D01*
X75511237Y-140899496D01*
X74971370Y-141044318D01*
X74869514Y-141050657D01*
X74692102Y-141016597D01*
X74723989Y-140896405D01*
X75001577Y-140665936D01*
X75561267Y-140301045D01*
X76439461Y-139777586D01*
X77672559Y-139071414D01*
X78867506Y-138398771D01*
X81303707Y-137008161D01*
X83372003Y-135767951D01*
X85143046Y-134631203D01*
X86687491Y-133550979D01*
X88075989Y-132480342D01*
X89182629Y-131546068D01*
X90328855Y-130514736D01*
X91181492Y-129672427D01*
X91814095Y-128926806D01*
X92300215Y-128185537D01*
X92713405Y-127356287D01*
X92932307Y-126838890D01*
X93261163Y-126006795D01*
X93433086Y-125476510D01*
X93460576Y-125158288D01*
X93356134Y-124962383D01*
X93209498Y-124848827D01*
X92675327Y-124551843D01*
X91910837Y-124195333D01*
X91031774Y-123824577D01*
X90153883Y-123484855D01*
X89392908Y-123221446D01*
X88864594Y-123079630D01*
X88690101Y-123080834D01*
X88531040Y-123345848D01*
X88263173Y-123901809D01*
X87935673Y-124644778D01*
X87820922Y-124918033D01*
X87301339Y-126104268D01*
X86788110Y-127093465D01*
X86207296Y-127991244D01*
X85484961Y-128903227D01*
X84547169Y-129935035D01*
X83691465Y-130817082D01*
X82594532Y-131892555D01*
X81585278Y-132783341D01*
X80524034Y-133599395D01*
X79271128Y-134450670D01*
X78263897Y-135089876D01*
X76565588Y-136131004D01*
X74857989Y-137145675D01*
X73195540Y-138104311D01*
X71632677Y-138977329D01*
X70223839Y-139735149D01*
X69023465Y-140348191D01*
X68085990Y-140786874D01*
X67465854Y-141021617D01*
X67289343Y-141053279D01*
X67244141Y-140969572D01*
X67546646Y-140712206D01*
X68211774Y-140271811D01*
X69254440Y-139639017D01*
X70689561Y-138804455D01*
X72532050Y-137758755D01*
X72549535Y-137748915D01*
X74119457Y-136863005D01*
X75599017Y-136023455D01*
X76924530Y-135266762D01*
X78032312Y-134629422D01*
X78858679Y-134147930D01*
X79339945Y-133858782D01*
X79361316Y-133845253D01*
X80177377Y-133249190D01*
X81177464Y-132405114D01*
X82271058Y-131401745D01*
X83367636Y-130327807D01*
X84376679Y-129272021D01*
X85207664Y-128323109D01*
X85770071Y-127569793D01*
X85779918Y-127554216D01*
X86224149Y-126785513D01*
X86684260Y-125886848D01*
X87120390Y-124950346D01*
X87492675Y-124068130D01*
X87761255Y-123332323D01*
X87886267Y-122835049D01*
X87880584Y-122699456D01*
X87630313Y-122534066D01*
X87050736Y-122272746D01*
X86278572Y-121966448D01*
X85450540Y-121666124D01*
X84703359Y-121422726D01*
X84173746Y-121287205D01*
X84057251Y-121274590D01*
X83831708Y-121452108D01*
X83484688Y-121923108D01*
X83082060Y-122595266D01*
X82980381Y-122784017D01*
X82374744Y-123853908D01*
X81540283Y-125208839D01*
X80518536Y-126784149D01*
X79351039Y-128515176D01*
X78634831Y-129548811D01*
X77531982Y-130911076D01*
X76112220Y-132342464D01*
X74504218Y-133726096D01*
X72836652Y-134945093D01*
X72349820Y-135257613D01*
X71095364Y-136018965D01*
X69711723Y-136831458D01*
X68262789Y-137660385D01*
X66812455Y-138471035D01*
X65424613Y-139228698D01*
X64163154Y-139898666D01*
X63091971Y-140446229D01*
X62274956Y-140836678D01*
X61776001Y-141035304D01*
X61681308Y-141053279D01*
X61646116Y-140952260D01*
X61994313Y-140670939D01*
X62681275Y-140241916D01*
X63177490Y-139960246D01*
X66200534Y-138262083D01*
X68814925Y-136732789D01*
X71053916Y-135349192D01*
X72950762Y-134088117D01*
X74538716Y-132926392D01*
X75851033Y-131840844D01*
X76920965Y-130808298D01*
X77781767Y-129805582D01*
X77818765Y-129757321D01*
X78413922Y-128939424D01*
X79101176Y-127934583D01*
X79841022Y-126807373D01*
X80593955Y-125622371D01*
X81320471Y-124444151D01*
X81981064Y-123337289D01*
X82536230Y-122366361D01*
X82946465Y-121595942D01*
X83172262Y-121090608D01*
X83203677Y-120955005D01*
X82994136Y-120822917D01*
X82470304Y-120612251D01*
X81789363Y-120378603D01*
X81108495Y-120177570D01*
X80786897Y-120100183D01*
X80550857Y-120080403D01*
X80327776Y-120163799D01*
X80075190Y-120402896D01*
X79750635Y-120850219D01*
X79311645Y-121558293D01*
X78715758Y-122579643D01*
X78551788Y-122864838D01*
X76736973Y-125725029D01*
X74679497Y-128379197D01*
X72323767Y-130883612D01*
X69614189Y-133294544D01*
X66495169Y-135668263D01*
X64651716Y-136934048D01*
X63633233Y-137583760D01*
X62471509Y-138280477D01*
X61246234Y-138981383D01*
X60037095Y-139643661D01*
X58923781Y-140224493D01*
X57985981Y-140681062D01*
X57303382Y-140970552D01*
X56985289Y-141053279D01*
X57022780Y-140946181D01*
X57421427Y-140649360D01*
X58124420Y-140199524D01*
X59074951Y-139633381D01*
X59972660Y-139122938D01*
X61312819Y-138359237D01*
X62674232Y-137556181D01*
X63928925Y-136791048D01*
X64948922Y-136141113D01*
X65286527Y-135914213D01*
X66944487Y-134698256D01*
X68698423Y-133282283D01*
X70465964Y-131743022D01*
X72164741Y-130157200D01*
X73712384Y-128601544D01*
X75026522Y-127152782D01*
X75973830Y-125959017D01*
X76509726Y-125186908D01*
X77117762Y-124267272D01*
X77752109Y-123274873D01*
X78366935Y-122284477D01*
X78916411Y-121370848D01*
X79354706Y-120608751D01*
X79635989Y-120072950D01*
X79717402Y-119851995D01*
X79506017Y-119687609D01*
X78946662Y-119417103D01*
X78151538Y-119093622D01*
X77983147Y-119030586D01*
X76248893Y-118390157D01*
X75488359Y-119564140D01*
X75028744Y-120344458D01*
X74640326Y-121126812D01*
X74462852Y-121578897D01*
X74344092Y-121914008D01*
X74182586Y-122256185D01*
X73939237Y-122661794D01*
X73574949Y-123187201D01*
X73050624Y-123888774D01*
X72327164Y-124822878D01*
X71365474Y-126045881D01*
X71357087Y-126056510D01*
X69941129Y-127664948D01*
X68210527Y-129289714D01*
X66136117Y-130952058D01*
X63688737Y-132673232D01*
X60839224Y-134474487D01*
X57558414Y-136377073D01*
X56060539Y-137202951D01*
X54081192Y-138276369D01*
X52473933Y-139139043D01*
X51196900Y-139811754D01*
X50208229Y-140315286D01*
X49466057Y-140670421D01*
X48928521Y-140897940D01*
X48553758Y-141018627D01*
X48304553Y-141053279D01*
X48267738Y-140955039D01*
X48642589Y-140670684D01*
X49405040Y-140215763D01*
X50531025Y-139605823D01*
X50605261Y-139566916D01*
X53557790Y-137998069D01*
X56345509Y-136469637D01*
X58923202Y-135008252D01*
X61245658Y-133640547D01*
X63267661Y-132393154D01*
X64944000Y-131292703D01*
X66229460Y-130365826D01*
X66239740Y-130357871D01*
X67427209Y-129353310D01*
X68698929Y-128131804D01*
X69984311Y-126775142D01*
X71212766Y-125365109D01*
X72313706Y-123983493D01*
X73216542Y-122712081D01*
X73850685Y-121632661D01*
X73948358Y-121426325D01*
X74374567Y-120541185D01*
X74868338Y-119612197D01*
X75125762Y-119167508D01*
X75459459Y-118587766D01*
X75659514Y-118182229D01*
X75687576Y-118057866D01*
X75429224Y-117927001D01*
X74820207Y-117634010D01*
X73941137Y-117216632D01*
X72872621Y-116712603D01*
X71695268Y-116159661D01*
X70489690Y-115595544D01*
X69336494Y-115057989D01*
X68316290Y-114584733D01*
X67509687Y-114213514D01*
X66997295Y-113982069D01*
X66855432Y-113923078D01*
X66694275Y-114080425D01*
X66488236Y-114524607D01*
X66386797Y-114820492D01*
X65921212Y-115945634D01*
X65156160Y-117321772D01*
X64129289Y-118893401D01*
X62878248Y-120605014D01*
X61440685Y-122401105D01*
X60495183Y-123506600D01*
X59333448Y-124812757D01*
X58355415Y-125858472D01*
X57469169Y-126730126D01*
X56582798Y-127514099D01*
X55604388Y-128296770D01*
X54590603Y-129055726D01*
X52995097Y-130212237D01*
X51635311Y-131157852D01*
X50386945Y-131969393D01*
X49125699Y-132723683D01*
X47727270Y-133497542D01*
X46067360Y-134367795D01*
X45641273Y-134586719D01*
X44368143Y-135235387D01*
X43281391Y-135775901D01*
X42296021Y-136244065D01*
X41327036Y-136675678D01*
X40289442Y-137106543D01*
X39098243Y-137572461D01*
X37668442Y-138109233D01*
X35915045Y-138752661D01*
X34710121Y-139191074D01*
X32823583Y-139865652D01*
X31334240Y-140372345D01*
X30191927Y-140726272D01*
X29346477Y-140942552D01*
X28747726Y-141036305D01*
X28565907Y-141042884D01*
X28129362Y-141029070D01*
X27975665Y-140981736D01*
X28150159Y-140874808D01*
X28698186Y-140682210D01*
X29665088Y-140377869D01*
X29788971Y-140339540D01*
X32764975Y-139351952D01*
X35954505Y-138173483D01*
X39219630Y-136861802D01*
X42422420Y-135474576D01*
X45424943Y-134069475D01*
X48089271Y-132704165D01*
X48216422Y-132635098D01*
X51656937Y-130535853D01*
X54935495Y-128095059D01*
X57979486Y-125380804D01*
X60716302Y-122461178D01*
X63073336Y-119404269D01*
X64216300Y-117631148D01*
X64743964Y-116695451D01*
X65239852Y-115723758D01*
X65611766Y-114898636D01*
X65664873Y-114762707D01*
X66116602Y-113559839D01*
X64886120Y-112638020D01*
X64213587Y-112164922D01*
X63658080Y-111829098D01*
X63353961Y-111706871D01*
X63110181Y-111882512D01*
X62863478Y-112333466D01*
X62793667Y-112530328D01*
X62548951Y-113318128D01*
X62294652Y-114136466D01*
X62269135Y-114218556D01*
X61716169Y-115566212D01*
X60850978Y-117126431D01*
X59728005Y-118829985D01*
X58401688Y-120607646D01*
X56926468Y-122390183D01*
X55356785Y-124108367D01*
X53747080Y-125692970D01*
X52172146Y-127058443D01*
X50854320Y-128088796D01*
X49650845Y-128957223D01*
X48461680Y-129721042D01*
X47186780Y-130437572D01*
X45726104Y-131164132D01*
X43979607Y-131958039D01*
X42508010Y-132595403D01*
X41239546Y-133145391D01*
X40106025Y-133651611D01*
X39191577Y-134075344D01*
X38580331Y-134377868D01*
X38379578Y-134495513D01*
X37802904Y-134747988D01*
X37364461Y-134811769D01*
X37051344Y-134836985D01*
X36614119Y-134918626D01*
X36002254Y-135071534D01*
X35165219Y-135310553D01*
X34052481Y-135650525D01*
X32613511Y-136106291D01*
X30797776Y-136692696D01*
X29309374Y-137177797D01*
X27962400Y-137616511D01*
X26784626Y-137997488D01*
X25850703Y-138296796D01*
X25235280Y-138490504D01*
X25013786Y-138554918D01*
X24962789Y-138370223D01*
X24934877Y-137910002D01*
X24933089Y-137739375D01*
X24933089Y-136923831D01*
X27983579Y-136064612D01*
X29223697Y-135704551D01*
X30368114Y-135352875D01*
X31292376Y-135049068D01*
X31872028Y-134832616D01*
X31885592Y-134826642D01*
X32737115Y-134447891D01*
X31387553Y-134078353D01*
X28961991Y-133249807D01*
X26428888Y-132070567D01*
X26240441Y-131970832D01*
X25517747Y-131564091D01*
X25125702Y-131248945D01*
X24964191Y-130907998D01*
X24933089Y-130437832D01*
X24961033Y-129915140D01*
X25030857Y-129624012D01*
X25059315Y-129602459D01*
X25315100Y-129694039D01*
X25923123Y-129944212D01*
X26795853Y-130316128D01*
X27845759Y-130772939D01*
X27985296Y-130834262D01*
X30146965Y-131722806D01*
X32030597Y-132353528D01*
X33725304Y-132749958D01*
X35320198Y-132935624D01*
X36023392Y-132956658D01*
X37032851Y-132906663D01*
X38018666Y-132767008D01*
X38859684Y-132566030D01*
X39434749Y-132332067D01*
X39624800Y-132114308D01*
X39408767Y-131888114D01*
X38823542Y-131545749D01*
X37961681Y-131127086D01*
X36915740Y-130671995D01*
X35778273Y-130220347D01*
X34641836Y-129812013D01*
X33598984Y-129486865D01*
X33399755Y-129432679D01*
X32507813Y-129183074D01*
X31316467Y-128829570D01*
X29989381Y-128421553D01*
X28834658Y-128055148D01*
X27688809Y-127693544D01*
X26694677Y-127395173D01*
X25952948Y-127189188D01*
X25564312Y-127104741D01*
X25549844Y-127104099D01*
X25167746Y-126979644D01*
X24964388Y-126720477D01*
X25023124Y-126543031D01*
X25321677Y-126501623D01*
X25966839Y-126602914D01*
X26980447Y-126852773D01*
X28384335Y-127257069D01*
X30200340Y-127821670D01*
X32229740Y-128479808D01*
X33801828Y-129010851D01*
X35330135Y-129552379D01*
X36710619Y-130065649D01*
X37839239Y-130511918D01*
X38611953Y-130852443D01*
X38644136Y-130868372D01*
X39492626Y-131263380D01*
X40225223Y-131553188D01*
X40699675Y-131682326D01*
X40736872Y-131684426D01*
X41162713Y-131585221D01*
X41859508Y-131330267D01*
X42682973Y-130983556D01*
X43488821Y-130609083D01*
X44132769Y-130270839D01*
X44470531Y-130032818D01*
X44475701Y-130026193D01*
X44444712Y-129788970D01*
X44069376Y-129421850D01*
X43322813Y-128905057D01*
X42178140Y-128218813D01*
X41488536Y-127828523D01*
X39538265Y-126829374D01*
X37492157Y-125974179D01*
X35178265Y-125193654D01*
X34309523Y-124935724D01*
X33030365Y-124600488D01*
X31581309Y-124274745D01*
X30097295Y-123983539D01*
X28713260Y-123751918D01*
X27564141Y-123604924D01*
X26925245Y-123565173D01*
X25842795Y-123492389D01*
X25165558Y-123299343D01*
X24933089Y-122999538D01*
X25165307Y-122824765D01*
X25849581Y-122784443D01*
X26967337Y-122876785D01*
X28500002Y-123100007D01*
X30429005Y-123452322D01*
X31154822Y-123597721D01*
X34222000Y-124305430D01*
X36900831Y-125108684D01*
X39296452Y-126046826D01*
X41513997Y-127159197D01*
X42917926Y-127999529D01*
X43806962Y-128561692D01*
X44565704Y-129034930D01*
X45095672Y-129358187D01*
X45276659Y-129461957D01*
X45612114Y-129433310D01*
X46201312Y-129233558D01*
X46893176Y-128932653D01*
X47536629Y-128600545D01*
X47980593Y-128307185D01*
X48091912Y-128158462D01*
X47923989Y-127815276D01*
X47487447Y-127292825D01*
X46883127Y-126691072D01*
X46211870Y-126109983D01*
X45574515Y-125649520D01*
X45538555Y-125627302D01*
X44630733Y-125132932D01*
X43404395Y-124546613D01*
X41993599Y-123924445D01*
X40532404Y-123322528D01*
X39154869Y-122796964D01*
X37995051Y-122403853D01*
X37508579Y-122266922D01*
X35947581Y-121927399D01*
X34056980Y-121593097D01*
X31980218Y-121282716D01*
X29860739Y-121014958D01*
X27841986Y-120808522D01*
X26067405Y-120682111D01*
X25119853Y-120651781D01*
X24942309Y-120486750D01*
X24933089Y-120413391D01*
X25166027Y-120319637D01*
X25809596Y-120278220D01*
X26780924Y-120285396D01*
X27997138Y-120337421D01*
X29375368Y-120430551D01*
X30832742Y-120561043D01*
X32286389Y-120725152D01*
X32531148Y-120756645D01*
X35402574Y-121237207D01*
X38164657Y-121899159D01*
X40755159Y-122716772D01*
X43111842Y-123664320D01*
X45172467Y-124716074D01*
X46874794Y-125846307D01*
X48156586Y-127029291D01*
X48390154Y-127312295D01*
X48793783Y-127832787D01*
X50041073Y-126816431D01*
X50678149Y-126243624D01*
X51071915Y-125778406D01*
X51156935Y-125513724D01*
X50851400Y-125179223D01*
X50213386Y-124686266D01*
X49335890Y-124092827D01*
X48311913Y-123456880D01*
X47234452Y-122836397D01*
X46196507Y-122289353D01*
X45370875Y-121906822D01*
X43278261Y-121132999D01*
X40774124Y-120386577D01*
X37944888Y-119686951D01*
X34876979Y-119053519D01*
X31656821Y-118505676D01*
X28370837Y-118062818D01*
X28108088Y-118032549D01*
X24933089Y-117671516D01*
X24933089Y-116353319D01*
X26613971Y-116517005D01*
X29144180Y-116767297D01*
X31253533Y-116988421D01*
X33016619Y-117193675D01*
X34508023Y-117396355D01*
X35802334Y-117609760D01*
X36974138Y-117847186D01*
X38098023Y-118121930D01*
X39248576Y-118447289D01*
X40500384Y-118836561D01*
X41559695Y-119181465D01*
X43579344Y-119907656D01*
X45578886Y-120738819D01*
X47454522Y-121624627D01*
X49102455Y-122514754D01*
X50418885Y-123358874D01*
X50839681Y-123680785D01*
X51470844Y-124162920D01*
X51990280Y-124497528D01*
X52257419Y-124605738D01*
X52540384Y-124453440D01*
X53066316Y-124038887D01*
X53767985Y-123425592D01*
X54578162Y-122677067D01*
X55429617Y-121856822D01*
X56255121Y-121028371D01*
X56987444Y-120255225D01*
X57559356Y-119600897D01*
X57573271Y-119583841D01*
X58751359Y-117986892D01*
X59793538Y-116236142D01*
X60764844Y-114218453D01*
X61070662Y-113499511D01*
X61511395Y-112378117D01*
X61762694Y-111588846D01*
X61837528Y-111083364D01*
X61780669Y-110853317D01*
X61439386Y-110528662D01*
X60737249Y-110017803D01*
X59734928Y-109356308D01*
X58493092Y-108579744D01*
X57072410Y-107723678D01*
X55533553Y-106823678D01*
X53937189Y-105915312D01*
X52343989Y-105034146D01*
X50814622Y-104215750D01*
X49409757Y-103495689D01*
X48381807Y-102998234D01*
X45683434Y-101746676D01*
X43347591Y-100684971D01*
X41308591Y-99790358D01*
X39500743Y-99040074D01*
X37858358Y-98411359D01*
X36315747Y-97881451D01*
X34807221Y-97427588D01*
X33267089Y-97027009D01*
X31629664Y-96656952D01*
X29829255Y-96294655D01*
X28108089Y-95973322D01*
X26815993Y-95735135D01*
X25932805Y-95556593D01*
X25380733Y-95408992D01*
X25081986Y-95263626D01*
X24958772Y-95091789D01*
X24933301Y-94864778D01*
X24933089Y-94801736D01*
X25008947Y-94370225D01*
X25324827Y-94219168D01*
X25555638Y-94209017D01*
X26178187Y-94209017D01*
X26178187Y-90968932D01*
X26148954Y-89059911D01*
X26066243Y-87084102D01*
X25937534Y-85133164D01*
X25770305Y-83298756D01*
X25572036Y-81672536D01*
X25350207Y-80346163D01*
X25287312Y-80051640D01*
X25112044Y-79136138D01*
X24993220Y-78238130D01*
X24956586Y-77553279D01*
X25001875Y-77315521D01*
X25107633Y-77434582D01*
X25261273Y-77855394D01*
X25450206Y-78522884D01*
X25661846Y-79381985D01*
X25883605Y-80377627D01*
X26102895Y-81454738D01*
X26307128Y-82558251D01*
X26483717Y-83633094D01*
X26620075Y-84624198D01*
X26664789Y-85026545D01*
X26760012Y-86205465D01*
X26839624Y-87639675D01*
X26896590Y-89168134D01*
X26923878Y-90629801D01*
X26925245Y-90989926D01*
X26931334Y-92272014D01*
X26954024Y-93196883D01*
X26999947Y-93823628D01*
X27075736Y-94211341D01*
X27188025Y-94419115D01*
X27319141Y-94499037D01*
X27701208Y-94608844D01*
X27791618Y-94625410D01*
X27870903Y-94438029D01*
X28001246Y-93948295D01*
X28144780Y-93307127D01*
X28307145Y-92164699D01*
X28400991Y-90691604D01*
X28430060Y-88969157D01*
X28398092Y-87078679D01*
X28308830Y-85101487D01*
X28166013Y-83118901D01*
X27973384Y-81212239D01*
X27734683Y-79462819D01*
X27453652Y-77951959D01*
X27434376Y-77865574D01*
X27214033Y-76865614D01*
X27013178Y-75911654D01*
X26861689Y-75147465D01*
X26812116Y-74871443D01*
X26656033Y-74272260D01*
X26364584Y-73426755D01*
X25988022Y-72474998D01*
X25781203Y-71997860D01*
X25411645Y-71101377D01*
X25135833Y-70293361D01*
X24990241Y-69688683D01*
X24980058Y-69474777D01*
X25051124Y-69283791D01*
X25193796Y-69374298D01*
X25434656Y-69782663D01*
X25800287Y-70545249D01*
X25863146Y-70682787D01*
X26430937Y-71993653D01*
X26900818Y-73240963D01*
X27299037Y-74519158D01*
X27651843Y-75922682D01*
X27985485Y-77545978D01*
X28326211Y-79483488D01*
X28351323Y-79635246D01*
X28585260Y-81109623D01*
X28756605Y-82360062D01*
X28873581Y-83502242D01*
X28944412Y-84651845D01*
X28977322Y-85924553D01*
X28980534Y-87436046D01*
X28972946Y-88379508D01*
X28956006Y-89787416D01*
X28935457Y-91101438D01*
X28912818Y-92248336D01*
X28889605Y-93154873D01*
X28867336Y-93747810D01*
X28858963Y-93881636D01*
X28792892Y-94699337D01*
X31487080Y-95266449D01*
X32662855Y-95507233D01*
X33431494Y-95643058D01*
X33865712Y-95680465D01*
X34038222Y-95625999D01*
X34025837Y-95494917D01*
X33468440Y-94200926D01*
X32907996Y-92760576D01*
X32387151Y-91295893D01*
X31948555Y-89928907D01*
X31634856Y-88781645D01*
X31558659Y-88435663D01*
X31009061Y-85057089D01*
X30658803Y-81503560D01*
X30512736Y-77907609D01*
X30575712Y-74401773D01*
X30852580Y-71118586D01*
X30908884Y-70682787D01*
X30984909Y-69893809D01*
X31052552Y-68752503D01*
X31111220Y-67322882D01*
X31160322Y-65668959D01*
X31199267Y-63854750D01*
X31227462Y-61944268D01*
X31244317Y-60001526D01*
X31249238Y-58090538D01*
X31241636Y-56275319D01*
X31220917Y-54619882D01*
X31186490Y-53188241D01*
X31137764Y-52044410D01*
X31087376Y-51372541D01*
X31005288Y-50455304D01*
X30989257Y-49878514D01*
X31045678Y-49569224D01*
X31180947Y-49454487D01*
X31256223Y-49446722D01*
X31434750Y-49515047D01*
X31584935Y-49739819D01*
X31708928Y-50150728D01*
X31808875Y-50777465D01*
X31886928Y-51649721D01*
X31945233Y-52797188D01*
X31985941Y-54249555D01*
X32011200Y-56036515D01*
X32023158Y-58187758D01*
X32024687Y-60064754D01*
X32019173Y-62320397D01*
X32004338Y-64215801D01*
X31977855Y-65807079D01*
X31937397Y-67150343D01*
X31880639Y-68301708D01*
X31805252Y-69317286D01*
X31708911Y-70253191D01*
X31589287Y-71165535D01*
X31554540Y-71402757D01*
X31309874Y-73699631D01*
X31205149Y-76297385D01*
X31238084Y-79097842D01*
X31406401Y-82002829D01*
X31707821Y-84914168D01*
X31900159Y-86291929D01*
X32113703Y-87686052D01*
X32284414Y-88745836D01*
X32432173Y-89550024D01*
X32576860Y-90177356D01*
X32738353Y-90706574D01*
X32936532Y-91216418D01*
X33191277Y-91785630D01*
X33399614Y-92231148D01*
X33784045Y-93085218D01*
X34129882Y-93914535D01*
X34358880Y-94529957D01*
X34800264Y-95364135D01*
X35569293Y-96071050D01*
X36728162Y-96696802D01*
X37872698Y-97134518D01*
X38730998Y-97423528D01*
X39388885Y-97639365D01*
X39729992Y-97744013D01*
X39751669Y-97748361D01*
X39664567Y-97583487D01*
X39369500Y-97139843D01*
X38918328Y-96493901D01*
X38586830Y-96030738D01*
X36904946Y-93448880D01*
X39625442Y-93448880D01*
X39747423Y-93844967D01*
X40064706Y-94475133D01*
X40504895Y-95222329D01*
X40995589Y-95969509D01*
X41464391Y-96599624D01*
X41798162Y-96961565D01*
X42479209Y-97377481D01*
X43551743Y-97804693D01*
X44458520Y-98081338D01*
X45544063Y-98409559D01*
X47005037Y-98896974D01*
X48770594Y-99517935D01*
X50769885Y-100246795D01*
X52932063Y-101057905D01*
X55186280Y-101925617D01*
X56468795Y-102429215D01*
X58206287Y-103188672D01*
X60177015Y-104172427D01*
X62258314Y-105313500D01*
X64327516Y-106544911D01*
X66086762Y-107680922D01*
X66961812Y-108287446D01*
X68035498Y-109057308D01*
X69253933Y-109949348D01*
X70563227Y-110922409D01*
X71909493Y-111935331D01*
X73238842Y-112946956D01*
X74497386Y-113916125D01*
X75631236Y-114801680D01*
X76586505Y-115562462D01*
X77309303Y-116157312D01*
X77745743Y-116545073D01*
X77849734Y-116665194D01*
X77815881Y-116782423D01*
X77485302Y-116597660D01*
X77305374Y-116463872D01*
X76735413Y-116037528D01*
X75846346Y-115390496D01*
X74702279Y-114568045D01*
X73367319Y-113615444D01*
X71905570Y-112577963D01*
X70381141Y-111500871D01*
X68858137Y-110429436D01*
X67400664Y-109408929D01*
X66072828Y-108484618D01*
X64938736Y-107701772D01*
X64062493Y-107105662D01*
X63885478Y-106987286D01*
X61533030Y-105544902D01*
X58864619Y-104118440D01*
X56054910Y-102795397D01*
X53278566Y-101663270D01*
X53196814Y-101632873D01*
X51915636Y-101154571D01*
X50558138Y-100642292D01*
X49336804Y-100176424D01*
X48838971Y-99984217D01*
X47723597Y-99576140D01*
X46526526Y-99179794D01*
X45343065Y-98821700D01*
X44268521Y-98528377D01*
X43398198Y-98326345D01*
X42827405Y-98242124D01*
X42659942Y-98264858D01*
X42655632Y-98425619D01*
X42932970Y-98692545D01*
X43520904Y-99082778D01*
X44448388Y-99613455D01*
X45744372Y-100301717D01*
X47437807Y-101164704D01*
X48216422Y-101554420D01*
X49794377Y-102356640D01*
X51476181Y-103238087D01*
X53118123Y-104121706D01*
X54576492Y-104930440D01*
X55437990Y-105426532D01*
X57237567Y-106476240D01*
X59219589Y-107612791D01*
X61330577Y-108807054D01*
X63517048Y-110029897D01*
X65725523Y-111252190D01*
X67902520Y-112444801D01*
X69994558Y-113578598D01*
X71948155Y-114624451D01*
X73709832Y-115553227D01*
X75226106Y-116335795D01*
X76443498Y-116943025D01*
X77308525Y-117345784D01*
X77362995Y-117369190D01*
X78094087Y-117646798D01*
X78721324Y-117840638D01*
X79343873Y-117998782D01*
X78845834Y-117509755D01*
X78347794Y-117020728D01*
X78970343Y-117380876D01*
X79517724Y-117697484D01*
X80280771Y-118138772D01*
X80870207Y-118479625D01*
X81530075Y-118820286D01*
X82412000Y-119220541D01*
X83414072Y-119640966D01*
X84434380Y-120042133D01*
X85371017Y-120384616D01*
X86122071Y-120628989D01*
X86585634Y-120735827D01*
X86676887Y-120726077D01*
X86558106Y-120558908D01*
X86141381Y-120200731D01*
X85513265Y-119725194D01*
X85431789Y-119666596D01*
X84940573Y-119295771D01*
X84145870Y-118672062D01*
X83097780Y-117835829D01*
X81846400Y-116827433D01*
X80441830Y-115687233D01*
X78934168Y-114455590D01*
X77476226Y-113257530D01*
X74035098Y-110462195D01*
X70849202Y-107957889D01*
X67928512Y-105751954D01*
X65283004Y-103851728D01*
X62922650Y-102264551D01*
X60857426Y-100997763D01*
X60667402Y-100888921D01*
X58072135Y-99448609D01*
X55719186Y-98215573D01*
X53650749Y-97211047D01*
X51909018Y-96456267D01*
X51687577Y-96369390D01*
X50437968Y-95918664D01*
X49013217Y-95457574D01*
X47482737Y-95002925D01*
X45915941Y-94571524D01*
X44382243Y-94180177D01*
X42951055Y-93845692D01*
X41691789Y-93584874D01*
X40673860Y-93414529D01*
X39966680Y-93351465D01*
X39639662Y-93412488D01*
X39625442Y-93448880D01*
X36904946Y-93448880D01*
X36585569Y-92958604D01*
X34925365Y-89781688D01*
X34696793Y-89209914D01*
X37433221Y-89209914D01*
X39007233Y-92579536D01*
X41868690Y-93193275D01*
X45151071Y-93965405D01*
X48327782Y-94844229D01*
X51310240Y-95800460D01*
X54009863Y-96804813D01*
X56338071Y-97828000D01*
X57185801Y-98257346D01*
X58278340Y-98869037D01*
X59658713Y-99689188D01*
X61233590Y-100658252D01*
X62909640Y-101716685D01*
X64593531Y-102804941D01*
X66191931Y-103863474D01*
X67611510Y-104832739D01*
X68636030Y-105562604D01*
X69364536Y-106113069D01*
X70393122Y-106913558D01*
X71668011Y-107921076D01*
X73135430Y-109092630D01*
X74741603Y-110385227D01*
X76432755Y-111755871D01*
X78155111Y-113161570D01*
X78721324Y-113625941D01*
X80386588Y-114985132D01*
X81993146Y-116280731D01*
X83495452Y-117477125D01*
X84847960Y-118538703D01*
X86005122Y-119429854D01*
X86921392Y-120114966D01*
X87551225Y-120558427D01*
X87732841Y-120671821D01*
X88471744Y-121112177D01*
X89042473Y-121486226D01*
X89319594Y-121711190D01*
X89591169Y-121877039D01*
X90232313Y-122187294D01*
X91163719Y-122605967D01*
X92306083Y-123097070D01*
X93132586Y-123441540D01*
X94847413Y-124155052D01*
X96673625Y-124927935D01*
X98545178Y-125731051D01*
X100396030Y-126535260D01*
X102160137Y-127311422D01*
X103771458Y-128030398D01*
X105163949Y-128663048D01*
X106271567Y-129180232D01*
X107028269Y-129552810D01*
X107229620Y-129661478D01*
X108398533Y-130113656D01*
X109617484Y-130206260D01*
X110436335Y-130045548D01*
X110584644Y-129932852D01*
X110412051Y-129763843D01*
X109866372Y-129504771D01*
X109171376Y-129227394D01*
X108155001Y-128844840D01*
X107523678Y-128634888D01*
X107217343Y-128583349D01*
X107175936Y-128676032D01*
X107234069Y-128769672D01*
X107280667Y-128963249D01*
X106988103Y-128919463D01*
X106412276Y-128654498D01*
X105964078Y-128402025D01*
X105264387Y-128024969D01*
X104306702Y-127557033D01*
X103280448Y-127090237D01*
X103125245Y-127022967D01*
X100250871Y-125656616D01*
X97607232Y-124141935D01*
X95403930Y-122613635D01*
X94607408Y-122002722D01*
X93539096Y-121189101D01*
X92298107Y-120247948D01*
X90983555Y-119254443D01*
X89800989Y-118363762D01*
X88080030Y-117048371D01*
X86049068Y-115457863D01*
X83741176Y-113618964D01*
X81189427Y-111558401D01*
X78426894Y-109302900D01*
X75486649Y-106879188D01*
X72401766Y-104313992D01*
X72008928Y-103985809D01*
X70358993Y-102649928D01*
X68519493Y-101234486D01*
X66580703Y-99803639D01*
X64632899Y-98421544D01*
X62766354Y-97152357D01*
X61071344Y-96060234D01*
X59739384Y-95266083D01*
X58858885Y-94809906D01*
X57637343Y-94231806D01*
X56188047Y-93580432D01*
X54624288Y-92904434D01*
X53059357Y-92252460D01*
X51606543Y-91673161D01*
X50379137Y-91215186D01*
X50008885Y-91087586D01*
X48785312Y-90708954D01*
X47434729Y-90336453D01*
X46246734Y-90049894D01*
X46232466Y-90046836D01*
X45067626Y-89823619D01*
X43725963Y-89607443D01*
X42314457Y-89410875D01*
X40940087Y-89246484D01*
X39709835Y-89126839D01*
X38730680Y-89064509D01*
X38109602Y-89072063D01*
X38034668Y-89083707D01*
X37433221Y-89209914D01*
X34696793Y-89209914D01*
X33650976Y-86593797D01*
X33006003Y-84364453D01*
X35640932Y-84364453D01*
X35648192Y-84966653D01*
X35745236Y-85455645D01*
X35993682Y-86174650D01*
X36341218Y-86973715D01*
X36366663Y-87026230D01*
X36755686Y-87780209D01*
X37054092Y-88217263D01*
X37332342Y-88414478D01*
X37660897Y-88448944D01*
X37666756Y-88448605D01*
X38186790Y-88469791D01*
X39096270Y-88559188D01*
X40296251Y-88703435D01*
X41687790Y-88889166D01*
X43171944Y-89103019D01*
X44649770Y-89331630D01*
X46022323Y-89561635D01*
X46378623Y-89625252D01*
X47447538Y-89875175D01*
X48852791Y-90286082D01*
X50492221Y-90821530D01*
X52263669Y-91445072D01*
X54064973Y-92120266D01*
X55793974Y-92810666D01*
X57348510Y-93479828D01*
X57911344Y-93739405D01*
X59500370Y-94550438D01*
X61228378Y-95551474D01*
X63121238Y-96760915D01*
X65204821Y-98197163D01*
X67504996Y-99878619D01*
X70047633Y-101823684D01*
X72858601Y-104050760D01*
X75963771Y-106578249D01*
X75982108Y-106593342D01*
X79175100Y-109218132D01*
X82041129Y-111566226D01*
X84604171Y-113656389D01*
X86888199Y-115507384D01*
X88917189Y-117137974D01*
X90715116Y-118566925D01*
X92305953Y-119812998D01*
X93713675Y-120894959D01*
X94962258Y-121831571D01*
X96075676Y-122641597D01*
X97077903Y-123343802D01*
X97992914Y-123956949D01*
X98844684Y-124499802D01*
X98924474Y-124549195D01*
X99747030Y-125028544D01*
X100702805Y-125542319D01*
X101684334Y-126038061D01*
X102584152Y-126463312D01*
X103294794Y-126765612D01*
X103708794Y-126892502D01*
X103726949Y-126893519D01*
X103650190Y-126764042D01*
X103268388Y-126410904D01*
X102645514Y-125890088D01*
X101950567Y-125338921D01*
X100891130Y-124529372D01*
X99734192Y-123666478D01*
X98664302Y-122887150D01*
X98232094Y-122580315D01*
X96338208Y-121188399D01*
X94160796Y-119469225D01*
X91696609Y-117420136D01*
X88942401Y-115038476D01*
X88105659Y-114300000D01*
X86144876Y-112569992D01*
X84089128Y-110770169D01*
X81979015Y-108935118D01*
X79855137Y-107099426D01*
X77758095Y-105297678D01*
X75728490Y-103564462D01*
X73806921Y-101934364D01*
X72033990Y-100441970D01*
X70450297Y-99121867D01*
X69096442Y-98008642D01*
X68013027Y-97136880D01*
X67390932Y-96653670D01*
X64055196Y-94258251D01*
X60816264Y-92203504D01*
X57590162Y-90442107D01*
X54292916Y-88926738D01*
X52230910Y-88110473D01*
X48974444Y-86995765D01*
X45627498Y-86040428D01*
X42316749Y-85274814D01*
X39168876Y-84729272D01*
X37144087Y-84495808D01*
X35640932Y-84364453D01*
X33006003Y-84364453D01*
X32983772Y-84287612D01*
X32825450Y-83522493D01*
X32707215Y-82682389D01*
X32624230Y-81695307D01*
X32571659Y-80489250D01*
X32544663Y-78992223D01*
X32538806Y-77761476D01*
X34644853Y-77761476D01*
X34649786Y-79166803D01*
X34684485Y-80043697D01*
X34772564Y-81002075D01*
X34898448Y-81940906D01*
X35046563Y-82759160D01*
X35201334Y-83355808D01*
X35336694Y-83622541D01*
X35641692Y-83706549D01*
X36335384Y-83826061D01*
X37312311Y-83964668D01*
X38380147Y-84096047D01*
X42797263Y-84799967D01*
X47243776Y-85889884D01*
X51658341Y-87342372D01*
X55979611Y-89134005D01*
X60146242Y-91241356D01*
X64096887Y-93640999D01*
X65025245Y-94271088D01*
X65697605Y-94766477D01*
X66675954Y-95528212D01*
X67920502Y-96522957D01*
X69391464Y-97717378D01*
X71049049Y-99078139D01*
X72853470Y-100571903D01*
X74764939Y-102165336D01*
X76743668Y-103825101D01*
X78749868Y-105517864D01*
X80743752Y-107210289D01*
X82685531Y-108869039D01*
X84535417Y-110460779D01*
X86253622Y-111952175D01*
X87800358Y-113309889D01*
X88646392Y-114061537D01*
X90151864Y-115378821D01*
X91848938Y-116817426D01*
X93615605Y-118276929D01*
X95329859Y-119656907D01*
X96869693Y-120856936D01*
X97273285Y-121162262D01*
X99272694Y-122660301D01*
X100949501Y-123909172D01*
X102351033Y-124938496D01*
X103524623Y-125777895D01*
X104517600Y-126456991D01*
X105377294Y-127005405D01*
X106151035Y-127452760D01*
X106886155Y-127828677D01*
X107629981Y-128162778D01*
X108429846Y-128484685D01*
X109333079Y-128824018D01*
X109774305Y-128986061D01*
X110951153Y-129393019D01*
X111865366Y-129637393D01*
X112691649Y-129755819D01*
X113584069Y-129784992D01*
X114509142Y-129757485D01*
X115289827Y-129689553D01*
X115700736Y-129610755D01*
X116022496Y-129474977D01*
X115929537Y-129360812D01*
X115576226Y-129235520D01*
X114884182Y-129046810D01*
X114088590Y-128878575D01*
X114082108Y-128877431D01*
X113381144Y-128681600D01*
X112373041Y-128306899D01*
X111167287Y-127802601D01*
X109873375Y-127217979D01*
X108600794Y-126602307D01*
X107459035Y-126004858D01*
X106645263Y-125530676D01*
X105793353Y-124933395D01*
X104682088Y-124058491D01*
X103364250Y-122952810D01*
X101892617Y-121663199D01*
X100319970Y-120236504D01*
X98699090Y-118719572D01*
X97082756Y-117159250D01*
X95983366Y-116067376D01*
X94834299Y-114920666D01*
X93600252Y-113704519D01*
X92391564Y-112526685D01*
X91318575Y-111494915D01*
X90759969Y-110966556D01*
X89898239Y-110152214D01*
X88805332Y-109108722D01*
X87572780Y-107924085D01*
X86292118Y-106686309D01*
X85054878Y-105483400D01*
X84915689Y-105347541D01*
X82257876Y-102798562D01*
X79735641Y-100484429D01*
X77217111Y-98290670D01*
X74570415Y-96102810D01*
X71663680Y-93806377D01*
X71264355Y-93497392D01*
X68406876Y-91318406D01*
X65823051Y-89415465D01*
X63451776Y-87756311D01*
X61231948Y-86308684D01*
X59102465Y-85040325D01*
X57002221Y-83918977D01*
X54870114Y-82912379D01*
X52645041Y-81988274D01*
X50265897Y-81114402D01*
X47671581Y-80258504D01*
X44800987Y-79388323D01*
X44216909Y-79218018D01*
X41528570Y-78506207D01*
X39190572Y-78035370D01*
X37154659Y-77796830D01*
X36117065Y-77761476D01*
X34644853Y-77761476D01*
X32538806Y-77761476D01*
X32538311Y-77657377D01*
X32540618Y-76075703D01*
X32544309Y-75802169D01*
X34404859Y-75802169D01*
X34425226Y-76462799D01*
X34504354Y-76839445D01*
X34649413Y-76997484D01*
X34678975Y-77006792D01*
X35042247Y-77068885D01*
X35793777Y-77179480D01*
X36829564Y-77323806D01*
X38045609Y-77487093D01*
X38255638Y-77514738D01*
X39877788Y-77757952D01*
X41464008Y-78066253D01*
X43160595Y-78472579D01*
X45113850Y-79009871D01*
X45850736Y-79224791D01*
X49003707Y-80201475D01*
X51774623Y-81166670D01*
X54274996Y-82164562D01*
X56616337Y-83239338D01*
X58675496Y-84306580D01*
X60233352Y-85166750D01*
X61568085Y-85934268D01*
X62776977Y-86672834D01*
X63957310Y-87446151D01*
X65206366Y-88317921D01*
X66621427Y-89351845D01*
X68271078Y-90589915D01*
X71692257Y-93228762D01*
X74959939Y-95859205D01*
X78151901Y-98548846D01*
X81345919Y-101365284D01*
X84619768Y-104376119D01*
X88051225Y-107648952D01*
X89322290Y-108886885D01*
X91504807Y-111021575D01*
X93399020Y-112870400D01*
X95038605Y-114465167D01*
X96457239Y-115837685D01*
X97688599Y-117019761D01*
X98766362Y-118043205D01*
X99724204Y-118939823D01*
X100595803Y-119741423D01*
X101414836Y-120479814D01*
X102214978Y-121186804D01*
X103029908Y-121894199D01*
X103723717Y-122489118D01*
X105247719Y-123751035D01*
X106632037Y-124793708D01*
X107979388Y-125673233D01*
X109392489Y-126445709D01*
X110974056Y-127167234D01*
X112826808Y-127893906D01*
X115053460Y-128681824D01*
X115078187Y-128690279D01*
X116791400Y-129223267D01*
X118127517Y-129518520D01*
X119114650Y-129580402D01*
X119771103Y-129418539D01*
X119782189Y-129263445D01*
X119391361Y-129003138D01*
X118572117Y-128622063D01*
X118027966Y-128395360D01*
X117361265Y-128113645D01*
X116766462Y-127828330D01*
X116183256Y-127496881D01*
X115551347Y-127076763D01*
X114810433Y-126525445D01*
X113900214Y-125800392D01*
X112760389Y-124859071D01*
X111421544Y-123735518D01*
X107737947Y-120535399D01*
X104376802Y-117402458D01*
X101214777Y-114218205D01*
X98767402Y-111578392D01*
X97731340Y-110449382D01*
X96599687Y-109250946D01*
X95489463Y-108104938D01*
X94517685Y-107133215D01*
X94248527Y-106872714D01*
X93373745Y-106016400D01*
X92304767Y-104940691D01*
X91150371Y-103756677D01*
X90019338Y-102575444D01*
X89481831Y-102004831D01*
X85852994Y-98333774D01*
X81853434Y-94663526D01*
X77597385Y-91089699D01*
X73199082Y-87707904D01*
X68772761Y-84613752D01*
X68443263Y-84396229D01*
X66195167Y-82943058D01*
X64191580Y-81710823D01*
X62317943Y-80640486D01*
X60459695Y-79673012D01*
X58502278Y-78749363D01*
X56331132Y-77810503D01*
X53831697Y-76797395D01*
X53261173Y-76572352D01*
X50667550Y-75562081D01*
X48455785Y-74724521D01*
X46564463Y-74042548D01*
X44932173Y-73499038D01*
X43497501Y-73076868D01*
X42199034Y-72758914D01*
X40975358Y-72528055D01*
X39765061Y-72367165D01*
X38506730Y-72259123D01*
X37607739Y-72207848D01*
X36374407Y-72159327D01*
X35551339Y-72158972D01*
X35053466Y-72211621D01*
X34795718Y-72322112D01*
X34750142Y-72370365D01*
X34649494Y-72692073D01*
X34552580Y-73326478D01*
X34472839Y-74169963D01*
X34436083Y-74792181D01*
X34404859Y-75802169D01*
X32544309Y-75802169D01*
X32557763Y-74805133D01*
X32600135Y-73740395D01*
X32678118Y-72776218D01*
X32802100Y-71807328D01*
X32949098Y-70928052D01*
X34897554Y-70928052D01*
X34930850Y-71244920D01*
X35115022Y-71427225D01*
X35568518Y-71531195D01*
X36325736Y-71606023D01*
X38772183Y-71852382D01*
X41003399Y-72174158D01*
X43137323Y-72599654D01*
X45291895Y-73157175D01*
X47585056Y-73875027D01*
X50134745Y-74781514D01*
X51148262Y-75163335D01*
X53217275Y-75981496D01*
X55423239Y-76904951D01*
X57641692Y-77878123D01*
X59748169Y-78845435D01*
X61618209Y-79751308D01*
X62847593Y-80387538D01*
X63898925Y-80984664D01*
X65233438Y-81789159D01*
X66754530Y-82739018D01*
X68365599Y-83772234D01*
X69970043Y-84826803D01*
X71471261Y-85840719D01*
X72772650Y-86751977D01*
X72851823Y-86808916D01*
X75327659Y-88665252D01*
X77993133Y-90793698D01*
X80762697Y-93119304D01*
X83550803Y-95567121D01*
X86271905Y-98062202D01*
X88840455Y-100529595D01*
X90958115Y-102672028D01*
X93133740Y-104937221D01*
X95023606Y-106904057D01*
X96653395Y-108599111D01*
X98048791Y-110048962D01*
X99235475Y-111280186D01*
X100239130Y-112319360D01*
X101085440Y-113193062D01*
X101800086Y-113927869D01*
X102408752Y-114550357D01*
X102937119Y-115087104D01*
X103410872Y-115564686D01*
X103603092Y-115757377D01*
X105903348Y-118041320D01*
X107939077Y-120019771D01*
X109744387Y-121720472D01*
X111353381Y-123171166D01*
X112800167Y-124399596D01*
X114118849Y-125433504D01*
X115343532Y-126300634D01*
X116508323Y-127028728D01*
X117647327Y-127645530D01*
X118794650Y-128178781D01*
X118959854Y-128249181D01*
X120053802Y-128704084D01*
X120844796Y-128999590D01*
X121472834Y-129166653D01*
X122077913Y-129236228D01*
X122800033Y-129239269D01*
X123358089Y-129221667D01*
X124266764Y-129172833D01*
X124944706Y-129104802D01*
X125272399Y-129030484D01*
X125285660Y-129013470D01*
X125064126Y-128891741D01*
X124478770Y-128694231D01*
X123644892Y-128458824D01*
X123423494Y-128401633D01*
X122092288Y-127960444D01*
X120518634Y-127269278D01*
X118802412Y-126380591D01*
X117043504Y-125346840D01*
X115341792Y-124220484D01*
X115006646Y-123981148D01*
X113569867Y-122825988D01*
X111973622Y-121335779D01*
X110260187Y-119556174D01*
X108471839Y-117532826D01*
X106650857Y-115311387D01*
X105077332Y-113259017D01*
X104062469Y-111898681D01*
X103026444Y-110519039D01*
X102032742Y-109203980D01*
X101144846Y-108037394D01*
X100426242Y-107103168D01*
X100173047Y-106778416D01*
X99342688Y-105709855D01*
X98440893Y-104532541D01*
X97599414Y-103419181D01*
X97155377Y-102822679D01*
X96513280Y-101997726D01*
X95617940Y-100911414D01*
X94526438Y-99628069D01*
X93295851Y-98212016D01*
X91983261Y-96727578D01*
X90645746Y-95239081D01*
X89340386Y-93810849D01*
X88124261Y-92507207D01*
X87054449Y-91392480D01*
X86648342Y-90981967D01*
X85918002Y-90282509D01*
X84912471Y-89362039D01*
X83711694Y-88291474D01*
X82395620Y-87141730D01*
X81044194Y-85983725D01*
X80420805Y-85457831D01*
X78606427Y-83961068D01*
X76987648Y-82688349D01*
X75437205Y-81546666D01*
X73827838Y-80443013D01*
X72032286Y-79284382D01*
X71617092Y-79023779D01*
X69562979Y-77748526D01*
X67829663Y-76695487D01*
X66348477Y-75827339D01*
X65050760Y-75106760D01*
X63867847Y-74496428D01*
X62731073Y-73959021D01*
X61571775Y-73457216D01*
X60791912Y-73139751D01*
X59565150Y-72649529D01*
X58328546Y-72154499D01*
X57252080Y-71722748D01*
X56683089Y-71493919D01*
X55817290Y-71194564D01*
X54552029Y-70823823D01*
X52973593Y-70402247D01*
X51168269Y-69950382D01*
X49222342Y-69488777D01*
X47222101Y-69037981D01*
X45253831Y-68618542D01*
X43403820Y-68251008D01*
X41990932Y-67995137D01*
X40127603Y-67683081D01*
X38691519Y-67458921D01*
X37624570Y-67317186D01*
X36868641Y-67252404D01*
X36365622Y-67259106D01*
X36057399Y-67331821D01*
X35921680Y-67423775D01*
X35717087Y-67781799D01*
X35475396Y-68418574D01*
X35235412Y-69201322D01*
X35035939Y-69997264D01*
X34915782Y-70673622D01*
X34897554Y-70928052D01*
X32949098Y-70928052D01*
X32982467Y-70728455D01*
X33229605Y-69434325D01*
X33466089Y-68253875D01*
X33855846Y-66224467D01*
X36060133Y-66224467D01*
X36089395Y-66533155D01*
X36101233Y-66548682D01*
X36390646Y-66628603D01*
X37083644Y-66761830D01*
X38092558Y-66933175D01*
X39329719Y-67127448D01*
X40123285Y-67245519D01*
X43304845Y-67736380D01*
X46124782Y-68235729D01*
X48718779Y-68774593D01*
X51222520Y-69384000D01*
X53771690Y-70094978D01*
X56501975Y-70938555D01*
X57056618Y-71117756D01*
X58704117Y-71680159D01*
X60252108Y-72272586D01*
X61792947Y-72937912D01*
X63418991Y-73719015D01*
X65222596Y-74658771D01*
X67296116Y-75800055D01*
X68013481Y-76204494D01*
X70854258Y-77867820D01*
X73466674Y-79521218D01*
X75943497Y-81232701D01*
X78377494Y-83070277D01*
X80861433Y-85101958D01*
X83488080Y-87395752D01*
X84387937Y-88209010D01*
X86862290Y-90515888D01*
X89204773Y-92818739D01*
X91461034Y-95170098D01*
X93676720Y-97622497D01*
X95897479Y-100228469D01*
X98168958Y-103040547D01*
X100536805Y-106111265D01*
X103046667Y-109493154D01*
X103886908Y-110649155D01*
X105844985Y-113306272D01*
X107630569Y-115620661D01*
X109276985Y-117628768D01*
X110817552Y-119367040D01*
X112285594Y-120871925D01*
X113714432Y-122179869D01*
X115137389Y-123327319D01*
X116134732Y-124045577D01*
X118654241Y-125658299D01*
X121040663Y-126945250D01*
X123269749Y-127896295D01*
X125317250Y-128501297D01*
X127158916Y-128750122D01*
X127404657Y-128756009D01*
X128400736Y-128764657D01*
X127304046Y-128240529D01*
X126544951Y-127887087D01*
X125540190Y-127431598D01*
X124486579Y-126963130D01*
X124315811Y-126888189D01*
X123329193Y-126408399D01*
X122130077Y-125754026D01*
X120886070Y-125019541D01*
X119986680Y-124448022D01*
X118906092Y-123696496D01*
X117906460Y-122912374D01*
X116956372Y-122056508D01*
X116024415Y-121089751D01*
X115079174Y-119972955D01*
X114089237Y-118666972D01*
X113023189Y-117132655D01*
X111849619Y-115330856D01*
X110537111Y-113222428D01*
X109185286Y-110987214D01*
X108019965Y-109044586D01*
X107032582Y-107411480D01*
X106180120Y-106024249D01*
X105419560Y-104819243D01*
X104707885Y-103732815D01*
X104002077Y-102701315D01*
X103259117Y-101661095D01*
X102435988Y-100548507D01*
X101489671Y-99299902D01*
X100377150Y-97851631D01*
X99815432Y-97123771D01*
X98411969Y-95309308D01*
X97244878Y-93808059D01*
X96283024Y-92582008D01*
X95495273Y-91593139D01*
X94850490Y-90803437D01*
X94317541Y-90174883D01*
X93865290Y-89669464D01*
X93462604Y-89249161D01*
X93078347Y-88875961D01*
X93002614Y-88805158D01*
X92354107Y-88182009D01*
X91529303Y-87361027D01*
X90658304Y-86472652D01*
X90194606Y-85989875D01*
X88653644Y-84502932D01*
X86742876Y-82874212D01*
X84534567Y-81153717D01*
X82100981Y-79391449D01*
X79514383Y-77637413D01*
X76847038Y-75941608D01*
X74171209Y-74354039D01*
X71559162Y-72924708D01*
X70613759Y-72441173D01*
X66735806Y-70609199D01*
X62722359Y-68919965D01*
X58696541Y-67420152D01*
X54781476Y-66156442D01*
X52076226Y-65412886D01*
X50485527Y-65022781D01*
X49029911Y-64694642D01*
X47595312Y-64407945D01*
X46067662Y-64142167D01*
X44332893Y-63876784D01*
X42276938Y-63591270D01*
X41050022Y-63428947D01*
X39476946Y-63224403D01*
X38327302Y-63081932D01*
X37532464Y-62999270D01*
X37023805Y-62974149D01*
X36732699Y-63004305D01*
X36590519Y-63087471D01*
X36528640Y-63221382D01*
X36513421Y-63279165D01*
X36342494Y-64050402D01*
X36200655Y-64872255D01*
X36101877Y-65633888D01*
X36060133Y-66224467D01*
X33855846Y-66224467D01*
X33937517Y-65799217D01*
X34321902Y-63503730D01*
X34631722Y-61260679D01*
X34676483Y-60845597D01*
X36668421Y-60845597D01*
X36680092Y-61532441D01*
X36761704Y-61957552D01*
X36970924Y-62192491D01*
X37443314Y-62326904D01*
X38006618Y-62409645D01*
X38607598Y-62497085D01*
X39609712Y-62651098D01*
X40925422Y-62857870D01*
X42467191Y-63103586D01*
X44147482Y-63374431D01*
X45071192Y-63524572D01*
X47376512Y-63913721D01*
X49306939Y-64272604D01*
X50981106Y-64626901D01*
X52517642Y-65002291D01*
X54035180Y-65424455D01*
X54533937Y-65572951D01*
X57498858Y-66490744D01*
X60160196Y-67370633D01*
X62600979Y-68249551D01*
X64904237Y-69164433D01*
X67153000Y-70152213D01*
X69430296Y-71249823D01*
X71819157Y-72494199D01*
X74402611Y-73922274D01*
X77263688Y-75570981D01*
X78057147Y-76036726D01*
X81694689Y-78370064D01*
X85284788Y-81060853D01*
X88833814Y-84116168D01*
X92348134Y-87543085D01*
X95834119Y-91348679D01*
X99298136Y-95540025D01*
X102746555Y-100124199D01*
X106185745Y-105108275D01*
X109622074Y-110499330D01*
X110746258Y-112351785D01*
X111361820Y-113387030D01*
X111890025Y-114292498D01*
X112293580Y-115002866D01*
X112535191Y-115452808D01*
X112587990Y-115577739D01*
X112723765Y-115884958D01*
X113095041Y-116459327D01*
X113647748Y-117229219D01*
X114327818Y-118123007D01*
X115081178Y-119069064D01*
X115853761Y-119995760D01*
X116364477Y-120580513D01*
X118328187Y-122500026D01*
X120643936Y-124242344D01*
X123370867Y-125850205D01*
X124337469Y-126342066D01*
X125964928Y-127128833D01*
X127253642Y-127704301D01*
X128283607Y-128082597D01*
X129134821Y-128277846D01*
X129887281Y-128304173D01*
X130620984Y-128175705D01*
X131415927Y-127906567D01*
X131949265Y-127686142D01*
X132719164Y-127334225D01*
X133275618Y-127038254D01*
X133504781Y-126859152D01*
X133505638Y-126853275D01*
X133280726Y-126761605D01*
X132701884Y-126701479D01*
X132170018Y-126687705D01*
X129915102Y-126504900D01*
X127542240Y-125980532D01*
X125143318Y-125150673D01*
X122810217Y-124051395D01*
X120634823Y-122718768D01*
X119147203Y-121575231D01*
X118612596Y-121098357D01*
X118130348Y-120608035D01*
X117655557Y-120043105D01*
X117143320Y-119342409D01*
X116548735Y-118444790D01*
X115826899Y-117289088D01*
X115003135Y-115930894D01*
X113889829Y-114058702D01*
X112690304Y-112002431D01*
X111449178Y-109841424D01*
X110211070Y-107655025D01*
X109020597Y-105522580D01*
X107922378Y-103523431D01*
X106961030Y-101736923D01*
X106183374Y-100246722D01*
X105546390Y-99049713D01*
X104851081Y-97854458D01*
X104061281Y-96608810D01*
X103140824Y-95260623D01*
X102053543Y-93757751D01*
X100763272Y-92048048D01*
X99233845Y-90079366D01*
X98385946Y-89004099D01*
X97326035Y-87661274D01*
X96309351Y-86365988D01*
X95382467Y-85178132D01*
X94591961Y-84157596D01*
X93984407Y-83364270D01*
X93607665Y-82859821D01*
X93045705Y-82206989D01*
X92163729Y-81336750D01*
X91023278Y-80299315D01*
X89685895Y-79144892D01*
X88213121Y-77923690D01*
X86666497Y-76685918D01*
X85107564Y-75481786D01*
X83597865Y-74361503D01*
X82198941Y-73375277D01*
X81087010Y-72644747D01*
X79081030Y-71413763D01*
X77234910Y-70345522D01*
X75450538Y-69393470D01*
X73629801Y-68511053D01*
X71674586Y-67651716D01*
X69486780Y-66768905D01*
X66968269Y-65816066D01*
X65772304Y-65377984D01*
X61900088Y-64065100D01*
X57866672Y-62873532D01*
X53805651Y-61837066D01*
X49850618Y-60989489D01*
X46135165Y-60364590D01*
X45726226Y-60308118D01*
X44080885Y-60093755D01*
X42446957Y-59893787D01*
X40949009Y-59722537D01*
X39711611Y-59594326D01*
X38957479Y-59529867D01*
X36920104Y-59388882D01*
X36759384Y-60105149D01*
X36668421Y-60845597D01*
X34676483Y-60845597D01*
X34879460Y-58963330D01*
X34976415Y-57760340D01*
X37135049Y-57760340D01*
X37207353Y-58497882D01*
X37428629Y-58857076D01*
X37491477Y-58885377D01*
X37890603Y-58951050D01*
X38649386Y-59028016D01*
X39630303Y-59103141D01*
X40043928Y-59129137D01*
X41808235Y-59275447D01*
X44027854Y-59533629D01*
X46710512Y-59904680D01*
X49863933Y-60389591D01*
X49959559Y-60404894D01*
X51037234Y-60613760D01*
X52488980Y-60948195D01*
X54224400Y-61383477D01*
X56153099Y-61894884D01*
X58184680Y-62457693D01*
X60228748Y-63047183D01*
X62194906Y-63638631D01*
X63992759Y-64207314D01*
X64615145Y-64413019D01*
X68998278Y-66018725D01*
X73286549Y-67854499D01*
X77377835Y-69870256D01*
X81170012Y-72015914D01*
X84346692Y-74089622D01*
X85399592Y-74863244D01*
X86665924Y-75843715D01*
X88021331Y-76931898D01*
X89341457Y-78028658D01*
X90044692Y-78632021D01*
X91140024Y-79601247D01*
X92083883Y-80479887D01*
X92947217Y-81344421D01*
X93800975Y-82271332D01*
X94716106Y-83337098D01*
X95763559Y-84618202D01*
X96769480Y-85881148D01*
X98852298Y-88535448D01*
X100659105Y-90883289D01*
X102209789Y-92953146D01*
X103524240Y-94773493D01*
X104622347Y-96372805D01*
X105523998Y-97779556D01*
X106249084Y-99022222D01*
X106817492Y-100129276D01*
X106999643Y-100527341D01*
X107314374Y-101124298D01*
X107628477Y-101538612D01*
X107775246Y-101642649D01*
X108078069Y-101909098D01*
X108105638Y-102030239D01*
X108218381Y-102413599D01*
X108546136Y-103137484D01*
X109073185Y-104173401D01*
X109783812Y-105492860D01*
X110662301Y-107067370D01*
X111692936Y-108868440D01*
X112860000Y-110867578D01*
X114147778Y-113036294D01*
X114509656Y-113639771D01*
X115668208Y-115557418D01*
X116649801Y-117145405D01*
X117494336Y-118448917D01*
X118241719Y-119513139D01*
X118931853Y-120383257D01*
X119604642Y-121104456D01*
X120299988Y-121721921D01*
X121057796Y-122280838D01*
X121917968Y-122826393D01*
X122920410Y-123403769D01*
X123336792Y-123635303D01*
X125508302Y-124731160D01*
X127511713Y-125506417D01*
X129447928Y-125990903D01*
X131417853Y-126214449D01*
X132136030Y-126236587D01*
X132668077Y-126236408D01*
X132881611Y-126208704D01*
X132736987Y-126136013D01*
X132194557Y-126000872D01*
X131214677Y-125785817D01*
X131015441Y-125742995D01*
X130073164Y-125504549D01*
X128943705Y-125163173D01*
X127714048Y-124751914D01*
X126471173Y-124303821D01*
X125302064Y-123851941D01*
X124293701Y-123429324D01*
X123533067Y-123069016D01*
X123107144Y-122804067D01*
X123046814Y-122715374D01*
X122877163Y-122485518D01*
X122435462Y-122074587D01*
X121904866Y-121640912D01*
X120363973Y-120233958D01*
X118833908Y-118416478D01*
X117318852Y-116194304D01*
X115822986Y-113573266D01*
X115104622Y-112158066D01*
X114616966Y-111129314D01*
X114190591Y-110169174D01*
X113868664Y-109379049D01*
X113694351Y-108860348D01*
X113686616Y-108826918D01*
X113563651Y-108453386D01*
X113302085Y-107783811D01*
X112933372Y-106889797D01*
X112488970Y-105842946D01*
X112000333Y-104714860D01*
X111498917Y-103577142D01*
X111016179Y-102501393D01*
X110583573Y-101559217D01*
X110232556Y-100822215D01*
X109994583Y-100361990D01*
X109917238Y-100246722D01*
X109705074Y-100327020D01*
X109302154Y-100649766D01*
X109077425Y-100863447D01*
X108599797Y-101314417D01*
X108396736Y-101435672D01*
X108466706Y-101221028D01*
X108808173Y-100664304D01*
X108968002Y-100422659D01*
X109581346Y-99505167D01*
X108121613Y-96909141D01*
X107129199Y-95205180D01*
X106035345Y-93451384D01*
X104791090Y-91573627D01*
X103347477Y-89497786D01*
X101869158Y-87442623D01*
X101052008Y-86319788D01*
X100179699Y-85119914D01*
X99357743Y-83988200D01*
X98703114Y-83085668D01*
X96908021Y-80796583D01*
X94729945Y-78347026D01*
X92215190Y-75787636D01*
X90784126Y-74424842D01*
X89468645Y-73238984D01*
X91583777Y-73238984D01*
X91605735Y-73478109D01*
X91903306Y-73818031D01*
X92399699Y-74314126D01*
X92997453Y-74877333D01*
X93599109Y-75418593D01*
X94107205Y-75848844D01*
X94424280Y-76079026D01*
X94470440Y-76095902D01*
X94702009Y-75934091D01*
X95091151Y-75516500D01*
X95419841Y-75106967D01*
X96015372Y-74207973D01*
X96452104Y-73251748D01*
X96757035Y-72145035D01*
X96957165Y-70794579D01*
X97062361Y-69433607D01*
X97208546Y-66831148D01*
X96155303Y-64124590D01*
X95616605Y-62766136D01*
X95080988Y-61462042D01*
X94575804Y-60274699D01*
X94128404Y-59266496D01*
X93766141Y-58499823D01*
X93516367Y-58037070D01*
X93444447Y-57941205D01*
X93397634Y-58094983D01*
X93354361Y-58607253D01*
X93317043Y-59420112D01*
X93288095Y-60475659D01*
X93269933Y-61715993D01*
X93266434Y-62209238D01*
X93217376Y-64561261D01*
X93088923Y-66579416D01*
X92870166Y-68342274D01*
X92550199Y-69928405D01*
X92118115Y-71416378D01*
X91904382Y-72020732D01*
X91687168Y-72704264D01*
X91583777Y-73238984D01*
X89468645Y-73238984D01*
X88276384Y-72164205D01*
X85916021Y-70205323D01*
X83614536Y-68483217D01*
X81283429Y-66932910D01*
X78834202Y-65489425D01*
X77974265Y-65019706D01*
X77005249Y-64546490D01*
X75663181Y-63957091D01*
X74039199Y-63286214D01*
X72224443Y-62568561D01*
X70310050Y-61838836D01*
X68387159Y-61131745D01*
X66546909Y-60481989D01*
X64880438Y-59924273D01*
X63478885Y-59493301D01*
X63406618Y-59472633D01*
X61706330Y-59025247D01*
X59655556Y-58543413D01*
X57396042Y-58056086D01*
X55069533Y-57592223D01*
X52817774Y-57180780D01*
X50782511Y-56850710D01*
X50084069Y-56751110D01*
X48531545Y-56576224D01*
X46789660Y-56439576D01*
X44959863Y-56343302D01*
X43143599Y-56289535D01*
X41442316Y-56280411D01*
X39957461Y-56318063D01*
X38790480Y-56404627D01*
X38193383Y-56500917D01*
X37135049Y-56749656D01*
X37135049Y-57760340D01*
X34976415Y-57760340D01*
X35077594Y-56504950D01*
X35238606Y-53778804D01*
X35293954Y-52621722D01*
X35437591Y-49446722D01*
X36886030Y-49446722D01*
X36930098Y-51164344D01*
X36971775Y-52539149D01*
X37018441Y-53543660D01*
X37073800Y-54223976D01*
X37141555Y-54626195D01*
X37221632Y-54793427D01*
X37507406Y-54829799D01*
X38198188Y-54850707D01*
X39201251Y-54855168D01*
X40423864Y-54842201D01*
X40920805Y-54832627D01*
X43685318Y-54788383D01*
X46061013Y-54793391D01*
X48155177Y-54860240D01*
X50075098Y-55001519D01*
X51928063Y-55229817D01*
X53821359Y-55557722D01*
X55862273Y-55997825D01*
X58158093Y-56562714D01*
X60169363Y-57091245D01*
X62199387Y-57666393D01*
X64404893Y-58347281D01*
X66704989Y-59104347D01*
X69018785Y-59908032D01*
X71265388Y-60728772D01*
X73363908Y-61537008D01*
X75233452Y-62303177D01*
X76793129Y-62997717D01*
X77962049Y-63591069D01*
X77974265Y-63597957D01*
X81398309Y-65648885D01*
X84608879Y-67803201D01*
X87271882Y-69810970D01*
X88222585Y-70553398D01*
X89053659Y-71162172D01*
X89698519Y-71591630D01*
X90090580Y-71796110D01*
X90171398Y-71799370D01*
X90367060Y-71458805D01*
X90611208Y-70783900D01*
X90883880Y-69852757D01*
X91165110Y-68743475D01*
X91434934Y-67534158D01*
X91673389Y-66302906D01*
X91840508Y-65269672D01*
X92027377Y-63108656D01*
X92011952Y-60770931D01*
X91808634Y-58368144D01*
X91431824Y-56011943D01*
X90895923Y-53813974D01*
X90215332Y-51885883D01*
X90072508Y-51562879D01*
X89696420Y-50735627D01*
X89398609Y-50065174D01*
X89217346Y-49638579D01*
X89180147Y-49532961D01*
X89398861Y-49475111D01*
X89934145Y-49447186D01*
X90021426Y-49446722D01*
X90587191Y-49490617D01*
X90892428Y-49701913D01*
X91104082Y-50200027D01*
X91112916Y-50227459D01*
X91749274Y-52173696D01*
X92318176Y-53816258D01*
X92859532Y-55258074D01*
X93413252Y-56602070D01*
X94019246Y-57951176D01*
X94498848Y-58959762D01*
X95109801Y-60246421D01*
X95725934Y-61587282D01*
X96290349Y-62855640D01*
X96746145Y-63924789D01*
X96903912Y-64315430D01*
X97214529Y-65118132D01*
X97430518Y-65751265D01*
X97565188Y-66317766D01*
X97631850Y-66920571D01*
X97643815Y-67662617D01*
X97614392Y-68646839D01*
X97576945Y-69520348D01*
X97482075Y-71106999D01*
X97338894Y-72358980D01*
X97123744Y-73357500D01*
X96812966Y-74183773D01*
X96382902Y-74919010D01*
X95809894Y-75644424D01*
X95784415Y-75673531D01*
X94864958Y-76720746D01*
X96152817Y-78073898D01*
X96766191Y-78695446D01*
X97272575Y-79166484D01*
X97587469Y-79409851D01*
X97634673Y-79427049D01*
X98020725Y-79284952D01*
X98558116Y-78937617D01*
X99084871Y-78503483D01*
X99431227Y-78113388D01*
X99889222Y-77135140D01*
X100245485Y-75847651D01*
X100491190Y-74350765D01*
X100617511Y-72744326D01*
X100615620Y-71128176D01*
X100476692Y-69602160D01*
X100275071Y-68568228D01*
X99610378Y-66365433D01*
X98659566Y-63860449D01*
X97435048Y-61084386D01*
X96591268Y-59336066D01*
X95939071Y-57967557D01*
X95286235Y-56499609D01*
X94689344Y-55066170D01*
X94204980Y-53801191D01*
X93996872Y-53194262D01*
X93572485Y-51868409D01*
X93266987Y-50892930D01*
X93068812Y-50216343D01*
X92966396Y-49787168D01*
X92948175Y-49553923D01*
X93002584Y-49465126D01*
X93118059Y-49469297D01*
X93162726Y-49480937D01*
X93341427Y-49706577D01*
X93601419Y-50261453D01*
X93911369Y-51069197D01*
X94239943Y-52053437D01*
X94305952Y-52267427D01*
X94731914Y-53519940D01*
X95297122Y-54975051D01*
X95930100Y-56458070D01*
X96559372Y-57794309D01*
X96601867Y-57878689D01*
X97321987Y-59361416D01*
X98058395Y-60985205D01*
X98777924Y-62667144D01*
X99447408Y-64324317D01*
X100033679Y-65873812D01*
X100503571Y-67232715D01*
X100823918Y-68318111D01*
X100890877Y-68600820D01*
X101008726Y-69351272D01*
X101110509Y-70379739D01*
X101185000Y-71547859D01*
X101220259Y-72660656D01*
X101167213Y-74560502D01*
X100938132Y-76125912D01*
X100513709Y-77417688D01*
X99874639Y-78496633D01*
X99100929Y-79335120D01*
X98091269Y-80250906D01*
X98751107Y-81192256D01*
X99183624Y-81725103D01*
X99573966Y-82066324D01*
X99744728Y-82133607D01*
X100125483Y-81948008D01*
X100627448Y-81434798D01*
X101207213Y-80659354D01*
X101821372Y-79687056D01*
X102426517Y-78583282D01*
X102979239Y-77413411D01*
X103151321Y-77002794D01*
X103834336Y-75259145D01*
X104335167Y-73807855D01*
X104661291Y-72556264D01*
X104820187Y-71411713D01*
X104819331Y-70281542D01*
X104666201Y-69073091D01*
X104368276Y-67693700D01*
X104012059Y-66336831D01*
X103543501Y-64711738D01*
X103085469Y-63339832D01*
X102585888Y-62109979D01*
X101992687Y-60911048D01*
X101253793Y-59631908D01*
X100317132Y-58161425D01*
X99853747Y-57462295D01*
X99035398Y-56174682D01*
X98225011Y-54789512D01*
X97503886Y-53451994D01*
X96953324Y-52307340D01*
X96905158Y-52195898D01*
X96438411Y-51086554D01*
X96131852Y-50313219D01*
X95971091Y-49821929D01*
X95941739Y-49558717D01*
X96029406Y-49469619D01*
X96183642Y-49490045D01*
X96373745Y-49707108D01*
X96676640Y-50236742D01*
X97048607Y-50996221D01*
X97397371Y-51786654D01*
X97844362Y-52740950D01*
X98473167Y-53937423D01*
X99217546Y-55257178D01*
X100011256Y-56581323D01*
X100493568Y-57343848D01*
X101669689Y-59228386D01*
X102605943Y-60904613D01*
X103359843Y-62498232D01*
X103988905Y-64134948D01*
X104550643Y-65940464D01*
X104737877Y-66620195D01*
X105175260Y-68517427D01*
X105378565Y-70182348D01*
X105341831Y-71752797D01*
X105059095Y-73366613D01*
X104524394Y-75161634D01*
X104346585Y-75666118D01*
X103630473Y-77522735D01*
X102933993Y-79047531D01*
X102213895Y-80321745D01*
X101426930Y-81426618D01*
X101023237Y-81908715D01*
X100176542Y-82873058D01*
X101048367Y-84064808D01*
X101516256Y-84666987D01*
X101901403Y-85095460D01*
X102118524Y-85256558D01*
X102331435Y-85067759D01*
X102656212Y-84545170D01*
X103064306Y-83754504D01*
X103527169Y-82761472D01*
X104016250Y-81631786D01*
X104503002Y-80431158D01*
X104958873Y-79225299D01*
X105355316Y-78079922D01*
X105636648Y-77158890D01*
X106015226Y-75694236D01*
X106364806Y-74133410D01*
X106667202Y-72577394D01*
X106904224Y-71127172D01*
X107057684Y-69883726D01*
X107109510Y-68981305D01*
X107033116Y-68116439D01*
X106821375Y-66949793D01*
X106500521Y-65573458D01*
X106096790Y-64079523D01*
X105636416Y-62560080D01*
X105145634Y-61107218D01*
X104650679Y-59813027D01*
X104229956Y-58873380D01*
X103748197Y-57969340D01*
X103100807Y-56849493D01*
X102373257Y-55657627D01*
X101665369Y-54559063D01*
X100976478Y-53501808D01*
X100311908Y-52441968D01*
X99744323Y-51497898D01*
X99346382Y-50787955D01*
X99325660Y-50747951D01*
X98657129Y-49446722D01*
X99350948Y-49446722D01*
X99864059Y-49529396D01*
X100240346Y-49846640D01*
X100482650Y-50227459D01*
X100934528Y-50946866D01*
X101456578Y-51666937D01*
X101512589Y-51736885D01*
X102515031Y-53072649D01*
X103549770Y-54628470D01*
X104536868Y-56270467D01*
X105396383Y-57864758D01*
X106048377Y-59277462D01*
X106115951Y-59446483D01*
X106628067Y-60891096D01*
X107123541Y-62531187D01*
X107570383Y-64238860D01*
X107936608Y-65886214D01*
X108190226Y-67345351D01*
X108275296Y-68080328D01*
X108287065Y-69130043D01*
X108186851Y-70477562D01*
X107990916Y-72018336D01*
X107715522Y-73647819D01*
X107376929Y-75261461D01*
X106991401Y-76754715D01*
X106855935Y-77205529D01*
X106461456Y-78386712D01*
X105989394Y-79677453D01*
X105472682Y-80999487D01*
X104944253Y-82274550D01*
X104437041Y-83424377D01*
X103983977Y-84370704D01*
X103617996Y-85035266D01*
X103474257Y-85242001D01*
X103098894Y-85778210D01*
X102890957Y-86219715D01*
X102876226Y-86311346D01*
X102995364Y-86604716D01*
X103322568Y-87182038D01*
X103812519Y-87968787D01*
X104419898Y-88890439D01*
X104650959Y-89229819D01*
X105481852Y-90459487D01*
X106314613Y-91726803D01*
X107113511Y-92973754D01*
X107842817Y-94142325D01*
X108466801Y-95174502D01*
X108949732Y-96012272D01*
X109255881Y-96597621D01*
X109350736Y-96860732D01*
X109463082Y-97109427D01*
X109709231Y-97052465D01*
X109952850Y-96734009D01*
X109984828Y-96655328D01*
X110129663Y-96360095D01*
X110463034Y-95736837D01*
X110958545Y-94833155D01*
X111589799Y-93696645D01*
X112330401Y-92374907D01*
X113153954Y-90915539D01*
X113766057Y-89836885D01*
X115635474Y-86530825D01*
X117276466Y-83587697D01*
X118692092Y-81001752D01*
X119885413Y-78767239D01*
X120859487Y-76878407D01*
X121617375Y-75329507D01*
X122162135Y-74114788D01*
X122265000Y-73863608D01*
X123612185Y-70008395D01*
X124684161Y-65910539D01*
X125458856Y-61685992D01*
X125914201Y-57450708D01*
X126033800Y-54063083D01*
X126025133Y-52918459D01*
X125965557Y-52095334D01*
X125806662Y-51498818D01*
X125500038Y-51034023D01*
X124997273Y-50606060D01*
X124249959Y-50120038D01*
X123918383Y-49916647D01*
X123171324Y-49459913D01*
X125382242Y-49453317D01*
X127593159Y-49446722D01*
X127388555Y-51997131D01*
X127298818Y-53292059D01*
X127221785Y-54727328D01*
X127167803Y-56092903D01*
X127150065Y-56837705D01*
X127106527Y-58034161D01*
X127018242Y-59322821D01*
X126900665Y-60499557D01*
X126836859Y-60974666D01*
X126724512Y-61877308D01*
X126667136Y-62682729D01*
X126672761Y-63257655D01*
X126691774Y-63382621D01*
X126708480Y-63933898D01*
X126588153Y-64635564D01*
X126520447Y-64866971D01*
X126323580Y-65592728D01*
X126135388Y-66499309D01*
X126031990Y-67143443D01*
X125778034Y-68654614D01*
X125410505Y-70220622D01*
X124914944Y-71873891D01*
X124276898Y-73646848D01*
X123481909Y-75571917D01*
X122515522Y-77681525D01*
X121363282Y-80008095D01*
X120010731Y-82584054D01*
X118443415Y-85441826D01*
X116646878Y-88613838D01*
X115821952Y-90045082D01*
X114761916Y-91879485D01*
X113903867Y-93373711D01*
X113230077Y-94561271D01*
X112722822Y-95475672D01*
X112364376Y-96150424D01*
X112137014Y-96619036D01*
X112023011Y-96915016D01*
X112004640Y-97071873D01*
X112064177Y-97123117D01*
X112077481Y-97123771D01*
X112272113Y-96956039D01*
X112682605Y-96491353D01*
X113263970Y-95787472D01*
X113971224Y-94902156D01*
X114759383Y-93893167D01*
X115583461Y-92818265D01*
X116398472Y-91735210D01*
X117159433Y-90701764D01*
X117821358Y-89775687D01*
X117995860Y-89524590D01*
X118744708Y-88399060D01*
X119589685Y-87064131D01*
X120485698Y-85597393D01*
X121387655Y-84076437D01*
X122250465Y-82578853D01*
X123029037Y-81182230D01*
X123678278Y-79964160D01*
X124153098Y-79002232D01*
X124287531Y-78698361D01*
X125153405Y-76369313D01*
X125943397Y-73726999D01*
X126635630Y-70872087D01*
X127208229Y-67905250D01*
X127639318Y-64927157D01*
X127906759Y-62042623D01*
X127992161Y-60898257D01*
X128096891Y-59789070D01*
X128207611Y-58842474D01*
X128309951Y-58190984D01*
X128430337Y-57486356D01*
X128567298Y-56517820D01*
X128700359Y-55436704D01*
X128771699Y-54778393D01*
X128967403Y-53091916D01*
X129179756Y-51689347D01*
X129402188Y-50600589D01*
X129628125Y-49855546D01*
X129850997Y-49484121D01*
X129943412Y-49446722D01*
X130117821Y-49443767D01*
X130215052Y-49487664D01*
X130233075Y-49657562D01*
X130169861Y-50032605D01*
X130023380Y-50691940D01*
X129897282Y-51245444D01*
X129695490Y-52304503D01*
X129520513Y-53520100D01*
X129409639Y-54632473D01*
X129408348Y-54651640D01*
X129317017Y-55718812D01*
X129187949Y-56856396D01*
X129048097Y-57828534D01*
X129039567Y-57878689D01*
X128934754Y-58640453D01*
X128826160Y-59689824D01*
X128725475Y-60898218D01*
X128644385Y-62137047D01*
X128632690Y-62354918D01*
X128463409Y-64397202D01*
X128167859Y-66593114D01*
X127763242Y-68878369D01*
X127266759Y-71188679D01*
X126695611Y-73459757D01*
X126067001Y-75627315D01*
X125398130Y-77627066D01*
X124706199Y-79394723D01*
X124008410Y-80865998D01*
X123418162Y-81843206D01*
X123052853Y-82415642D01*
X122573661Y-83236776D01*
X122058472Y-84171021D01*
X121803066Y-84654856D01*
X121231496Y-85700104D01*
X120581708Y-86801879D01*
X119965083Y-87773712D01*
X119765532Y-88066020D01*
X118562964Y-89753561D01*
X117329751Y-91439771D01*
X116114617Y-93061029D01*
X114966284Y-94553714D01*
X113933474Y-95854206D01*
X113064912Y-96898882D01*
X112597891Y-97425355D01*
X111918549Y-98209390D01*
X111407347Y-98895977D01*
X111127504Y-99396229D01*
X111093873Y-99539965D01*
X111190410Y-99973121D01*
X111433366Y-100554136D01*
X111752757Y-101154655D01*
X112078598Y-101646322D01*
X112340906Y-101900780D01*
X112387344Y-101912295D01*
X112631898Y-101773642D01*
X113148836Y-101396610D01*
X113861189Y-100839587D01*
X114651482Y-100194672D01*
X116695059Y-98337673D01*
X118816052Y-96098758D01*
X121022533Y-93468919D01*
X123026724Y-90844061D01*
X124365405Y-88933892D01*
X125493719Y-87111446D01*
X126450486Y-85289046D01*
X127274525Y-83379012D01*
X128004656Y-81293664D01*
X128679698Y-78945322D01*
X129171862Y-76964320D01*
X129520776Y-75506510D01*
X129872342Y-74077331D01*
X130204180Y-72764883D01*
X130493910Y-71657264D01*
X130719151Y-70842574D01*
X130773413Y-70659894D01*
X131010001Y-69787824D01*
X131176127Y-68986252D01*
X131241529Y-68405998D01*
X131240123Y-68334099D01*
X131257224Y-67864546D01*
X131332956Y-67093051D01*
X131454883Y-66129802D01*
X131597706Y-65165574D01*
X131781952Y-63862416D01*
X131953992Y-62396098D01*
X132089170Y-60988338D01*
X132141777Y-60272951D01*
X132264816Y-58664839D01*
X132432772Y-57035098D01*
X132636030Y-55436586D01*
X132864979Y-53922162D01*
X133110004Y-52544686D01*
X133361494Y-51357016D01*
X133609835Y-50412011D01*
X133845413Y-49762530D01*
X134058617Y-49461432D01*
X134110653Y-49446722D01*
X134205279Y-49569237D01*
X134214957Y-49960596D01*
X134135774Y-50656519D01*
X133963819Y-51692726D01*
X133728816Y-52934017D01*
X133470899Y-54401088D01*
X133217471Y-56111490D01*
X132991411Y-57892440D01*
X132815595Y-59571160D01*
X132757032Y-60272951D01*
X132414654Y-63988397D01*
X131968312Y-67387703D01*
X131422808Y-70439567D01*
X130792799Y-73077049D01*
X130444249Y-74399925D01*
X130080879Y-75878562D01*
X129750795Y-77312289D01*
X129545048Y-78281967D01*
X129294726Y-79416819D01*
X129005456Y-80551726D01*
X128716807Y-81539342D01*
X128513648Y-82122544D01*
X126764945Y-85931765D01*
X124550096Y-89714545D01*
X121900562Y-93427154D01*
X118847806Y-97025860D01*
X115423292Y-100466933D01*
X115102457Y-100763248D01*
X114269114Y-101544399D01*
X113573770Y-102228121D01*
X113078827Y-102750629D01*
X112846686Y-103048135D01*
X112837010Y-103078995D01*
X112931854Y-103395612D01*
X113173651Y-103938495D01*
X113349615Y-104285598D01*
X113862220Y-105254454D01*
X114532458Y-104853513D01*
X116677230Y-103401056D01*
X118863829Y-101602254D01*
X121033521Y-99518579D01*
X123127571Y-97211501D01*
X125087245Y-94742494D01*
X126853808Y-92173028D01*
X127237690Y-91556166D01*
X128271610Y-89829184D01*
X129088083Y-88383809D01*
X129722203Y-87142760D01*
X130209064Y-86028753D01*
X130583760Y-84964505D01*
X130881387Y-83872734D01*
X131031372Y-83201951D01*
X131313699Y-81980553D01*
X131683555Y-80555800D01*
X132088223Y-79123879D01*
X132397785Y-78116828D01*
X132728810Y-77010149D01*
X133003142Y-75941062D01*
X133193105Y-75028290D01*
X133271021Y-74390553D01*
X133271462Y-74369288D01*
X133324145Y-73505746D01*
X133438836Y-72624832D01*
X133492077Y-72348361D01*
X133623489Y-71726628D01*
X133804300Y-70840644D01*
X134004719Y-69837251D01*
X134104516Y-69329508D01*
X134326207Y-68233385D01*
X134568985Y-67094137D01*
X134792044Y-66101419D01*
X134866040Y-65790164D01*
X135051986Y-64960289D01*
X135289740Y-63797922D01*
X135564420Y-62383216D01*
X135861142Y-60796321D01*
X136165023Y-59117391D01*
X136461179Y-57426577D01*
X136734726Y-55804030D01*
X136837695Y-55172131D01*
X137076908Y-53796733D01*
X137333543Y-52510544D01*
X137592369Y-51374183D01*
X137838154Y-50448270D01*
X138055668Y-49793424D01*
X138229677Y-49470266D01*
X138276291Y-49446722D01*
X138391543Y-49459331D01*
X138453091Y-49542203D01*
X138453917Y-49762905D01*
X138387003Y-50189003D01*
X138245330Y-50888064D01*
X138021880Y-51927654D01*
X138015536Y-51956973D01*
X137787092Y-53134106D01*
X137579096Y-54419752D01*
X137424901Y-55599834D01*
X137384852Y-56004918D01*
X137287318Y-56797232D01*
X137110029Y-57899812D01*
X136870913Y-59214616D01*
X136587898Y-60643604D01*
X136278913Y-62088735D01*
X136242684Y-62250820D01*
X135728781Y-64574717D01*
X135305353Y-66577367D01*
X134956542Y-68344318D01*
X134666492Y-69961115D01*
X134419345Y-71513306D01*
X134199245Y-73086436D01*
X134120139Y-73701640D01*
X133827863Y-75499297D01*
X133428179Y-77196531D01*
X133050147Y-78386066D01*
X132677356Y-79523406D01*
X132333462Y-80791494D01*
X132079116Y-81960779D01*
X132032439Y-82237705D01*
X131852735Y-83246616D01*
X131633209Y-84252286D01*
X131414568Y-85072519D01*
X131363827Y-85230168D01*
X131042314Y-85996557D01*
X130514037Y-87049824D01*
X129823082Y-88317133D01*
X129013540Y-89725646D01*
X128129497Y-91202523D01*
X127215044Y-92674928D01*
X126314268Y-94070022D01*
X125471258Y-95314966D01*
X124730103Y-96336923D01*
X124353714Y-96811476D01*
X123286406Y-98029618D01*
X122066262Y-99319962D01*
X120776641Y-100602497D01*
X119500907Y-101797209D01*
X118322420Y-102824089D01*
X117324543Y-103603123D01*
X117153130Y-103722723D01*
X116328501Y-104293122D01*
X115500978Y-104880672D01*
X115109055Y-105166455D01*
X114229957Y-105818155D01*
X114716327Y-107018395D01*
X114983635Y-107679109D01*
X115212957Y-108148814D01*
X115459340Y-108414261D01*
X115777832Y-108462200D01*
X116223478Y-108279381D01*
X116851326Y-107852552D01*
X117716423Y-107168466D01*
X118873816Y-106213870D01*
X119208344Y-105937139D01*
X120895684Y-104511368D01*
X122351095Y-103200675D01*
X123632562Y-101935993D01*
X124798071Y-100648254D01*
X125905605Y-99268391D01*
X127013151Y-97727337D01*
X128178692Y-95956024D01*
X129460215Y-93885386D01*
X129801878Y-93318912D01*
X130497296Y-92142020D01*
X131096391Y-91074220D01*
X131627682Y-90048994D01*
X132119684Y-88999820D01*
X132600914Y-87860177D01*
X133099890Y-86563545D01*
X133645127Y-85043403D01*
X134265143Y-83233231D01*
X134762254Y-81747891D01*
X135683178Y-78827408D01*
X136624186Y-75552834D01*
X137569856Y-71985411D01*
X138504768Y-68186383D01*
X139413501Y-64216992D01*
X140280633Y-60138480D01*
X140589162Y-58607377D01*
X141029404Y-56392707D01*
X141397172Y-54555304D01*
X141700663Y-53061544D01*
X141948074Y-51877798D01*
X142147602Y-50970441D01*
X142307445Y-50305845D01*
X142435799Y-49850386D01*
X142540862Y-49570435D01*
X142630831Y-49432367D01*
X142713902Y-49402554D01*
X142798273Y-49447369D01*
X142818013Y-49464071D01*
X142810235Y-49687417D01*
X142727156Y-50252517D01*
X142580579Y-51091149D01*
X142382305Y-52135091D01*
X142190717Y-53090164D01*
X141916731Y-54443358D01*
X141592859Y-56070710D01*
X141246080Y-57834972D01*
X140903373Y-59598898D01*
X140594642Y-61209836D01*
X140297620Y-62747521D01*
X139982175Y-64336041D01*
X139671174Y-65863283D01*
X139387483Y-67217133D01*
X139153969Y-68285480D01*
X139129617Y-68392623D01*
X138865049Y-69568745D01*
X138601839Y-70770990D01*
X138372887Y-71847345D01*
X138228445Y-72556558D01*
X138051370Y-73298144D01*
X137751412Y-74373634D01*
X137350009Y-75718404D01*
X136868597Y-77267829D01*
X136328616Y-78957287D01*
X135751503Y-80722153D01*
X135158696Y-82497803D01*
X134571632Y-84219614D01*
X134011749Y-85822961D01*
X133500486Y-87243221D01*
X133059280Y-88415770D01*
X132709569Y-89275984D01*
X132605568Y-89506597D01*
X131979597Y-90733406D01*
X131149615Y-92213397D01*
X130176971Y-93847382D01*
X129123016Y-95536178D01*
X128049100Y-97180599D01*
X127016575Y-98681460D01*
X126437611Y-99478296D01*
X125275490Y-100912203D01*
X123831862Y-102499857D01*
X122214139Y-104134907D01*
X120529735Y-105711000D01*
X118886062Y-107121781D01*
X118063998Y-107769262D01*
X117248176Y-108420769D01*
X116594322Y-109005016D01*
X116180408Y-109448398D01*
X116074265Y-109647513D01*
X116163318Y-110104917D01*
X116390054Y-110718052D01*
X116693843Y-111364497D01*
X117014051Y-111921829D01*
X117290047Y-112267626D01*
X117399510Y-112323304D01*
X117679166Y-112176965D01*
X118234566Y-111769609D01*
X119008925Y-111150206D01*
X119945456Y-110367722D01*
X120987374Y-109471126D01*
X122077892Y-108509386D01*
X123160225Y-107531469D01*
X124177587Y-106586344D01*
X125073191Y-105722978D01*
X125202488Y-105594607D01*
X128047674Y-102650064D01*
X130541508Y-99825616D01*
X132723264Y-97054183D01*
X134632215Y-94268680D01*
X136307634Y-91402028D01*
X137788797Y-88387144D01*
X139114975Y-85156946D01*
X140325443Y-81644352D01*
X141436688Y-77865574D01*
X141727560Y-76752168D01*
X142070565Y-75352266D01*
X142456475Y-73710179D01*
X142876066Y-71870220D01*
X143320109Y-69876699D01*
X143779379Y-67773931D01*
X144244648Y-65606225D01*
X144706690Y-63417894D01*
X145156278Y-61253250D01*
X145584186Y-59156606D01*
X145981186Y-57172272D01*
X146338053Y-55344561D01*
X146645560Y-53717784D01*
X146894479Y-52336255D01*
X147075585Y-51244284D01*
X147179650Y-50486183D01*
X147201716Y-50178473D01*
X147311870Y-49749990D01*
X147564234Y-49481671D01*
X147841662Y-49496141D01*
X147848367Y-49501572D01*
X147851267Y-49729250D01*
X147785924Y-50297990D01*
X147662430Y-51137643D01*
X147490877Y-52178061D01*
X147343697Y-53009715D01*
X146439460Y-57886035D01*
X145569384Y-62370124D01*
X144727139Y-66484766D01*
X143906398Y-70252745D01*
X143100831Y-73696844D01*
X142304110Y-76839848D01*
X141509906Y-79704539D01*
X140711889Y-82313704D01*
X139903732Y-84690124D01*
X139079104Y-86856584D01*
X138231679Y-88835869D01*
X137355126Y-90650761D01*
X136443117Y-92324045D01*
X136404800Y-92390090D01*
X134804617Y-95003056D01*
X133112123Y-97478579D01*
X131275726Y-99876458D01*
X129243836Y-102256493D01*
X126964862Y-104678481D01*
X124387214Y-107202223D01*
X121459301Y-109887516D01*
X120816157Y-110458941D01*
X117625575Y-113280177D01*
X118378803Y-114779023D01*
X118756548Y-115485364D01*
X119081888Y-116012571D01*
X119296114Y-116267527D01*
X119323825Y-116277869D01*
X119641380Y-116118159D01*
X120222851Y-115664049D01*
X121031449Y-114953067D01*
X122030385Y-114022741D01*
X123182869Y-112910599D01*
X124452111Y-111654170D01*
X125801323Y-110290981D01*
X127193715Y-108858562D01*
X128592498Y-107394439D01*
X129960881Y-105936143D01*
X131262077Y-104521200D01*
X132459295Y-103187139D01*
X133515746Y-101971488D01*
X134394640Y-100911776D01*
X134427062Y-100871312D01*
X136750284Y-97755252D01*
X139010835Y-94311286D01*
X141159088Y-90627755D01*
X143145414Y-86793005D01*
X144920186Y-82895378D01*
X145921808Y-80409454D01*
X146558912Y-78581552D01*
X147186319Y-76483824D01*
X147793247Y-74177417D01*
X148368916Y-71723478D01*
X148902542Y-69183153D01*
X149383345Y-66617588D01*
X149800543Y-64087932D01*
X150143355Y-61655330D01*
X150400999Y-59380929D01*
X150562693Y-57325876D01*
X150617657Y-55551317D01*
X150555983Y-54127143D01*
X150497454Y-53177347D01*
X150495771Y-52181458D01*
X150543411Y-51226107D01*
X150632856Y-50397930D01*
X150756583Y-49783559D01*
X150907072Y-49469628D01*
X150962283Y-49446722D01*
X151050535Y-49644611D01*
X151116017Y-50197985D01*
X151159531Y-51046402D01*
X151181883Y-52129419D01*
X151183873Y-53386594D01*
X151166307Y-54757485D01*
X151129986Y-56181650D01*
X151075715Y-57598646D01*
X151004296Y-58948032D01*
X150916533Y-60169365D01*
X150813228Y-61202203D01*
X150805196Y-61267807D01*
X150661165Y-62385785D01*
X150507020Y-63488176D01*
X150332050Y-64639317D01*
X150125542Y-65903546D01*
X149876783Y-67345202D01*
X149575061Y-69028622D01*
X149209664Y-71018144D01*
X148942920Y-72452459D01*
X148615821Y-73946670D01*
X148152173Y-75710300D01*
X147589822Y-77622739D01*
X146966618Y-79563375D01*
X146320407Y-81411597D01*
X145689039Y-83046796D01*
X145418240Y-83684654D01*
X144495703Y-85651790D01*
X143359835Y-87869247D01*
X142068135Y-90237900D01*
X140678100Y-92658625D01*
X139247229Y-95032296D01*
X137833019Y-97259789D01*
X136492969Y-99241978D01*
X135972844Y-99968269D01*
X135172453Y-100997056D01*
X134097811Y-102279338D01*
X132804019Y-103756260D01*
X131346175Y-105368971D01*
X129779381Y-107058616D01*
X128158738Y-108766344D01*
X126539346Y-110433301D01*
X124976304Y-112000634D01*
X123524715Y-113409490D01*
X122457454Y-114404099D01*
X121551213Y-115247966D01*
X120778771Y-116004253D01*
X120198829Y-116612524D01*
X119870091Y-117012340D01*
X119817615Y-117121944D01*
X119959707Y-117520325D01*
X120337589Y-118112387D01*
X120859132Y-118778415D01*
X121432204Y-119398691D01*
X121862202Y-119778728D01*
X122490902Y-120260734D01*
X122893368Y-119273197D01*
X123130143Y-118623770D01*
X123274810Y-118095040D01*
X123295834Y-117930371D01*
X123422654Y-117565932D01*
X123749391Y-117002229D01*
X124057275Y-116562131D01*
X124457671Y-116023849D01*
X125049229Y-115221394D01*
X125764573Y-114246486D01*
X126536328Y-113190845D01*
X126883775Y-112714311D01*
X127838935Y-111449958D01*
X129005493Y-109979880D01*
X130314157Y-108385306D01*
X131695634Y-106747466D01*
X133080631Y-105147589D01*
X134399855Y-103666904D01*
X135584014Y-102386641D01*
X136453640Y-101495902D01*
X137194513Y-100721757D01*
X139592306Y-100721757D01*
X139749594Y-100830073D01*
X140104488Y-100831553D01*
X140630470Y-100778759D01*
X141525722Y-100679128D01*
X142652779Y-100545014D01*
X143650181Y-100420363D01*
X144611868Y-100327312D01*
X145692145Y-100288676D01*
X146976185Y-100306292D01*
X148549159Y-100381997D01*
X150496239Y-100517629D01*
X151372794Y-100586955D01*
X152176780Y-100632542D01*
X152738950Y-100626960D01*
X152929167Y-100577679D01*
X152755883Y-100375344D01*
X152314245Y-100010497D01*
X151995343Y-99774185D01*
X150289799Y-98494837D01*
X148605685Y-97123895D01*
X147085596Y-95780840D01*
X146157821Y-94882984D01*
X145492838Y-94240948D01*
X144928344Y-93761605D01*
X144544641Y-93509927D01*
X144439157Y-93492390D01*
X144201239Y-93735009D01*
X143845067Y-94226001D01*
X143598648Y-94612679D01*
X142993286Y-95611464D01*
X144316650Y-97714449D01*
X144829575Y-98556108D01*
X145225706Y-99257757D01*
X145463457Y-99742014D01*
X145506728Y-99928870D01*
X145319219Y-99829230D01*
X144962654Y-99471607D01*
X144519176Y-98957569D01*
X144070929Y-98388682D01*
X143700054Y-97866513D01*
X143488695Y-97492628D01*
X143467214Y-97407081D01*
X143321510Y-97085154D01*
X143003578Y-96692016D01*
X142540735Y-96214131D01*
X141140691Y-98203029D01*
X140406817Y-99247239D01*
X139910844Y-99981194D01*
X139642698Y-100455749D01*
X139592306Y-100721757D01*
X137194513Y-100721757D01*
X137258784Y-100654600D01*
X138152482Y-99647506D01*
X138966446Y-98665577D01*
X139114121Y-98477049D01*
X139698782Y-97679244D01*
X140448683Y-96594063D01*
X141310561Y-95304640D01*
X142231155Y-93894109D01*
X143157201Y-92445607D01*
X143162031Y-92437889D01*
X145209559Y-92437889D01*
X145359273Y-92794687D01*
X145763229Y-93389014D01*
X146353654Y-94140750D01*
X147062773Y-94969778D01*
X147822809Y-95795979D01*
X148565987Y-96539234D01*
X149044264Y-96970975D01*
X150040987Y-97770756D01*
X151179726Y-98610121D01*
X152348409Y-99413160D01*
X153434964Y-100103968D01*
X154327321Y-100606635D01*
X154608157Y-100739479D01*
X155246970Y-100947710D01*
X156187764Y-101175174D01*
X157240492Y-101376590D01*
X157370847Y-101397737D01*
X158534066Y-101607385D01*
X159714511Y-101860633D01*
X160660047Y-102103308D01*
X160673950Y-102107421D01*
X161770114Y-102407082D01*
X162424182Y-102523766D01*
X162640932Y-102458439D01*
X162463898Y-102303395D01*
X161966137Y-101908865D01*
X161197660Y-101313406D01*
X160208476Y-100555575D01*
X159048596Y-99673928D01*
X158076089Y-98939058D01*
X156257268Y-97555079D01*
X154749974Y-96373748D01*
X153482574Y-95331702D01*
X152383437Y-94365580D01*
X151380930Y-93412018D01*
X150403418Y-92407655D01*
X149379270Y-91289129D01*
X149198041Y-91086066D01*
X148531232Y-90339414D01*
X147967897Y-89713640D01*
X147578541Y-89286771D01*
X147444012Y-89144945D01*
X147265533Y-89239587D01*
X146933805Y-89614825D01*
X146512709Y-90176521D01*
X146066125Y-90830531D01*
X145657933Y-91482716D01*
X145352013Y-92038935D01*
X145212245Y-92405045D01*
X145209559Y-92437889D01*
X143162031Y-92437889D01*
X144035437Y-91042266D01*
X144812601Y-89767222D01*
X145435430Y-88703609D01*
X145596507Y-88409080D01*
X147423214Y-88409080D01*
X148752858Y-89799622D01*
X149516047Y-90610404D01*
X150292794Y-91456051D01*
X150927850Y-92167312D01*
X150984033Y-92231978D01*
X151509986Y-92769329D01*
X152341658Y-93533600D01*
X153415101Y-94472670D01*
X154666373Y-95534416D01*
X156031527Y-96666717D01*
X157446619Y-97817452D01*
X158847704Y-98934500D01*
X160170836Y-99965738D01*
X161352072Y-100859046D01*
X162327465Y-101562301D01*
X162889951Y-101936475D01*
X163760309Y-102451632D01*
X164937554Y-103108478D01*
X166297709Y-103839859D01*
X167716796Y-104578617D01*
X168492892Y-104971452D01*
X170086173Y-105770505D01*
X171431399Y-106451358D01*
X172628908Y-107066983D01*
X173779038Y-107670351D01*
X174982127Y-108314433D01*
X176338511Y-109052201D01*
X177948528Y-109936625D01*
X179076226Y-110558718D01*
X181012506Y-111602922D01*
X183072629Y-112662819D01*
X185306176Y-113761550D01*
X187762730Y-114922259D01*
X190491874Y-116168088D01*
X193543190Y-117522180D01*
X196966262Y-119007676D01*
X199495834Y-120089463D01*
X201942035Y-121148529D01*
X204414301Y-122252555D01*
X206853890Y-123372991D01*
X209202063Y-124481289D01*
X211400081Y-125548898D01*
X213389203Y-126547271D01*
X215110691Y-127447857D01*
X216505805Y-128222107D01*
X217515804Y-128841472D01*
X217549755Y-128864232D01*
X218334055Y-129384869D01*
X219163367Y-129923212D01*
X219940625Y-130417823D01*
X220568761Y-130807261D01*
X220950709Y-131030088D01*
X221018568Y-131059836D01*
X221177484Y-130899058D01*
X221542650Y-130469824D01*
X222047034Y-129851787D01*
X222272281Y-129570141D01*
X222840550Y-128846031D01*
X223168817Y-128368402D01*
X223293503Y-128037365D01*
X223251034Y-127753033D01*
X223077832Y-127415517D01*
X223065704Y-127394246D01*
X222577362Y-126861731D01*
X221630758Y-126171325D01*
X220227984Y-125324021D01*
X218371137Y-124320815D01*
X216062308Y-123162700D01*
X213303592Y-121850671D01*
X210097082Y-120385723D01*
X206444873Y-118768850D01*
X202349058Y-117001047D01*
X197811731Y-115083307D01*
X192834986Y-113016626D01*
X192523285Y-112888252D01*
X189388161Y-111572310D01*
X186159652Y-110170156D01*
X182914546Y-108717736D01*
X179729634Y-107250996D01*
X176681705Y-105805880D01*
X173847551Y-104418334D01*
X171303960Y-103124305D01*
X169127723Y-101959736D01*
X168866422Y-101814486D01*
X164436885Y-99159122D01*
X160070164Y-96193587D01*
X155898259Y-93014505D01*
X152053170Y-89718497D01*
X150995676Y-88733295D01*
X148606841Y-86461891D01*
X148015028Y-87435485D01*
X147423214Y-88409080D01*
X145596507Y-88409080D01*
X145783474Y-88067213D01*
X146967748Y-85716755D01*
X149118455Y-85716755D01*
X149239982Y-86045317D01*
X149537695Y-86459258D01*
X150044296Y-87007272D01*
X150792491Y-87738053D01*
X151814983Y-88700296D01*
X152667657Y-89496739D01*
X155708361Y-92220784D01*
X158763411Y-94708645D01*
X161925900Y-97024621D01*
X165288918Y-99233010D01*
X168945557Y-101398109D01*
X172988910Y-103584219D01*
X173288647Y-103739598D01*
X175044654Y-104629678D01*
X177049579Y-105615629D01*
X179225182Y-106661405D01*
X181493220Y-107730964D01*
X183775452Y-108788261D01*
X185993636Y-109797252D01*
X188069531Y-110721893D01*
X189924894Y-111526140D01*
X191481485Y-112173950D01*
X192274265Y-112485808D01*
X192913453Y-112738035D01*
X193933489Y-113151745D01*
X195270826Y-113700440D01*
X196861914Y-114357621D01*
X198643204Y-115096790D01*
X200551147Y-115891448D01*
X202522194Y-116715097D01*
X204492795Y-117541239D01*
X206399402Y-118343375D01*
X208178466Y-119095007D01*
X209766437Y-119769636D01*
X210701716Y-120169607D01*
X213383557Y-121349868D01*
X215834941Y-122487368D01*
X218019930Y-123562880D01*
X219902584Y-124557177D01*
X221446966Y-125451032D01*
X222617137Y-126225216D01*
X223377159Y-126860504D01*
X223528332Y-127031908D01*
X223847598Y-127371945D01*
X224048291Y-127465491D01*
X224050873Y-127463546D01*
X224240120Y-127265862D01*
X224653694Y-126814386D01*
X225218462Y-126189293D01*
X225525093Y-125847419D01*
X226123504Y-125165683D01*
X226586599Y-124613324D01*
X226847550Y-124271280D01*
X226881366Y-124204805D01*
X226681304Y-124022867D01*
X226147260Y-123668228D01*
X225365379Y-123191808D01*
X224421805Y-122644523D01*
X223402683Y-122077290D01*
X222394157Y-121541028D01*
X222243822Y-121463697D01*
X220839608Y-120787607D01*
X219085884Y-120009969D01*
X217098137Y-119178379D01*
X214991853Y-118340430D01*
X212882517Y-117543720D01*
X211697794Y-117117368D01*
X209409852Y-116303552D01*
X207018365Y-115439299D01*
X204568436Y-114541952D01*
X202105170Y-113628857D01*
X199673670Y-112717358D01*
X197319040Y-111824800D01*
X195086384Y-110968526D01*
X193020806Y-110165883D01*
X191167409Y-109434214D01*
X189571297Y-108790864D01*
X188277573Y-108253178D01*
X187331343Y-107838500D01*
X186777709Y-107564175D01*
X186671324Y-107493463D01*
X186612022Y-107357403D01*
X186973746Y-107419684D01*
X187742655Y-107675672D01*
X188904913Y-108120736D01*
X190446681Y-108750245D01*
X190531128Y-108785494D01*
X192939271Y-109768081D01*
X195751046Y-110871869D01*
X198980493Y-112102172D01*
X202641653Y-113464304D01*
X206748565Y-114963581D01*
X208973945Y-115766446D01*
X211795187Y-116786421D01*
X214213984Y-117675405D01*
X216289814Y-118458083D01*
X218082154Y-119159136D01*
X219650483Y-119803250D01*
X221054279Y-120415107D01*
X222353019Y-121019391D01*
X223606182Y-121640786D01*
X224873246Y-122303975D01*
X225363568Y-122568185D01*
X226226190Y-123017247D01*
X226953013Y-123361228D01*
X227428551Y-123546813D01*
X227522315Y-123564754D01*
X227799260Y-123413910D01*
X228271982Y-123027014D01*
X228839666Y-122502523D01*
X229401500Y-121938890D01*
X229856670Y-121434573D01*
X230104361Y-121088025D01*
X230123395Y-121024519D01*
X229931804Y-120855145D01*
X229409409Y-120503573D01*
X228637090Y-120021939D01*
X227740409Y-119488402D01*
X226725584Y-118948624D01*
X225321005Y-118277225D01*
X223596536Y-117502959D01*
X221622041Y-116654580D01*
X219467381Y-115760845D01*
X217202421Y-114850508D01*
X214897022Y-113952323D01*
X212621049Y-113095045D01*
X210444364Y-112307430D01*
X209456618Y-111963002D01*
X206733546Y-111024069D01*
X204403631Y-110214036D01*
X202397455Y-109507491D01*
X200645596Y-108879023D01*
X199078637Y-108303220D01*
X197627158Y-107754668D01*
X196221739Y-107207957D01*
X194792962Y-106637673D01*
X193729177Y-106205709D01*
X191965789Y-105473334D01*
X190042686Y-104653917D01*
X188117360Y-103815916D01*
X186347301Y-103027787D01*
X185052696Y-102434312D01*
X183546301Y-101703174D01*
X181726070Y-100776333D01*
X179681224Y-99702686D01*
X177500984Y-98531125D01*
X175274571Y-97310545D01*
X173091206Y-96089840D01*
X171040109Y-94917904D01*
X169210502Y-93843632D01*
X167745834Y-92949947D01*
X166040653Y-91847858D01*
X164126645Y-90554109D01*
X162098131Y-89136912D01*
X160049433Y-87664481D01*
X158074870Y-86205027D01*
X156268765Y-84826763D01*
X154725438Y-83597902D01*
X154139862Y-83110185D01*
X151241734Y-80651516D01*
X150745786Y-81879348D01*
X150249837Y-83107180D01*
X153657649Y-86315885D01*
X155378708Y-87907691D01*
X157008964Y-89347474D01*
X158616346Y-90685500D01*
X160268785Y-91972035D01*
X162034211Y-93257344D01*
X163980554Y-94591693D01*
X166175744Y-96025348D01*
X168687710Y-97608575D01*
X170095116Y-98479003D01*
X172527805Y-99952471D01*
X174776823Y-101259023D01*
X176987736Y-102478157D01*
X179306109Y-103689370D01*
X181877505Y-104972158D01*
X182867146Y-105454179D01*
X183971545Y-105998816D01*
X184892925Y-106471370D01*
X185559007Y-106833310D01*
X185897514Y-107046106D01*
X185923271Y-107083345D01*
X185681181Y-107016664D01*
X185080818Y-106773035D01*
X184194892Y-106384187D01*
X183096110Y-105881851D01*
X182133697Y-105429578D01*
X178109477Y-103428102D01*
X174092956Y-101259721D01*
X170143608Y-98963881D01*
X166320906Y-96580028D01*
X162684323Y-94147608D01*
X159293331Y-91706066D01*
X156207404Y-89294847D01*
X153486013Y-86953398D01*
X151693045Y-85239676D01*
X151066439Y-84619594D01*
X150556776Y-84137886D01*
X150248857Y-83873915D01*
X150206225Y-83848200D01*
X150016266Y-83986218D01*
X149705473Y-84399658D01*
X149483939Y-84756392D01*
X149273137Y-85120986D01*
X149140408Y-85424876D01*
X149118455Y-85716755D01*
X146967748Y-85716755D01*
X147361429Y-84935407D01*
X148789559Y-81937818D01*
X149644731Y-80023816D01*
X151596804Y-80023816D01*
X152479911Y-80922564D01*
X153544145Y-81923431D01*
X154954277Y-83123636D01*
X156650990Y-84480427D01*
X158574967Y-85951053D01*
X160666892Y-87492762D01*
X162867446Y-89062804D01*
X165117312Y-90618427D01*
X167357174Y-92116880D01*
X169527714Y-93515411D01*
X171569615Y-94771269D01*
X172264653Y-95181893D01*
X175717758Y-97157740D01*
X178961578Y-98925622D01*
X182132898Y-100553548D01*
X185368504Y-102109522D01*
X188805183Y-103661553D01*
X192523285Y-105254002D01*
X194440745Y-106053834D01*
X196159536Y-106760629D01*
X197752727Y-107401561D01*
X199293389Y-108003805D01*
X200854592Y-108594535D01*
X202509406Y-109200926D01*
X204330902Y-109850153D01*
X206392150Y-110569389D01*
X208766221Y-111385810D01*
X211526183Y-112326589D01*
X211697794Y-112384915D01*
X214315413Y-113302224D01*
X216956932Y-114279474D01*
X219542954Y-115284127D01*
X221994082Y-116283645D01*
X224230919Y-117245490D01*
X226174068Y-118137123D01*
X227744133Y-118926008D01*
X228005203Y-119067936D01*
X228995043Y-119603060D01*
X229845090Y-120040770D01*
X230464053Y-120335525D01*
X230759179Y-120441803D01*
X231040880Y-120294186D01*
X231538151Y-119904490D01*
X232150519Y-119352453D01*
X232239151Y-119267299D01*
X233451967Y-118092794D01*
X232575525Y-117421267D01*
X231860842Y-116943547D01*
X230794885Y-116340146D01*
X229356532Y-115600479D01*
X227524662Y-114713957D01*
X225278154Y-113669994D01*
X223331228Y-112787563D01*
X220073082Y-111369293D01*
X216715399Y-110002580D01*
X213158839Y-108649476D01*
X209304063Y-107272035D01*
X205596814Y-106013121D01*
X202175893Y-104862776D01*
X199131372Y-103809145D01*
X196367955Y-102815309D01*
X193790347Y-101844348D01*
X191303255Y-100859343D01*
X188811381Y-99823373D01*
X186219433Y-98699521D01*
X183432114Y-97450866D01*
X183060539Y-97282042D01*
X180531405Y-96122519D01*
X178372368Y-95109669D01*
X176508432Y-94203332D01*
X174864605Y-93363347D01*
X173365892Y-92549555D01*
X171937299Y-91721797D01*
X170503831Y-90839911D01*
X168990495Y-89863738D01*
X168072814Y-89256011D01*
X165511264Y-87511676D01*
X163319916Y-85933431D01*
X161443733Y-84470611D01*
X159827676Y-83072552D01*
X158416709Y-81688588D01*
X157155793Y-80268055D01*
X155989891Y-78760288D01*
X154863965Y-77114621D01*
X154834973Y-77069915D01*
X154374348Y-76325399D01*
X154171023Y-75918838D01*
X154210618Y-75839202D01*
X154478753Y-76075462D01*
X154961047Y-76616588D01*
X155643119Y-77451552D01*
X156111028Y-78048595D01*
X157723365Y-80058810D01*
X159181878Y-81719953D01*
X160521105Y-83068415D01*
X161775580Y-84140588D01*
X162175667Y-84439129D01*
X163070660Y-85092404D01*
X164154785Y-85898132D01*
X165252369Y-86725295D01*
X165746412Y-87102214D01*
X166663023Y-87762897D01*
X167899643Y-88593910D01*
X169360687Y-89536125D01*
X170950569Y-90530412D01*
X172573704Y-91517643D01*
X174134507Y-92438687D01*
X175537392Y-93234417D01*
X176461520Y-93730569D01*
X177868015Y-94433237D01*
X179632869Y-95275170D01*
X181665035Y-96216170D01*
X183873465Y-97216039D01*
X186167111Y-98234579D01*
X188454924Y-99231590D01*
X190645856Y-100166876D01*
X192648860Y-101000237D01*
X194372887Y-101691476D01*
X195262500Y-102031318D01*
X196171901Y-102361514D01*
X197457922Y-102817331D01*
X199035099Y-103369052D01*
X200817968Y-103986957D01*
X202721067Y-104641329D01*
X204658930Y-105302448D01*
X205098775Y-105451726D01*
X207109469Y-106137855D01*
X209173374Y-106850097D01*
X211189576Y-107553060D01*
X213057156Y-108211352D01*
X214675198Y-108789581D01*
X215942787Y-109252355D01*
X216055638Y-109294373D01*
X218304753Y-110160250D01*
X220625019Y-111101482D01*
X222945469Y-112085707D01*
X225195133Y-113080567D01*
X227303043Y-114053699D01*
X229198230Y-114972745D01*
X230809726Y-115805343D01*
X232066562Y-116519133D01*
X232490932Y-116788560D01*
X233265492Y-117292838D01*
X233773695Y-117551133D01*
X234137733Y-117577946D01*
X234479804Y-117387778D01*
X234843120Y-117067691D01*
X235299644Y-116601365D01*
X235567600Y-116237651D01*
X235596377Y-116151922D01*
X235410767Y-115860720D01*
X234884617Y-115369769D01*
X234080752Y-114723563D01*
X233061994Y-113966594D01*
X231891168Y-113143356D01*
X230631096Y-112298341D01*
X229344602Y-111476044D01*
X228094511Y-110720957D01*
X227261520Y-110248963D01*
X226246632Y-109711978D01*
X225185463Y-109192803D01*
X224034624Y-108675712D01*
X222750726Y-108144979D01*
X221290379Y-107584879D01*
X219610194Y-106979685D01*
X217666781Y-106313671D01*
X215416752Y-105571112D01*
X212816717Y-104736282D01*
X209823287Y-103793454D01*
X207180141Y-102970708D01*
X204407258Y-102087173D01*
X201640979Y-101154934D01*
X198793632Y-100142021D01*
X195777544Y-99016464D01*
X192505042Y-97746292D01*
X188912500Y-96309268D01*
X184829878Y-94573735D01*
X181016707Y-92770925D01*
X177374486Y-90845009D01*
X173804715Y-88740158D01*
X170208894Y-86400545D01*
X166488522Y-83770340D01*
X165494478Y-83036323D01*
X164090865Y-81943317D01*
X162598215Y-80696579D01*
X161080515Y-79357123D01*
X159601756Y-77985966D01*
X158225926Y-76644122D01*
X157017014Y-75392608D01*
X156039008Y-74292439D01*
X155355899Y-73404631D01*
X155292118Y-73308036D01*
X154943928Y-72837935D01*
X154661806Y-72576005D01*
X154602970Y-72556558D01*
X154342977Y-72740562D01*
X154074758Y-73202223D01*
X153851797Y-73806014D01*
X153727577Y-74416407D01*
X153727875Y-74774041D01*
X153722067Y-75263079D01*
X153579615Y-75535561D01*
X153559713Y-75544036D01*
X153380956Y-75765531D01*
X153098779Y-76300989D01*
X152754397Y-77065927D01*
X152446328Y-77826253D01*
X151596804Y-80023816D01*
X149644731Y-80023816D01*
X150050526Y-79115587D01*
X151126996Y-76509857D01*
X152001633Y-74161771D01*
X152657100Y-72112472D01*
X152898269Y-71203279D01*
X154686077Y-71203279D01*
X155298073Y-72244262D01*
X155828416Y-73001148D01*
X156649740Y-73991242D01*
X157700795Y-75153378D01*
X158920327Y-76426386D01*
X160247084Y-77749098D01*
X161619814Y-79060344D01*
X162977265Y-80298957D01*
X164258185Y-81403767D01*
X165318529Y-82251063D01*
X168660256Y-84712183D01*
X171892404Y-86925465D01*
X175112596Y-88946249D01*
X178418453Y-90829875D01*
X181907600Y-92631682D01*
X185677659Y-94407009D01*
X189826253Y-96211197D01*
X190282108Y-96402191D01*
X193408123Y-97687927D01*
X196207034Y-98794232D01*
X198777612Y-99757559D01*
X201218629Y-100614361D01*
X203628855Y-101401088D01*
X204849755Y-101778493D01*
X206205960Y-102195601D01*
X207844391Y-102707598D01*
X209677255Y-103286299D01*
X211616762Y-103903520D01*
X213575118Y-104531078D01*
X215464531Y-105140788D01*
X217197209Y-105704467D01*
X218685359Y-106193929D01*
X219841190Y-106580992D01*
X220288971Y-106734962D01*
X223690328Y-108062752D01*
X227019827Y-109630653D01*
X230153092Y-111372695D01*
X232965748Y-113222904D01*
X234031727Y-114024379D01*
X234916685Y-114712603D01*
X235667817Y-115283389D01*
X236213209Y-115683060D01*
X236480943Y-115857941D01*
X236493100Y-115861476D01*
X236765227Y-115774814D01*
X237337471Y-115551335D01*
X237856480Y-115336058D01*
X239096648Y-114810640D01*
X238725216Y-114210121D01*
X238289798Y-113679016D01*
X237544416Y-112950006D01*
X236567384Y-112085955D01*
X235437016Y-111149730D01*
X234231625Y-110204196D01*
X233029527Y-109312218D01*
X231909035Y-108536662D01*
X230948462Y-107940394D01*
X230837150Y-107878076D01*
X229377418Y-107119500D01*
X227741064Y-106360050D01*
X225887832Y-105585301D01*
X223777468Y-104780830D01*
X221369718Y-103932213D01*
X218624327Y-103025025D01*
X215501040Y-102044843D01*
X211959603Y-100977242D01*
X209830147Y-100350831D01*
X205933827Y-99193643D01*
X202449238Y-98111487D01*
X199306089Y-97074644D01*
X196434090Y-96053393D01*
X193762949Y-95018014D01*
X191222375Y-93938787D01*
X188742079Y-92785994D01*
X186251768Y-91529912D01*
X183681153Y-90140824D01*
X180959942Y-88589008D01*
X178329167Y-87031780D01*
X173905426Y-84284247D01*
X169940454Y-81622227D01*
X166410766Y-79027232D01*
X163292875Y-76480779D01*
X160563295Y-73964383D01*
X158198539Y-71459558D01*
X157496850Y-70635518D01*
X155569162Y-68309874D01*
X155127620Y-69756576D01*
X154686077Y-71203279D01*
X152898269Y-71203279D01*
X152913579Y-71145562D01*
X153086385Y-70354345D01*
X153304691Y-69237563D01*
X153552695Y-67882876D01*
X153723210Y-66903053D01*
X155917402Y-66903053D01*
X156072116Y-67451527D01*
X156500663Y-68245127D01*
X157149646Y-69215072D01*
X157965671Y-70292583D01*
X158895343Y-71408883D01*
X159885269Y-72495190D01*
X160882051Y-73482727D01*
X161356929Y-73909836D01*
X162251690Y-74693757D01*
X163165708Y-75510373D01*
X163941510Y-76218544D01*
X164144392Y-76408197D01*
X164851685Y-77032383D01*
X165847082Y-77853075D01*
X167038313Y-78799679D01*
X168333104Y-79801600D01*
X169639183Y-80788243D01*
X170864278Y-81689013D01*
X171916116Y-82433315D01*
X172668462Y-82929709D01*
X173363993Y-83359510D01*
X174338694Y-83962663D01*
X175471784Y-84664389D01*
X176642479Y-85389910D01*
X176835049Y-85509307D01*
X179302273Y-87008188D01*
X181817038Y-88478513D01*
X184300172Y-89876957D01*
X186672504Y-91160199D01*
X188854861Y-92284917D01*
X190768072Y-93207787D01*
X191527206Y-93548777D01*
X192795704Y-94069508D01*
X194461575Y-94703287D01*
X196452142Y-95425545D01*
X198694728Y-96211710D01*
X201116654Y-97037210D01*
X203645243Y-97877475D01*
X206207818Y-98707933D01*
X208731700Y-99504013D01*
X211144212Y-100241144D01*
X212569363Y-100662800D01*
X216236075Y-101763623D01*
X219654231Y-102853686D01*
X222783171Y-103918223D01*
X225582237Y-104942471D01*
X228010768Y-105911664D01*
X230028104Y-106811039D01*
X231322659Y-107472597D01*
X232542015Y-108221098D01*
X233951785Y-109204822D01*
X235434340Y-110331802D01*
X236872053Y-111510070D01*
X238147293Y-112647657D01*
X238921788Y-113414026D01*
X239859522Y-114401822D01*
X240782090Y-114079806D01*
X241414939Y-113838249D01*
X241836596Y-113639762D01*
X241887749Y-113605162D01*
X241874153Y-113339118D01*
X241566830Y-112829572D01*
X241019277Y-112131537D01*
X240284990Y-111300021D01*
X239417465Y-110390035D01*
X238470198Y-109456590D01*
X237496687Y-108554696D01*
X236550427Y-107739363D01*
X235684914Y-107065601D01*
X235218133Y-106746786D01*
X234329039Y-106194656D01*
X233490444Y-105709118D01*
X232644000Y-105267810D01*
X231731359Y-104848373D01*
X230694173Y-104428446D01*
X229474096Y-103985668D01*
X228012780Y-103497678D01*
X226251876Y-102942117D01*
X224133038Y-102296622D01*
X221734595Y-101579479D01*
X218661391Y-100664705D01*
X216006545Y-99871586D01*
X213718908Y-99182862D01*
X211747330Y-98581271D01*
X210040663Y-98049552D01*
X208547759Y-97570445D01*
X207217469Y-97126688D01*
X205998644Y-96701021D01*
X204840135Y-96276182D01*
X203690795Y-95834911D01*
X202499474Y-95359947D01*
X201215023Y-94834028D01*
X199786295Y-94239894D01*
X198953472Y-93891607D01*
X196657500Y-92921841D01*
X194708842Y-92075706D01*
X193002374Y-91302770D01*
X191432972Y-90552606D01*
X189895512Y-89774784D01*
X188284870Y-88918873D01*
X186495921Y-87934446D01*
X186253472Y-87799254D01*
X183831327Y-86431909D01*
X181425333Y-85045122D01*
X179091509Y-83672949D01*
X176885875Y-82349446D01*
X174864450Y-81108668D01*
X173083254Y-79984672D01*
X171598305Y-79011514D01*
X170465623Y-78223250D01*
X170296789Y-78098635D01*
X169355012Y-77357626D01*
X168161681Y-76361226D01*
X166786433Y-75172278D01*
X165298902Y-73853625D01*
X163768721Y-72468110D01*
X162265526Y-71078577D01*
X160858951Y-69747869D01*
X159618630Y-68538829D01*
X158907489Y-67820082D01*
X158087185Y-66988410D01*
X157369164Y-66286766D01*
X156814386Y-65772726D01*
X156483809Y-65503867D01*
X156427681Y-65477869D01*
X156147196Y-65672360D01*
X155969650Y-66211600D01*
X155917402Y-66903053D01*
X153723210Y-66903053D01*
X153814593Y-66377946D01*
X154074581Y-64810434D01*
X154216826Y-63916394D01*
X154481195Y-62189872D01*
X154680657Y-60770744D01*
X154823373Y-59554514D01*
X154917506Y-58436688D01*
X154971218Y-57312772D01*
X154992670Y-56078271D01*
X154990024Y-54628691D01*
X154985193Y-54079099D01*
X154939431Y-49446722D01*
X155774233Y-49446722D01*
X156331124Y-49486939D01*
X156611480Y-49688632D01*
X156772681Y-50173365D01*
X156785019Y-50227459D01*
X156826925Y-50630955D01*
X156859581Y-51391074D01*
X156882209Y-52448108D01*
X156894031Y-53742347D01*
X156894271Y-55214082D01*
X156882149Y-56803605D01*
X156876536Y-57254099D01*
X156792068Y-63500000D01*
X158367108Y-65311571D01*
X159671433Y-66745173D01*
X161215093Y-68332420D01*
X162923237Y-70004568D01*
X164721016Y-71692874D01*
X166533579Y-73328594D01*
X168286076Y-74842987D01*
X169903658Y-76167307D01*
X171311472Y-77232813D01*
X171468619Y-77344132D01*
X172468534Y-78006327D01*
X173810826Y-78836551D01*
X175412011Y-79786926D01*
X177188612Y-80809572D01*
X179057145Y-81856610D01*
X180934132Y-82880163D01*
X182736090Y-83832350D01*
X183185049Y-84063880D01*
X184141605Y-84543837D01*
X184820111Y-84837450D01*
X185361860Y-84983021D01*
X185908144Y-85018848D01*
X186581573Y-84984577D01*
X187343445Y-84882706D01*
X188472772Y-84671172D01*
X189865391Y-84374130D01*
X191417137Y-84015732D01*
X193023846Y-83620133D01*
X194581352Y-83211486D01*
X195985493Y-82813946D01*
X196134069Y-82769539D01*
X196998614Y-82490366D01*
X198168133Y-82085609D01*
X199557528Y-81587381D01*
X201081700Y-81027797D01*
X202655550Y-80438969D01*
X204193979Y-79853013D01*
X205611887Y-79302042D01*
X206824177Y-78818171D01*
X207745748Y-78433512D01*
X208282075Y-78185212D01*
X209401909Y-77591457D01*
X208920227Y-75334253D01*
X208075798Y-71857570D01*
X207093435Y-68732398D01*
X205949795Y-65905026D01*
X204621535Y-63321744D01*
X203085314Y-60928841D01*
X202079779Y-59594409D01*
X201413719Y-58780877D01*
X200823290Y-58101805D01*
X200374071Y-57629913D01*
X200136171Y-57439193D01*
X199785947Y-57444078D01*
X199056758Y-57529536D01*
X198054515Y-57681039D01*
X196885127Y-57884057D01*
X196861757Y-57888360D01*
X195737217Y-58086648D01*
X194762988Y-58230086D01*
X193819950Y-58326837D01*
X192788982Y-58385067D01*
X191550965Y-58412943D01*
X189986779Y-58418629D01*
X189161520Y-58416193D01*
X186976941Y-58387695D01*
X185169182Y-58322879D01*
X183779862Y-58223791D01*
X182936030Y-58109791D01*
X182074042Y-57946138D01*
X180894144Y-57724734D01*
X179564882Y-57477105D01*
X178492848Y-57278660D01*
X177157289Y-57010320D01*
X175829329Y-56705945D01*
X175536307Y-56629641D01*
X181857948Y-56629641D01*
X182027284Y-56707207D01*
X182585283Y-56829874D01*
X183428285Y-56979846D01*
X184452629Y-57139324D01*
X185554654Y-57290510D01*
X186084904Y-57355391D01*
X187323800Y-57446304D01*
X188914126Y-57484263D01*
X190713949Y-57473254D01*
X192581339Y-57417264D01*
X194374365Y-57320280D01*
X195951094Y-57186289D01*
X197000093Y-57048793D01*
X197977265Y-56879845D01*
X198763188Y-56730350D01*
X199232532Y-56624684D01*
X199301671Y-56601163D01*
X199313161Y-56376229D01*
X199124077Y-55919246D01*
X198975549Y-55656167D01*
X198813722Y-55369584D01*
X198678693Y-55153804D01*
X198506193Y-55007956D01*
X198231950Y-54931169D01*
X197791693Y-54922570D01*
X197121151Y-54981289D01*
X196156053Y-55106453D01*
X194832127Y-55297191D01*
X193085104Y-55552631D01*
X192936003Y-55574261D01*
X191210156Y-55800420D01*
X189247689Y-56019588D01*
X187290690Y-56206661D01*
X185589925Y-56335999D01*
X184299061Y-56419972D01*
X183197327Y-56499287D01*
X182374107Y-56566909D01*
X181918786Y-56615807D01*
X181857948Y-56629641D01*
X175536307Y-56629641D01*
X174681102Y-56406943D01*
X174010495Y-56200443D01*
X173097234Y-55884898D01*
X171911724Y-55478880D01*
X170643784Y-55047285D01*
X169987010Y-54824869D01*
X168825411Y-54424210D01*
X167835047Y-54057104D01*
X166917057Y-53678129D01*
X165972577Y-53241865D01*
X164902745Y-52702890D01*
X163608699Y-52015781D01*
X162176496Y-51236392D01*
X159097355Y-49550820D01*
X160134947Y-49486274D01*
X160941823Y-49510807D01*
X161691741Y-49738709D01*
X162277757Y-50033784D01*
X163164558Y-50464960D01*
X164222675Y-50897672D01*
X164817345Y-51106013D01*
X165939408Y-51471305D01*
X166625796Y-51710415D01*
X166909377Y-51838334D01*
X166823016Y-51870056D01*
X166399580Y-51820573D01*
X166376226Y-51817136D01*
X165841252Y-51756905D01*
X165620601Y-51770988D01*
X165629167Y-51785352D01*
X165886164Y-51899363D01*
X166520730Y-52154714D01*
X167456505Y-52521426D01*
X168617126Y-52969519D01*
X169662598Y-53368876D01*
X172272245Y-54315761D01*
X174525924Y-55032578D01*
X176472207Y-55532138D01*
X178159664Y-55827252D01*
X179352939Y-55924648D01*
X180827986Y-55941150D01*
X182650538Y-55910021D01*
X184682274Y-55838298D01*
X186784872Y-55733019D01*
X188820010Y-55601220D01*
X190649365Y-55449938D01*
X192134617Y-55286211D01*
X192274265Y-55267297D01*
X193725560Y-55049407D01*
X195068835Y-54817380D01*
X196222554Y-54588319D01*
X197105178Y-54379331D01*
X197635172Y-54207522D01*
X197752696Y-54117979D01*
X197629104Y-53905869D01*
X197302342Y-53437496D01*
X196838437Y-52806924D01*
X196750096Y-52689585D01*
X196132602Y-51937494D01*
X195670002Y-51533349D01*
X195321962Y-51442030D01*
X195318233Y-51442706D01*
X194918705Y-51521946D01*
X194146231Y-51678652D01*
X193111333Y-51890300D01*
X191924531Y-52134363D01*
X191900736Y-52139269D01*
X190057160Y-52505751D01*
X188461541Y-52785543D01*
X186958869Y-52998273D01*
X185394138Y-53163570D01*
X183612340Y-53301062D01*
X181898766Y-53405795D01*
X179454024Y-53502744D01*
X177343399Y-53491995D01*
X175589951Y-53388349D01*
X174170511Y-53245917D01*
X172697312Y-53064706D01*
X171262241Y-52859727D01*
X169957184Y-52645990D01*
X168874025Y-52438509D01*
X168104651Y-52252294D01*
X167745834Y-52106847D01*
X167733780Y-51981867D01*
X168163698Y-51998241D01*
X168368383Y-52028119D01*
X168920450Y-52103147D01*
X169854676Y-52216919D01*
X171059061Y-52356317D01*
X172421602Y-52508221D01*
X173047024Y-52576142D01*
X177811901Y-52936610D01*
X182307652Y-52960212D01*
X186560029Y-52645645D01*
X190594781Y-51991609D01*
X192274265Y-51604411D01*
X193504756Y-51280283D01*
X194308975Y-51024489D01*
X194744302Y-50806012D01*
X194868119Y-50593830D01*
X194737807Y-50356927D01*
X194684111Y-50301706D01*
X194239939Y-49820631D01*
X194176482Y-49561809D01*
X194514345Y-49459852D01*
X194953547Y-49446722D01*
X195373311Y-49460448D01*
X195711172Y-49540282D01*
X196041265Y-49744208D01*
X196437729Y-50130208D01*
X196974702Y-50756266D01*
X197583071Y-51503280D01*
X198473580Y-52586999D01*
X199115784Y-53322290D01*
X199523628Y-53714720D01*
X199711054Y-53769852D01*
X199692006Y-53493252D01*
X199480429Y-52890485D01*
X199163126Y-52133892D01*
X198781207Y-51260548D01*
X198447449Y-50506733D01*
X198208438Y-49977192D01*
X198130073Y-49811066D01*
X198080092Y-49513671D01*
X198180205Y-49446722D01*
X198381686Y-49641874D01*
X198738225Y-50219840D01*
X199243936Y-51169381D01*
X199892930Y-52479260D01*
X200679319Y-54138237D01*
X200995551Y-54820134D01*
X201728297Y-56212187D01*
X202745516Y-57818603D01*
X204071466Y-59676712D01*
X204642009Y-60431348D01*
X205241284Y-61278866D01*
X205844153Y-62232232D01*
X206123091Y-62721512D01*
X206587424Y-63666446D01*
X207144555Y-64928790D01*
X207762210Y-66422904D01*
X208408114Y-68063147D01*
X209049996Y-69763881D01*
X209655581Y-71439465D01*
X210192595Y-73004258D01*
X210628765Y-74372622D01*
X210931817Y-75458916D01*
X210947495Y-75523361D01*
X211127210Y-76161085D01*
X211299653Y-76592618D01*
X211404175Y-76713575D01*
X211691872Y-76600562D01*
X212233136Y-76320973D01*
X212569363Y-76132057D01*
X213109933Y-75798741D01*
X213415404Y-75495984D01*
X213562620Y-75086311D01*
X213628424Y-74432245D01*
X213641150Y-74214584D01*
X213650481Y-73481501D01*
X213620526Y-72465513D01*
X213557004Y-71298402D01*
X213465630Y-70111954D01*
X213460901Y-70059627D01*
X213327611Y-68818105D01*
X213153955Y-67725396D01*
X212911809Y-66692387D01*
X212573050Y-65629966D01*
X212109557Y-64449019D01*
X211493206Y-63060433D01*
X210766594Y-61522131D01*
X210255623Y-60438657D01*
X209634681Y-59091054D01*
X208961853Y-57607167D01*
X208295226Y-56114839D01*
X207848795Y-55100247D01*
X207298362Y-53847662D01*
X206773206Y-52667594D01*
X206309391Y-51639957D01*
X205942985Y-50844663D01*
X205711154Y-50363771D01*
X205450195Y-49799841D01*
X205412604Y-49521446D01*
X205587366Y-49446722D01*
X205587772Y-49446722D01*
X205751658Y-49503514D01*
X205942064Y-49704318D01*
X206182864Y-50094776D01*
X206497931Y-50720527D01*
X206911139Y-51627212D01*
X207446361Y-52860473D01*
X207765842Y-53610656D01*
X208070922Y-54307185D01*
X208524330Y-55312271D01*
X209090084Y-56547643D01*
X209732204Y-57935026D01*
X210414708Y-59396147D01*
X210867815Y-60358644D01*
X211531543Y-61779239D01*
X212151929Y-63135888D01*
X212698938Y-64360645D01*
X213142534Y-65385565D01*
X213452682Y-66142702D01*
X213579087Y-66492140D01*
X213739024Y-67221745D01*
X213850432Y-68247870D01*
X213916122Y-69609292D01*
X213938907Y-71344789D01*
X213938971Y-71455217D01*
X213953292Y-73020311D01*
X213996186Y-74174741D01*
X214067546Y-74916970D01*
X214167265Y-75245461D01*
X214201654Y-75263115D01*
X214546293Y-75147739D01*
X215155471Y-74850363D01*
X215900120Y-74444112D01*
X216651172Y-74002110D01*
X217279560Y-73597485D01*
X217650672Y-73309014D01*
X217803311Y-72899602D01*
X217837957Y-72140129D01*
X217766043Y-71082625D01*
X217599000Y-69779116D01*
X217348261Y-68281632D01*
X217025258Y-66642198D01*
X216641422Y-64912845D01*
X216208186Y-63145598D01*
X215736983Y-61392487D01*
X215239243Y-59705539D01*
X214726399Y-58136783D01*
X214209883Y-56738245D01*
X213795262Y-55762879D01*
X213307623Y-54673421D01*
X212819446Y-53533953D01*
X212357934Y-52413865D01*
X211950290Y-51382547D01*
X211623716Y-50509391D01*
X211405414Y-49863788D01*
X211322588Y-49515129D01*
X211330701Y-49476040D01*
X211540195Y-49465018D01*
X211792164Y-49776837D01*
X212104634Y-50441570D01*
X212436220Y-51320492D01*
X212795689Y-52241755D01*
X213276068Y-53350662D01*
X213793045Y-54455456D01*
X213978852Y-54828991D01*
X214659546Y-56336249D01*
X215350958Y-58171223D01*
X216028892Y-60246258D01*
X216669156Y-62473701D01*
X217247556Y-64765897D01*
X217739899Y-67035191D01*
X218121990Y-69193931D01*
X218297209Y-70474590D01*
X218429153Y-71454210D01*
X218562003Y-72078270D01*
X218718827Y-72407192D01*
X218922694Y-72501397D01*
X219061244Y-72475695D01*
X219586802Y-72235484D01*
X220312086Y-71814020D01*
X221132246Y-71283967D01*
X221942431Y-70717991D01*
X222637790Y-70188757D01*
X223113473Y-69768931D01*
X223265011Y-69562335D01*
X223518088Y-67520203D01*
X223351890Y-65341817D01*
X222774136Y-63105254D01*
X222572976Y-62563115D01*
X222330016Y-61955602D01*
X221951813Y-61022364D01*
X221466064Y-59831153D01*
X220900462Y-58449726D01*
X220282702Y-56945834D01*
X219640478Y-55387232D01*
X219573172Y-55224181D01*
X218845223Y-53443779D01*
X218282707Y-52027033D01*
X217876402Y-50947647D01*
X217617084Y-50179325D01*
X217495530Y-49695775D01*
X217502517Y-49470701D01*
X217546677Y-49446722D01*
X217771595Y-49627655D01*
X218088495Y-50178394D01*
X218503214Y-51110844D01*
X219021587Y-52436912D01*
X219051773Y-52517623D01*
X219485430Y-53679449D01*
X219899711Y-54789534D01*
X220256581Y-55745946D01*
X220518002Y-56446753D01*
X220586145Y-56629508D01*
X220842957Y-57256528D01*
X221233908Y-58137912D01*
X221700436Y-59144059D01*
X222070208Y-59913858D01*
X222807800Y-61497923D01*
X223341704Y-62848679D01*
X223710144Y-64096787D01*
X223951345Y-65372912D01*
X224103532Y-66807715D01*
X224109369Y-66884353D01*
X224273285Y-69068465D01*
X226309419Y-67741610D01*
X227192601Y-67138752D01*
X227937401Y-66579765D01*
X228445132Y-66141480D01*
X228601729Y-65956921D01*
X228677410Y-65675134D01*
X228649569Y-65230001D01*
X228505649Y-64561028D01*
X228233092Y-63607719D01*
X227888624Y-62521675D01*
X227016489Y-59874155D01*
X226209278Y-57487260D01*
X225477659Y-55391109D01*
X224832299Y-53615816D01*
X224283866Y-52191499D01*
X223925465Y-51332692D01*
X223583914Y-50549261D01*
X223319600Y-49930318D01*
X223171296Y-49567269D01*
X223152696Y-49510970D01*
X223376464Y-49473828D01*
X223946859Y-49450625D01*
X224360437Y-49446722D01*
X225568177Y-49446722D01*
X226225583Y-50747951D01*
X226937633Y-52257693D01*
X227593736Y-53834285D01*
X228127446Y-55311528D01*
X228368933Y-56109017D01*
X228625786Y-56982681D01*
X228943560Y-57971166D01*
X229130888Y-58514880D01*
X229341776Y-59247405D01*
X229562709Y-60250291D01*
X229764351Y-61378812D01*
X229890521Y-62262421D01*
X230015778Y-63230869D01*
X230128867Y-64035555D01*
X230217465Y-64593296D01*
X230269249Y-64820908D01*
X230269610Y-64821310D01*
X230476566Y-64722793D01*
X231003047Y-64403942D01*
X231782158Y-63907119D01*
X232747007Y-63274686D01*
X233407269Y-62834317D01*
X235176730Y-61647609D01*
X236651980Y-60664671D01*
X237907505Y-59842284D01*
X239017787Y-59137230D01*
X240057309Y-58506291D01*
X241100556Y-57906251D01*
X242222011Y-57293891D01*
X243496156Y-56625994D01*
X244997477Y-55859342D01*
X246800455Y-54950716D01*
X248237354Y-54229423D01*
X249402899Y-53677683D01*
X250889371Y-53023674D01*
X252558147Y-52325633D01*
X254270603Y-51641799D01*
X255600293Y-51136160D01*
X257164801Y-50559996D01*
X258358865Y-50132537D01*
X259266355Y-49831884D01*
X259971142Y-49636134D01*
X260557096Y-49523387D01*
X261108089Y-49471741D01*
X261707991Y-49459294D01*
X262016616Y-49460649D01*
X263867402Y-49474576D01*
X262871324Y-49740862D01*
X261356256Y-50197458D01*
X259504082Y-50839189D01*
X257400401Y-51630994D01*
X255130810Y-52537810D01*
X252780907Y-53524575D01*
X250436289Y-54556229D01*
X248182554Y-55597709D01*
X246163189Y-56584694D01*
X243588869Y-57947829D01*
X240898808Y-59486147D01*
X238235648Y-61112562D01*
X235742032Y-62739989D01*
X233580369Y-64266669D01*
X232097967Y-65351977D01*
X230470491Y-66518175D01*
X228772801Y-67713763D01*
X227079759Y-68887238D01*
X225466224Y-69987101D01*
X224007058Y-70961850D01*
X222777122Y-71759985D01*
X221909466Y-72295740D01*
X220622262Y-73063767D01*
X219691687Y-73639470D01*
X219062074Y-74064110D01*
X218677755Y-74378945D01*
X218483063Y-74625236D01*
X218422331Y-74844241D01*
X218421324Y-74881090D01*
X218364285Y-75175160D01*
X218126048Y-75107511D01*
X218055144Y-75060018D01*
X217795279Y-74971649D01*
X217416359Y-75049586D01*
X216825020Y-75326589D01*
X216051057Y-75763214D01*
X215268566Y-76210015D01*
X214646788Y-76545461D01*
X214293558Y-76711969D01*
X214258352Y-76720492D01*
X214002686Y-76819157D01*
X213387414Y-77093165D01*
X212484157Y-77509534D01*
X211364536Y-78035285D01*
X210214352Y-78582731D01*
X207996322Y-79614617D01*
X205847006Y-80546190D01*
X203683857Y-81406324D01*
X201424329Y-82223898D01*
X198985873Y-83027788D01*
X196285943Y-83846870D01*
X193241991Y-84710022D01*
X190820464Y-85367109D01*
X189736060Y-85665170D01*
X188860654Y-85921317D01*
X188282614Y-86108567D01*
X188090307Y-86199940D01*
X188090923Y-86200539D01*
X188404271Y-86228541D01*
X189118344Y-86179471D01*
X190147374Y-86065399D01*
X191405594Y-85898394D01*
X192807236Y-85690526D01*
X194266531Y-85453864D01*
X195697713Y-85200477D01*
X196980820Y-84949538D01*
X199143011Y-84441795D01*
X201484170Y-83787839D01*
X203916335Y-83020489D01*
X206351542Y-82172566D01*
X208701830Y-81276890D01*
X210879234Y-80366280D01*
X212795794Y-79473558D01*
X214363547Y-78631543D01*
X215020650Y-78218613D01*
X216267525Y-77394663D01*
X217681996Y-76489635D01*
X219180498Y-75554160D01*
X220679467Y-74638871D01*
X222095337Y-73794402D01*
X223344546Y-73071384D01*
X224343527Y-72520451D01*
X224842301Y-72267558D01*
X225391522Y-71989734D01*
X226293396Y-71512587D01*
X227487267Y-70869121D01*
X228912480Y-70092343D01*
X230508377Y-69215256D01*
X232214305Y-68270867D01*
X233367838Y-67628514D01*
X235081715Y-66675116D01*
X236697804Y-65782331D01*
X238160917Y-64980174D01*
X239415862Y-64298662D01*
X240407452Y-63767814D01*
X241080496Y-63417646D01*
X241336465Y-63294423D01*
X241844309Y-63054043D01*
X242673433Y-62634933D01*
X243728429Y-62086428D01*
X244913888Y-61457867D01*
X245564461Y-61108056D01*
X247495798Y-60085934D01*
X249414256Y-59118692D01*
X251415315Y-58161750D01*
X253594454Y-57170525D01*
X256047152Y-56100439D01*
X258644288Y-55000879D01*
X260465732Y-54247814D01*
X261885319Y-53684101D01*
X262937419Y-53298174D01*
X263656401Y-53078468D01*
X264076634Y-53013420D01*
X264232489Y-53091464D01*
X264235124Y-53119643D01*
X264019581Y-53263254D01*
X263425443Y-53550442D01*
X262525495Y-53948819D01*
X261392523Y-54425995D01*
X260324472Y-54859836D01*
X254961744Y-57098599D01*
X249993090Y-59372678D01*
X245314773Y-61729981D01*
X244453386Y-62189492D01*
X240946714Y-64082305D01*
X237563876Y-65918772D01*
X234334004Y-67682626D01*
X231286234Y-69357599D01*
X228449698Y-70927421D01*
X225853530Y-72375825D01*
X223526863Y-73686542D01*
X221498833Y-74843303D01*
X219798572Y-75829842D01*
X218455213Y-76629888D01*
X217497892Y-77227175D01*
X217353023Y-77322394D01*
X215907617Y-78267710D01*
X214680309Y-79021682D01*
X213529280Y-79659316D01*
X212312712Y-80255620D01*
X210888786Y-80885600D01*
X209581128Y-81432865D01*
X205065496Y-83169423D01*
X200795273Y-84551157D01*
X196760618Y-85580792D01*
X192951692Y-86261051D01*
X191527206Y-86432043D01*
X190337402Y-86561050D01*
X189337021Y-86682198D01*
X188624458Y-86782657D01*
X188298109Y-86849597D01*
X188290343Y-86854085D01*
X188366011Y-87037825D01*
X188663872Y-87272966D01*
X188949339Y-87400771D01*
X189382164Y-87481686D01*
X190046644Y-87520077D01*
X191027075Y-87520308D01*
X192407753Y-87486746D01*
X192647794Y-87479282D01*
X196385268Y-87236165D01*
X199845330Y-86736080D01*
X203167341Y-85950019D01*
X206490663Y-84848976D01*
X207847166Y-84315672D01*
X210577579Y-83119995D01*
X212937712Y-81912329D01*
X215035978Y-80639543D01*
X215674638Y-80252141D01*
X216679706Y-79684896D01*
X217989006Y-78970074D01*
X219540364Y-78139935D01*
X221271605Y-77226745D01*
X223120554Y-76262765D01*
X225025037Y-75280260D01*
X226922878Y-74311491D01*
X228751904Y-73388723D01*
X230449939Y-72544218D01*
X231954809Y-71810239D01*
X233072657Y-71280119D01*
X234528423Y-70593123D01*
X236052581Y-69857181D01*
X237495976Y-69145365D01*
X238709455Y-68530746D01*
X239089951Y-68332235D01*
X240233767Y-67734935D01*
X241400171Y-67137032D01*
X242420887Y-66624293D01*
X242910895Y-66384797D01*
X243789403Y-65950737D01*
X244599127Y-65529627D01*
X245078936Y-65262222D01*
X245654122Y-64968339D01*
X246512938Y-64585156D01*
X247482288Y-64189424D01*
X247607992Y-64140831D01*
X248565440Y-63769890D01*
X249807305Y-63283795D01*
X251168825Y-62747254D01*
X252412500Y-62253945D01*
X254851183Y-61294289D01*
X256928767Y-60503011D01*
X258723186Y-59851886D01*
X260312370Y-59312693D01*
X261774253Y-58857207D01*
X261870754Y-58828636D01*
X262827627Y-58549407D01*
X263591860Y-58332299D01*
X264053218Y-58208341D01*
X264136263Y-58190984D01*
X264256440Y-58318188D01*
X264145029Y-58562289D01*
X263929657Y-58707672D01*
X261642709Y-59396985D01*
X258985419Y-60284651D01*
X256012396Y-61351867D01*
X253533089Y-62287718D01*
X251357223Y-63126577D01*
X249570832Y-63820489D01*
X248110119Y-64397047D01*
X246911287Y-64883842D01*
X245910539Y-65308466D01*
X245044079Y-65698513D01*
X244248111Y-66081574D01*
X243458837Y-66485242D01*
X242612463Y-66937110D01*
X241953677Y-67295879D01*
X240610734Y-68016836D01*
X239156451Y-68775394D01*
X237765033Y-69481879D01*
X236610688Y-70046619D01*
X236599755Y-70051804D01*
X234570023Y-71025517D01*
X232393180Y-72089830D01*
X230160293Y-73198724D01*
X227962430Y-74306184D01*
X225890657Y-75366190D01*
X224036042Y-76332726D01*
X222489650Y-77159774D01*
X221992379Y-77433127D01*
X220764051Y-78112364D01*
X219543170Y-78782367D01*
X218456830Y-79373713D01*
X217632124Y-79816977D01*
X217510026Y-79881612D01*
X216678548Y-80331953D01*
X215602565Y-80931435D01*
X214444407Y-81589015D01*
X213710597Y-82012518D01*
X210489641Y-83706269D01*
X207105411Y-85150679D01*
X203644062Y-86318552D01*
X200191743Y-87182695D01*
X196834607Y-87715909D01*
X195218283Y-87849941D01*
X193480255Y-87956117D01*
X192211663Y-88057234D01*
X191384010Y-88156714D01*
X190968797Y-88257980D01*
X190936871Y-88363974D01*
X191234737Y-88522199D01*
X191873196Y-88826919D01*
X192751885Y-89231066D01*
X193561394Y-89594803D01*
X195969111Y-90666017D01*
X200284923Y-88875367D01*
X201831298Y-88238698D01*
X203415588Y-87595030D01*
X204910550Y-86995467D01*
X206188940Y-86491110D01*
X206966422Y-86191947D01*
X208320972Y-85676743D01*
X209854648Y-85087262D01*
X211296628Y-84527748D01*
X211697794Y-84370751D01*
X212846067Y-83935054D01*
X213978993Y-83530566D01*
X214927121Y-83216724D01*
X215308579Y-83104242D01*
X216181033Y-82906003D01*
X217457328Y-82667622D01*
X219047301Y-82401873D01*
X220860792Y-82121530D01*
X222807639Y-81839366D01*
X224797681Y-81568156D01*
X226740758Y-81320672D01*
X228546707Y-81109690D01*
X230125367Y-80947982D01*
X231097450Y-80867324D01*
X233695733Y-80746007D01*
X236594842Y-80718842D01*
X239669330Y-80779580D01*
X242793748Y-80921975D01*
X245842649Y-81139779D01*
X248690584Y-81426743D01*
X251212105Y-81776619D01*
X251959503Y-81906350D01*
X253324535Y-82129558D01*
X254955149Y-82352126D01*
X256716515Y-82559891D01*
X258473805Y-82738691D01*
X260092189Y-82874365D01*
X261436838Y-82952751D01*
X262051686Y-82966394D01*
X262900550Y-82988011D01*
X263582439Y-83043562D01*
X263847036Y-83092767D01*
X264178266Y-83320723D01*
X264225890Y-83590974D01*
X264000607Y-83741812D01*
X263805147Y-83725849D01*
X263345081Y-83656412D01*
X262559353Y-83572146D01*
X261626226Y-83491951D01*
X259078284Y-83273028D01*
X256515398Y-83006519D01*
X254082300Y-82709472D01*
X251923719Y-82398932D01*
X250918383Y-82230777D01*
X248932160Y-81913221D01*
X246913155Y-81669271D01*
X244777262Y-81494253D01*
X242440375Y-81383489D01*
X239818388Y-81332306D01*
X236827194Y-81336028D01*
X235192864Y-81356610D01*
X232975624Y-81396888D01*
X231153641Y-81445259D01*
X229624141Y-81507994D01*
X228284347Y-81591366D01*
X227031483Y-81701644D01*
X225762772Y-81845102D01*
X224522896Y-82007702D01*
X221791665Y-82404927D01*
X219463248Y-82797422D01*
X217443376Y-83206211D01*
X215637779Y-83652318D01*
X213952187Y-84156766D01*
X212326738Y-84727671D01*
X211061443Y-85196947D01*
X209825030Y-85646990D01*
X208758620Y-86026938D01*
X208003336Y-86285934D01*
X207998707Y-86287454D01*
X207332639Y-86528016D01*
X206385842Y-86899674D01*
X205229496Y-87371578D01*
X203934781Y-87912874D01*
X202572878Y-88492712D01*
X201214968Y-89080239D01*
X199932230Y-89644603D01*
X198795846Y-90154954D01*
X197876996Y-90580439D01*
X197246860Y-90890206D01*
X196976619Y-91053404D01*
X196972506Y-91066537D01*
X197221748Y-91220223D01*
X197791771Y-91508464D01*
X198563139Y-91871077D01*
X198625339Y-91899393D01*
X200186795Y-92608623D01*
X203638863Y-90526821D01*
X204948610Y-89745369D01*
X206001282Y-89149378D01*
X206927477Y-88680522D01*
X207857795Y-88280477D01*
X208922833Y-87890918D01*
X210253192Y-87453519D01*
X211168285Y-87164205D01*
X213674751Y-86425793D01*
X216053338Y-85837816D01*
X218445276Y-85374489D01*
X220991791Y-85010024D01*
X223834113Y-84718635D01*
X225144853Y-84612236D01*
X227050851Y-84518415D01*
X229361201Y-84488922D01*
X231989029Y-84519455D01*
X234847460Y-84605714D01*
X237849619Y-84743398D01*
X240908629Y-84928206D01*
X243937617Y-85155836D01*
X246849706Y-85421989D01*
X249558022Y-85722363D01*
X250793873Y-85882028D01*
X252431756Y-86113744D01*
X254182447Y-86376164D01*
X255979207Y-86657775D01*
X257755301Y-86947066D01*
X259443991Y-87232526D01*
X260978541Y-87502642D01*
X262292214Y-87745903D01*
X263318274Y-87950798D01*
X263989984Y-88105816D01*
X264240606Y-88199443D01*
X264240932Y-88201549D01*
X264221400Y-88285437D01*
X264125374Y-88336195D01*
X263896707Y-88346811D01*
X263479252Y-88310273D01*
X262816865Y-88219567D01*
X261853397Y-88067682D01*
X260532704Y-87847604D01*
X258798638Y-87552322D01*
X258139951Y-87439551D01*
X256208374Y-87121445D01*
X254341647Y-86843622D01*
X252435284Y-86593609D01*
X250384801Y-86358931D01*
X248085713Y-86127113D01*
X245433533Y-85885682D01*
X244319363Y-85789502D01*
X241203589Y-85530361D01*
X238512096Y-85322769D01*
X236175387Y-85163940D01*
X234123960Y-85051090D01*
X232288318Y-84981434D01*
X230598961Y-84952187D01*
X228986389Y-84960564D01*
X227381103Y-85003780D01*
X226098779Y-85059416D01*
X223339237Y-85230053D01*
X220888547Y-85466005D01*
X218607036Y-85792204D01*
X216355028Y-86233579D01*
X213992847Y-86815060D01*
X211380819Y-87561577D01*
X210395398Y-87862237D01*
X209146521Y-88261623D01*
X208129824Y-88629860D01*
X207215559Y-89027756D01*
X206273976Y-89516123D01*
X205175327Y-90155768D01*
X204114374Y-90805957D01*
X200888796Y-92805346D01*
X202063757Y-93304588D01*
X203238718Y-93803829D01*
X204666785Y-92993165D01*
X205788440Y-92408822D01*
X207210001Y-91744865D01*
X208790694Y-91060003D01*
X210389746Y-90412948D01*
X211866384Y-89862412D01*
X213079834Y-89467106D01*
X213207780Y-89431040D01*
X214365814Y-89156338D01*
X215896127Y-88857610D01*
X217675653Y-88554071D01*
X219581325Y-88264937D01*
X221490077Y-88009422D01*
X223278841Y-87806740D01*
X224100661Y-87730295D01*
X225818222Y-87654861D01*
X227971354Y-87676396D01*
X230512574Y-87790499D01*
X233394396Y-87992766D01*
X236569339Y-88278794D01*
X239989918Y-88644179D01*
X243608650Y-89084518D01*
X247378051Y-89595408D01*
X251250638Y-90172446D01*
X252412500Y-90355730D01*
X254354952Y-90659029D01*
X256309886Y-90951463D01*
X258202633Y-91222993D01*
X259958523Y-91463580D01*
X261502886Y-91663184D01*
X262761052Y-91811765D01*
X263658352Y-91899284D01*
X264038334Y-91918853D01*
X264214618Y-92089495D01*
X264240932Y-92254318D01*
X264147976Y-92464977D01*
X263787115Y-92510842D01*
X263307108Y-92459035D01*
X262642411Y-92365985D01*
X261656093Y-92227932D01*
X260517742Y-92068611D01*
X260007598Y-91997217D01*
X257773758Y-91680145D01*
X255863021Y-91397667D01*
X254105809Y-91123479D01*
X252332540Y-90831275D01*
X250805290Y-90569792D01*
X247949847Y-90108649D01*
X244944508Y-89685118D01*
X241855584Y-89304401D01*
X238749383Y-88971702D01*
X235692215Y-88692224D01*
X232750392Y-88471171D01*
X229990222Y-88313746D01*
X227478016Y-88225152D01*
X225280082Y-88210593D01*
X223462732Y-88275273D01*
X222578211Y-88354801D01*
X221351915Y-88519218D01*
X219928713Y-88736691D01*
X218595975Y-88963061D01*
X218469387Y-88986212D01*
X217150945Y-89224444D01*
X215701031Y-89478724D01*
X214414396Y-89697428D01*
X214312500Y-89714292D01*
X212602280Y-90104076D01*
X210669522Y-90753895D01*
X209581128Y-91189703D01*
X208234862Y-91779145D01*
X206991388Y-92371352D01*
X205923012Y-92927200D01*
X205102042Y-93407566D01*
X204600784Y-93773326D01*
X204478144Y-93950794D01*
X204685261Y-94158077D01*
X205195309Y-94443189D01*
X205846721Y-94733738D01*
X206477928Y-94957335D01*
X206913159Y-95041803D01*
X207300663Y-94944854D01*
X208022012Y-94679945D01*
X208978821Y-94285988D01*
X210072708Y-93801894D01*
X210225588Y-93731726D01*
X211766787Y-93032768D01*
X213012278Y-92504174D01*
X214093293Y-92101901D01*
X215141064Y-91781905D01*
X216286824Y-91500145D01*
X217661805Y-91212577D01*
X217832845Y-91178667D01*
X219858493Y-90827580D01*
X221912749Y-90578400D01*
X224092413Y-90426105D01*
X226494282Y-90365673D01*
X229215156Y-90392082D01*
X231550913Y-90466943D01*
X232851132Y-90518556D01*
X233963486Y-90566926D01*
X234948301Y-90620149D01*
X235865901Y-90686319D01*
X236776614Y-90773533D01*
X237740763Y-90889886D01*
X238818676Y-91043473D01*
X240070677Y-91242389D01*
X241557093Y-91494731D01*
X243338249Y-91808594D01*
X245474471Y-92192072D01*
X248026084Y-92653262D01*
X248552696Y-92748509D01*
X250580748Y-93106203D01*
X252806077Y-93483347D01*
X255064146Y-93853071D01*
X257190417Y-94188504D01*
X259020351Y-94462776D01*
X259260539Y-94497184D01*
X264116422Y-95187541D01*
X264193231Y-95940762D01*
X264270041Y-96693983D01*
X262574604Y-96579730D01*
X261461155Y-96472565D01*
X259975523Y-96282955D01*
X258228901Y-96028741D01*
X256332485Y-95727764D01*
X254397470Y-95397864D01*
X252535051Y-95056881D01*
X250856423Y-94722657D01*
X250420343Y-94629645D01*
X248062030Y-94135389D01*
X245893009Y-93724100D01*
X243751539Y-93369473D01*
X241475884Y-93045200D01*
X238904301Y-92724976D01*
X238218383Y-92645025D01*
X233240569Y-92176975D01*
X228635185Y-91966447D01*
X224381686Y-92015155D01*
X220459527Y-92324814D01*
X216848165Y-92897140D01*
X213527053Y-93733847D01*
X210475648Y-94836651D01*
X210118123Y-94990681D01*
X208413942Y-95738444D01*
X209113291Y-96044800D01*
X209508391Y-96181231D01*
X210316943Y-96431261D01*
X211479623Y-96777557D01*
X212937107Y-97202787D01*
X214630069Y-97689622D01*
X216499183Y-98220730D01*
X218170528Y-98690790D01*
X220958128Y-99486391D01*
X223618326Y-100275187D01*
X226071716Y-101032446D01*
X228238891Y-101733435D01*
X230040442Y-102353422D01*
X230667372Y-102583115D01*
X232269960Y-103194977D01*
X233532053Y-103709845D01*
X234574682Y-104187226D01*
X235518873Y-104686628D01*
X236485657Y-105267560D01*
X237596060Y-105989531D01*
X237598050Y-105990853D01*
X238742209Y-106762585D01*
X239585462Y-107373741D01*
X240225210Y-107913722D01*
X240758854Y-108471929D01*
X241283796Y-109137761D01*
X241773980Y-109823771D01*
X242380209Y-110677881D01*
X242933583Y-111435829D01*
X243362976Y-112001385D01*
X243560985Y-112241528D01*
X243963782Y-112681417D01*
X246445004Y-111758039D01*
X249753225Y-110544132D01*
X252878866Y-109431410D01*
X255775083Y-108435465D01*
X258395028Y-107571888D01*
X260691857Y-106856270D01*
X262618724Y-106304202D01*
X263556128Y-106063193D01*
X264016404Y-105983372D01*
X264204114Y-106117842D01*
X264240869Y-106563930D01*
X264240932Y-106611255D01*
X264155130Y-107135388D01*
X263919208Y-107325410D01*
X263575160Y-107397027D01*
X262867240Y-107592620D01*
X261894843Y-107883299D01*
X260757362Y-108240177D01*
X260619699Y-108284402D01*
X259333752Y-108697306D01*
X257742770Y-109206280D01*
X256007510Y-109759998D01*
X254288729Y-110307135D01*
X253408579Y-110586688D01*
X249263009Y-112044499D01*
X245289921Y-113722707D01*
X241548896Y-115588006D01*
X238099519Y-117607091D01*
X235001370Y-119746657D01*
X232314032Y-121973398D01*
X231308761Y-122940164D01*
X229373736Y-124898690D01*
X227704882Y-126597845D01*
X226246734Y-128096173D01*
X224943826Y-129452220D01*
X223740692Y-130724532D01*
X222581866Y-131971654D01*
X221411884Y-133252131D01*
X220175279Y-134624508D01*
X219128895Y-135796312D01*
X214448399Y-141053279D01*
X210759669Y-141053279D01*
X209816799Y-140168443D01*
X209397866Y-139778928D01*
X208698155Y-139132523D01*
X207772670Y-138279859D01*
X206762498Y-137350744D01*
X208401966Y-137350744D01*
X210231963Y-138891021D01*
X211001013Y-139522078D01*
X211641496Y-140017275D01*
X212074005Y-140317034D01*
X212213629Y-140377944D01*
X212431993Y-140209610D01*
X212904733Y-139795704D01*
X213556897Y-139203021D01*
X214142534Y-138659017D01*
X214870459Y-137960764D01*
X215455249Y-137369262D01*
X215827433Y-136956720D01*
X215925449Y-136805845D01*
X215699147Y-136733208D01*
X215086022Y-136706112D01*
X214193566Y-136719277D01*
X213129272Y-136767427D01*
X212000632Y-136845285D01*
X210915139Y-136947573D01*
X209980286Y-137069013D01*
X209738606Y-137109592D01*
X208401966Y-137350744D01*
X206762498Y-137350744D01*
X206676415Y-137271568D01*
X205464397Y-136158280D01*
G37*
G36*
X70712107Y-117162326D02*
G01*
X70515868Y-117663178D01*
X70104564Y-118519117D01*
X69766288Y-119174251D01*
X68718537Y-121070700D01*
X67699776Y-122688820D01*
X66616507Y-124153887D01*
X65375233Y-125591175D01*
X63882456Y-127125961D01*
X63692563Y-127312295D01*
X62949261Y-127988308D01*
X61925316Y-128849789D01*
X60707117Y-129830607D01*
X59381058Y-130864634D01*
X58033529Y-131885739D01*
X56750922Y-132827793D01*
X55619627Y-133624665D01*
X54726036Y-134210225D01*
X54522193Y-134331936D01*
X53659659Y-134804085D01*
X52518481Y-135390297D01*
X51162785Y-136061142D01*
X49656698Y-136787188D01*
X48064346Y-137539007D01*
X46449857Y-138287166D01*
X44877357Y-139002235D01*
X43410972Y-139654784D01*
X42114830Y-140215382D01*
X41053057Y-140654598D01*
X40289780Y-140943003D01*
X39889125Y-141051165D01*
X39881224Y-141051325D01*
X39591943Y-141021516D01*
X39640226Y-140908222D01*
X40068116Y-140671512D01*
X40496814Y-140466603D01*
X41176273Y-140151472D01*
X42172808Y-139692964D01*
X43365819Y-139146409D01*
X44634707Y-138567132D01*
X44979167Y-138410247D01*
X47866249Y-137071848D01*
X50368255Y-135853102D01*
X52558070Y-134710014D01*
X54508578Y-133598584D01*
X56292665Y-132474816D01*
X57983217Y-131294711D01*
X59653117Y-130014273D01*
X61375252Y-128589504D01*
X61679089Y-128329227D01*
X63372797Y-126821753D01*
X64770687Y-125447203D01*
X65968090Y-124091864D01*
X67060336Y-122642021D01*
X68142754Y-120983961D01*
X68902282Y-119713115D01*
X69594958Y-118554787D01*
X70134706Y-117712794D01*
X70509098Y-117194885D01*
X70705708Y-117008813D01*
X70712107Y-117162326D01*
G37*
G36*
X137482390Y-110147406D02*
G01*
X138959754Y-110234093D01*
X140873504Y-110384569D01*
X142561691Y-110534698D01*
X147671631Y-111096580D01*
X152334802Y-111802069D01*
X156574004Y-112656011D01*
X160412037Y-113663250D01*
X163871702Y-114828632D01*
X165131128Y-115330290D01*
X167711500Y-116487025D01*
X170390189Y-117831031D01*
X172989632Y-119267674D01*
X175332267Y-120702316D01*
X175838080Y-121036841D01*
X177246838Y-122036235D01*
X178882035Y-123281168D01*
X180653316Y-124695884D01*
X182470325Y-126204626D01*
X184242707Y-127731634D01*
X185880108Y-129201153D01*
X187292170Y-130537424D01*
X187916575Y-131163935D01*
X190027753Y-133321879D01*
X191865766Y-135160818D01*
X193449736Y-136698892D01*
X194798788Y-137954237D01*
X195932045Y-138944993D01*
X196868632Y-139689298D01*
X197028552Y-139806240D01*
X197853768Y-140430653D01*
X198308176Y-140846955D01*
X198376850Y-141040666D01*
X198313867Y-141053279D01*
X197865589Y-140926861D01*
X197239909Y-140606372D01*
X196925668Y-140405125D01*
X196466109Y-140037925D01*
X195730205Y-139386395D01*
X194757274Y-138488281D01*
X193586634Y-137381329D01*
X192257601Y-136103285D01*
X190809494Y-134691895D01*
X189281630Y-133184905D01*
X187713327Y-131620061D01*
X186494242Y-130390668D01*
X185615390Y-129546610D01*
X184456669Y-128502315D01*
X183095038Y-127321130D01*
X181607454Y-126066402D01*
X180070877Y-124801479D01*
X178562266Y-123589707D01*
X177158578Y-122494433D01*
X175936773Y-121579005D01*
X174973809Y-120906769D01*
X174967402Y-120902572D01*
X173131645Y-119789544D01*
X170965017Y-118621225D01*
X168585427Y-117450832D01*
X166110780Y-116331578D01*
X163658984Y-115316681D01*
X161347946Y-114459354D01*
X159295572Y-113812814D01*
X159201373Y-113786842D01*
X157243667Y-113289635D01*
X155038767Y-112793360D01*
X152744113Y-112328953D01*
X150517148Y-111927354D01*
X148515310Y-111619501D01*
X147575245Y-111502230D01*
X144684795Y-111187026D01*
X142273368Y-110936376D01*
X140328178Y-110749187D01*
X138836436Y-110624369D01*
X137785354Y-110560832D01*
X137162145Y-110557485D01*
X136963442Y-110597082D01*
X137039610Y-110803584D01*
X137473584Y-111181920D01*
X138203441Y-111679782D01*
X138361597Y-111778139D01*
X139002727Y-112219290D01*
X139908499Y-112908663D01*
X141006645Y-113787819D01*
X142224897Y-114798318D01*
X143490986Y-115881723D01*
X144140642Y-116451299D01*
X146880285Y-118868064D01*
X149388814Y-121067514D01*
X151652398Y-123037826D01*
X153657205Y-124767178D01*
X155389404Y-126243748D01*
X156835162Y-127455715D01*
X157980648Y-128391256D01*
X158812031Y-129038549D01*
X159154657Y-129283864D01*
X160123569Y-129940746D01*
X161196000Y-130673750D01*
X161893873Y-131154320D01*
X162841599Y-131755330D01*
X163894098Y-132341766D01*
X164633089Y-132699974D01*
X165393263Y-133049125D01*
X166435112Y-133550865D01*
X167618302Y-134136652D01*
X168741912Y-134706763D01*
X171249268Y-135930716D01*
X173711398Y-136987377D01*
X176242513Y-137916076D01*
X178956825Y-138756147D01*
X181968546Y-139546921D01*
X184497656Y-140132736D01*
X185729668Y-140409135D01*
X186779388Y-140652142D01*
X187557640Y-140840537D01*
X187975250Y-140953098D01*
X188020180Y-140971008D01*
X187951030Y-141056795D01*
X187510052Y-141074139D01*
X186814398Y-141033657D01*
X185981220Y-140945965D01*
X185127668Y-140821680D01*
X184370896Y-140671419D01*
X184181128Y-140623102D01*
X183226183Y-140371400D01*
X182014185Y-140064330D01*
X180767910Y-139758093D01*
X180445834Y-139680790D01*
X179202441Y-139361853D01*
X177908900Y-138993958D01*
X176802252Y-138645299D01*
X176586030Y-138570364D01*
X175551816Y-138211338D01*
X174503375Y-137861534D01*
X173801777Y-137638379D01*
X173135734Y-137384224D01*
X172184947Y-136955776D01*
X171076464Y-136412948D01*
X169941973Y-135818175D01*
X168721374Y-135172330D01*
X167454991Y-134531553D01*
X166301918Y-133974801D01*
X165504657Y-133615956D01*
X163908728Y-132842445D01*
X162104067Y-131782660D01*
X160080001Y-130428470D01*
X157825857Y-128771747D01*
X155330959Y-126804360D01*
X152584636Y-124518182D01*
X149576212Y-121905081D01*
X146486077Y-119130951D01*
X144358274Y-117229295D01*
X142458953Y-115610525D01*
X140721697Y-114221978D01*
X139080091Y-113010989D01*
X137467718Y-111924894D01*
X137116422Y-111701326D01*
X136324089Y-111188790D01*
X135700085Y-110760191D01*
X135341229Y-110483085D01*
X135293339Y-110429209D01*
X135346889Y-110265409D01*
X135708131Y-110163531D01*
X136409241Y-110124041D01*
X137482390Y-110147406D01*
G37*
G36*
X264164710Y-110107039D02*
G01*
X264245482Y-110207348D01*
X264183830Y-110306879D01*
X263913249Y-110429140D01*
X263367233Y-110597638D01*
X262479275Y-110835880D01*
X261182871Y-111167374D01*
X261119196Y-111183509D01*
X257612047Y-112128384D01*
X254469805Y-113098841D01*
X251559712Y-114136627D01*
X250847580Y-114413591D01*
X249907645Y-114807945D01*
X248731283Y-115336424D01*
X247383840Y-115966171D01*
X245930660Y-116664329D01*
X244437088Y-117398041D01*
X242968468Y-118134449D01*
X241590146Y-118840697D01*
X240367466Y-119483927D01*
X239365773Y-120031282D01*
X238650412Y-120449905D01*
X238286728Y-120706938D01*
X238257325Y-120744328D01*
X238018152Y-120993325D01*
X237480300Y-121432105D01*
X236733567Y-121989886D01*
X236179457Y-122382213D01*
X235200612Y-123113347D01*
X233997247Y-124092974D01*
X232655245Y-125243959D01*
X231260489Y-126489165D01*
X229898862Y-127751458D01*
X228656247Y-128953701D01*
X227618527Y-130018759D01*
X227343818Y-130317939D01*
X226628937Y-131175356D01*
X225748530Y-132333154D01*
X224754430Y-133717071D01*
X223698472Y-135252844D01*
X222632491Y-136866209D01*
X221608323Y-138482904D01*
X221340828Y-138918320D01*
X220800534Y-139762431D01*
X220312590Y-140448910D01*
X219933249Y-140903296D01*
X219728677Y-141052337D01*
X219438644Y-140985254D01*
X219417402Y-140946732D01*
X219523585Y-140735091D01*
X219818310Y-140213251D01*
X220265845Y-139442799D01*
X220830456Y-138485320D01*
X221396896Y-137535078D01*
X222550705Y-135674723D01*
X223688062Y-133994475D01*
X224871576Y-132420366D01*
X226163856Y-130878433D01*
X227627511Y-129294709D01*
X229325149Y-127595229D01*
X231319379Y-125706028D01*
X231736431Y-125320034D01*
X232649101Y-124475738D01*
X233469018Y-123713208D01*
X234125052Y-123098897D01*
X234546069Y-122699253D01*
X234633644Y-122613476D01*
X235168486Y-122155861D01*
X236000545Y-121535290D01*
X237018263Y-120826680D01*
X238110082Y-120104943D01*
X239164445Y-119444996D01*
X240069794Y-118921752D01*
X240347795Y-118776230D01*
X241077574Y-118411259D01*
X242119926Y-117891668D01*
X243358983Y-117275136D01*
X244678872Y-116619342D01*
X245305902Y-116308149D01*
X246505579Y-115697248D01*
X247560167Y-115130558D01*
X248390870Y-114652756D01*
X248918895Y-114308520D01*
X249061876Y-114178498D01*
X249456312Y-113889825D01*
X250204176Y-113599237D01*
X250737585Y-113455219D01*
X251444883Y-113279540D01*
X252515007Y-113000536D01*
X253838610Y-112647332D01*
X255306348Y-112249056D01*
X256521324Y-111914648D01*
X258757861Y-111300813D01*
X260558799Y-110820385D01*
X261957073Y-110465574D01*
X262985616Y-110228592D01*
X263677361Y-110101650D01*
X264065243Y-110076960D01*
X264164710Y-110107039D01*
G37*
G36*
X264208420Y-112418630D02*
G01*
X264240932Y-112486853D01*
X264016312Y-112610636D01*
X263388646Y-112843687D01*
X262427218Y-113163233D01*
X261201314Y-113546498D01*
X259780222Y-113970705D01*
X259322794Y-114103526D01*
X257117715Y-114765176D01*
X255051664Y-115444589D01*
X252975662Y-116195081D01*
X250740729Y-117069967D01*
X248801716Y-117868673D01*
X246471888Y-118863163D01*
X244512743Y-119751560D01*
X242835390Y-120588229D01*
X241350936Y-121427535D01*
X239970489Y-122323841D01*
X238605157Y-123331513D01*
X237166047Y-124504915D01*
X235564268Y-125898412D01*
X235327591Y-126109151D01*
X232305082Y-129026040D01*
X229493875Y-132175076D01*
X226987018Y-135444493D01*
X224996853Y-138518055D01*
X224291986Y-139672708D01*
X223746503Y-140461659D01*
X223342627Y-140908363D01*
X223087662Y-141037095D01*
X222911999Y-140990680D01*
X222903381Y-140791117D01*
X223083638Y-140375819D01*
X223474604Y-139682197D01*
X223681138Y-139335656D01*
X224194689Y-138530821D01*
X224909692Y-137479507D01*
X225773647Y-136252686D01*
X226734052Y-134921328D01*
X227738405Y-133556404D01*
X228734204Y-132228887D01*
X229668949Y-131009745D01*
X230490138Y-129969951D01*
X231145269Y-129180476D01*
X231420409Y-128873771D01*
X232192420Y-128097698D01*
X233195379Y-127151613D01*
X234351750Y-126102638D01*
X235583998Y-125017893D01*
X236814586Y-123964498D01*
X237965981Y-123009574D01*
X238960645Y-122220241D01*
X239721043Y-121663621D01*
X239840816Y-121584437D01*
X241873966Y-120390564D01*
X244316483Y-119149655D01*
X247089013Y-117894864D01*
X250112205Y-116659341D01*
X253306709Y-115476238D01*
X256593171Y-114378706D01*
X258431923Y-113817434D01*
X260294283Y-113274658D01*
X261736428Y-112869566D01*
X262803637Y-112591789D01*
X263541187Y-112430955D01*
X263994355Y-112376692D01*
X264208420Y-112418630D01*
G37*
G36*
X264170149Y-116773881D02*
G01*
X264198875Y-117007234D01*
X263810269Y-117236231D01*
X263082569Y-117415126D01*
X263070121Y-117417092D01*
X262366345Y-117568559D01*
X261296252Y-117850008D01*
X259953739Y-118232255D01*
X258432707Y-118686115D01*
X256827055Y-119182405D01*
X255230683Y-119691939D01*
X253737490Y-120185535D01*
X252441375Y-120634006D01*
X251436238Y-121008169D01*
X251176498Y-121113676D01*
X250381993Y-121452570D01*
X249669092Y-121774174D01*
X248977854Y-122112885D01*
X248248337Y-122503103D01*
X247420601Y-122979225D01*
X246434705Y-123575650D01*
X245230707Y-124326776D01*
X243748667Y-125267002D01*
X242078187Y-126334941D01*
X240266931Y-127500420D01*
X238796836Y-128462403D01*
X237608690Y-129265050D01*
X236643282Y-129952519D01*
X235841398Y-130568972D01*
X235143828Y-131158568D01*
X234491359Y-131765467D01*
X233824778Y-132433830D01*
X233629657Y-132635800D01*
X232880038Y-133476888D01*
X231978121Y-134583294D01*
X231001347Y-135850891D01*
X230027157Y-137175552D01*
X229132991Y-138453149D01*
X228396291Y-139579555D01*
X228104954Y-140064344D01*
X227727608Y-140621518D01*
X227375854Y-140980186D01*
X227211899Y-141053279D01*
X226913114Y-140967914D01*
X226887990Y-140914450D01*
X227006687Y-140647517D01*
X227331264Y-140093894D01*
X227814451Y-139325479D01*
X228408981Y-138414173D01*
X229067582Y-137431876D01*
X229742987Y-136450489D01*
X230387925Y-135541911D01*
X230699849Y-135116323D01*
X231455581Y-134123869D01*
X232183911Y-133232613D01*
X232928752Y-132407566D01*
X233734016Y-131613737D01*
X234643617Y-130816138D01*
X235701465Y-129979778D01*
X236951475Y-129069668D01*
X238437559Y-128050818D01*
X240203629Y-126888239D01*
X242293598Y-125546940D01*
X244319363Y-124264259D01*
X245946911Y-123249011D01*
X247334954Y-122419051D01*
X248581591Y-121729934D01*
X249784921Y-121137214D01*
X251043043Y-120596447D01*
X252454057Y-120063185D01*
X254116062Y-119492985D01*
X256127157Y-118841401D01*
X256668401Y-118669324D01*
X258052266Y-118245305D01*
X259467686Y-117837642D01*
X260832950Y-117466981D01*
X262066346Y-117153970D01*
X263086163Y-116919252D01*
X263810690Y-116783474D01*
X264158213Y-116767283D01*
X264170149Y-116773881D01*
G37*
G36*
X264240717Y-118029098D02*
G01*
X264240932Y-118044489D01*
X264189175Y-118266319D01*
X263976317Y-118445725D01*
X263515970Y-118617165D01*
X262721750Y-118815097D01*
X261826248Y-119007675D01*
X260676568Y-119326217D01*
X259261272Y-119836613D01*
X257712985Y-120480667D01*
X256164332Y-121200186D01*
X254747937Y-121936975D01*
X253657598Y-122591996D01*
X253094126Y-122956944D01*
X252234018Y-123503817D01*
X251181131Y-124167014D01*
X250039319Y-124880936D01*
X249673285Y-125108667D01*
X246356396Y-127229647D01*
X243448536Y-129222842D01*
X240902319Y-131127119D01*
X238670362Y-132981343D01*
X236705280Y-134824382D01*
X234959691Y-136695101D01*
X233729411Y-138186462D01*
X232960418Y-139145297D01*
X232263614Y-139967801D01*
X231691643Y-140595389D01*
X231297153Y-140969478D01*
X231156936Y-141049167D01*
X230931260Y-140907741D01*
X230957769Y-140750979D01*
X231275053Y-140231705D01*
X231847525Y-139459166D01*
X232615063Y-138502417D01*
X233517544Y-137430511D01*
X234494846Y-136312499D01*
X235486848Y-135217435D01*
X236433427Y-134214372D01*
X237274461Y-133372364D01*
X237815916Y-132874082D01*
X240137207Y-130971686D01*
X242866795Y-128931850D01*
X245958179Y-126786840D01*
X249364860Y-124568924D01*
X253035049Y-122313527D01*
X254203829Y-121649228D01*
X255518643Y-120958434D01*
X256896435Y-120278800D01*
X258254147Y-119647978D01*
X259508722Y-119103623D01*
X260577102Y-118683386D01*
X261376230Y-118424922D01*
X261756273Y-118359836D01*
X262252596Y-118292764D01*
X262970590Y-118125166D01*
X263213545Y-118056777D01*
X263857871Y-117886246D01*
X264161194Y-117877487D01*
X264240717Y-118029098D01*
G37*
G36*
X264240199Y-120752495D02*
G01*
X264240932Y-120767480D01*
X264030469Y-120979393D01*
X263460781Y-121315937D01*
X262624418Y-121726482D01*
X261937500Y-122027577D01*
X260687746Y-122564561D01*
X259344501Y-123162755D01*
X258136086Y-123719867D01*
X257766422Y-123896285D01*
X256742365Y-124447180D01*
X255425692Y-125241118D01*
X253882039Y-126231888D01*
X252177044Y-127373277D01*
X250376343Y-128619071D01*
X248545574Y-129923057D01*
X246750371Y-131239023D01*
X245056374Y-132520756D01*
X243529217Y-133722043D01*
X242234538Y-134796671D01*
X242020347Y-134982630D01*
X241077260Y-135845386D01*
X240074709Y-136824628D01*
X239085139Y-137842959D01*
X238180993Y-138822981D01*
X237434716Y-139687297D01*
X236918751Y-140358511D01*
X236776647Y-140584836D01*
X236407944Y-140946425D01*
X236054156Y-141053279D01*
X235875273Y-140998720D01*
X235897783Y-140796896D01*
X236150833Y-140390582D01*
X236663572Y-139722555D01*
X236850783Y-139489316D01*
X238272712Y-137827561D01*
X239845383Y-136190714D01*
X241609438Y-134545902D01*
X243605519Y-132860255D01*
X245874270Y-131100900D01*
X248456333Y-129234967D01*
X251392350Y-127229584D01*
X254617746Y-125119498D01*
X256007736Y-124262739D01*
X257450497Y-123438726D01*
X258889038Y-122673232D01*
X260266369Y-121992031D01*
X261525499Y-121420896D01*
X262609438Y-120985602D01*
X263461194Y-120711921D01*
X264023778Y-120625628D01*
X264240199Y-120752495D01*
G37*
G36*
X264230546Y-123513361D02*
G01*
X264231612Y-123534630D01*
X264062832Y-123690627D01*
X263555316Y-124021309D01*
X262692326Y-124536466D01*
X261457122Y-125245883D01*
X259832963Y-126159351D01*
X258015441Y-127169217D01*
X256796139Y-127862705D01*
X255529100Y-128614745D01*
X254382271Y-129324102D01*
X253674511Y-129785845D01*
X252847172Y-130392703D01*
X251778766Y-131245493D01*
X250536513Y-132284028D01*
X249187630Y-133448121D01*
X247799338Y-134677585D01*
X246438855Y-135912233D01*
X245173401Y-137091878D01*
X244070194Y-138156332D01*
X243196453Y-139045409D01*
X242660162Y-139647951D01*
X242090864Y-140301120D01*
X241586884Y-140792733D01*
X241236202Y-141039439D01*
X241176831Y-141053279D01*
X240864573Y-140962187D01*
X240833089Y-140897062D01*
X241003232Y-140558203D01*
X241487689Y-139963494D01*
X242247495Y-139150586D01*
X243243687Y-138157133D01*
X244437303Y-137020789D01*
X245789378Y-135779207D01*
X247260950Y-134470040D01*
X248813057Y-133130941D01*
X249263170Y-132750373D01*
X250916419Y-131369059D01*
X252292486Y-130245204D01*
X253454262Y-129332057D01*
X254464636Y-128582864D01*
X255386498Y-127950875D01*
X256282737Y-127389337D01*
X257143873Y-126891867D01*
X258318633Y-126229370D01*
X259482697Y-125563070D01*
X260500347Y-124971222D01*
X261226235Y-124537981D01*
X261986783Y-124125425D01*
X262778025Y-123779783D01*
X263489423Y-123537956D01*
X264010442Y-123436848D01*
X264230546Y-123513361D01*
G37*
G36*
X264231601Y-126423262D02*
G01*
X264025107Y-126679376D01*
X263429986Y-127148719D01*
X262471877Y-127813388D01*
X261176422Y-128655479D01*
X259827610Y-129498361D01*
X257794566Y-130805252D01*
X255715742Y-132241574D01*
X253664340Y-133749718D01*
X251713562Y-135272078D01*
X249936610Y-136751047D01*
X248406685Y-138129017D01*
X247196989Y-139348381D01*
X246930446Y-139647951D01*
X246335200Y-140294948D01*
X245814645Y-140784627D01*
X245457187Y-141036234D01*
X245391923Y-141053279D01*
X245091954Y-140975210D01*
X245066422Y-140925886D01*
X245227836Y-140644965D01*
X245674388Y-140116453D01*
X246349545Y-139395712D01*
X247196773Y-138538105D01*
X248159539Y-137598997D01*
X249181310Y-136633749D01*
X250205551Y-135697726D01*
X251175729Y-134846291D01*
X251845762Y-134286885D01*
X252786659Y-133555991D01*
X253918381Y-132728307D01*
X255188657Y-131837019D01*
X256545214Y-130915315D01*
X257935780Y-129996381D01*
X259308085Y-129113404D01*
X260609855Y-128299570D01*
X261788819Y-127588068D01*
X262792706Y-127012083D01*
X263569243Y-126604802D01*
X264066158Y-126399411D01*
X264231601Y-126423262D01*
G37*
G36*
X264191751Y-128329170D02*
G01*
X264234820Y-128785575D01*
X264236153Y-128925820D01*
X264212246Y-129260883D01*
X264102736Y-129550308D01*
X263843997Y-129855374D01*
X263372401Y-130237364D01*
X262624322Y-130757558D01*
X261696192Y-131372131D01*
X259859501Y-132636852D01*
X257972685Y-134040400D01*
X256131616Y-135504503D01*
X254432164Y-136950888D01*
X252970200Y-138301282D01*
X252038971Y-139256678D01*
X250420343Y-141030703D01*
X247990829Y-141053279D01*
X248583037Y-140447557D01*
X248976737Y-140044584D01*
X249596573Y-139409818D01*
X250353845Y-138634107D01*
X251073144Y-137897148D01*
X253529690Y-135575536D01*
X256328063Y-133272810D01*
X259325174Y-131102807D01*
X260931265Y-130054251D01*
X261992025Y-129393404D01*
X262909563Y-128831722D01*
X263611963Y-128412452D01*
X264027306Y-128178839D01*
X264106265Y-128145082D01*
X264191751Y-128329170D01*
G37*
G36*
X94867519Y-138661735D02*
G01*
X94869126Y-138878032D01*
X94630296Y-139243165D01*
X94448032Y-139342381D01*
X94200619Y-139280888D01*
X94199012Y-139064591D01*
X94437842Y-138699458D01*
X94620106Y-138600242D01*
X94867519Y-138661735D01*
G37*
G36*
X144059984Y-113602209D02*
G01*
X143914148Y-113420968D01*
X143935767Y-113405811D01*
X144286734Y-113415094D01*
X144999594Y-113503801D01*
X145951641Y-113655271D01*
X146516360Y-113756247D01*
X147592494Y-113948576D01*
X149004893Y-114190416D01*
X150599983Y-114456008D01*
X152224194Y-114719595D01*
X152903764Y-114827555D01*
X155203579Y-115209966D01*
X157151415Y-115586885D01*
X158890592Y-115996426D01*
X160564432Y-116476702D01*
X162316257Y-117065827D01*
X164289387Y-117801916D01*
X164728109Y-117972043D01*
X167001928Y-118891590D01*
X168919793Y-119749483D01*
X170601426Y-120607437D01*
X172166551Y-121527168D01*
X173734891Y-122570390D01*
X173971324Y-122736739D01*
X175194390Y-123647342D01*
X176650115Y-124803244D01*
X178252233Y-126129923D01*
X179914480Y-127552854D01*
X181550590Y-128997517D01*
X183074300Y-130389386D01*
X184399345Y-131653939D01*
X185052696Y-132309814D01*
X186057107Y-133318717D01*
X187169062Y-134394923D01*
X188244176Y-135400683D01*
X189037010Y-136111029D01*
X189807078Y-136780425D01*
X190443117Y-137334748D01*
X190869427Y-137707935D01*
X191008415Y-137831496D01*
X191016072Y-137920793D01*
X190731777Y-137908938D01*
X190127849Y-137788964D01*
X189176607Y-137553904D01*
X187850369Y-137196789D01*
X186121455Y-136710652D01*
X183962184Y-136088526D01*
X183185049Y-135862284D01*
X179861593Y-134864336D01*
X176943998Y-133922521D01*
X174351276Y-133005207D01*
X172002438Y-132080760D01*
X169816496Y-131117547D01*
X167712462Y-130083935D01*
X165900693Y-129111234D01*
X164803607Y-128486917D01*
X163805742Y-127882400D01*
X162835296Y-127246450D01*
X161820466Y-126527832D01*
X160689450Y-125675314D01*
X159370445Y-124637663D01*
X157791649Y-123363644D01*
X157410506Y-123053228D01*
X154345190Y-120605735D01*
X151565465Y-118495381D01*
X149068272Y-116719974D01*
X146850552Y-115277324D01*
X145243672Y-114343974D01*
X145143050Y-114285488D01*
X146511975Y-114285488D01*
X146784434Y-114562808D01*
X147418076Y-115040707D01*
X148429743Y-115732028D01*
X149608975Y-116503189D01*
X150551673Y-117143654D01*
X151754812Y-118009850D01*
X153126757Y-119033003D01*
X154575871Y-120144336D01*
X156010517Y-121275072D01*
X156602727Y-121752223D01*
X158433178Y-123231166D01*
X159973876Y-124457461D01*
X161285092Y-125474677D01*
X162427096Y-126326382D01*
X163460161Y-127056144D01*
X164444555Y-127707532D01*
X165440551Y-128324114D01*
X166508418Y-128949458D01*
X166749755Y-129087288D01*
X168435244Y-129972196D01*
X170463167Y-130918073D01*
X172697711Y-131869673D01*
X175003062Y-132771750D01*
X177243407Y-133569059D01*
X179282931Y-134206353D01*
X179449755Y-134253348D01*
X180822711Y-134650515D01*
X182437634Y-135139720D01*
X184076264Y-135653854D01*
X185301716Y-136052685D01*
X186461708Y-136434348D01*
X187455603Y-136753325D01*
X188191977Y-136980870D01*
X188579409Y-137088236D01*
X188609987Y-137092921D01*
X188663253Y-136945506D01*
X188536880Y-136677881D01*
X188233272Y-136300534D01*
X187718037Y-135747290D01*
X187220765Y-135252753D01*
X186652356Y-134690224D01*
X185880445Y-133903217D01*
X185006669Y-132996342D01*
X184138048Y-132079937D01*
X182961087Y-130893804D01*
X181535789Y-129565439D01*
X179934065Y-128153080D01*
X178227826Y-126714963D01*
X176488982Y-125309325D01*
X174789446Y-123994405D01*
X173201128Y-122828438D01*
X171795939Y-121869663D01*
X170734069Y-121224714D01*
X168940058Y-120299580D01*
X166865230Y-119343130D01*
X164654890Y-118414511D01*
X162454343Y-117572873D01*
X160408892Y-116877363D01*
X159154657Y-116511117D01*
X158423971Y-116337214D01*
X157351080Y-116108497D01*
X156022244Y-115840851D01*
X154523722Y-115550163D01*
X152941773Y-115252320D01*
X151362655Y-114963208D01*
X149872628Y-114698714D01*
X148557951Y-114474725D01*
X147504882Y-114307128D01*
X146799681Y-114211809D01*
X146583861Y-114195902D01*
X146511975Y-114285488D01*
X145143050Y-114285488D01*
X144530193Y-113929269D01*
X144059984Y-113602209D01*
G37*
G36*
X264165238Y-63463239D02*
G01*
X264240932Y-63542117D01*
X264017148Y-63676210D01*
X263413437Y-63884735D01*
X262531259Y-64135353D01*
X261812990Y-64315975D01*
X259658663Y-64890454D01*
X257116261Y-65673137D01*
X254220780Y-66652520D01*
X251007211Y-67817098D01*
X249922304Y-68225139D01*
X248609330Y-68729047D01*
X247393799Y-69211017D01*
X246200853Y-69703983D01*
X244955630Y-70240882D01*
X243583271Y-70854649D01*
X242008916Y-71578217D01*
X240157703Y-72444523D01*
X237954773Y-73486502D01*
X237844853Y-73538675D01*
X236165750Y-74320108D01*
X234263818Y-75179850D01*
X232325218Y-76035265D01*
X230536112Y-76803716D01*
X229751716Y-77131188D01*
X228426978Y-77684326D01*
X227230604Y-78197296D01*
X226246126Y-78633229D01*
X225557079Y-78955253D01*
X225269363Y-79109622D01*
X224989357Y-79318535D01*
X225042135Y-79392975D01*
X225495380Y-79363340D01*
X225767402Y-79333298D01*
X228026429Y-79085581D01*
X230075552Y-78881907D01*
X231982426Y-78721241D01*
X233814711Y-78602545D01*
X235640063Y-78524786D01*
X237526139Y-78486927D01*
X239540597Y-78487931D01*
X241751094Y-78526765D01*
X244225287Y-78602391D01*
X247030835Y-78713774D01*
X250235393Y-78859879D01*
X251789951Y-78934932D01*
X254914304Y-79095009D01*
X257556506Y-79246637D01*
X259732309Y-79391170D01*
X261457465Y-79529961D01*
X262747723Y-79664364D01*
X263618836Y-79795732D01*
X264086554Y-79925419D01*
X264178886Y-79999590D01*
X264209609Y-80105316D01*
X264167383Y-80180447D01*
X263994477Y-80223456D01*
X263633156Y-80232816D01*
X263025687Y-80207002D01*
X262114337Y-80144487D01*
X260841371Y-80043745D01*
X259149057Y-79903249D01*
X258510584Y-79849735D01*
X256320371Y-79684378D01*
X253815323Y-79526213D01*
X251100401Y-79379481D01*
X248280569Y-79248422D01*
X245460786Y-79137275D01*
X242746017Y-79050281D01*
X240241221Y-78991680D01*
X238051361Y-78965712D01*
X236724265Y-78969652D01*
X235334616Y-79008979D01*
X233693780Y-79092234D01*
X231904715Y-79210519D01*
X230070377Y-79354934D01*
X228293722Y-79516583D01*
X226677709Y-79686566D01*
X225325293Y-79855985D01*
X224339432Y-80015942D01*
X224148775Y-80056510D01*
X223439682Y-80209159D01*
X223061045Y-80242215D01*
X222866725Y-80156962D01*
X222791575Y-80068424D01*
X222754211Y-79906828D01*
X222897005Y-79709955D01*
X223265182Y-79453646D01*
X223903967Y-79113745D01*
X224858586Y-78666095D01*
X226174262Y-78086539D01*
X227813395Y-77386008D01*
X229237092Y-76771597D01*
X230983194Y-76000391D01*
X232941610Y-75122069D01*
X235002249Y-74186312D01*
X237055021Y-73242798D01*
X238918055Y-72374919D01*
X241461349Y-71205562D01*
X244056493Y-70057785D01*
X246580954Y-68983868D01*
X248912202Y-68036088D01*
X250659698Y-67365230D01*
X252729414Y-66618513D01*
X254774142Y-65917071D01*
X256743616Y-65275053D01*
X258587570Y-64706608D01*
X260255739Y-64225887D01*
X261697856Y-63847040D01*
X262863655Y-63584217D01*
X263702871Y-63451567D01*
X264165238Y-63463239D01*
G37*
G36*
X264222081Y-66068353D02*
G01*
X264239264Y-66150542D01*
X264006713Y-66301675D01*
X263340023Y-66553253D01*
X262283820Y-66891000D01*
X260882727Y-67300640D01*
X259196617Y-67763817D01*
X257032773Y-68361340D01*
X255182520Y-68920021D01*
X253475068Y-69497871D01*
X251739631Y-70152902D01*
X249805420Y-70943128D01*
X249673285Y-70998645D01*
X247822029Y-71787359D01*
X246048291Y-72561581D01*
X244401412Y-73298111D01*
X242930734Y-73973749D01*
X241685599Y-74565294D01*
X240715349Y-75049547D01*
X240069326Y-75403307D01*
X239796874Y-75603374D01*
X239808650Y-75636905D01*
X240170761Y-75637266D01*
X240854292Y-75567491D01*
X241502201Y-75474855D01*
X242265616Y-75386110D01*
X243398068Y-75296197D01*
X244770686Y-75213465D01*
X246254598Y-75146261D01*
X246934069Y-75123013D01*
X248566096Y-75081808D01*
X249867333Y-75076998D01*
X251003956Y-75117660D01*
X252142142Y-75212869D01*
X253448065Y-75371701D01*
X254701325Y-75547224D01*
X256325412Y-75761158D01*
X258073013Y-75957797D01*
X259750810Y-76117323D01*
X261165483Y-76219919D01*
X261362600Y-76230115D01*
X262676286Y-76305710D01*
X263552685Y-76390101D01*
X264052552Y-76492112D01*
X264236639Y-76620566D01*
X264240932Y-76648124D01*
X264061187Y-76885724D01*
X263929657Y-76900070D01*
X263560497Y-76871196D01*
X262818111Y-76816582D01*
X261825577Y-76745204D01*
X261128187Y-76695736D01*
X259708111Y-76577521D01*
X258139348Y-76418973D01*
X256704710Y-76249310D01*
X256361872Y-76203279D01*
X252359101Y-75754554D01*
X248612040Y-75570476D01*
X244991211Y-75651739D01*
X241367134Y-75999036D01*
X239382921Y-76294163D01*
X238105126Y-76504738D01*
X237244401Y-76636393D01*
X236729093Y-76690376D01*
X236487550Y-76667937D01*
X236448120Y-76570323D01*
X236539151Y-76398784D01*
X236574792Y-76343096D01*
X236884433Y-76112312D01*
X237552157Y-75758831D01*
X238481341Y-75329838D01*
X239575362Y-74872514D01*
X239634044Y-74849201D01*
X240913242Y-74326248D01*
X242209133Y-73769210D01*
X243355281Y-73251047D01*
X244070343Y-72904445D01*
X245272319Y-72325156D01*
X246787063Y-71649289D01*
X248506279Y-70920163D01*
X250321668Y-70181096D01*
X252124932Y-69475407D01*
X253807774Y-68846414D01*
X255261894Y-68337436D01*
X256291179Y-68016181D01*
X257629262Y-67638981D01*
X259102053Y-67223558D01*
X260443028Y-66845096D01*
X260754657Y-66757097D01*
X262122850Y-66377600D01*
X263088607Y-66130306D01*
X263717011Y-66003886D01*
X264073142Y-65987011D01*
X264222081Y-66068353D01*
G37*
G36*
X264210751Y-68748973D02*
G01*
X264192582Y-68826189D01*
X263934159Y-68978961D01*
X263299367Y-69224853D01*
X262385776Y-69529024D01*
X261370360Y-69833979D01*
X259998309Y-70238101D01*
X258383431Y-70730958D01*
X256744528Y-71245000D01*
X255525245Y-71638528D01*
X252412500Y-72660656D01*
X255774265Y-72793751D01*
X257491514Y-72876531D01*
X259160469Y-72983983D01*
X260705654Y-73108615D01*
X262051594Y-73242936D01*
X263122812Y-73379452D01*
X263843833Y-73510672D01*
X264135788Y-73623739D01*
X264085086Y-73725214D01*
X263716424Y-73770360D01*
X262991487Y-73757853D01*
X261871958Y-73686369D01*
X260319523Y-73554583D01*
X259260539Y-73455272D01*
X257716815Y-73326479D01*
X256356146Y-73265401D01*
X254982519Y-73270111D01*
X253399917Y-73338681D01*
X252572765Y-73389505D01*
X251288727Y-73463734D01*
X250186392Y-73509499D01*
X249358525Y-73524328D01*
X248897888Y-73505751D01*
X248837862Y-73488964D01*
X248861205Y-73272833D01*
X249330308Y-72994733D01*
X250202461Y-72673916D01*
X251378841Y-72343721D01*
X252241505Y-72108106D01*
X253436294Y-71757019D01*
X254833050Y-71329914D01*
X256301614Y-70866245D01*
X257019363Y-70633939D01*
X258840060Y-70049534D01*
X260488719Y-69540306D01*
X261903837Y-69123966D01*
X263023909Y-68818222D01*
X263787431Y-68640783D01*
X264074919Y-68602410D01*
X264210751Y-68748973D01*
G37*
G36*
X27471770Y-49477068D02*
G01*
X27630437Y-49603257D01*
X27756569Y-49878015D01*
X27861545Y-50354068D01*
X27956743Y-51084142D01*
X28053541Y-52120964D01*
X28163318Y-53517259D01*
X28171718Y-53628967D01*
X28294035Y-55036321D01*
X28465608Y-56706311D01*
X28669449Y-58488881D01*
X28888568Y-60233974D01*
X29061638Y-61489721D01*
X29339656Y-63529890D01*
X29563324Y-65419837D01*
X29730482Y-67122195D01*
X29838972Y-68599599D01*
X29886638Y-69814684D01*
X29871320Y-70730085D01*
X29790860Y-71308434D01*
X29643102Y-71512367D01*
X29640469Y-71512386D01*
X29117548Y-71405016D01*
X29010093Y-71356238D01*
X28760914Y-71092984D01*
X28360423Y-70527424D01*
X27852776Y-69736383D01*
X27282129Y-68796686D01*
X26692640Y-67785157D01*
X26128466Y-66778620D01*
X25633762Y-65853901D01*
X25252686Y-65087825D01*
X25029394Y-64557215D01*
X24991138Y-64363982D01*
X25112264Y-64329114D01*
X25403258Y-64636294D01*
X25872298Y-65296619D01*
X26527562Y-66321184D01*
X26988943Y-67074765D01*
X27636196Y-68126409D01*
X28223048Y-69046893D01*
X28706780Y-69771771D01*
X29044673Y-70236598D01*
X29177265Y-70376095D01*
X29339238Y-70330856D01*
X29357775Y-69930774D01*
X29318694Y-69611986D01*
X29225765Y-68916143D01*
X29119971Y-68017873D01*
X29038134Y-67247541D01*
X28952423Y-66499554D01*
X28818411Y-65461527D01*
X28652649Y-64256271D01*
X28471690Y-63006593D01*
X28420819Y-62667213D01*
X28245281Y-61413405D01*
X28052651Y-59882790D01*
X27859123Y-58214020D01*
X27680890Y-56545752D01*
X27557588Y-55276230D01*
X27431935Y-53932757D01*
X27310444Y-52683475D01*
X27200984Y-51605566D01*
X27111422Y-50776211D01*
X27049630Y-50272593D01*
X27042855Y-50227459D01*
X27009809Y-49687237D01*
X27155111Y-49464448D01*
X27269190Y-49446722D01*
X27471770Y-49477068D01*
G37*
G36*
X25784777Y-57254099D02*
G01*
X26154404Y-58751305D01*
X26432492Y-59889884D01*
X26628718Y-60718911D01*
X26752760Y-61287461D01*
X26814298Y-61644611D01*
X26823009Y-61839437D01*
X26788571Y-61921013D01*
X26720663Y-61938416D01*
X26708595Y-61938525D01*
X26400227Y-61799238D01*
X26117070Y-61574181D01*
X25652887Y-61041564D01*
X25321513Y-60404370D01*
X25105198Y-59589563D01*
X24986190Y-58524110D01*
X24946739Y-57134978D01*
X24947061Y-56760230D01*
X24961034Y-53922951D01*
X25784777Y-57254099D01*
G37*
G36*
X156358009Y-117822491D02*
G01*
X157085528Y-117984795D01*
X158119969Y-118266338D01*
X159540248Y-118681284D01*
X159558701Y-118686758D01*
X163498109Y-119989715D01*
X167048272Y-121442022D01*
X170182840Y-123030999D01*
X172875462Y-124743966D01*
X174095834Y-125682479D01*
X175078194Y-126509444D01*
X176124489Y-127418609D01*
X177177868Y-128357309D01*
X178181480Y-129272880D01*
X179078474Y-130112657D01*
X179812000Y-130823975D01*
X180325205Y-131354172D01*
X180561239Y-131650581D01*
X180570343Y-131680195D01*
X180469713Y-131829418D01*
X180129023Y-131854150D01*
X179490071Y-131745327D01*
X178494658Y-131493887D01*
X177424408Y-131190327D01*
X176238405Y-130811046D01*
X175055121Y-130376391D01*
X174075966Y-129962027D01*
X173818789Y-129835810D01*
X172163450Y-128920789D01*
X170270156Y-127781742D01*
X168251258Y-126490627D01*
X166219111Y-125119398D01*
X164286065Y-123740012D01*
X164189609Y-123668853D01*
X162558656Y-122474362D01*
X161215008Y-121519017D01*
X160084477Y-120755541D01*
X159092873Y-120136657D01*
X158166008Y-119615088D01*
X157427493Y-119243171D01*
X158875782Y-119243171D01*
X158953775Y-119381176D01*
X159387668Y-119675557D01*
X159737071Y-119886978D01*
X160330783Y-120269421D01*
X161196448Y-120865398D01*
X162238564Y-121607375D01*
X163361628Y-122427814D01*
X163951983Y-122867590D01*
X167126798Y-125116613D01*
X170721765Y-127418753D01*
X173722304Y-129193687D01*
X174308233Y-129486910D01*
X175156149Y-129860449D01*
X176144042Y-130266557D01*
X177149901Y-130657484D01*
X178051715Y-130985484D01*
X178727475Y-131202808D01*
X179013971Y-131264531D01*
X179070675Y-131099719D01*
X179076226Y-130982511D01*
X178908173Y-130756102D01*
X178437989Y-130283103D01*
X177716637Y-129610583D01*
X176795082Y-128785608D01*
X175724286Y-127855248D01*
X175278677Y-127475235D01*
X172991321Y-125617367D01*
X170854326Y-124071421D01*
X168773936Y-122786373D01*
X166656394Y-121711201D01*
X164407946Y-120794884D01*
X161934834Y-119986399D01*
X161056228Y-119735343D01*
X159899107Y-119423462D01*
X159181593Y-119258336D01*
X158875782Y-119243171D01*
X157427493Y-119243171D01*
X157229690Y-119143557D01*
X156698391Y-118895089D01*
X155748420Y-118427296D01*
X155256736Y-118102624D01*
X155216098Y-117916218D01*
X155227811Y-117909342D01*
X155508067Y-117798930D01*
X155858494Y-117765257D01*
X156358009Y-117822491D01*
G37*
%TD*%
M02*
