%TF.GenerationSoftware,KiCad,Pcbnew,(7.0.0)*%
%TF.CreationDate,2023-05-29T16:26:44+02:00*%
%TF.ProjectId,the PETER keyboard,74686520-5045-4544-9552-206b6579626f,rev?*%
%TF.SameCoordinates,Original*%
%TF.FileFunction,Paste,Bot*%
%TF.FilePolarity,Positive*%
%FSLAX46Y46*%
G04 Gerber Fmt 4.6, Leading zero omitted, Abs format (unit mm)*
G04 Created by KiCad (PCBNEW (7.0.0)) date 2023-05-29 16:26:44*
%MOMM*%
%LPD*%
G01*
G04 APERTURE LIST*
G04 Aperture macros list*
%AMRoundRect*
0 Rectangle with rounded corners*
0 $1 Rounding radius*
0 $2 $3 $4 $5 $6 $7 $8 $9 X,Y pos of 4 corners*
0 Add a 4 corners polygon primitive as box body*
4,1,4,$2,$3,$4,$5,$6,$7,$8,$9,$2,$3,0*
0 Add four circle primitives for the rounded corners*
1,1,$1+$1,$2,$3*
1,1,$1+$1,$4,$5*
1,1,$1+$1,$6,$7*
1,1,$1+$1,$8,$9*
0 Add four rect primitives between the rounded corners*
20,1,$1+$1,$2,$3,$4,$5,0*
20,1,$1+$1,$4,$5,$6,$7,0*
20,1,$1+$1,$6,$7,$8,$9,0*
20,1,$1+$1,$8,$9,$2,$3,0*%
G04 Aperture macros list end*
%ADD10R,2.550000X2.500000*%
%ADD11R,1.100000X1.100000*%
%ADD12RoundRect,0.135000X0.185000X-0.135000X0.185000X0.135000X-0.185000X0.135000X-0.185000X-0.135000X0*%
%ADD13RoundRect,0.135000X-0.185000X0.135000X-0.185000X-0.135000X0.185000X-0.135000X0.185000X0.135000X0*%
%ADD14RoundRect,0.140000X-0.170000X0.140000X-0.170000X-0.140000X0.170000X-0.140000X0.170000X0.140000X0*%
%ADD15RoundRect,0.140000X-0.140000X-0.170000X0.140000X-0.170000X0.140000X0.170000X-0.140000X0.170000X0*%
%ADD16R,0.600000X1.450000*%
%ADD17R,0.300000X1.450000*%
%ADD18RoundRect,0.135000X-0.135000X-0.185000X0.135000X-0.185000X0.135000X0.185000X-0.135000X0.185000X0*%
%ADD19RoundRect,0.140000X0.140000X0.170000X-0.140000X0.170000X-0.140000X-0.170000X0.140000X-0.170000X0*%
%ADD20R,1.800000X1.100000*%
%ADD21RoundRect,0.250000X-0.625000X0.375000X-0.625000X-0.375000X0.625000X-0.375000X0.625000X0.375000X0*%
%ADD22RoundRect,0.140000X0.170000X-0.140000X0.170000X0.140000X-0.170000X0.140000X-0.170000X-0.140000X0*%
%ADD23R,0.700000X1.000000*%
%ADD24R,0.700000X0.600000*%
%ADD25R,1.200000X1.400000*%
%ADD26RoundRect,0.250000X-0.275000X0.275000X-0.275000X-0.275000X0.275000X-0.275000X0.275000X0.275000X0*%
%ADD27RoundRect,0.062500X-0.062500X0.475000X-0.062500X-0.475000X0.062500X-0.475000X0.062500X0.475000X0*%
%ADD28RoundRect,0.062500X-0.475000X0.062500X-0.475000X-0.062500X0.475000X-0.062500X0.475000X0.062500X0*%
G04 APERTURE END LIST*
D10*
%TO.C,MX56*%
X208814999Y-130301999D03*
X221741999Y-127761999D03*
%TD*%
%TO.C,MX51*%
X73001199Y-130301999D03*
X85928199Y-127761999D03*
%TD*%
%TO.C,MX52*%
X111177399Y-130301999D03*
X124104399Y-127761999D03*
%TD*%
%TO.C,MX13*%
X27839999Y-73151999D03*
X40766999Y-70611999D03*
%TD*%
%TO.C,MX37*%
X32589799Y-111251999D03*
X45516799Y-108711999D03*
%TD*%
%TO.C,MX19*%
X142139999Y-73151999D03*
X155066999Y-70611999D03*
%TD*%
%TO.C,MX54*%
X158776999Y-130301999D03*
X171703999Y-127761999D03*
%TD*%
%TO.C,MX7*%
X161008999Y-59181999D03*
X148081999Y-61721999D03*
%TD*%
%TO.C,MX46*%
X208814999Y-111251999D03*
X221741999Y-108711999D03*
%TD*%
%TO.C,MX48*%
X246914999Y-111251999D03*
X259841999Y-108711999D03*
%TD*%
%TO.C,MX14*%
X46889999Y-73151999D03*
X59816999Y-70611999D03*
%TD*%
%TO.C,MX12*%
X246889599Y-54101999D03*
X259816599Y-51561999D03*
%TD*%
%TO.C,MX30*%
X127788999Y-92201999D03*
X140715999Y-89661999D03*
%TD*%
%TO.C,MX15*%
X65939999Y-73151999D03*
X78866999Y-70611999D03*
%TD*%
%TO.C,MX26*%
X51588999Y-92201999D03*
X64515999Y-89661999D03*
%TD*%
%TO.C,MX11*%
X223038999Y-54101999D03*
X235965999Y-51561999D03*
%TD*%
%TO.C,MX45*%
X189764999Y-111251999D03*
X202691999Y-108711999D03*
%TD*%
%TO.C,MX18*%
X123089999Y-73151999D03*
X136016999Y-70611999D03*
%TD*%
%TO.C,MX32*%
X165888999Y-92201999D03*
X178815999Y-89661999D03*
%TD*%
%TO.C,MX22*%
X199289999Y-73151999D03*
X212216999Y-70611999D03*
%TD*%
%TO.C,MX35*%
X223038999Y-92201999D03*
X235965999Y-89661999D03*
%TD*%
%TO.C,MX27*%
X70638999Y-92201999D03*
X83565999Y-89661999D03*
%TD*%
%TO.C,MX43*%
X151664999Y-111251999D03*
X164591999Y-108711999D03*
%TD*%
%TO.C,MX3*%
X70638999Y-54101999D03*
X83565999Y-51561999D03*
%TD*%
%TO.C,MX33*%
X184938999Y-92201999D03*
X197865999Y-89661999D03*
%TD*%
%TO.C,MX50*%
X51563599Y-130301999D03*
X64490599Y-127761999D03*
%TD*%
%TO.C,MX47*%
X227864999Y-111251999D03*
X240791999Y-108711999D03*
%TD*%
%TO.C,MX28*%
X89688999Y-92201999D03*
X102615999Y-89661999D03*
%TD*%
%TO.C,MX6*%
X141958999Y-59181999D03*
X129031999Y-61721999D03*
%TD*%
%TO.C,MX49*%
X30125999Y-130301999D03*
X43052999Y-127761999D03*
%TD*%
%TO.C,MX10*%
X203988999Y-54101999D03*
X216915999Y-51561999D03*
%TD*%
%TO.C,MX8*%
X165888999Y-54101999D03*
X178815999Y-51561999D03*
%TD*%
%TO.C,MX9*%
X184938999Y-54101999D03*
X197865999Y-51561999D03*
%TD*%
%TO.C,MX42*%
X132614999Y-111251999D03*
X145541999Y-108711999D03*
%TD*%
%TO.C,MX24*%
X242139799Y-73151999D03*
X255066799Y-70611999D03*
%TD*%
%TO.C,MX20*%
X161189999Y-73151999D03*
X174116999Y-70611999D03*
%TD*%
%TO.C,MX1*%
X27839999Y-54101999D03*
X40766999Y-51561999D03*
%TD*%
%TO.C,MX16*%
X84989999Y-73151999D03*
X97916999Y-70611999D03*
%TD*%
%TO.C,MX38*%
X56414999Y-111251999D03*
X69341999Y-108711999D03*
%TD*%
%TO.C,MX31*%
X146838999Y-92201999D03*
X159765999Y-89661999D03*
%TD*%
%TO.C,MX53*%
X142139999Y-130301999D03*
X155066999Y-127761999D03*
%TD*%
%TO.C,MX29*%
X108738999Y-92201999D03*
X121665999Y-89661999D03*
%TD*%
%TO.C,MX39*%
X75464999Y-111251999D03*
X88391999Y-108711999D03*
%TD*%
%TO.C,MX55*%
X189764999Y-130301999D03*
X202691999Y-127761999D03*
%TD*%
%TO.C,MX40*%
X94514999Y-111251999D03*
X107441999Y-108711999D03*
%TD*%
%TO.C,MX21*%
X180239999Y-73151999D03*
X193166999Y-70611999D03*
%TD*%
%TO.C,MX5*%
X108738999Y-54101999D03*
X121665999Y-51561999D03*
%TD*%
%TO.C,MX44*%
X170714999Y-111251999D03*
X183641999Y-108711999D03*
%TD*%
%TO.C,MX36*%
X244476599Y-92201999D03*
X257403599Y-89661999D03*
%TD*%
%TO.C,MX4*%
X89688999Y-54101999D03*
X102615999Y-51561999D03*
%TD*%
%TO.C,MX25*%
X30151399Y-92201999D03*
X43078399Y-89661999D03*
%TD*%
%TO.C,MX17*%
X104039999Y-73151999D03*
X116966999Y-70611999D03*
%TD*%
%TO.C,MX41*%
X113564999Y-111251999D03*
X126491999Y-108711999D03*
%TD*%
%TO.C,MX34*%
X203988999Y-92201999D03*
X216915999Y-89661999D03*
%TD*%
%TO.C,MX58*%
X246914999Y-130301999D03*
X259841999Y-127761999D03*
%TD*%
%TO.C,MX2*%
X51652499Y-54101999D03*
X64579499Y-51561999D03*
%TD*%
%TO.C,MX57*%
X227864999Y-130301999D03*
X240791999Y-127761999D03*
%TD*%
%TO.C,MX23*%
X218339999Y-73151999D03*
X231266999Y-70611999D03*
%TD*%
D11*
%TO.C,D40*%
X104662999Y-116349999D03*
X104662999Y-113549999D03*
%TD*%
%TO.C,D28*%
X99900499Y-97299999D03*
X99900499Y-94499999D03*
%TD*%
D12*
%TO.C,R_reset1*%
X154178000Y-99824000D03*
X154178000Y-98804000D03*
%TD*%
D11*
%TO.C,D21*%
X190499999Y-78399999D03*
X190499999Y-75599999D03*
%TD*%
D13*
%TO.C,R_USB2*%
X147200000Y-55446200D03*
X147200000Y-56466200D03*
%TD*%
D11*
%TO.C,D26*%
X61800499Y-97299999D03*
X61800499Y-94499999D03*
%TD*%
%TO.C,D9*%
X195262499Y-59349999D03*
X195262499Y-56549999D03*
%TD*%
%TO.C,D50*%
X61599999Y-135399999D03*
X61599999Y-132599999D03*
%TD*%
%TO.C,D44*%
X180862999Y-116349999D03*
X180862999Y-113549999D03*
%TD*%
%TO.C,D45*%
X199912999Y-116349999D03*
X199912999Y-113549999D03*
%TD*%
%TO.C,D17*%
X114299999Y-78399999D03*
X114299999Y-75599999D03*
%TD*%
%TO.C,D52*%
X121331799Y-135399999D03*
X121331799Y-132599999D03*
%TD*%
%TO.C,D58*%
X257062999Y-135399999D03*
X257062999Y-132599999D03*
%TD*%
D13*
%TO.C,R_HWB/PE2*%
X146812000Y-110869000D03*
X146812000Y-111889000D03*
%TD*%
D11*
%TO.C,D38*%
X66562999Y-116349999D03*
X66562999Y-113549999D03*
%TD*%
D14*
%TO.C,C_Decoupler1*%
X151638000Y-108295795D03*
X151638000Y-109255795D03*
%TD*%
D15*
%TO.C,C_crystal2*%
X161318000Y-96558100D03*
X162278000Y-96558100D03*
%TD*%
D11*
%TO.C,D35*%
X233250499Y-97299999D03*
X233250499Y-94499999D03*
%TD*%
D16*
%TO.C,J1*%
X141149999Y-53066999D03*
X141949999Y-53066999D03*
D17*
X143149999Y-53066999D03*
X144149999Y-53066999D03*
X144649999Y-53066999D03*
X145649999Y-53066999D03*
D16*
X146849999Y-53066999D03*
X147649999Y-53066999D03*
X147649999Y-53066999D03*
X146849999Y-53066999D03*
D17*
X146149999Y-53066999D03*
X145149999Y-53066999D03*
X143649999Y-53066999D03*
X142649999Y-53066999D03*
D16*
X141949999Y-53066999D03*
X141149999Y-53066999D03*
%TD*%
D11*
%TO.C,D23*%
X228599999Y-78431799D03*
X228599999Y-75631799D03*
%TD*%
%TO.C,D42*%
X142762999Y-116349999D03*
X142762999Y-113549999D03*
%TD*%
%TO.C,D47*%
X238012999Y-116349999D03*
X238012999Y-113549999D03*
%TD*%
%TO.C,D4*%
X100012499Y-59349999D03*
X100012499Y-56549999D03*
%TD*%
%TO.C,D3*%
X80962499Y-59349999D03*
X80962499Y-56549999D03*
%TD*%
D18*
%TO.C,R_USB3*%
X143469900Y-97586800D03*
X144489900Y-97586800D03*
%TD*%
D13*
%TO.C,R_USB1*%
X141600000Y-55420800D03*
X141600000Y-56440800D03*
%TD*%
D11*
%TO.C,D27*%
X80850499Y-97299999D03*
X80850499Y-94499999D03*
%TD*%
%TO.C,D12*%
X243681299Y-59349999D03*
X243681299Y-56549999D03*
%TD*%
D19*
%TO.C,C_Decoupler2*%
X143824900Y-105664000D03*
X142864900Y-105664000D03*
%TD*%
D11*
%TO.C,D1*%
X44576999Y-59349999D03*
X44576999Y-56549999D03*
%TD*%
%TO.C,D37*%
X42750499Y-116349999D03*
X42750499Y-113549999D03*
%TD*%
D20*
%TO.C,SW2*%
X169787499Y-82287499D03*
X163587499Y-85987499D03*
X169787499Y-85987499D03*
X163587499Y-82287499D03*
%TD*%
D11*
%TO.C,D39*%
X85612999Y-116349999D03*
X85612999Y-113549999D03*
%TD*%
D18*
%TO.C,R_USB4*%
X143469900Y-96520000D03*
X144489900Y-96520000D03*
%TD*%
D11*
%TO.C,D11*%
X233362499Y-59349999D03*
X233362499Y-56549999D03*
%TD*%
%TO.C,D51*%
X83199999Y-135399999D03*
X83199999Y-132599999D03*
%TD*%
D21*
%TO.C,F_USBC1*%
X147600000Y-64600000D03*
X147600000Y-67400000D03*
%TD*%
D13*
%TO.C,R_USBSHIELD1*%
X138112500Y-53465000D03*
X138112500Y-54485000D03*
%TD*%
D11*
%TO.C,D33*%
X195150499Y-97299999D03*
X195150499Y-94499999D03*
%TD*%
%TO.C,D7*%
X157098999Y-52447999D03*
X157098999Y-55247999D03*
%TD*%
%TO.C,D41*%
X123712999Y-116349999D03*
X123712999Y-113549999D03*
%TD*%
%TO.C,D43*%
X161812999Y-116349999D03*
X161812999Y-113549999D03*
%TD*%
D22*
%TO.C,C_UCAP1*%
X145846800Y-95933200D03*
X145846800Y-94973200D03*
%TD*%
D11*
%TO.C,D57*%
X238012999Y-135399999D03*
X238012999Y-132599999D03*
%TD*%
D19*
%TO.C,C_Decoupler5*%
X144409100Y-99034600D03*
X143449100Y-99034600D03*
%TD*%
D11*
%TO.C,D13*%
X38099999Y-78399999D03*
X38099999Y-75599999D03*
%TD*%
D19*
%TO.C,C_crystal1*%
X162405000Y-103060500D03*
X161445000Y-103060500D03*
%TD*%
D11*
%TO.C,D10*%
X214312499Y-59349999D03*
X214312499Y-56549999D03*
%TD*%
%TO.C,D16*%
X95249999Y-78399999D03*
X95249999Y-75599999D03*
%TD*%
%TO.C,D25*%
X40369299Y-97299999D03*
X40369299Y-94499999D03*
%TD*%
%TO.C,D32*%
X176100499Y-97299999D03*
X176100499Y-94499999D03*
%TD*%
%TO.C,D8*%
X176212499Y-59349999D03*
X176212499Y-56549999D03*
%TD*%
%TO.C,D48*%
X257062999Y-116349999D03*
X257062999Y-113549999D03*
%TD*%
D23*
%TO.C,D59*%
X143271999Y-64249999D03*
D24*
X143271999Y-62549999D03*
X145271999Y-62549999D03*
X145271999Y-64449999D03*
%TD*%
D14*
%TO.C,C_USBSHIELD1*%
X150600000Y-53520000D03*
X150600000Y-54480000D03*
%TD*%
D11*
%TO.C,D56*%
X218962999Y-135399999D03*
X218962999Y-132599999D03*
%TD*%
%TO.C,D30*%
X138000499Y-97299999D03*
X138000499Y-94499999D03*
%TD*%
%TO.C,D22*%
X209549999Y-78399999D03*
X209549999Y-75599999D03*
%TD*%
%TO.C,D53*%
X152287999Y-135399999D03*
X152287999Y-132599999D03*
%TD*%
%TO.C,D34*%
X214200499Y-97299999D03*
X214200499Y-94499999D03*
%TD*%
D25*
%TO.C,Y1*%
X161074999Y-101112499D03*
X161074999Y-98912499D03*
X162774999Y-98912499D03*
X162774999Y-101112499D03*
%TD*%
D11*
%TO.C,D6*%
X131698999Y-52320999D03*
X131698999Y-55120999D03*
%TD*%
%TO.C,D18*%
X133349999Y-78399999D03*
X133349999Y-75599999D03*
%TD*%
D22*
%TO.C,C_Decoupler4*%
X149860000Y-97101600D03*
X149860000Y-96141600D03*
%TD*%
D11*
%TO.C,D19*%
X152399999Y-78399999D03*
X152399999Y-75599999D03*
%TD*%
D15*
%TO.C,C_Decoupler3*%
X154920000Y-100800000D03*
X155880000Y-100800000D03*
%TD*%
D11*
%TO.C,D46*%
X218962999Y-116349999D03*
X218962999Y-113549999D03*
%TD*%
%TO.C,D31*%
X157050499Y-97299999D03*
X157050499Y-94499999D03*
%TD*%
%TO.C,D29*%
X118950499Y-97299999D03*
X118950499Y-94499999D03*
%TD*%
%TO.C,D54*%
X168956799Y-135399999D03*
X168956799Y-132599999D03*
%TD*%
%TO.C,D2*%
X61912499Y-59349999D03*
X61912499Y-56549999D03*
%TD*%
%TO.C,D5*%
X119062499Y-59349999D03*
X119062499Y-56549999D03*
%TD*%
%TO.C,D24*%
X252412499Y-78399999D03*
X252412499Y-75599999D03*
%TD*%
%TO.C,D20*%
X171449999Y-78399999D03*
X171449999Y-75599999D03*
%TD*%
%TO.C,D36*%
X254681799Y-97299999D03*
X254681799Y-94499999D03*
%TD*%
%TO.C,D14*%
X56999999Y-78399999D03*
X56999999Y-75599999D03*
%TD*%
%TO.C,D49*%
X40399999Y-135399999D03*
X40399999Y-132599999D03*
%TD*%
%TO.C,D55*%
X199912999Y-135399999D03*
X199912999Y-132599999D03*
%TD*%
D26*
%TO.C,U1*%
X151289300Y-100640600D03*
X149989300Y-100640600D03*
X148689300Y-100640600D03*
X147389300Y-100640600D03*
X151289300Y-101940600D03*
X149989300Y-101940600D03*
X148689300Y-101940600D03*
X147389300Y-101940600D03*
X151289300Y-103240600D03*
X149989300Y-103240600D03*
X148689300Y-103240600D03*
X147389300Y-103240600D03*
X151289300Y-104540600D03*
X149989300Y-104540600D03*
X148689300Y-104540600D03*
X147389300Y-104540600D03*
D27*
X146839300Y-99253100D03*
X147339300Y-99253100D03*
X147839300Y-99253100D03*
X148339300Y-99253100D03*
X148839300Y-99253100D03*
X149339300Y-99253100D03*
X149839300Y-99253100D03*
X150339300Y-99253100D03*
X150839300Y-99253100D03*
X151339300Y-99253100D03*
X151839300Y-99253100D03*
D28*
X152676800Y-100090600D03*
X152676800Y-100590600D03*
X152676800Y-101090600D03*
X152676800Y-101590600D03*
X152676800Y-102090600D03*
X152676800Y-102590600D03*
X152676800Y-103090600D03*
X152676800Y-103590600D03*
X152676800Y-104090600D03*
X152676800Y-104590600D03*
X152676800Y-105090600D03*
D27*
X151839300Y-105928100D03*
X151339300Y-105928100D03*
X150839300Y-105928100D03*
X150339300Y-105928100D03*
X149839300Y-105928100D03*
X149339300Y-105928100D03*
X148839300Y-105928100D03*
X148339300Y-105928100D03*
X147839300Y-105928100D03*
X147339300Y-105928100D03*
X146839300Y-105928100D03*
D28*
X146001800Y-105090600D03*
X146001800Y-104590600D03*
X146001800Y-104090600D03*
X146001800Y-103590600D03*
X146001800Y-103090600D03*
X146001800Y-102590600D03*
X146001800Y-102090600D03*
X146001800Y-101590600D03*
X146001800Y-101090600D03*
X146001800Y-100590600D03*
X146001800Y-100090600D03*
%TD*%
D11*
%TO.C,D15*%
X76199999Y-78399999D03*
X76199999Y-75599999D03*
%TD*%
M02*
