%TF.GenerationSoftware,KiCad,Pcbnew,8.0.9*%
%TF.CreationDate,2026-04-06T00:35:34+02:00*%
%TF.ProjectId,the PETER keyboard STM,74686520-5045-4544-9552-206b6579626f,rev?*%
%TF.SameCoordinates,Original*%
%TF.FileFunction,Copper,L1,Top*%
%TF.FilePolarity,Positive*%
%FSLAX46Y46*%
G04 Gerber Fmt 4.6, Leading zero omitted, Abs format (unit mm)*
G04 Created by KiCad (PCBNEW 8.0.9) date 2026-04-06 00:35:34*
%MOMM*%
%LPD*%
G01*
G04 APERTURE LIST*
G04 Aperture macros list*
%AMRoundRect*
0 Rectangle with rounded corners*
0 $1 Rounding radius*
0 $2 $3 $4 $5 $6 $7 $8 $9 X,Y pos of 4 corners*
0 Add a 4 corners polygon primitive as box body*
4,1,4,$2,$3,$4,$5,$6,$7,$8,$9,$2,$3,0*
0 Add four circle primitives for the rounded corners*
1,1,$1+$1,$2,$3*
1,1,$1+$1,$4,$5*
1,1,$1+$1,$6,$7*
1,1,$1+$1,$8,$9*
0 Add four rect primitives between the rounded corners*
20,1,$1+$1,$2,$3,$4,$5,0*
20,1,$1+$1,$4,$5,$6,$7,0*
20,1,$1+$1,$6,$7,$8,$9,0*
20,1,$1+$1,$8,$9,$2,$3,0*%
G04 Aperture macros list end*
%TA.AperFunction,ComponentPad*%
%ADD10C,2.000000*%
%TD*%
%TA.AperFunction,ComponentPad*%
%ADD11RoundRect,0.500000X0.500000X-0.500000X0.500000X0.500000X-0.500000X0.500000X-0.500000X-0.500000X0*%
%TD*%
%TA.AperFunction,ComponentPad*%
%ADD12RoundRect,0.550000X0.550000X-1.150000X0.550000X1.150000X-0.550000X1.150000X-0.550000X-1.150000X0*%
%TD*%
%TA.AperFunction,ComponentPad*%
%ADD13C,4.000000*%
%TD*%
%TA.AperFunction,ComponentPad*%
%ADD14C,3.300000*%
%TD*%
%TA.AperFunction,ComponentPad*%
%ADD15O,1.000000X1.600000*%
%TD*%
%TA.AperFunction,ComponentPad*%
%ADD16O,1.000000X2.100000*%
%TD*%
%TA.AperFunction,ViaPad*%
%ADD17C,0.800000*%
%TD*%
%TA.AperFunction,Conductor*%
%ADD18C,0.250000*%
%TD*%
%TA.AperFunction,Conductor*%
%ADD19C,0.350000*%
%TD*%
%TA.AperFunction,Conductor*%
%ADD20C,0.500000*%
%TD*%
G04 APERTURE END LIST*
D10*
%TO.P,SW1,A,A*%
%TO.N,ROTARY_A*%
X30837500Y-56712500D03*
%TO.P,SW1,B,B*%
%TO.N,ROTARY_B*%
X35837500Y-56712500D03*
D11*
%TO.P,SW1,C,C*%
%TO.N,GND*%
X33337500Y-56712500D03*
D12*
%TO.P,SW1,MP*%
%TO.N,N/C*%
X27737500Y-49212500D03*
X38937500Y-49212500D03*
D10*
%TO.P,SW1,S1,S1*%
%TO.N,Net-(D1-A)*%
X35837500Y-42212500D03*
%TO.P,SW1,S2,S2*%
%TO.N,COL0*%
X30837500Y-42212500D03*
%TD*%
D13*
%TO.P,S2,*%
%TO.N,*%
X176212500Y-132397500D03*
X152400000Y-132397500D03*
%TD*%
%TO.P,S3,*%
%TO.N,*%
X128587500Y-132397500D03*
X104775000Y-132397500D03*
%TD*%
D10*
%TO.P,SW12,A,A*%
%TO.N,ROTARY_D*%
X249785500Y-56712500D03*
%TO.P,SW12,B,B*%
%TO.N,ROTARY_C*%
X254785500Y-56712500D03*
D11*
%TO.P,SW12,C,C*%
%TO.N,GND*%
X252285500Y-56712500D03*
D12*
%TO.P,SW12,MP*%
%TO.N,N/C*%
X246685500Y-49212500D03*
X257885500Y-49212500D03*
D10*
%TO.P,SW12,S1,S1*%
%TO.N,Net-(D12-A)*%
X254785500Y-42212500D03*
%TO.P,SW12,S2,S2*%
%TO.N,COL11*%
X249785500Y-42212500D03*
%TD*%
D13*
%TO.P,S1,*%
%TO.N,*%
X195262500Y-132397500D03*
X100012500Y-132397500D03*
%TD*%
D14*
%TO.P,MX56,1,COL*%
%TO.N,COL9*%
X210502500Y-122872500D03*
%TO.P,MX56,2,ROW*%
%TO.N,Net-(D56-A)*%
X216852500Y-120332500D03*
%TD*%
%TO.P,MX51,1,COL*%
%TO.N,COL2*%
X74688700Y-122872500D03*
%TO.P,MX51,2,ROW*%
%TO.N,Net-(D51-A)*%
X81038700Y-120332500D03*
%TD*%
%TO.P,MX52,1,COL*%
%TO.N,COL4*%
X112864900Y-122872500D03*
%TO.P,MX52,2,ROW*%
%TO.N,Net-(D52-A)*%
X119214900Y-120332500D03*
%TD*%
%TO.P,MX13,1,COL*%
%TO.N,COL0*%
X29527500Y-65722500D03*
%TO.P,MX13,2,ROW*%
%TO.N,Net-(D13-A)*%
X35877500Y-63182500D03*
%TD*%
D15*
%TO.P,J3,S1,SHIELD*%
%TO.N,GND*%
X138492500Y-40542500D03*
D16*
X138492500Y-44722500D03*
D15*
X147132500Y-40542500D03*
D16*
X147132500Y-44722500D03*
%TD*%
D14*
%TO.P,MX37,1,COL*%
%TO.N,COL0*%
X34277300Y-103822500D03*
%TO.P,MX37,2,ROW*%
%TO.N,Net-(D37-A)*%
X40627300Y-101282500D03*
%TD*%
%TO.P,MX19,1,COL*%
%TO.N,COL6*%
X143827500Y-65722500D03*
%TO.P,MX19,2,ROW*%
%TO.N,Net-(D19-A)*%
X150177500Y-63182500D03*
%TD*%
%TO.P,MX54,1,COL*%
%TO.N,COL7*%
X160464500Y-122872500D03*
%TO.P,MX54,2,ROW*%
%TO.N,Net-(D54-A)*%
X166814500Y-120332500D03*
%TD*%
%TO.P,MX7,1,COL*%
%TO.N,COL6*%
X156146500Y-51752500D03*
%TO.P,MX7,2,ROW*%
%TO.N,Net-(D7-A)*%
X149796500Y-54292500D03*
%TD*%
%TO.P,MX46,1,COL*%
%TO.N,COL9*%
X210502500Y-103822500D03*
%TO.P,MX46,2,ROW*%
%TO.N,Net-(D46-A)*%
X216852500Y-101282500D03*
%TD*%
%TO.P,MX48,1,COL*%
%TO.N,COL11*%
X248602500Y-103822500D03*
%TO.P,MX48,2,ROW*%
%TO.N,Net-(D48-A)*%
X254952500Y-101282500D03*
%TD*%
%TO.P,MX14,1,COL*%
%TO.N,COL1*%
X48577500Y-65722500D03*
%TO.P,MX14,2,ROW*%
%TO.N,Net-(D14-A)*%
X54927500Y-63182500D03*
%TD*%
%TO.P,MX12,1,COL*%
%TO.N,COL11*%
X248577100Y-46672500D03*
%TO.P,MX12,2,ROW*%
%TO.N,Net-(D12-A)*%
X254927100Y-44132500D03*
%TD*%
%TO.P,MX30,1,COL*%
%TO.N,COL5*%
X129476500Y-84772500D03*
%TO.P,MX30,2,ROW*%
%TO.N,Net-(D30-A)*%
X135826500Y-82232500D03*
%TD*%
%TO.P,MX15,1,COL*%
%TO.N,COL2*%
X67627500Y-65722500D03*
%TO.P,MX15,2,ROW*%
%TO.N,Net-(D15-A)*%
X73977500Y-63182500D03*
%TD*%
%TO.P,MX26,1,COL*%
%TO.N,COL1*%
X53276500Y-84772500D03*
%TO.P,MX26,2,ROW*%
%TO.N,Net-(D26-A)*%
X59626500Y-82232500D03*
%TD*%
%TO.P,MX11,1,COL*%
%TO.N,COL10*%
X224726500Y-46672500D03*
%TO.P,MX11,2,ROW*%
%TO.N,Net-(D11-A)*%
X231076500Y-44132500D03*
%TD*%
%TO.P,MX45,1,COL*%
%TO.N,COL8*%
X191452500Y-103822500D03*
%TO.P,MX45,2,ROW*%
%TO.N,Net-(D45-A)*%
X197802500Y-101282500D03*
%TD*%
%TO.P,MX18,1,COL*%
%TO.N,COL5*%
X124777500Y-65722500D03*
%TO.P,MX18,2,ROW*%
%TO.N,Net-(D18-A)*%
X131127500Y-63182500D03*
%TD*%
%TO.P,MX32,1,COL*%
%TO.N,COL7*%
X167576500Y-84772500D03*
%TO.P,MX32,2,ROW*%
%TO.N,Net-(D32-A)*%
X173926500Y-82232500D03*
%TD*%
%TO.P,MX22,1,COL*%
%TO.N,COL9*%
X200977500Y-65722500D03*
%TO.P,MX22,2,ROW*%
%TO.N,Net-(D22-A)*%
X207327500Y-63182500D03*
%TD*%
%TO.P,MX35,1,COL*%
%TO.N,COL10*%
X224726500Y-84772500D03*
%TO.P,MX35,2,ROW*%
%TO.N,Net-(D35-A)*%
X231076500Y-82232500D03*
%TD*%
%TO.P,MX27,1,COL*%
%TO.N,COL2*%
X72326500Y-84772500D03*
%TO.P,MX27,2,ROW*%
%TO.N,Net-(D27-A)*%
X78676500Y-82232500D03*
%TD*%
%TO.P,MX43,1,COL*%
%TO.N,COL6*%
X153352500Y-103822500D03*
%TO.P,MX43,2,ROW*%
%TO.N,Net-(D43-A)*%
X159702500Y-101282500D03*
%TD*%
%TO.P,MX3,1,COL*%
%TO.N,COL2*%
X72326500Y-46672500D03*
%TO.P,MX3,2,ROW*%
%TO.N,Net-(D3-A)*%
X78676500Y-44132500D03*
%TD*%
%TO.P,MX33,1,COL*%
%TO.N,COL8*%
X186626500Y-84772500D03*
%TO.P,MX33,2,ROW*%
%TO.N,Net-(D33-A)*%
X192976500Y-82232500D03*
%TD*%
%TO.P,MX50,1,COL*%
%TO.N,COL1*%
X53251100Y-122872500D03*
%TO.P,MX50,2,ROW*%
%TO.N,Net-(D50-A)*%
X59601100Y-120332500D03*
%TD*%
%TO.P,MX47,1,COL*%
%TO.N,COL10*%
X229552500Y-103822500D03*
%TO.P,MX47,2,ROW*%
%TO.N,Net-(D47-A)*%
X235902500Y-101282500D03*
%TD*%
%TO.P,MX28,1,COL*%
%TO.N,COL3*%
X91376500Y-84772500D03*
%TO.P,MX28,2,ROW*%
%TO.N,Net-(D28-A)*%
X97726500Y-82232500D03*
%TD*%
%TO.P,MX6,1,COL*%
%TO.N,COL5*%
X137096500Y-51752500D03*
%TO.P,MX6,2,ROW*%
%TO.N,Net-(D6-A)*%
X130746500Y-54292500D03*
%TD*%
%TO.P,MX49,1,COL*%
%TO.N,COL0*%
X31813500Y-122872500D03*
%TO.P,MX49,2,ROW*%
%TO.N,Net-(D49-A)*%
X38163500Y-120332500D03*
%TD*%
%TO.P,MX10,1,COL*%
%TO.N,COL9*%
X205676500Y-46672500D03*
%TO.P,MX10,2,ROW*%
%TO.N,Net-(D10-A)*%
X212026500Y-44132500D03*
%TD*%
%TO.P,MX8,1,COL*%
%TO.N,COL7*%
X167576500Y-46672500D03*
%TO.P,MX8,2,ROW*%
%TO.N,Net-(D8-A)*%
X173926500Y-44132500D03*
%TD*%
%TO.P,MX9,1,COL*%
%TO.N,COL8*%
X186626500Y-46672500D03*
%TO.P,MX9,2,ROW*%
%TO.N,Net-(D9-A)*%
X192976500Y-44132500D03*
%TD*%
%TO.P,MX42,1,COL*%
%TO.N,COL5*%
X134302500Y-103822500D03*
%TO.P,MX42,2,ROW*%
%TO.N,Net-(D42-A)*%
X140652500Y-101282500D03*
%TD*%
%TO.P,MX24,1,COL*%
%TO.N,COL11*%
X243827300Y-65722500D03*
%TO.P,MX24,2,ROW*%
%TO.N,Net-(D24-A)*%
X250177300Y-63182500D03*
%TD*%
%TO.P,MX20,1,COL*%
%TO.N,COL7*%
X162877500Y-65722500D03*
%TO.P,MX20,2,ROW*%
%TO.N,Net-(D20-A)*%
X169227500Y-63182500D03*
%TD*%
%TO.P,MX1,1,COL*%
%TO.N,COL0*%
X29527500Y-46672500D03*
%TO.P,MX1,2,ROW*%
%TO.N,Net-(D1-A)*%
X35877500Y-44132500D03*
%TD*%
%TO.P,MX16,1,COL*%
%TO.N,COL3*%
X86677500Y-65722500D03*
%TO.P,MX16,2,ROW*%
%TO.N,Net-(D16-A)*%
X93027500Y-63182500D03*
%TD*%
%TO.P,MX38,1,COL*%
%TO.N,COL1*%
X58102500Y-103822500D03*
%TO.P,MX38,2,ROW*%
%TO.N,Net-(D38-A)*%
X64452500Y-101282500D03*
%TD*%
%TO.P,MX31,1,COL*%
%TO.N,COL6*%
X148526500Y-84772500D03*
%TO.P,MX31,2,ROW*%
%TO.N,Net-(D31-A)*%
X154876500Y-82232500D03*
%TD*%
%TO.P,MX53,1,COL*%
%TO.N,COL5*%
X143827500Y-122872500D03*
%TO.P,MX53,2,ROW*%
%TO.N,Net-(D53-A)*%
X150177500Y-120332500D03*
%TD*%
%TO.P,MX29,1,COL*%
%TO.N,COL4*%
X110426500Y-84772500D03*
%TO.P,MX29,2,ROW*%
%TO.N,Net-(D29-A)*%
X116776500Y-82232500D03*
%TD*%
%TO.P,MX39,1,COL*%
%TO.N,COL2*%
X77152500Y-103822500D03*
%TO.P,MX39,2,ROW*%
%TO.N,Net-(D39-A)*%
X83502500Y-101282500D03*
%TD*%
%TO.P,MX55,1,COL*%
%TO.N,COL8*%
X191452500Y-122872500D03*
%TO.P,MX55,2,ROW*%
%TO.N,Net-(D55-A)*%
X197802500Y-120332500D03*
%TD*%
%TO.P,MX40,1,COL*%
%TO.N,COL3*%
X96202500Y-103822500D03*
%TO.P,MX40,2,ROW*%
%TO.N,Net-(D40-A)*%
X102552500Y-101282500D03*
%TD*%
%TO.P,MX21,1,COL*%
%TO.N,COL8*%
X181927500Y-65722500D03*
%TO.P,MX21,2,ROW*%
%TO.N,Net-(D21-A)*%
X188277500Y-63182500D03*
%TD*%
%TO.P,MX5,1,COL*%
%TO.N,COL4*%
X110426500Y-46672500D03*
%TO.P,MX5,2,ROW*%
%TO.N,Net-(D5-A)*%
X116776500Y-44132500D03*
%TD*%
%TO.P,MX44,1,COL*%
%TO.N,COL7*%
X172402500Y-103822500D03*
%TO.P,MX44,2,ROW*%
%TO.N,Net-(D44-A)*%
X178752500Y-101282500D03*
%TD*%
%TO.P,MX36,1,COL*%
%TO.N,COL11*%
X246164100Y-84772500D03*
%TO.P,MX36,2,ROW*%
%TO.N,Net-(D36-A)*%
X252514100Y-82232500D03*
%TD*%
%TO.P,MX4,1,COL*%
%TO.N,COL3*%
X91376500Y-46672500D03*
%TO.P,MX4,2,ROW*%
%TO.N,Net-(D4-A)*%
X97726500Y-44132500D03*
%TD*%
%TO.P,MX25,1,COL*%
%TO.N,COL0*%
X31838900Y-84772500D03*
%TO.P,MX25,2,ROW*%
%TO.N,Net-(D25-A)*%
X38188900Y-82232500D03*
%TD*%
%TO.P,MX17,1,COL*%
%TO.N,COL4*%
X105727500Y-65722500D03*
%TO.P,MX17,2,ROW*%
%TO.N,Net-(D17-A)*%
X112077500Y-63182500D03*
%TD*%
%TO.P,MX41,1,COL*%
%TO.N,COL4*%
X115252500Y-103822500D03*
%TO.P,MX41,2,ROW*%
%TO.N,Net-(D41-A)*%
X121602500Y-101282500D03*
%TD*%
%TO.P,MX34,1,COL*%
%TO.N,COL9*%
X205676500Y-84772500D03*
%TO.P,MX34,2,ROW*%
%TO.N,Net-(D34-A)*%
X212026500Y-82232500D03*
%TD*%
%TO.P,MX58,1,COL*%
%TO.N,COL11*%
X248602500Y-122872500D03*
%TO.P,MX58,2,ROW*%
%TO.N,Net-(D58-A)*%
X254952500Y-120332500D03*
%TD*%
%TO.P,MX2,1,COL*%
%TO.N,COL1*%
X53340000Y-46672500D03*
%TO.P,MX2,2,ROW*%
%TO.N,Net-(D2-A)*%
X59690000Y-44132500D03*
%TD*%
%TO.P,MX57,1,COL*%
%TO.N,COL10*%
X229552500Y-122872500D03*
%TO.P,MX57,2,ROW*%
%TO.N,Net-(D57-A)*%
X235902500Y-120332500D03*
%TD*%
%TO.P,MX23,1,COL*%
%TO.N,COL10*%
X220027500Y-65722500D03*
%TO.P,MX23,2,ROW*%
%TO.N,Net-(D23-A)*%
X226377500Y-63182500D03*
%TD*%
D17*
%TO.N,GND*%
X153978100Y-57146200D03*
X146609559Y-103323693D03*
X140044122Y-94450300D03*
X152534350Y-58733700D03*
X149215600Y-96831400D03*
X144462500Y-49212500D03*
X146843750Y-58737500D03*
X149215600Y-57146400D03*
X141287500Y-49212500D03*
X148421900Y-94450300D03*
X157900140Y-95250000D03*
X156409281Y-94306283D03*
X144036943Y-86882945D03*
X142685366Y-58007394D03*
X156409281Y-95250000D03*
X156409281Y-93324129D03*
X147568935Y-103323693D03*
%TO.N,+3V3*%
X142866000Y-95244000D03*
X146040800Y-88894400D03*
X162833248Y-93656600D03*
X153193750Y-94456250D03*
X149215600Y-97758403D03*
X161152248Y-93656600D03*
X147678006Y-100056006D03*
%TO.N,ROW0*%
X148653500Y-42227500D03*
X136842500Y-42227500D03*
%TO.N,ROW1*%
X157830286Y-71250000D03*
X136455996Y-71250000D03*
X138989500Y-71250000D03*
X155656900Y-71250000D03*
%TO.N,ROW2*%
X152105304Y-90300000D03*
X142866000Y-90300000D03*
X162838720Y-90300000D03*
X160667484Y-90300000D03*
%TD*%
D18*
%TO.N,GND*%
X147568935Y-103323693D02*
X146609559Y-103323693D01*
X147628200Y-96831400D02*
X149215600Y-96831400D01*
D19*
X141253500Y-56352700D02*
X141253500Y-56575528D01*
D18*
X156409281Y-93324129D02*
X156409281Y-95250000D01*
D19*
X141253500Y-83338500D02*
X141253500Y-93240922D01*
D18*
X148421900Y-94450300D02*
X148421900Y-96037700D01*
D19*
X141287500Y-49212500D02*
X141253500Y-49246500D01*
X142685366Y-58007394D02*
X146113644Y-58007394D01*
X141253500Y-49246500D02*
X141253500Y-56352700D01*
X153978100Y-57940100D02*
X153978100Y-57146200D01*
X141253500Y-56352700D02*
X141253500Y-83338500D01*
X141253500Y-83338500D02*
X141253500Y-84099502D01*
X146843750Y-58737500D02*
X147628200Y-58737500D01*
X141287500Y-49212500D02*
X141287500Y-47517500D01*
X152534350Y-58733700D02*
X153184500Y-58733700D01*
X144462500Y-49212500D02*
X144462500Y-47392500D01*
X147628200Y-58737500D02*
X152534350Y-58737500D01*
X149215600Y-57940100D02*
X149215600Y-57146400D01*
X147628200Y-58737500D02*
X148418200Y-58737500D01*
X144462500Y-49212500D02*
X141287500Y-49212500D01*
D18*
X146609559Y-103323693D02*
X146609559Y-97850041D01*
X156409281Y-95250000D02*
X157617265Y-95250000D01*
D19*
X152534350Y-58737500D02*
X152534350Y-58733700D01*
X153184500Y-58733700D02*
G75*
G03*
X153978100Y-57940100I0J793600D01*
G01*
X141253500Y-93240922D02*
G75*
G02*
X140044122Y-94450300I-1209400J22D01*
G01*
X141253500Y-84099502D02*
G75*
G03*
X144036943Y-86882900I2783400J2D01*
G01*
D18*
X146609559Y-97850041D02*
G75*
G02*
X147628200Y-96831359I1018641J41D01*
G01*
D19*
X144462500Y-47392500D02*
G75*
G02*
X147132500Y-44722500I2670000J0D01*
G01*
X141287500Y-47517500D02*
G75*
G03*
X138492500Y-44722500I-2795000J0D01*
G01*
X141253500Y-56575528D02*
G75*
G03*
X142685366Y-58007400I1431900J28D01*
G01*
D18*
X149215600Y-96831400D02*
G75*
G02*
X148421900Y-96037700I0J793700D01*
G01*
D19*
X148418200Y-58737500D02*
G75*
G03*
X149215600Y-57940100I0J797400D01*
G01*
X146113644Y-58007394D02*
G75*
G02*
X146843706Y-58737500I-44J-730106D01*
G01*
D18*
%TO.N,+3V3*%
X142214000Y-93656600D02*
X142214000Y-94592000D01*
X149215600Y-97758403D02*
X149132103Y-97758403D01*
X143659700Y-93656600D02*
X143007700Y-93656600D01*
X142214000Y-92862900D02*
X142214000Y-93656600D01*
X142214000Y-93656600D02*
X142214000Y-93798300D01*
X143659700Y-93656600D02*
X142866000Y-93656600D01*
X153193750Y-96910203D02*
X153193750Y-94456250D01*
X142214000Y-89986509D02*
X142214000Y-92862900D01*
X146040800Y-88894400D02*
X143306109Y-88894400D01*
X143659700Y-93656600D02*
X152394100Y-93656600D01*
X149215600Y-97758403D02*
X152345550Y-97758403D01*
X147678006Y-100056006D02*
X147678006Y-99212500D01*
D19*
X161152248Y-93656600D02*
X162833248Y-93656600D01*
D18*
X153193750Y-96910203D02*
G75*
G02*
X152345550Y-97758350I-848150J3D01*
G01*
X142214000Y-94592000D02*
G75*
G03*
X142866000Y-95244000I652000J0D01*
G01*
X152394100Y-93656600D02*
G75*
G02*
X153193700Y-94456250I0J-799600D01*
G01*
X143007700Y-93656600D02*
G75*
G02*
X142214000Y-92862900I0J793700D01*
G01*
X142214000Y-89986509D02*
G75*
G02*
X143306109Y-88894400I1092100J9D01*
G01*
X149132103Y-97758403D02*
G75*
G03*
X147678003Y-99212500I-3J-1454097D01*
G01*
D20*
%TO.N,ROW0*%
X136842500Y-42227500D02*
X148653500Y-42227500D01*
%TO.N,ROW1*%
X138989500Y-71250000D02*
X136455996Y-71250000D01*
X155656900Y-71250000D02*
X157830286Y-71250000D01*
%TO.N,ROW2*%
X152105304Y-90300000D02*
X142866000Y-90300000D01*
X162838720Y-90300000D02*
X160667484Y-90300000D01*
%TO.N,COL0*%
X34306009Y-103824357D02*
X34340815Y-103836135D01*
X34277300Y-103822500D02*
X34306009Y-103824357D01*
X29636500Y-46781500D02*
X29636500Y-49968373D01*
X34340815Y-103836135D02*
X34363644Y-103852643D01*
X34386300Y-103884506D02*
X34386300Y-120299700D01*
X31962451Y-84896051D02*
X31962451Y-101507651D01*
X29527500Y-65722500D02*
X28463286Y-64658286D01*
X29636500Y-65831500D02*
X29636500Y-82570100D01*
X34385187Y-103883393D02*
X34386300Y-103884506D01*
X28463287Y-51970013D02*
X29050714Y-51382586D01*
X29527500Y-46672500D02*
X29636500Y-46781500D01*
X29527500Y-46672500D02*
X29527500Y-43522500D01*
X27877500Y-63244073D02*
X27877500Y-53384227D01*
X34363644Y-103852643D02*
X34377447Y-103869073D01*
X34377447Y-103869073D02*
X34385187Y-103883393D01*
X29527500Y-43522500D02*
G75*
G02*
X30837500Y-42212500I1310000J0D01*
G01*
X34386300Y-120299700D02*
G75*
G02*
X31813500Y-122872500I-2572800J0D01*
G01*
X28463287Y-51970013D02*
G75*
G03*
X27877519Y-53384227I1414213J-1414187D01*
G01*
X29050714Y-51382586D02*
G75*
G03*
X29636481Y-49968373I-1414214J1414186D01*
G01*
X29636500Y-82570100D02*
G75*
G03*
X31838900Y-84772500I2202400J0D01*
G01*
X28463286Y-64658286D02*
G75*
G02*
X27877519Y-63244073I1414214J1414186D01*
G01*
X31838900Y-84772500D02*
G75*
G02*
X31962500Y-84896051I0J-123600D01*
G01*
X31962451Y-101507651D02*
G75*
G03*
X34277300Y-103822499I2314849J1D01*
G01*
%TO.N,COL1*%
X53426344Y-46702643D02*
X53449000Y-46725299D01*
X58211500Y-103875299D02*
X58211500Y-115286326D01*
X53368709Y-46674357D02*
X53403515Y-46686135D01*
X58102500Y-103822500D02*
X58131209Y-103824357D01*
X58166015Y-103836135D02*
X58188844Y-103852643D01*
X53251100Y-122872500D02*
X56354798Y-119768802D01*
X48686500Y-65831500D02*
X48686500Y-80182500D01*
X53449000Y-46725299D02*
X53449000Y-59242987D01*
X58131209Y-103824357D02*
X58166015Y-103836135D01*
X53971600Y-99691600D02*
X53971600Y-85467600D01*
X53340000Y-46672500D02*
X53368709Y-46674357D01*
X53403515Y-46686135D02*
X53426344Y-46702643D01*
X58188844Y-103852643D02*
X58211500Y-103875299D01*
X48577500Y-65722500D02*
X52311967Y-61988029D01*
X58211500Y-115286326D02*
G75*
G02*
X56354800Y-119768804I-6339180J-4D01*
G01*
X58102500Y-103822500D02*
G75*
G02*
X53971600Y-99691600I0J4130900D01*
G01*
X48577500Y-65722500D02*
G75*
G02*
X48686500Y-65831500I0J-109000D01*
G01*
X53971600Y-85467600D02*
G75*
G03*
X53276500Y-84772500I-695100J0D01*
G01*
X48686500Y-80182500D02*
G75*
G03*
X53276500Y-84772500I4590000J0D01*
G01*
X53449000Y-59242987D02*
G75*
G02*
X52311978Y-61988040I-3882100J-13D01*
G01*
%TO.N,COL2*%
X72480670Y-84786634D02*
X72559574Y-84809115D01*
X77614004Y-104038144D02*
X77646510Y-104086811D01*
X72862979Y-85043322D02*
X72908242Y-85121758D01*
X77706174Y-104245656D02*
X77700001Y-104251829D01*
X77697449Y-104204893D02*
X77706174Y-104245656D01*
X72407248Y-84775135D02*
X72480670Y-84786634D01*
X77504661Y-103931004D02*
X77568111Y-103985340D01*
X77700001Y-104251829D02*
X77700001Y-119861199D01*
X72326500Y-46672500D02*
X72355209Y-46674357D01*
X77568111Y-103985340D02*
X77614004Y-104038144D01*
X77152500Y-103822500D02*
X77224299Y-103824632D01*
X77444826Y-103892337D02*
X77504661Y-103931004D01*
X72758225Y-84925282D02*
X72819235Y-84986056D01*
X72819235Y-84986056D02*
X72862979Y-85043322D01*
X72326500Y-84772500D02*
X72407248Y-84775135D01*
X72420082Y-46723365D02*
X72435931Y-46772772D01*
X72355209Y-46674357D02*
X72390015Y-46686135D01*
X72559574Y-84809115D02*
X72627712Y-84838256D01*
X72908242Y-85121758D02*
X72908242Y-99578242D01*
X72627712Y-84838256D02*
X72700064Y-84880330D01*
X77302623Y-103837374D02*
X77371162Y-103858495D01*
X77679602Y-104152448D02*
X77697449Y-104204893D01*
X67627500Y-65722500D02*
X70943326Y-62406674D01*
X72700064Y-84880330D02*
X72758225Y-84925282D01*
X77646510Y-104086811D02*
X77679602Y-104152448D01*
X72410763Y-46708707D02*
X72420082Y-46723365D01*
X72390015Y-46686135D02*
X72410763Y-46708707D01*
X77224299Y-103824632D02*
X77302623Y-103837374D01*
X72435931Y-46772772D02*
X72435931Y-58803207D01*
X77371162Y-103858495D02*
X77444826Y-103892337D01*
X67876397Y-65971397D02*
X67876397Y-80322397D01*
X77700001Y-119861199D02*
G75*
G02*
X74688700Y-122872501I-3011301J-1D01*
G01*
X67627500Y-65722500D02*
G75*
G02*
X67876400Y-65971397I0J-248900D01*
G01*
X72908242Y-99578242D02*
G75*
G03*
X77152500Y-103822498I4244258J2D01*
G01*
X72435931Y-58803207D02*
G75*
G02*
X70943314Y-62406662I-5096031J7D01*
G01*
X67876397Y-80322397D02*
G75*
G03*
X72326500Y-84772503I4450103J-3D01*
G01*
%TO.N,COL3*%
X86786500Y-66883500D02*
X86677500Y-66883500D01*
X86786500Y-65831500D02*
X86786500Y-80182500D01*
X91376500Y-46672500D02*
X91405209Y-46674357D01*
X90899713Y-61500287D02*
X86677500Y-65722500D01*
X86677500Y-66883500D02*
X86677500Y-65722500D01*
X91485500Y-46754648D02*
X91485500Y-60086073D01*
X91405209Y-46674357D02*
X91485500Y-46754648D01*
X91692903Y-85088903D02*
X91692903Y-99312903D01*
X91692903Y-99312903D02*
G75*
G03*
X96202500Y-103822497I4509597J3D01*
G01*
X86786500Y-80182500D02*
G75*
G03*
X91376500Y-84772500I4590000J0D01*
G01*
X90899713Y-61500287D02*
G75*
G03*
X91485481Y-60086073I-1414213J1414187D01*
G01*
X86677500Y-65722500D02*
G75*
G02*
X86786500Y-65831500I0J-109000D01*
G01*
X91376500Y-84772500D02*
G75*
G02*
X91692900Y-85088903I0J-316400D01*
G01*
%TO.N,COL4*%
X110455209Y-84774357D02*
X110490015Y-84786135D01*
X115342735Y-103832932D02*
X115349527Y-103837861D01*
X110426500Y-46672500D02*
X110535500Y-46781500D01*
X110426500Y-84772500D02*
X110260261Y-84770580D01*
X105836500Y-66883500D02*
X105727500Y-66883500D01*
X115361897Y-103859452D02*
X115361897Y-120375503D01*
X105727500Y-66883500D02*
X105727500Y-65722500D01*
X110741805Y-85037925D02*
X110741805Y-99311805D01*
X115282898Y-103824463D02*
X115313614Y-103826398D01*
X110426500Y-84772500D02*
X110455209Y-84774357D01*
X115252500Y-103822500D02*
X115279520Y-103824248D01*
X110168622Y-84767420D02*
X109995923Y-84757497D01*
X105836500Y-80182500D02*
X105836500Y-65831500D01*
X115349527Y-103837861D02*
X115361897Y-103859452D01*
X109949713Y-61500287D02*
X105727500Y-65722500D01*
X115313614Y-103826398D02*
X115332693Y-103828224D01*
X115332693Y-103828224D02*
X115342735Y-103832932D01*
X110535500Y-46781500D02*
X110535500Y-60086073D01*
X115361897Y-120375503D02*
G75*
G02*
X112864900Y-122872497I-2496997J3D01*
G01*
X110260261Y-84770580D02*
G75*
G02*
X110168622Y-84767419I23139J2000680D01*
G01*
X110490015Y-84786135D02*
G75*
G02*
X110741765Y-85037925I-15J-251765D01*
G01*
X110741805Y-99311805D02*
G75*
G03*
X115252500Y-103822495I4510695J5D01*
G01*
X109784972Y-84735419D02*
X109995923Y-84757497D01*
X109784972Y-84735419D02*
G75*
G02*
X105836577Y-80182500I634428J4538719D01*
G01*
X115282898Y-103824463D02*
X115279520Y-103824248D01*
X105836500Y-65831500D02*
G75*
G03*
X105727500Y-65722500I-109000J0D01*
G01*
X109949713Y-61500287D02*
G75*
G03*
X110535481Y-60086073I-1414213J1414187D01*
G01*
%TO.N,COL5*%
X129905913Y-84924543D02*
X129966575Y-84985013D01*
X125404600Y-66349600D02*
X125404600Y-80700600D01*
X129556829Y-84775121D02*
X129629869Y-84786559D01*
X130055100Y-85119996D02*
X130055100Y-99575100D01*
X134411500Y-103822500D02*
X134411500Y-120872500D01*
X129776132Y-84837929D02*
X129848082Y-84879806D01*
X129708360Y-84808929D02*
X129776132Y-84837929D01*
X130010073Y-85041982D02*
X130055100Y-85119996D01*
X137096500Y-51752500D02*
X125363286Y-63485714D01*
X129848082Y-84879806D02*
X129905913Y-84924543D01*
X129966575Y-84985013D02*
X130010073Y-85041982D01*
X134302500Y-103822500D02*
X134411500Y-103822500D01*
X136411500Y-122872500D02*
X143827500Y-122872500D01*
X124777500Y-64899927D02*
X124777500Y-65722500D01*
X129629869Y-84786559D02*
X129708360Y-84808929D01*
X129476500Y-84772500D02*
X129556829Y-84775121D01*
X124777500Y-64899927D02*
G75*
G02*
X125363272Y-63485700I2000000J27D01*
G01*
X134411500Y-120872500D02*
G75*
G03*
X136411500Y-122872500I2000000J0D01*
G01*
X125404600Y-80700600D02*
G75*
G03*
X129476500Y-84772500I4071900J0D01*
G01*
X124777500Y-65722500D02*
G75*
G02*
X125404600Y-66349600I0J-627100D01*
G01*
X130055100Y-99575100D02*
G75*
G03*
X134302500Y-103822500I4247400J0D01*
G01*
%TO.N,COL6*%
X158795500Y-86772500D02*
X158795500Y-96039889D01*
X145936500Y-84772500D02*
X148526500Y-84772500D01*
X143827500Y-65722500D02*
X143936500Y-65722500D01*
X143827500Y-65722500D02*
X154368750Y-65722500D01*
X156368750Y-63722500D02*
X156368750Y-51974750D01*
X143936500Y-65722500D02*
X143936500Y-82772500D01*
X148526500Y-84772500D02*
X156795500Y-84772500D01*
X157152600Y-100006200D02*
X153363956Y-103794844D01*
X143936500Y-82772500D02*
G75*
G03*
X145936500Y-84772500I2000000J0D01*
G01*
X156795500Y-84772500D02*
G75*
G02*
X158795500Y-86772500I0J-2000000D01*
G01*
X153363956Y-103794844D02*
G75*
G03*
X153352497Y-103822500I27644J-27656D01*
G01*
X158795500Y-96039889D02*
G75*
G02*
X157152603Y-100006203I-5609200J-11D01*
G01*
X156368750Y-51974750D02*
G75*
G03*
X156146500Y-51752550I-222250J-50D01*
G01*
X154368750Y-65722500D02*
G75*
G03*
X156368800Y-63722500I50J2000000D01*
G01*
%TO.N,COL7*%
X168153329Y-85118640D02*
X168153329Y-99573329D01*
X167685500Y-46781500D02*
X167685500Y-60086073D01*
X162991278Y-65836278D02*
X162991278Y-80187278D01*
X167099713Y-61500287D02*
X162877500Y-65722500D01*
X167729395Y-84786264D02*
X167807655Y-84808536D01*
X167656577Y-84774878D02*
X167729395Y-84786264D01*
X167807655Y-84808536D02*
X167875230Y-84837424D01*
X170511500Y-122872500D02*
X160464500Y-122872500D01*
X168004650Y-84923740D02*
X168065130Y-84984026D01*
X172402500Y-103822500D02*
X172511500Y-103822500D01*
X167576500Y-46672500D02*
X167685500Y-46781500D01*
X167576500Y-84772500D02*
X167656577Y-84774878D01*
X168108477Y-85040837D02*
X168153329Y-85118640D01*
X168065130Y-84984026D02*
X168108477Y-85040837D01*
X172511500Y-103822500D02*
X172511500Y-120872500D01*
X167875230Y-84837424D02*
X167946978Y-84879153D01*
X167946978Y-84879153D02*
X168004650Y-84923740D01*
X170511500Y-122872500D02*
G75*
G03*
X172511500Y-120872500I0J2000000D01*
G01*
X162877500Y-65722500D02*
G75*
G02*
X162991300Y-65836278I0J-113800D01*
G01*
X168153329Y-99573329D02*
G75*
G03*
X172402500Y-103822471I4249171J29D01*
G01*
X167685500Y-60086073D02*
G75*
G02*
X167099727Y-61500301I-2000000J-27D01*
G01*
X162991278Y-80187278D02*
G75*
G03*
X167576500Y-84772522I4585222J-22D01*
G01*
%TO.N,COL8*%
X192374535Y-121530550D02*
X192505275Y-121214917D01*
X186937412Y-85083412D02*
X186937412Y-99307412D01*
X182036500Y-65784506D02*
X182036500Y-80182500D01*
X192175888Y-121922619D02*
X192290619Y-121707974D01*
X191660649Y-122648620D02*
X191822850Y-122450978D01*
X191452500Y-122872500D02*
X191546086Y-122776590D01*
X192505275Y-121214917D02*
X192505275Y-106364123D01*
X182027647Y-65769073D02*
X182035387Y-65783393D01*
X186626500Y-46672500D02*
X186735500Y-46781500D01*
X186735500Y-46781500D02*
X186735500Y-60086073D01*
X182035387Y-65783393D02*
X182036500Y-65784506D01*
X191939768Y-122293332D02*
X192074985Y-122090966D01*
X181927500Y-65722500D02*
X181956209Y-65724357D01*
X186149713Y-61500287D02*
X181927500Y-65722500D01*
X182013844Y-65752643D02*
X182027647Y-65769073D01*
X181991015Y-65736135D02*
X182013844Y-65752643D01*
X181956209Y-65724357D02*
X181991015Y-65736135D01*
X186937412Y-85083412D02*
G75*
G03*
X186626500Y-84772488I-310912J12D01*
G01*
X182036500Y-80182500D02*
G75*
G03*
X186626500Y-84772500I4590000J0D01*
G01*
X186735500Y-60086073D02*
G75*
G02*
X186149727Y-61500301I-2000000J-27D01*
G01*
X191546086Y-122776590D02*
G75*
G03*
X191660647Y-122648619I-1431086J1396390D01*
G01*
X191939768Y-122293332D02*
G75*
G02*
X191822852Y-122450979I-1662968J1111132D01*
G01*
X186937412Y-99307412D02*
G75*
G03*
X191452500Y-103822488I4515088J12D01*
G01*
X192074985Y-122090966D02*
G75*
G03*
X192175885Y-121922617I-1662885J1111066D01*
G01*
X192374535Y-121530550D02*
G75*
G02*
X192290621Y-121707975I-1847535J765250D01*
G01*
X192505275Y-106364123D02*
G75*
G03*
X191452507Y-103822493I-3594375J23D01*
G01*
%TO.N,COL9*%
X210925244Y-122246063D02*
X210941682Y-122206157D01*
X205785500Y-46781500D02*
X205785500Y-60086073D01*
X205676500Y-46672500D02*
X205785500Y-46781500D01*
X210828927Y-122449588D02*
X210859422Y-122389506D01*
X211028207Y-121863533D02*
X211034466Y-121799074D01*
X210988800Y-122060677D02*
X210998561Y-122018617D01*
X205199713Y-61500287D02*
X200977500Y-65722500D01*
X211027458Y-121782156D02*
X211027458Y-105089860D01*
X210803872Y-122491094D02*
X210828927Y-122449588D01*
X210647263Y-122714086D02*
X210681127Y-122673219D01*
X210502500Y-122872500D02*
X210548944Y-122824198D01*
X201086500Y-65831500D02*
X201086500Y-80182500D01*
X210941682Y-122206157D02*
X210988800Y-122060677D01*
X211034466Y-121799074D02*
X211027458Y-121782156D01*
X206362000Y-99682000D02*
X206362000Y-85458000D01*
X210681127Y-122673219D02*
X210719582Y-122619336D01*
X211025940Y-121877915D02*
X211028207Y-121863533D01*
X210502500Y-103822500D02*
G75*
G02*
X206362000Y-99682000I0J4140500D01*
G01*
X211025940Y-121877915D02*
G75*
G02*
X210998564Y-122018618I-1976340J311515D01*
G01*
X205785500Y-60086073D02*
G75*
G02*
X205199727Y-61500301I-2000000J-27D01*
G01*
X211027458Y-105089860D02*
G75*
G03*
X210502488Y-103822512I-1792358J-40D01*
G01*
X206362000Y-85458000D02*
G75*
G03*
X205676500Y-84772500I-685500J0D01*
G01*
X201086500Y-80182500D02*
G75*
G03*
X205676500Y-84772500I4590000J0D01*
G01*
X210647263Y-122714086D02*
G75*
G02*
X210548943Y-122824197I-1540063J1276186D01*
G01*
X200977500Y-65722500D02*
G75*
G02*
X201086500Y-65831500I0J-109000D01*
G01*
X210803872Y-122491094D02*
G75*
G02*
X210719583Y-122619336I-1712572J1033794D01*
G01*
X210925244Y-122246063D02*
G75*
G02*
X210859423Y-122389506I-1849744J761963D01*
G01*
%TO.N,COL10*%
X224835500Y-46781500D02*
X224835500Y-60086073D01*
X229552500Y-122872500D02*
X229646085Y-122776591D01*
X224249713Y-61500287D02*
X220027500Y-65722500D01*
X220648600Y-66343600D02*
X220648600Y-80694600D01*
X225410800Y-99680800D02*
X225410800Y-85456800D01*
X230275889Y-121922619D02*
X230390620Y-121707973D01*
X224726500Y-46672500D02*
X224835500Y-46781500D01*
X230605275Y-121214917D02*
X230605275Y-106364123D01*
X230039767Y-122293334D02*
X230174985Y-122090966D01*
X229760649Y-122648620D02*
X229922850Y-122450978D01*
X230474534Y-121530551D02*
X230605275Y-121214917D01*
X229922850Y-122450978D02*
G75*
G03*
X230039768Y-122293335I-1546250J1268978D01*
G01*
X224835500Y-60086073D02*
G75*
G02*
X224249727Y-61500301I-2000000J-27D01*
G01*
X220648600Y-80694600D02*
G75*
G03*
X224726500Y-84772500I4077900J0D01*
G01*
X229646085Y-122776591D02*
G75*
G03*
X229760647Y-122648619I-1431085J1396391D01*
G01*
X229552500Y-103822500D02*
G75*
G02*
X225410800Y-99680800I0J4141700D01*
G01*
X230275889Y-121922619D02*
G75*
G02*
X230174990Y-122090969I-1763489J942519D01*
G01*
X220027500Y-65722500D02*
G75*
G02*
X220648600Y-66343600I0J-621100D01*
G01*
X225410800Y-85456800D02*
G75*
G03*
X224726500Y-84772500I-684300J0D01*
G01*
X230390620Y-121707973D02*
G75*
G03*
X230474533Y-121530551I-1763620J942673D01*
G01*
X230605275Y-106364123D02*
G75*
G03*
X229552507Y-103822493I-3594375J23D01*
G01*
%TO.N,COL11*%
X248686100Y-46781500D02*
X248686100Y-55036100D01*
X248602500Y-104983500D02*
X248602500Y-103822500D01*
X248577100Y-46672500D02*
X248577100Y-43420900D01*
X243936300Y-72470717D02*
X243936300Y-65831500D01*
X243919450Y-82527850D02*
X243919450Y-72487567D01*
X248602500Y-122872500D02*
X248556566Y-122869529D01*
X243919450Y-72487567D02*
X243926269Y-72487156D01*
X243931099Y-72485003D02*
X243936300Y-72470717D01*
X246840700Y-102060700D02*
X246840700Y-85449100D01*
X248711500Y-104983500D02*
X248602500Y-104983500D01*
X243926269Y-72487156D02*
X243931099Y-72485003D01*
X243827300Y-61551754D02*
X243827300Y-65722500D01*
X248577100Y-46672500D02*
X248686100Y-46781500D01*
X248556566Y-122869529D02*
X248597518Y-122867416D01*
X248100313Y-56450314D02*
X244413086Y-60137541D01*
X248711500Y-122609351D02*
X248711500Y-104085649D01*
X248711500Y-104085649D02*
G75*
G03*
X248602514Y-103822486I-372100J49D01*
G01*
X248602500Y-122872500D02*
G75*
G03*
X248711521Y-122609351I-263200J263200D01*
G01*
X246164100Y-84772500D02*
G75*
G02*
X243919400Y-82527850I0J2244700D01*
G01*
X248686100Y-55036100D02*
G75*
G02*
X248100313Y-56450314I-2000000J0D01*
G01*
X248577100Y-43420900D02*
G75*
G02*
X249785500Y-42212500I1208400J0D01*
G01*
X246840700Y-85449100D02*
G75*
G03*
X246164100Y-84772500I-676600J0D01*
G01*
X243936300Y-65831500D02*
G75*
G03*
X243827300Y-65722500I-109000J0D01*
G01*
X248597518Y-122867416D02*
G75*
G03*
X248711537Y-122714593I-36418J146116D01*
G01*
X248602500Y-103822500D02*
G75*
G02*
X246840700Y-102060700I0J1761800D01*
G01*
X243827300Y-61551754D02*
G75*
G02*
X244413109Y-60137564I2000000J-46D01*
G01*
%TD*%
M02*
