%TF.GenerationSoftware,KiCad,Pcbnew,(7.0.0)*%
%TF.CreationDate,2023-05-29T16:26:43+02:00*%
%TF.ProjectId,the PETER keyboard,74686520-5045-4544-9552-206b6579626f,rev?*%
%TF.SameCoordinates,Original*%
%TF.FileFunction,Soldermask,Top*%
%TF.FilePolarity,Negative*%
%FSLAX46Y46*%
G04 Gerber Fmt 4.6, Leading zero omitted, Abs format (unit mm)*
G04 Created by KiCad (PCBNEW (7.0.0)) date 2023-05-29 16:26:43*
%MOMM*%
%LPD*%
G01*
G04 APERTURE LIST*
%ADD10C,1.750000*%
%ADD11C,3.000000*%
%ADD12C,3.987800*%
%ADD13C,2.200000*%
%ADD14C,3.048000*%
%ADD15R,2.000000X2.000000*%
%ADD16C,2.000000*%
%ADD17R,2.000000X3.200000*%
%ADD18C,0.650000*%
%ADD19O,1.000000X1.600000*%
%ADD20O,1.000000X2.100000*%
G04 APERTURE END LIST*
D10*
%TO.C,MX56*%
X210820000Y-132842000D03*
D11*
X212090000Y-130302000D03*
D12*
X215900000Y-132842000D03*
D11*
X218440000Y-127762000D03*
D10*
X220980000Y-132842000D03*
%TD*%
D13*
%TO.C,H2*%
X42062500Y-160337500D03*
%TD*%
D10*
%TO.C,MX51*%
X75006200Y-132842000D03*
D11*
X76276200Y-130302000D03*
D12*
X80086200Y-132842000D03*
D11*
X82626200Y-127762000D03*
D10*
X85166200Y-132842000D03*
%TD*%
D13*
%TO.C,H1*%
X42062500Y-154387500D03*
%TD*%
D12*
%TO.C,MX52*%
X106324400Y-124587000D03*
D14*
X106324400Y-139827000D03*
D10*
X113182400Y-132842000D03*
D11*
X114452400Y-130302000D03*
D12*
X118262400Y-132842000D03*
D11*
X120802400Y-127762000D03*
D10*
X123342400Y-132842000D03*
D12*
X130200400Y-124587000D03*
D14*
X130200400Y-139827000D03*
%TD*%
D10*
%TO.C,MX13*%
X29845000Y-75692000D03*
D11*
X31115000Y-73152000D03*
D12*
X34925000Y-75692000D03*
D11*
X37465000Y-70612000D03*
D10*
X40005000Y-75692000D03*
%TD*%
D13*
%TO.C,H4*%
X36112500Y-154387500D03*
%TD*%
D10*
%TO.C,MX37*%
X34594800Y-113792000D03*
D11*
X35864800Y-111252000D03*
D12*
X39674800Y-113792000D03*
D11*
X42214800Y-108712000D03*
D10*
X44754800Y-113792000D03*
%TD*%
%TO.C,MX19*%
X144145000Y-75692000D03*
D11*
X145415000Y-73152000D03*
D12*
X149225000Y-75692000D03*
D11*
X151765000Y-70612000D03*
D10*
X154305000Y-75692000D03*
%TD*%
D12*
%TO.C,MX54*%
X153924000Y-124587000D03*
D14*
X153924000Y-139827000D03*
D10*
X160782000Y-132842000D03*
D11*
X162052000Y-130302000D03*
D12*
X165862000Y-132842000D03*
D11*
X168402000Y-127762000D03*
D10*
X170942000Y-132842000D03*
D12*
X177800000Y-124587000D03*
D14*
X177800000Y-139827000D03*
%TD*%
D10*
%TO.C,MX7*%
X159004000Y-56642000D03*
D11*
X157734000Y-59182000D03*
D12*
X153924000Y-56642000D03*
D11*
X151384000Y-61722000D03*
D10*
X148844000Y-56642000D03*
%TD*%
%TO.C,MX46*%
X210820000Y-113792000D03*
D11*
X212090000Y-111252000D03*
D12*
X215900000Y-113792000D03*
D11*
X218440000Y-108712000D03*
D10*
X220980000Y-113792000D03*
%TD*%
D15*
%TO.C,SW1*%
X32424999Y-64141999D03*
D16*
X37425000Y-64142000D03*
X34925000Y-64142000D03*
D17*
X29324999Y-56641999D03*
X40524999Y-56641999D03*
D16*
X37425000Y-49642000D03*
X32425000Y-49642000D03*
%TD*%
D10*
%TO.C,MX48*%
X248920000Y-113792000D03*
D11*
X250190000Y-111252000D03*
D12*
X254000000Y-113792000D03*
D11*
X256540000Y-108712000D03*
D10*
X259080000Y-113792000D03*
%TD*%
%TO.C,MX14*%
X48895000Y-75692000D03*
D11*
X50165000Y-73152000D03*
D12*
X53975000Y-75692000D03*
D11*
X56515000Y-70612000D03*
D10*
X59055000Y-75692000D03*
%TD*%
%TO.C,MX12*%
X248894600Y-56642000D03*
D11*
X250164600Y-54102000D03*
D12*
X253974600Y-56642000D03*
D11*
X256514600Y-51562000D03*
D10*
X259054600Y-56642000D03*
%TD*%
%TO.C,MX30*%
X129794000Y-94742000D03*
D11*
X131064000Y-92202000D03*
D12*
X134874000Y-94742000D03*
D11*
X137414000Y-89662000D03*
D10*
X139954000Y-94742000D03*
%TD*%
%TO.C,MX15*%
X67945000Y-75692000D03*
D11*
X69215000Y-73152000D03*
D12*
X73025000Y-75692000D03*
D11*
X75565000Y-70612000D03*
D10*
X78105000Y-75692000D03*
%TD*%
%TO.C,MX26*%
X53594000Y-94742000D03*
D11*
X54864000Y-92202000D03*
D12*
X58674000Y-94742000D03*
D11*
X61214000Y-89662000D03*
D10*
X63754000Y-94742000D03*
%TD*%
%TO.C,MX11*%
X225044000Y-56642000D03*
D11*
X226314000Y-54102000D03*
D12*
X230124000Y-56642000D03*
D11*
X232664000Y-51562000D03*
D10*
X235204000Y-56642000D03*
%TD*%
%TO.C,MX45*%
X191770000Y-113792000D03*
D11*
X193040000Y-111252000D03*
D12*
X196850000Y-113792000D03*
D11*
X199390000Y-108712000D03*
D10*
X201930000Y-113792000D03*
%TD*%
%TO.C,MX18*%
X125095000Y-75692000D03*
D11*
X126365000Y-73152000D03*
D12*
X130175000Y-75692000D03*
D11*
X132715000Y-70612000D03*
D10*
X135255000Y-75692000D03*
%TD*%
%TO.C,MX32*%
X167894000Y-94742000D03*
D11*
X169164000Y-92202000D03*
D12*
X172974000Y-94742000D03*
D11*
X175514000Y-89662000D03*
D10*
X178054000Y-94742000D03*
%TD*%
%TO.C,MX22*%
X201295000Y-75692000D03*
D11*
X202565000Y-73152000D03*
D12*
X206375000Y-75692000D03*
D11*
X208915000Y-70612000D03*
D10*
X211455000Y-75692000D03*
%TD*%
D13*
%TO.C,H5*%
X30162500Y-154387500D03*
%TD*%
%TO.C,H3*%
X36112500Y-160337500D03*
%TD*%
D10*
%TO.C,MX35*%
X225044000Y-94742000D03*
D11*
X226314000Y-92202000D03*
D12*
X230124000Y-94742000D03*
D11*
X232664000Y-89662000D03*
D10*
X235204000Y-94742000D03*
%TD*%
%TO.C,MX27*%
X72644000Y-94742000D03*
D11*
X73914000Y-92202000D03*
D12*
X77724000Y-94742000D03*
D11*
X80264000Y-89662000D03*
D10*
X82804000Y-94742000D03*
%TD*%
%TO.C,MX43*%
X153670000Y-113792000D03*
D11*
X154940000Y-111252000D03*
D12*
X158750000Y-113792000D03*
D11*
X161290000Y-108712000D03*
D10*
X163830000Y-113792000D03*
%TD*%
%TO.C,MX3*%
X72644000Y-56642000D03*
D11*
X73914000Y-54102000D03*
D12*
X77724000Y-56642000D03*
D11*
X80264000Y-51562000D03*
D10*
X82804000Y-56642000D03*
%TD*%
%TO.C,MX33*%
X186944000Y-94742000D03*
D11*
X188214000Y-92202000D03*
D12*
X192024000Y-94742000D03*
D11*
X194564000Y-89662000D03*
D10*
X197104000Y-94742000D03*
%TD*%
%TO.C,MX50*%
X53568600Y-132842000D03*
D11*
X54838600Y-130302000D03*
D12*
X58648600Y-132842000D03*
D11*
X61188600Y-127762000D03*
D10*
X63728600Y-132842000D03*
%TD*%
%TO.C,MX47*%
X229870000Y-113792000D03*
D11*
X231140000Y-111252000D03*
D12*
X234950000Y-113792000D03*
D11*
X237490000Y-108712000D03*
D10*
X240030000Y-113792000D03*
%TD*%
%TO.C,MX28*%
X91694000Y-94742000D03*
D11*
X92964000Y-92202000D03*
D12*
X96774000Y-94742000D03*
D11*
X99314000Y-89662000D03*
D10*
X101854000Y-94742000D03*
%TD*%
%TO.C,MX6*%
X139954000Y-56642000D03*
D11*
X138684000Y-59182000D03*
D12*
X134874000Y-56642000D03*
D11*
X132334000Y-61722000D03*
D10*
X129794000Y-56642000D03*
%TD*%
%TO.C,MX49*%
X32131000Y-132842000D03*
D11*
X33401000Y-130302000D03*
D12*
X37211000Y-132842000D03*
D11*
X39751000Y-127762000D03*
D10*
X42291000Y-132842000D03*
%TD*%
%TO.C,MX10*%
X205994000Y-56642000D03*
D11*
X207264000Y-54102000D03*
D12*
X211074000Y-56642000D03*
D11*
X213614000Y-51562000D03*
D10*
X216154000Y-56642000D03*
%TD*%
%TO.C,MX8*%
X167894000Y-56642000D03*
D11*
X169164000Y-54102000D03*
D12*
X172974000Y-56642000D03*
D11*
X175514000Y-51562000D03*
D10*
X178054000Y-56642000D03*
%TD*%
%TO.C,MX9*%
X186944000Y-56642000D03*
D11*
X188214000Y-54102000D03*
D12*
X192024000Y-56642000D03*
D11*
X194564000Y-51562000D03*
D10*
X197104000Y-56642000D03*
%TD*%
%TO.C,MX42*%
X134620000Y-113792000D03*
D11*
X135890000Y-111252000D03*
D12*
X139700000Y-113792000D03*
D11*
X142240000Y-108712000D03*
D10*
X144780000Y-113792000D03*
%TD*%
%TO.C,MX24*%
X244144800Y-75692000D03*
D11*
X245414800Y-73152000D03*
D12*
X249224800Y-75692000D03*
D11*
X251764800Y-70612000D03*
D10*
X254304800Y-75692000D03*
%TD*%
%TO.C,MX20*%
X163195000Y-75692000D03*
D11*
X164465000Y-73152000D03*
D12*
X168275000Y-75692000D03*
D11*
X170815000Y-70612000D03*
D10*
X173355000Y-75692000D03*
%TD*%
%TO.C,MX1*%
X29845000Y-56642000D03*
D11*
X31115000Y-54102000D03*
D12*
X34925000Y-56642000D03*
D11*
X37465000Y-51562000D03*
D10*
X40005000Y-56642000D03*
%TD*%
%TO.C,MX16*%
X86995000Y-75692000D03*
D11*
X88265000Y-73152000D03*
D12*
X92075000Y-75692000D03*
D11*
X94615000Y-70612000D03*
D10*
X97155000Y-75692000D03*
%TD*%
%TO.C,MX38*%
X58420000Y-113792000D03*
D11*
X59690000Y-111252000D03*
D12*
X63500000Y-113792000D03*
D11*
X66040000Y-108712000D03*
D10*
X68580000Y-113792000D03*
%TD*%
%TO.C,MX31*%
X148844000Y-94742000D03*
D11*
X150114000Y-92202000D03*
D12*
X153924000Y-94742000D03*
D11*
X156464000Y-89662000D03*
D10*
X159004000Y-94742000D03*
%TD*%
D13*
%TO.C,H6*%
X30162500Y-160337500D03*
%TD*%
D12*
%TO.C,MX53*%
X101600000Y-124587000D03*
D14*
X101600000Y-139827000D03*
D10*
X144145000Y-132842000D03*
D11*
X145415000Y-130302000D03*
D12*
X149225000Y-132842000D03*
D11*
X151765000Y-127762000D03*
D10*
X154305000Y-132842000D03*
D12*
X196850000Y-124587000D03*
D14*
X196850000Y-139827000D03*
%TD*%
D10*
%TO.C,MX29*%
X110744000Y-94742000D03*
D11*
X112014000Y-92202000D03*
D12*
X115824000Y-94742000D03*
D11*
X118364000Y-89662000D03*
D10*
X120904000Y-94742000D03*
%TD*%
%TO.C,MX39*%
X77470000Y-113792000D03*
D11*
X78740000Y-111252000D03*
D12*
X82550000Y-113792000D03*
D11*
X85090000Y-108712000D03*
D10*
X87630000Y-113792000D03*
%TD*%
%TO.C,MX55*%
X191770000Y-132842000D03*
D11*
X193040000Y-130302000D03*
D12*
X196850000Y-132842000D03*
D11*
X199390000Y-127762000D03*
D10*
X201930000Y-132842000D03*
%TD*%
%TO.C,MX40*%
X96520000Y-113792000D03*
D11*
X97790000Y-111252000D03*
D12*
X101600000Y-113792000D03*
D11*
X104140000Y-108712000D03*
D10*
X106680000Y-113792000D03*
%TD*%
%TO.C,MX21*%
X182245000Y-75692000D03*
D11*
X183515000Y-73152000D03*
D12*
X187325000Y-75692000D03*
D11*
X189865000Y-70612000D03*
D10*
X192405000Y-75692000D03*
%TD*%
%TO.C,MX5*%
X110744000Y-56642000D03*
D11*
X112014000Y-54102000D03*
D12*
X115824000Y-56642000D03*
D11*
X118364000Y-51562000D03*
D10*
X120904000Y-56642000D03*
%TD*%
%TO.C,MX44*%
X172720000Y-113792000D03*
D11*
X173990000Y-111252000D03*
D12*
X177800000Y-113792000D03*
D11*
X180340000Y-108712000D03*
D10*
X182880000Y-113792000D03*
%TD*%
%TO.C,MX36*%
X246481600Y-94742000D03*
D11*
X247751600Y-92202000D03*
D12*
X251561600Y-94742000D03*
D11*
X254101600Y-89662000D03*
D10*
X256641600Y-94742000D03*
%TD*%
D15*
%TO.C,SW12*%
X251372999Y-64141999D03*
D16*
X256373000Y-64142000D03*
X253873000Y-64142000D03*
D17*
X248272999Y-56641999D03*
X259472999Y-56641999D03*
D16*
X256373000Y-49642000D03*
X251373000Y-49642000D03*
%TD*%
D10*
%TO.C,MX4*%
X91694000Y-56642000D03*
D11*
X92964000Y-54102000D03*
D12*
X96774000Y-56642000D03*
D11*
X99314000Y-51562000D03*
D10*
X101854000Y-56642000D03*
%TD*%
%TO.C,MX25*%
X32156400Y-94742000D03*
D11*
X33426400Y-92202000D03*
D12*
X37236400Y-94742000D03*
D11*
X39776400Y-89662000D03*
D10*
X42316400Y-94742000D03*
%TD*%
%TO.C,MX17*%
X106045000Y-75692000D03*
D11*
X107315000Y-73152000D03*
D12*
X111125000Y-75692000D03*
D11*
X113665000Y-70612000D03*
D10*
X116205000Y-75692000D03*
%TD*%
%TO.C,MX41*%
X115570000Y-113792000D03*
D11*
X116840000Y-111252000D03*
D12*
X120650000Y-113792000D03*
D11*
X123190000Y-108712000D03*
D10*
X125730000Y-113792000D03*
%TD*%
%TO.C,MX34*%
X205994000Y-94742000D03*
D11*
X207264000Y-92202000D03*
D12*
X211074000Y-94742000D03*
D11*
X213614000Y-89662000D03*
D10*
X216154000Y-94742000D03*
%TD*%
%TO.C,MX58*%
X248920000Y-132842000D03*
D11*
X250190000Y-130302000D03*
D12*
X254000000Y-132842000D03*
D11*
X256540000Y-127762000D03*
D10*
X259080000Y-132842000D03*
%TD*%
%TO.C,MX2*%
X53657500Y-56642000D03*
D11*
X54927500Y-54102000D03*
D12*
X58737500Y-56642000D03*
D11*
X61277500Y-51562000D03*
D10*
X63817500Y-56642000D03*
%TD*%
%TO.C,MX57*%
X229870000Y-132842000D03*
D11*
X231140000Y-130302000D03*
D12*
X234950000Y-132842000D03*
D11*
X237490000Y-127762000D03*
D10*
X240030000Y-132842000D03*
%TD*%
%TO.C,MX23*%
X220345000Y-75692000D03*
D11*
X221615000Y-73152000D03*
D12*
X225425000Y-75692000D03*
D11*
X227965000Y-70612000D03*
D10*
X230505000Y-75692000D03*
%TD*%
D18*
%TO.C,J1*%
X141510000Y-51622000D03*
X147290000Y-51622000D03*
D19*
X140079999Y-47971999D03*
D20*
X140079999Y-52151999D03*
D19*
X148719999Y-47971999D03*
D20*
X148719999Y-52151999D03*
%TD*%
M02*
