M48
; DRILL file {KiCad (6.0.7)} date Sun Oct  9 16:52:05 2022
; FORMAT={-:-/ absolute / inch / decimal}
; #@! TF.CreationDate,2022-10-09T16:52:05+02:00
; #@! TF.GenerationSoftware,Kicad,Pcbnew,(6.0.7)
; #@! TF.FileFunction,Plated,1,2,PTH
FMAT,2
INCH
; #@! TA.AperFunction,Plated,PTH,ViaDrill
T1C0.0157
; #@! TA.AperFunction,Plated,PTH,ComponentDrill
T2C0.0236
; #@! TA.AperFunction,Plated,PTH,ComponentDrill
T3C0.0394
; #@! TA.AperFunction,Plated,PTH,ComponentDrill
T4C0.0579
; #@! TA.AperFunction,Plated,PTH,ComponentDrill
T5C0.0591
%
G90
G05
T1
X1.374Y-2.65
X1.41Y-4.612
X2.35Y-4.5863
X3.1Y-4.5713
X3.66Y-4.088
X4.412Y-4.114
X5.16Y-4.142
X5.555Y-2.71
X5.565Y-3.865
X5.5963Y-2.6127
X5.616Y-2.582
X5.63Y-3.865
X5.634Y-2.4
X5.6442Y-2.6598
X5.645Y-2.455
X5.67Y-2.634
X5.672Y-4.259
X5.69Y-4.02
X5.715Y-4.07
X5.716Y-4.218
X5.7577Y-2.2627
X5.822Y-2.71
X5.846Y-2.166
X5.871Y-4.431
X5.8733Y-3.8925
X5.88Y-2.3
X5.88Y-2.455
X5.94Y-3.69
X5.941Y-2.049
X5.96Y-3.76
X5.9886Y-2.5971
X5.9901Y-2.5606
X5.9946Y-4.3311
X6.006Y-3.892
X6.012Y-3.8507
X6.014Y-4.538
X6.026Y-4.427
X6.0416Y-3.8752
X6.0685Y-3.8999
X6.086Y-3.9319
X6.122Y-3.926
X6.204Y-4.014
X6.266Y-4.119
X6.268Y-4.3463
X6.27Y-3.875
X6.27Y-4.306
X6.3056Y-2.5596
X6.308Y-2.596
X6.318Y-4.4
X6.34Y-3.675
X6.38Y-4.354
X6.38Y-4.4
X6.613Y-3.475
X7.6Y-4.5613
X8.3515Y-4.5765
X9.1Y-4.5915
X9.85Y-4.6242
X9.994Y-2.66
T3
X1.2766Y-1.9544
X1.2766Y-2.5253
X1.375Y-2.5253
X1.4734Y-1.9544
X1.4734Y-2.5253
X9.8966Y-1.9544
X9.8966Y-2.5253
X9.995Y-2.5253
X10.0934Y-1.9544
X10.0934Y-2.5253
T4
X1.225Y-2.13
X1.225Y-2.88
X1.315Y-3.63
X1.315Y-5.13
X1.41Y-4.38
X1.475Y-2.03
X1.475Y-2.78
X1.565Y-3.53
X1.565Y-5.03
X1.66Y-4.28
X1.975Y-2.88
X2.16Y-2.13
X2.16Y-3.63
X2.16Y-5.13
X2.225Y-2.78
X2.35Y-4.38
X2.41Y-2.03
X2.41Y-3.53
X2.41Y-5.03
X2.6Y-4.28
X2.725Y-2.88
X2.91Y-2.13
X2.91Y-3.63
X2.975Y-2.78
X3.005Y-5.13
X3.1Y-4.38
X3.16Y-2.03
X3.16Y-3.53
X3.255Y-5.03
X3.35Y-4.28
X3.475Y-2.88
X3.66Y-2.13
X3.66Y-3.63
X3.725Y-2.78
X3.85Y-4.38
X3.91Y-2.03
X3.91Y-3.53
X4.1Y-4.28
X4.225Y-2.88
X4.41Y-2.13
X4.41Y-3.63
X4.475Y-2.78
X4.505Y-5.13
X4.6Y-4.38
X4.66Y-2.03
X4.66Y-3.53
X4.755Y-5.03
X4.85Y-4.28
X4.975Y-2.88
X5.16Y-2.13
X5.16Y-3.63
X5.225Y-2.78
X5.35Y-4.38
X5.41Y-2.03
X5.41Y-3.53
X5.6Y-4.28
X5.725Y-2.88
X5.725Y-5.13
X5.91Y-2.13
X5.91Y-3.63
X5.975Y-2.78
X5.975Y-5.03
X6.1Y-4.38
X6.16Y-2.03
X6.16Y-3.53
X6.35Y-4.28
X6.38Y-5.13
X6.475Y-2.88
X6.63Y-5.03
X6.66Y-2.13
X6.66Y-3.63
X6.725Y-2.78
X6.85Y-4.38
X6.91Y-2.03
X6.91Y-3.53
X7.1Y-4.28
X7.225Y-2.88
X7.41Y-2.13
X7.41Y-3.63
X7.475Y-2.78
X7.6Y-4.38
X7.6Y-5.13
X7.66Y-2.03
X7.66Y-3.53
X7.85Y-4.28
X7.85Y-5.03
X7.975Y-2.88
X8.16Y-2.13
X8.16Y-3.63
X8.225Y-2.78
X8.35Y-4.38
X8.35Y-5.13
X8.41Y-2.03
X8.41Y-3.53
X8.6Y-4.28
X8.6Y-5.03
X8.725Y-2.88
X8.91Y-2.13
X8.91Y-3.63
X8.975Y-2.78
X9.1Y-4.38
X9.1Y-5.13
X9.16Y-2.03
X9.16Y-3.53
X9.35Y-4.28
X9.35Y-5.03
X9.66Y-2.88
X9.755Y-3.63
X9.845Y-2.13
X9.85Y-4.38
X9.85Y-5.13
X9.91Y-2.78
X10.005Y-3.53
X10.095Y-2.03
X10.1Y-4.28
X10.1Y-5.03
T2
G00X5.5049Y-1.8769
M15
G01X5.5049Y-1.9005
M16
G05
G00X5.5049Y-2.0316
M15
G01X5.5049Y-2.0749
M16
G05
G00X5.8451Y-1.8769
M15
G01X5.8451Y-1.9005
M16
G05
G00X5.8451Y-2.0316
M15
G01X5.8451Y-2.0749
M16
G05
T5
G00X1.1545Y-2.2556
M15
G01X1.1545Y-2.2044
M16
G05
G00X1.5955Y-2.2556
M15
G01X1.5955Y-2.2044
M16
G05
G00X9.7745Y-2.2556
M15
G01X9.7745Y-2.2044
M16
G05
G00X10.2155Y-2.2556
M15
G01X10.2155Y-2.2044
M16
G05
T0
M30
