%TF.GenerationSoftware,KiCad,Pcbnew,(6.0.7)*%
%TF.CreationDate,2022-10-09T16:51:21+02:00*%
%TF.ProjectId,the PETER keyboard,74686520-5045-4544-9552-206b6579626f,rev?*%
%TF.SameCoordinates,Original*%
%TF.FileFunction,Soldermask,Top*%
%TF.FilePolarity,Negative*%
%FSLAX46Y46*%
G04 Gerber Fmt 4.6, Leading zero omitted, Abs format (unit mm)*
G04 Created by KiCad (PCBNEW (6.0.7)) date 2022-10-09 16:51:21*
%MOMM*%
%LPD*%
G01*
G04 APERTURE LIST*
%ADD10C,1.750000*%
%ADD11C,3.987800*%
%ADD12C,3.048000*%
%ADD13R,2.000000X2.000000*%
%ADD14C,2.000000*%
%ADD15R,2.000000X3.200000*%
%ADD16C,0.650000*%
%ADD17O,1.000000X1.600000*%
%ADD18O,1.000000X2.100000*%
G04 APERTURE END LIST*
D10*
%TO.C,MX56*%
X210820000Y-132842000D03*
D11*
X215900000Y-132842000D03*
D10*
X220980000Y-132842000D03*
%TD*%
%TO.C,MX51*%
X85217000Y-132842000D03*
X75057000Y-132842000D03*
D11*
X80137000Y-132842000D03*
%TD*%
D10*
%TO.C,MX52*%
X123317000Y-132842000D03*
D11*
X106330750Y-141097000D03*
D12*
X130143250Y-125857000D03*
D11*
X130143250Y-141097000D03*
D12*
X106330750Y-125857000D03*
D10*
X113157000Y-132842000D03*
D11*
X118237000Y-132842000D03*
%TD*%
D10*
%TO.C,MX13*%
X29845000Y-75692000D03*
X40005000Y-75692000D03*
D11*
X34925000Y-75692000D03*
%TD*%
D10*
%TO.C,MX37*%
X44704000Y-113792000D03*
X34544000Y-113792000D03*
D11*
X39624000Y-113792000D03*
%TD*%
D10*
%TO.C,MX19*%
X144145000Y-75692000D03*
D11*
X149225000Y-75692000D03*
D10*
X154305000Y-75692000D03*
%TD*%
%TO.C,MX54*%
X170942000Y-132842000D03*
D11*
X177768250Y-141097000D03*
D10*
X160782000Y-132842000D03*
D12*
X177768250Y-125857000D03*
X153955750Y-125857000D03*
D11*
X165862000Y-132842000D03*
X153955750Y-141097000D03*
%TD*%
D10*
%TO.C,MX7*%
X148844000Y-56642000D03*
D11*
X153924000Y-56642000D03*
D10*
X159004000Y-56642000D03*
%TD*%
D11*
%TO.C,MX46*%
X215900000Y-113792000D03*
D10*
X220980000Y-113792000D03*
X210820000Y-113792000D03*
%TD*%
D13*
%TO.C,SW1*%
X32425000Y-64142000D03*
D14*
X37425000Y-64142000D03*
X34925000Y-64142000D03*
D15*
X29325000Y-56642000D03*
X40525000Y-56642000D03*
D14*
X37425000Y-49642000D03*
X32425000Y-49642000D03*
%TD*%
D10*
%TO.C,MX48*%
X248920000Y-113792000D03*
D11*
X254000000Y-113792000D03*
D10*
X259080000Y-113792000D03*
%TD*%
%TO.C,MX14*%
X48895000Y-75692000D03*
X59055000Y-75692000D03*
D11*
X53975000Y-75692000D03*
%TD*%
%TO.C,MX12*%
X253873000Y-56642000D03*
D10*
X258953000Y-56642000D03*
X248793000Y-56642000D03*
%TD*%
%TO.C,MX30*%
X129794000Y-94742000D03*
X139954000Y-94742000D03*
D11*
X134874000Y-94742000D03*
%TD*%
D10*
%TO.C,MX15*%
X67945000Y-75692000D03*
D11*
X73025000Y-75692000D03*
D10*
X78105000Y-75692000D03*
%TD*%
%TO.C,MX26*%
X63754000Y-94742000D03*
X53594000Y-94742000D03*
D11*
X58674000Y-94742000D03*
%TD*%
D10*
%TO.C,MX11*%
X235204000Y-56642000D03*
X225044000Y-56642000D03*
D11*
X230124000Y-56642000D03*
%TD*%
D10*
%TO.C,MX45*%
X191770000Y-113792000D03*
D11*
X196850000Y-113792000D03*
D10*
X201930000Y-113792000D03*
%TD*%
%TO.C,MX18*%
X125095000Y-75692000D03*
D11*
X130175000Y-75692000D03*
D10*
X135255000Y-75692000D03*
%TD*%
%TO.C,MX32*%
X178054000Y-94742000D03*
X167894000Y-94742000D03*
D11*
X172974000Y-94742000D03*
%TD*%
%TO.C,MX22*%
X206375000Y-75692000D03*
D10*
X201295000Y-75692000D03*
X211455000Y-75692000D03*
%TD*%
D11*
%TO.C,MX35*%
X230124000Y-94742000D03*
D10*
X235204000Y-94742000D03*
X225044000Y-94742000D03*
%TD*%
%TO.C,MX27*%
X72644000Y-94742000D03*
X82804000Y-94742000D03*
D11*
X77724000Y-94742000D03*
%TD*%
D10*
%TO.C,MX43*%
X163830000Y-113792000D03*
D11*
X158750000Y-113792000D03*
D10*
X153670000Y-113792000D03*
%TD*%
%TO.C,MX3*%
X82804000Y-56642000D03*
X72644000Y-56642000D03*
D11*
X77724000Y-56642000D03*
%TD*%
%TO.C,MX33*%
X192024000Y-94742000D03*
D10*
X186944000Y-94742000D03*
X197104000Y-94742000D03*
%TD*%
%TO.C,MX50*%
X63754000Y-132842000D03*
D11*
X58674000Y-132842000D03*
D10*
X53594000Y-132842000D03*
%TD*%
%TO.C,MX47*%
X229870000Y-113792000D03*
D11*
X234950000Y-113792000D03*
D10*
X240030000Y-113792000D03*
%TD*%
%TO.C,MX28*%
X91694000Y-94742000D03*
D11*
X96774000Y-94742000D03*
D10*
X101854000Y-94742000D03*
%TD*%
%TO.C,MX6*%
X129794000Y-56642000D03*
D11*
X134874000Y-56642000D03*
D10*
X139954000Y-56642000D03*
%TD*%
%TO.C,MX49*%
X42291000Y-132842000D03*
D11*
X37211000Y-132842000D03*
D10*
X32131000Y-132842000D03*
%TD*%
%TO.C,MX10*%
X205994000Y-56642000D03*
D11*
X211074000Y-56642000D03*
D10*
X216154000Y-56642000D03*
%TD*%
D11*
%TO.C,MX8*%
X172974000Y-56642000D03*
D10*
X178054000Y-56642000D03*
X167894000Y-56642000D03*
%TD*%
%TO.C,MX9*%
X186944000Y-56642000D03*
D11*
X192024000Y-56642000D03*
D10*
X197104000Y-56642000D03*
%TD*%
D11*
%TO.C,MX42*%
X139700000Y-113792000D03*
D10*
X144780000Y-113792000D03*
X134620000Y-113792000D03*
%TD*%
D11*
%TO.C,MX24*%
X249174000Y-75692000D03*
D10*
X254254000Y-75692000D03*
X244094000Y-75692000D03*
%TD*%
D11*
%TO.C,MX20*%
X168275000Y-75692000D03*
D10*
X173355000Y-75692000D03*
X163195000Y-75692000D03*
%TD*%
%TO.C,MX1*%
X29845000Y-56642000D03*
D11*
X34925000Y-56642000D03*
D10*
X40005000Y-56642000D03*
%TD*%
D11*
%TO.C,MX16*%
X92075000Y-75692000D03*
D10*
X97155000Y-75692000D03*
X86995000Y-75692000D03*
%TD*%
%TO.C,MX38*%
X58420000Y-113792000D03*
D11*
X63500000Y-113792000D03*
D10*
X68580000Y-113792000D03*
%TD*%
D11*
%TO.C,MX31*%
X153924000Y-94742000D03*
D10*
X148844000Y-94742000D03*
X159004000Y-94742000D03*
%TD*%
%TO.C,MX53*%
X144145000Y-132842000D03*
D11*
X149225000Y-132842000D03*
D10*
X154305000Y-132842000D03*
D11*
X101600000Y-141097000D03*
X196850000Y-141097000D03*
D12*
X101600000Y-125857000D03*
X196850000Y-125857000D03*
%TD*%
D10*
%TO.C,MX29*%
X110744000Y-94742000D03*
D11*
X115824000Y-94742000D03*
D10*
X120904000Y-94742000D03*
%TD*%
%TO.C,MX39*%
X77470000Y-113792000D03*
X87630000Y-113792000D03*
D11*
X82550000Y-113792000D03*
%TD*%
D10*
%TO.C,MX55*%
X201930000Y-132842000D03*
X191770000Y-132842000D03*
D11*
X196850000Y-132842000D03*
%TD*%
D10*
%TO.C,MX40*%
X96520000Y-113792000D03*
X106680000Y-113792000D03*
D11*
X101600000Y-113792000D03*
%TD*%
D10*
%TO.C,MX21*%
X182245000Y-75692000D03*
D11*
X187325000Y-75692000D03*
D10*
X192405000Y-75692000D03*
%TD*%
%TO.C,MX5*%
X120904000Y-56642000D03*
X110744000Y-56642000D03*
D11*
X115824000Y-56642000D03*
%TD*%
D10*
%TO.C,MX44*%
X172720000Y-113792000D03*
X182880000Y-113792000D03*
D11*
X177800000Y-113792000D03*
%TD*%
D10*
%TO.C,MX36*%
X256667000Y-94742000D03*
D11*
X251587000Y-94742000D03*
D10*
X246507000Y-94742000D03*
%TD*%
D13*
%TO.C,SW12*%
X251373000Y-64142000D03*
D14*
X256373000Y-64142000D03*
X253873000Y-64142000D03*
D15*
X248273000Y-56642000D03*
X259473000Y-56642000D03*
D14*
X256373000Y-49642000D03*
X251373000Y-49642000D03*
%TD*%
D10*
%TO.C,MX4*%
X91694000Y-56642000D03*
D11*
X96774000Y-56642000D03*
D10*
X101854000Y-56642000D03*
%TD*%
D11*
%TO.C,MX25*%
X37211000Y-94742000D03*
D10*
X32131000Y-94742000D03*
X42291000Y-94742000D03*
%TD*%
D11*
%TO.C,MX17*%
X111125000Y-75692000D03*
D10*
X116205000Y-75692000D03*
X106045000Y-75692000D03*
%TD*%
%TO.C,MX41*%
X115570000Y-113792000D03*
X125730000Y-113792000D03*
D11*
X120650000Y-113792000D03*
%TD*%
D10*
%TO.C,MX34*%
X216154000Y-94742000D03*
X205994000Y-94742000D03*
D11*
X211074000Y-94742000D03*
%TD*%
%TO.C,MX58*%
X254000000Y-132842000D03*
D10*
X248920000Y-132842000D03*
X259080000Y-132842000D03*
%TD*%
%TO.C,MX2*%
X63754000Y-56642000D03*
D11*
X58674000Y-56642000D03*
D10*
X53594000Y-56642000D03*
%TD*%
%TO.C,MX57*%
X240030000Y-132842000D03*
X229870000Y-132842000D03*
D11*
X234950000Y-132842000D03*
%TD*%
D10*
%TO.C,MX23*%
X220345000Y-75692000D03*
D11*
X225425000Y-75692000D03*
D10*
X230505000Y-75692000D03*
%TD*%
D16*
%TO.C,J1*%
X141255000Y-51622000D03*
X147035000Y-51622000D03*
D17*
X148465000Y-47972000D03*
X139825000Y-47972000D03*
D18*
X139825000Y-52152000D03*
X148465000Y-52152000D03*
%TD*%
M02*
