%TF.GenerationSoftware,KiCad,Pcbnew,(6.0.7)*%
%TF.CreationDate,2022-10-09T16:51:21+02:00*%
%TF.ProjectId,the PETER keyboard,74686520-5045-4544-9552-206b6579626f,rev?*%
%TF.SameCoordinates,Original*%
%TF.FileFunction,Soldermask,Bot*%
%TF.FilePolarity,Negative*%
%FSLAX46Y46*%
G04 Gerber Fmt 4.6, Leading zero omitted, Abs format (unit mm)*
G04 Created by KiCad (PCBNEW (6.0.7)) date 2022-10-09 16:51:21*
%MOMM*%
%LPD*%
G01*
G04 APERTURE LIST*
G04 Aperture macros list*
%AMRoundRect*
0 Rectangle with rounded corners*
0 $1 Rounding radius*
0 $2 $3 $4 $5 $6 $7 $8 $9 X,Y pos of 4 corners*
0 Add a 4 corners polygon primitive as box body*
4,1,4,$2,$3,$4,$5,$6,$7,$8,$9,$2,$3,0*
0 Add four circle primitives for the rounded corners*
1,1,$1+$1,$2,$3*
1,1,$1+$1,$4,$5*
1,1,$1+$1,$6,$7*
1,1,$1+$1,$8,$9*
0 Add four rect primitives between the rounded corners*
20,1,$1+$1,$2,$3,$4,$5,0*
20,1,$1+$1,$4,$5,$6,$7,0*
20,1,$1+$1,$6,$7,$8,$9,0*
20,1,$1+$1,$8,$9,$2,$3,0*%
G04 Aperture macros list end*
%ADD10C,1.750000*%
%ADD11C,3.987800*%
%ADD12C,2.250000*%
%ADD13C,3.048000*%
%ADD14R,2.000000X2.000000*%
%ADD15C,2.000000*%
%ADD16R,2.000000X3.200000*%
%ADD17R,1.100000X1.100000*%
%ADD18RoundRect,0.135000X0.135000X0.185000X-0.135000X0.185000X-0.135000X-0.185000X0.135000X-0.185000X0*%
%ADD19RoundRect,0.135000X-0.185000X0.135000X-0.185000X-0.135000X0.185000X-0.135000X0.185000X0.135000X0*%
%ADD20RoundRect,0.140000X-0.170000X0.140000X-0.170000X-0.140000X0.170000X-0.140000X0.170000X0.140000X0*%
%ADD21RoundRect,0.140000X-0.140000X-0.170000X0.140000X-0.170000X0.140000X0.170000X-0.140000X0.170000X0*%
%ADD22C,0.650000*%
%ADD23R,0.600000X1.450000*%
%ADD24R,0.300000X1.450000*%
%ADD25O,1.000000X1.600000*%
%ADD26O,1.000000X2.100000*%
%ADD27RoundRect,0.135000X-0.135000X-0.185000X0.135000X-0.185000X0.135000X0.185000X-0.135000X0.185000X0*%
%ADD28RoundRect,0.140000X0.140000X0.170000X-0.140000X0.170000X-0.140000X-0.170000X0.140000X-0.170000X0*%
%ADD29R,1.800000X1.100000*%
%ADD30RoundRect,0.250000X-0.625000X0.375000X-0.625000X-0.375000X0.625000X-0.375000X0.625000X0.375000X0*%
%ADD31RoundRect,0.140000X0.170000X-0.140000X0.170000X0.140000X-0.170000X0.140000X-0.170000X-0.140000X0*%
%ADD32R,0.700000X1.000000*%
%ADD33R,0.700000X0.600000*%
%ADD34R,1.200000X1.400000*%
%ADD35RoundRect,0.062500X-0.062500X0.475000X-0.062500X-0.475000X0.062500X-0.475000X0.062500X0.475000X0*%
%ADD36RoundRect,0.062500X-0.475000X0.062500X-0.475000X-0.062500X0.475000X-0.062500X0.475000X0.062500X0*%
%ADD37R,5.200000X5.200000*%
G04 APERTURE END LIST*
D10*
%TO.C,MX56*%
X210820000Y-132842000D03*
D11*
X215900000Y-132842000D03*
D10*
X220980000Y-132842000D03*
D12*
X212090000Y-130302000D03*
X218440000Y-127762000D03*
%TD*%
D10*
%TO.C,MX51*%
X85217000Y-132842000D03*
X75057000Y-132842000D03*
D11*
X80137000Y-132842000D03*
D12*
X76327000Y-130302000D03*
X82677000Y-127762000D03*
%TD*%
D10*
%TO.C,MX52*%
X123317000Y-132842000D03*
D11*
X106330750Y-141097000D03*
D13*
X130143250Y-125857000D03*
D11*
X130143250Y-141097000D03*
D13*
X106330750Y-125857000D03*
D10*
X113157000Y-132842000D03*
D11*
X118237000Y-132842000D03*
D12*
X114427000Y-130302000D03*
X120777000Y-127762000D03*
%TD*%
D10*
%TO.C,MX13*%
X29845000Y-75692000D03*
X40005000Y-75692000D03*
D11*
X34925000Y-75692000D03*
D12*
X31115000Y-73152000D03*
X37465000Y-70612000D03*
%TD*%
D10*
%TO.C,MX37*%
X44704000Y-113792000D03*
X34544000Y-113792000D03*
D11*
X39624000Y-113792000D03*
D12*
X35814000Y-111252000D03*
X42164000Y-108712000D03*
%TD*%
D10*
%TO.C,MX19*%
X144145000Y-75692000D03*
D11*
X149225000Y-75692000D03*
D10*
X154305000Y-75692000D03*
D12*
X145415000Y-73152000D03*
X151765000Y-70612000D03*
%TD*%
D10*
%TO.C,MX54*%
X170942000Y-132842000D03*
D11*
X177768250Y-141097000D03*
D10*
X160782000Y-132842000D03*
D13*
X177768250Y-125857000D03*
X153955750Y-125857000D03*
D11*
X165862000Y-132842000D03*
X153955750Y-141097000D03*
D12*
X162052000Y-130302000D03*
X168402000Y-127762000D03*
%TD*%
D10*
%TO.C,MX7*%
X148844000Y-56642000D03*
D11*
X153924000Y-56642000D03*
D10*
X159004000Y-56642000D03*
D12*
X150114000Y-54102000D03*
X156464000Y-51562000D03*
%TD*%
D11*
%TO.C,MX46*%
X215900000Y-113792000D03*
D10*
X220980000Y-113792000D03*
X210820000Y-113792000D03*
D12*
X212090000Y-111252000D03*
X218440000Y-108712000D03*
%TD*%
D14*
%TO.C,SW1*%
X32425000Y-64142000D03*
D15*
X37425000Y-64142000D03*
X34925000Y-64142000D03*
D16*
X29325000Y-56642000D03*
X40525000Y-56642000D03*
D15*
X37425000Y-49642000D03*
X32425000Y-49642000D03*
%TD*%
D10*
%TO.C,MX48*%
X248920000Y-113792000D03*
D11*
X254000000Y-113792000D03*
D10*
X259080000Y-113792000D03*
D12*
X250190000Y-111252000D03*
X256540000Y-108712000D03*
%TD*%
D10*
%TO.C,MX14*%
X48895000Y-75692000D03*
X59055000Y-75692000D03*
D11*
X53975000Y-75692000D03*
D12*
X50165000Y-73152000D03*
X56515000Y-70612000D03*
%TD*%
D11*
%TO.C,MX12*%
X253873000Y-56642000D03*
D10*
X258953000Y-56642000D03*
X248793000Y-56642000D03*
D12*
X250063000Y-54102000D03*
X256413000Y-51562000D03*
%TD*%
D10*
%TO.C,MX30*%
X129794000Y-94742000D03*
X139954000Y-94742000D03*
D11*
X134874000Y-94742000D03*
D12*
X131064000Y-92202000D03*
X137414000Y-89662000D03*
%TD*%
D10*
%TO.C,MX15*%
X67945000Y-75692000D03*
D11*
X73025000Y-75692000D03*
D10*
X78105000Y-75692000D03*
D12*
X69215000Y-73152000D03*
X75565000Y-70612000D03*
%TD*%
D10*
%TO.C,MX26*%
X63754000Y-94742000D03*
X53594000Y-94742000D03*
D11*
X58674000Y-94742000D03*
D12*
X54864000Y-92202000D03*
X61214000Y-89662000D03*
%TD*%
D10*
%TO.C,MX11*%
X235204000Y-56642000D03*
X225044000Y-56642000D03*
D11*
X230124000Y-56642000D03*
D12*
X226314000Y-54102000D03*
X232664000Y-51562000D03*
%TD*%
D10*
%TO.C,MX45*%
X191770000Y-113792000D03*
D11*
X196850000Y-113792000D03*
D10*
X201930000Y-113792000D03*
D12*
X193040000Y-111252000D03*
X199390000Y-108712000D03*
%TD*%
D10*
%TO.C,MX18*%
X125095000Y-75692000D03*
D11*
X130175000Y-75692000D03*
D10*
X135255000Y-75692000D03*
D12*
X126365000Y-73152000D03*
X132715000Y-70612000D03*
%TD*%
D10*
%TO.C,MX32*%
X178054000Y-94742000D03*
X167894000Y-94742000D03*
D11*
X172974000Y-94742000D03*
D12*
X169164000Y-92202000D03*
X175514000Y-89662000D03*
%TD*%
D11*
%TO.C,MX22*%
X206375000Y-75692000D03*
D10*
X201295000Y-75692000D03*
X211455000Y-75692000D03*
D12*
X202565000Y-73152000D03*
X208915000Y-70612000D03*
%TD*%
D11*
%TO.C,MX35*%
X230124000Y-94742000D03*
D10*
X235204000Y-94742000D03*
X225044000Y-94742000D03*
D12*
X226314000Y-92202000D03*
X232664000Y-89662000D03*
%TD*%
D10*
%TO.C,MX27*%
X72644000Y-94742000D03*
X82804000Y-94742000D03*
D11*
X77724000Y-94742000D03*
D12*
X73914000Y-92202000D03*
X80264000Y-89662000D03*
%TD*%
D10*
%TO.C,MX43*%
X163830000Y-113792000D03*
D11*
X158750000Y-113792000D03*
D10*
X153670000Y-113792000D03*
D12*
X154940000Y-111252000D03*
X161290000Y-108712000D03*
%TD*%
D10*
%TO.C,MX3*%
X82804000Y-56642000D03*
X72644000Y-56642000D03*
D11*
X77724000Y-56642000D03*
D12*
X73914000Y-54102000D03*
X80264000Y-51562000D03*
%TD*%
D11*
%TO.C,MX33*%
X192024000Y-94742000D03*
D10*
X186944000Y-94742000D03*
X197104000Y-94742000D03*
D12*
X188214000Y-92202000D03*
X194564000Y-89662000D03*
%TD*%
D10*
%TO.C,MX50*%
X63754000Y-132842000D03*
D11*
X58674000Y-132842000D03*
D10*
X53594000Y-132842000D03*
D12*
X54864000Y-130302000D03*
X61214000Y-127762000D03*
%TD*%
D10*
%TO.C,MX47*%
X229870000Y-113792000D03*
D11*
X234950000Y-113792000D03*
D10*
X240030000Y-113792000D03*
D12*
X231140000Y-111252000D03*
X237490000Y-108712000D03*
%TD*%
D10*
%TO.C,MX28*%
X91694000Y-94742000D03*
D11*
X96774000Y-94742000D03*
D10*
X101854000Y-94742000D03*
D12*
X92964000Y-92202000D03*
X99314000Y-89662000D03*
%TD*%
D10*
%TO.C,MX6*%
X129794000Y-56642000D03*
D11*
X134874000Y-56642000D03*
D10*
X139954000Y-56642000D03*
D12*
X131064000Y-54102000D03*
X137414000Y-51562000D03*
%TD*%
D10*
%TO.C,MX49*%
X42291000Y-132842000D03*
D11*
X37211000Y-132842000D03*
D10*
X32131000Y-132842000D03*
D12*
X33401000Y-130302000D03*
X39751000Y-127762000D03*
%TD*%
D10*
%TO.C,MX10*%
X205994000Y-56642000D03*
D11*
X211074000Y-56642000D03*
D10*
X216154000Y-56642000D03*
D12*
X207264000Y-54102000D03*
X213614000Y-51562000D03*
%TD*%
D11*
%TO.C,MX8*%
X172974000Y-56642000D03*
D10*
X178054000Y-56642000D03*
X167894000Y-56642000D03*
D12*
X169164000Y-54102000D03*
X175514000Y-51562000D03*
%TD*%
D10*
%TO.C,MX9*%
X186944000Y-56642000D03*
D11*
X192024000Y-56642000D03*
D10*
X197104000Y-56642000D03*
D12*
X188214000Y-54102000D03*
X194564000Y-51562000D03*
%TD*%
D11*
%TO.C,MX42*%
X139700000Y-113792000D03*
D10*
X144780000Y-113792000D03*
X134620000Y-113792000D03*
D12*
X135890000Y-111252000D03*
X142240000Y-108712000D03*
%TD*%
D11*
%TO.C,MX24*%
X249174000Y-75692000D03*
D10*
X254254000Y-75692000D03*
X244094000Y-75692000D03*
D12*
X245364000Y-73152000D03*
X251714000Y-70612000D03*
%TD*%
D11*
%TO.C,MX20*%
X168275000Y-75692000D03*
D10*
X173355000Y-75692000D03*
X163195000Y-75692000D03*
D12*
X164465000Y-73152000D03*
X170815000Y-70612000D03*
%TD*%
D10*
%TO.C,MX1*%
X29845000Y-56642000D03*
D11*
X34925000Y-56642000D03*
D10*
X40005000Y-56642000D03*
D12*
X31115000Y-54102000D03*
X37465000Y-51562000D03*
%TD*%
D11*
%TO.C,MX16*%
X92075000Y-75692000D03*
D10*
X97155000Y-75692000D03*
X86995000Y-75692000D03*
D12*
X88265000Y-73152000D03*
X94615000Y-70612000D03*
%TD*%
D10*
%TO.C,MX38*%
X58420000Y-113792000D03*
D11*
X63500000Y-113792000D03*
D10*
X68580000Y-113792000D03*
D12*
X59690000Y-111252000D03*
X66040000Y-108712000D03*
%TD*%
D11*
%TO.C,MX31*%
X153924000Y-94742000D03*
D10*
X148844000Y-94742000D03*
X159004000Y-94742000D03*
D12*
X150114000Y-92202000D03*
X156464000Y-89662000D03*
%TD*%
D10*
%TO.C,MX53*%
X144145000Y-132842000D03*
D11*
X149225000Y-132842000D03*
D10*
X154305000Y-132842000D03*
D11*
X101600000Y-141097000D03*
X196850000Y-141097000D03*
D13*
X101600000Y-125857000D03*
X196850000Y-125857000D03*
D12*
X145415000Y-130302000D03*
X151765000Y-127762000D03*
%TD*%
D10*
%TO.C,MX29*%
X110744000Y-94742000D03*
D11*
X115824000Y-94742000D03*
D10*
X120904000Y-94742000D03*
D12*
X112014000Y-92202000D03*
X118364000Y-89662000D03*
%TD*%
D10*
%TO.C,MX39*%
X77470000Y-113792000D03*
X87630000Y-113792000D03*
D11*
X82550000Y-113792000D03*
D12*
X78740000Y-111252000D03*
X85090000Y-108712000D03*
%TD*%
D10*
%TO.C,MX55*%
X201930000Y-132842000D03*
X191770000Y-132842000D03*
D11*
X196850000Y-132842000D03*
D12*
X193040000Y-130302000D03*
X199390000Y-127762000D03*
%TD*%
D10*
%TO.C,MX40*%
X96520000Y-113792000D03*
X106680000Y-113792000D03*
D11*
X101600000Y-113792000D03*
D12*
X97790000Y-111252000D03*
X104140000Y-108712000D03*
%TD*%
D10*
%TO.C,MX21*%
X182245000Y-75692000D03*
D11*
X187325000Y-75692000D03*
D10*
X192405000Y-75692000D03*
D12*
X183515000Y-73152000D03*
X189865000Y-70612000D03*
%TD*%
D10*
%TO.C,MX5*%
X120904000Y-56642000D03*
X110744000Y-56642000D03*
D11*
X115824000Y-56642000D03*
D12*
X112014000Y-54102000D03*
X118364000Y-51562000D03*
%TD*%
D10*
%TO.C,MX44*%
X172720000Y-113792000D03*
X182880000Y-113792000D03*
D11*
X177800000Y-113792000D03*
D12*
X173990000Y-111252000D03*
X180340000Y-108712000D03*
%TD*%
D10*
%TO.C,MX36*%
X256667000Y-94742000D03*
D11*
X251587000Y-94742000D03*
D10*
X246507000Y-94742000D03*
D12*
X247777000Y-92202000D03*
X254127000Y-89662000D03*
%TD*%
D14*
%TO.C,SW12*%
X251373000Y-64142000D03*
D15*
X256373000Y-64142000D03*
X253873000Y-64142000D03*
D16*
X248273000Y-56642000D03*
X259473000Y-56642000D03*
D15*
X256373000Y-49642000D03*
X251373000Y-49642000D03*
%TD*%
D10*
%TO.C,MX4*%
X91694000Y-56642000D03*
D11*
X96774000Y-56642000D03*
D10*
X101854000Y-56642000D03*
D12*
X92964000Y-54102000D03*
X99314000Y-51562000D03*
%TD*%
D11*
%TO.C,MX25*%
X37211000Y-94742000D03*
D10*
X32131000Y-94742000D03*
X42291000Y-94742000D03*
D12*
X33401000Y-92202000D03*
X39751000Y-89662000D03*
%TD*%
D11*
%TO.C,MX17*%
X111125000Y-75692000D03*
D10*
X116205000Y-75692000D03*
X106045000Y-75692000D03*
D12*
X107315000Y-73152000D03*
X113665000Y-70612000D03*
%TD*%
D10*
%TO.C,MX41*%
X115570000Y-113792000D03*
X125730000Y-113792000D03*
D11*
X120650000Y-113792000D03*
D12*
X116840000Y-111252000D03*
X123190000Y-108712000D03*
%TD*%
D10*
%TO.C,MX34*%
X216154000Y-94742000D03*
X205994000Y-94742000D03*
D11*
X211074000Y-94742000D03*
D12*
X207264000Y-92202000D03*
X213614000Y-89662000D03*
%TD*%
D11*
%TO.C,MX58*%
X254000000Y-132842000D03*
D10*
X248920000Y-132842000D03*
X259080000Y-132842000D03*
D12*
X250190000Y-130302000D03*
X256540000Y-127762000D03*
%TD*%
D10*
%TO.C,MX2*%
X63754000Y-56642000D03*
D11*
X58674000Y-56642000D03*
D10*
X53594000Y-56642000D03*
D12*
X54864000Y-54102000D03*
X61214000Y-51562000D03*
%TD*%
D10*
%TO.C,MX57*%
X240030000Y-132842000D03*
X229870000Y-132842000D03*
D11*
X234950000Y-132842000D03*
D12*
X231140000Y-130302000D03*
X237490000Y-127762000D03*
%TD*%
D10*
%TO.C,MX23*%
X220345000Y-75692000D03*
D11*
X225425000Y-75692000D03*
D10*
X230505000Y-75692000D03*
D12*
X221615000Y-73152000D03*
X227965000Y-70612000D03*
%TD*%
D17*
%TO.C,D40*%
X104775000Y-118081200D03*
X104775000Y-115281200D03*
%TD*%
%TO.C,D28*%
X100012500Y-99031200D03*
X100012500Y-96231200D03*
%TD*%
D18*
%TO.C,R_reset1*%
X158142400Y-103327200D03*
X157122400Y-103327200D03*
%TD*%
D17*
%TO.C,D21*%
X190500000Y-79981200D03*
X190500000Y-77181200D03*
%TD*%
D19*
%TO.C,R_USB2*%
X146583400Y-55446200D03*
X146583400Y-56466200D03*
%TD*%
D17*
%TO.C,D26*%
X61912500Y-99031200D03*
X61912500Y-96231200D03*
%TD*%
%TO.C,D9*%
X195262500Y-60931200D03*
X195262500Y-58131200D03*
%TD*%
%TO.C,D50*%
X61912500Y-137131200D03*
X61912500Y-134331200D03*
%TD*%
%TO.C,D44*%
X180975000Y-118081200D03*
X180975000Y-115281200D03*
%TD*%
%TO.C,D45*%
X200025000Y-118081200D03*
X200025000Y-115281200D03*
%TD*%
%TO.C,D17*%
X114300000Y-79981200D03*
X114300000Y-77181200D03*
%TD*%
%TO.C,D52*%
X121443800Y-137131200D03*
X121443800Y-134331200D03*
%TD*%
%TO.C,D58*%
X257175000Y-137131200D03*
X257175000Y-134331200D03*
%TD*%
D19*
%TO.C,R_HWB/PE2*%
X149123400Y-110513400D03*
X149123400Y-111533400D03*
%TD*%
D17*
%TO.C,D38*%
X66675000Y-118081200D03*
X66675000Y-115281200D03*
%TD*%
D20*
%TO.C,C_Decoupler1*%
X153060400Y-110543400D03*
X153060400Y-111503400D03*
%TD*%
D21*
%TO.C,C_crystal2*%
X165610600Y-98769600D03*
X166570600Y-98769600D03*
%TD*%
D17*
%TO.C,D35*%
X233362500Y-99031200D03*
X233362500Y-96231200D03*
%TD*%
D22*
%TO.C,J1*%
X141255000Y-51622000D03*
X147035000Y-51622000D03*
D23*
X140895000Y-53067000D03*
X141695000Y-53067000D03*
D24*
X142895000Y-53067000D03*
X143895000Y-53067000D03*
X144395000Y-53067000D03*
X145395000Y-53067000D03*
D23*
X146595000Y-53067000D03*
X147395000Y-53067000D03*
X147395000Y-53067000D03*
X146595000Y-53067000D03*
D24*
X145895000Y-53067000D03*
X144895000Y-53067000D03*
X143395000Y-53067000D03*
X142395000Y-53067000D03*
D23*
X141695000Y-53067000D03*
X140895000Y-53067000D03*
D25*
X148465000Y-47972000D03*
X139825000Y-47972000D03*
D26*
X139825000Y-52152000D03*
X148465000Y-52152000D03*
%TD*%
D17*
%TO.C,D23*%
X228600000Y-80013000D03*
X228600000Y-77213000D03*
%TD*%
%TO.C,D42*%
X142875000Y-118081200D03*
X142875000Y-115281200D03*
%TD*%
%TO.C,D47*%
X238125000Y-118081200D03*
X238125000Y-115281200D03*
%TD*%
%TO.C,D4*%
X100012500Y-60931200D03*
X100012500Y-58131200D03*
%TD*%
%TO.C,D3*%
X80962500Y-60931200D03*
X80962500Y-58131200D03*
%TD*%
D27*
%TO.C,R_USB3*%
X145717800Y-100660200D03*
X146737800Y-100660200D03*
%TD*%
D19*
%TO.C,R_USB1*%
X141986000Y-55420800D03*
X141986000Y-56440800D03*
%TD*%
D17*
%TO.C,D27*%
X80962500Y-99031200D03*
X80962500Y-96231200D03*
%TD*%
%TO.C,D12*%
X243681300Y-62518700D03*
X243681300Y-59718700D03*
%TD*%
D28*
%TO.C,C_Decoupler2*%
X146072800Y-108178600D03*
X145112800Y-108178600D03*
%TD*%
D17*
%TO.C,D1*%
X44577000Y-62741000D03*
X44577000Y-59941000D03*
%TD*%
%TO.C,D37*%
X42862500Y-118081200D03*
X42862500Y-115281200D03*
%TD*%
D29*
%TO.C,SW2*%
X166371200Y-88269200D03*
X160171200Y-91969200D03*
X166371200Y-91969200D03*
X160171200Y-88269200D03*
%TD*%
D17*
%TO.C,D39*%
X85725000Y-118081200D03*
X85725000Y-115281200D03*
%TD*%
D27*
%TO.C,R_USB4*%
X145717800Y-99593400D03*
X146737800Y-99593400D03*
%TD*%
D17*
%TO.C,D11*%
X233362500Y-60931200D03*
X233362500Y-58131200D03*
%TD*%
%TO.C,D51*%
X83312000Y-137163000D03*
X83312000Y-134363000D03*
%TD*%
D30*
%TO.C,F_USBC1*%
X146913600Y-63217600D03*
X146913600Y-66017600D03*
%TD*%
D19*
%TO.C,R_USBSHIELD1*%
X138150600Y-53795200D03*
X138150600Y-54815200D03*
%TD*%
D17*
%TO.C,D33*%
X195262500Y-99031200D03*
X195262500Y-96231200D03*
%TD*%
%TO.C,D7*%
X157162500Y-60931200D03*
X157162500Y-58131200D03*
%TD*%
%TO.C,D41*%
X123825000Y-118081200D03*
X123825000Y-115281200D03*
%TD*%
%TO.C,D43*%
X161925000Y-118081200D03*
X161925000Y-115281200D03*
%TD*%
D31*
%TO.C,C_UCAP1*%
X150317200Y-99184400D03*
X150317200Y-98224400D03*
%TD*%
D17*
%TO.C,D57*%
X238125000Y-137131200D03*
X238125000Y-134331200D03*
%TD*%
D28*
%TO.C,C_Decoupler5*%
X146657000Y-102108000D03*
X145697000Y-102108000D03*
%TD*%
D17*
%TO.C,D13*%
X38100000Y-79981200D03*
X38100000Y-77181200D03*
%TD*%
D28*
%TO.C,C_crystal1*%
X166697600Y-105272000D03*
X165737600Y-105272000D03*
%TD*%
D17*
%TO.C,D10*%
X214312500Y-60931200D03*
X214312500Y-58131200D03*
%TD*%
%TO.C,D16*%
X95250000Y-79981200D03*
X95250000Y-77181200D03*
%TD*%
%TO.C,D25*%
X40481300Y-99031200D03*
X40481300Y-96231200D03*
%TD*%
%TO.C,D32*%
X176212500Y-99031200D03*
X176212500Y-96231200D03*
%TD*%
%TO.C,D8*%
X176212500Y-60931200D03*
X176212500Y-58131200D03*
%TD*%
%TO.C,D48*%
X257175000Y-118081200D03*
X257175000Y-115281200D03*
%TD*%
D32*
%TO.C,D59*%
X143272000Y-59271600D03*
D33*
X143272000Y-57571600D03*
X145272000Y-57571600D03*
X145272000Y-59471600D03*
%TD*%
D20*
%TO.C,C_USBSHIELD1*%
X150901400Y-50116800D03*
X150901400Y-51076800D03*
%TD*%
D17*
%TO.C,D56*%
X219075000Y-137131200D03*
X219075000Y-134331200D03*
%TD*%
%TO.C,D30*%
X138112500Y-99031200D03*
X138112500Y-96231200D03*
%TD*%
%TO.C,D22*%
X209550000Y-79981200D03*
X209550000Y-77181200D03*
%TD*%
%TO.C,D53*%
X152400000Y-137131200D03*
X152400000Y-134331200D03*
%TD*%
%TO.C,D34*%
X214312500Y-99031200D03*
X214312500Y-96231200D03*
%TD*%
D34*
%TO.C,Y1*%
X165367600Y-103324000D03*
X165367600Y-101124000D03*
X167067600Y-101124000D03*
X167067600Y-103324000D03*
%TD*%
D17*
%TO.C,D6*%
X138112500Y-60931200D03*
X138112500Y-58131200D03*
%TD*%
%TO.C,D18*%
X133350000Y-79981200D03*
X133350000Y-77181200D03*
%TD*%
D31*
%TO.C,C_Decoupler4*%
X151638000Y-99184400D03*
X151638000Y-98224400D03*
%TD*%
D17*
%TO.C,D19*%
X152400000Y-79981200D03*
X152400000Y-77181200D03*
%TD*%
D21*
%TO.C,C_Decoupler3*%
X157101600Y-104622600D03*
X158061600Y-104622600D03*
%TD*%
D17*
%TO.C,D46*%
X219075000Y-118081200D03*
X219075000Y-115281200D03*
%TD*%
%TO.C,D31*%
X157162500Y-99031200D03*
X157162500Y-96231200D03*
%TD*%
%TO.C,D29*%
X119062500Y-99031200D03*
X119062500Y-96231200D03*
%TD*%
%TO.C,D54*%
X169068800Y-137131200D03*
X169068800Y-134331200D03*
%TD*%
%TO.C,D2*%
X61912500Y-60931200D03*
X61912500Y-58131200D03*
%TD*%
%TO.C,D5*%
X119062500Y-60931200D03*
X119062500Y-58131200D03*
%TD*%
%TO.C,D24*%
X252412500Y-79981200D03*
X252412500Y-77181200D03*
%TD*%
%TO.C,D20*%
X171450000Y-79981200D03*
X171450000Y-77181200D03*
%TD*%
%TO.C,D36*%
X254793800Y-99031200D03*
X254793800Y-96231200D03*
%TD*%
%TO.C,D14*%
X57150000Y-79981200D03*
X57150000Y-77181200D03*
%TD*%
%TO.C,D49*%
X40481300Y-137131200D03*
X40481300Y-134331200D03*
%TD*%
%TO.C,D55*%
X200025000Y-137131200D03*
X200025000Y-134331200D03*
%TD*%
D35*
%TO.C,U1*%
X149087200Y-102326500D03*
X149587200Y-102326500D03*
X150087200Y-102326500D03*
X150587200Y-102326500D03*
X151087200Y-102326500D03*
X151587200Y-102326500D03*
X152087200Y-102326500D03*
X152587200Y-102326500D03*
X153087200Y-102326500D03*
X153587200Y-102326500D03*
X154087200Y-102326500D03*
D36*
X154924700Y-103164000D03*
X154924700Y-103664000D03*
X154924700Y-104164000D03*
X154924700Y-104664000D03*
X154924700Y-105164000D03*
X154924700Y-105664000D03*
X154924700Y-106164000D03*
X154924700Y-106664000D03*
X154924700Y-107164000D03*
X154924700Y-107664000D03*
X154924700Y-108164000D03*
D35*
X154087200Y-109001500D03*
X153587200Y-109001500D03*
X153087200Y-109001500D03*
X152587200Y-109001500D03*
X152087200Y-109001500D03*
X151587200Y-109001500D03*
X151087200Y-109001500D03*
X150587200Y-109001500D03*
X150087200Y-109001500D03*
X149587200Y-109001500D03*
X149087200Y-109001500D03*
D36*
X148249700Y-108164000D03*
X148249700Y-107664000D03*
X148249700Y-107164000D03*
X148249700Y-106664000D03*
X148249700Y-106164000D03*
X148249700Y-105664000D03*
X148249700Y-105164000D03*
X148249700Y-104664000D03*
X148249700Y-104164000D03*
X148249700Y-103664000D03*
X148249700Y-103164000D03*
D37*
X151587200Y-105664000D03*
%TD*%
D17*
%TO.C,D15*%
X76200000Y-79981200D03*
X76200000Y-77181200D03*
%TD*%
M02*
