M48
; DRILL file {KiCad (6.0.7)} date Sun Oct  9 16:52:05 2022
; FORMAT={-:-/ absolute / inch / decimal}
; #@! TF.CreationDate,2022-10-09T16:52:05+02:00
; #@! TF.GenerationSoftware,Kicad,Pcbnew,(6.0.7)
; #@! TF.FileFunction,NonPlated,1,2,NPTH
FMAT,2
INCH
; #@! TA.AperFunction,NonPlated,NPTH,ComponentDrill
T1C0.0256
; #@! TA.AperFunction,NonPlated,NPTH,ComponentDrill
T2C0.0689
; #@! TA.AperFunction,NonPlated,NPTH,ComponentDrill
T3C0.1200
; #@! TA.AperFunction,NonPlated,NPTH,ComponentDrill
T4C0.1570
%
G90
G05
T1
X5.5612Y-2.0324
X5.7888Y-2.0324
T2
X1.175Y-2.23
X1.175Y-2.98
X1.265Y-3.73
X1.265Y-5.23
X1.36Y-4.48
X1.575Y-2.23
X1.575Y-2.98
X1.665Y-3.73
X1.665Y-5.23
X1.76Y-4.48
X1.925Y-2.98
X2.11Y-2.23
X2.11Y-3.73
X2.11Y-5.23
X2.3Y-4.48
X2.325Y-2.98
X2.51Y-2.23
X2.51Y-3.73
X2.51Y-5.23
X2.675Y-2.98
X2.7Y-4.48
X2.86Y-2.23
X2.86Y-3.73
X2.955Y-5.23
X3.05Y-4.48
X3.075Y-2.98
X3.26Y-2.23
X3.26Y-3.73
X3.355Y-5.23
X3.425Y-2.98
X3.45Y-4.48
X3.61Y-2.23
X3.61Y-3.73
X3.8Y-4.48
X3.825Y-2.98
X4.01Y-2.23
X4.01Y-3.73
X4.175Y-2.98
X4.2Y-4.48
X4.36Y-2.23
X4.36Y-3.73
X4.455Y-5.23
X4.55Y-4.48
X4.575Y-2.98
X4.76Y-2.23
X4.76Y-3.73
X4.855Y-5.23
X4.925Y-2.98
X4.95Y-4.48
X5.11Y-2.23
X5.11Y-3.73
X5.3Y-4.48
X5.325Y-2.98
X5.51Y-2.23
X5.51Y-3.73
X5.675Y-2.98
X5.675Y-5.23
X5.7Y-4.48
X5.86Y-2.23
X5.86Y-3.73
X6.05Y-4.48
X6.075Y-2.98
X6.075Y-5.23
X6.26Y-2.23
X6.26Y-3.73
X6.33Y-5.23
X6.425Y-2.98
X6.45Y-4.48
X6.61Y-2.23
X6.61Y-3.73
X6.73Y-5.23
X6.8Y-4.48
X6.825Y-2.98
X7.01Y-2.23
X7.01Y-3.73
X7.175Y-2.98
X7.2Y-4.48
X7.36Y-2.23
X7.36Y-3.73
X7.55Y-4.48
X7.55Y-5.23
X7.575Y-2.98
X7.76Y-2.23
X7.76Y-3.73
X7.925Y-2.98
X7.95Y-4.48
X7.95Y-5.23
X8.11Y-2.23
X8.11Y-3.73
X8.3Y-4.48
X8.3Y-5.23
X8.325Y-2.98
X8.51Y-2.23
X8.51Y-3.73
X8.675Y-2.98
X8.7Y-4.48
X8.7Y-5.23
X8.86Y-2.23
X8.86Y-3.73
X9.05Y-4.48
X9.05Y-5.23
X9.075Y-2.98
X9.26Y-2.23
X9.26Y-3.73
X9.45Y-4.48
X9.45Y-5.23
X9.61Y-2.98
X9.705Y-3.73
X9.795Y-2.23
X9.8Y-4.48
X9.8Y-5.23
X10.01Y-2.98
X10.105Y-3.73
X10.195Y-2.23
X10.2Y-4.48
X10.2Y-5.23
T3
X4.0Y-4.955
X4.1863Y-4.955
X5.1238Y-4.955
X6.0613Y-4.955
X6.9988Y-4.955
X7.75Y-4.955
T4
X1.375Y-2.23
X1.375Y-2.98
X1.465Y-3.73
X1.465Y-5.23
X1.56Y-4.48
X2.125Y-2.98
X2.31Y-2.23
X2.31Y-3.73
X2.31Y-5.23
X2.5Y-4.48
X2.875Y-2.98
X3.06Y-2.23
X3.06Y-3.73
X3.155Y-5.23
X3.25Y-4.48
X3.625Y-2.98
X3.81Y-2.23
X3.81Y-3.73
X4.0Y-4.48
X4.0Y-5.555
X4.1863Y-5.555
X4.375Y-2.98
X4.56Y-2.23
X4.56Y-3.73
X4.655Y-5.23
X4.75Y-4.48
X5.1238Y-5.555
X5.125Y-2.98
X5.31Y-2.23
X5.31Y-3.73
X5.5Y-4.48
X5.875Y-2.98
X5.875Y-5.23
X6.06Y-2.23
X6.06Y-3.73
X6.0613Y-5.555
X6.25Y-4.48
X6.53Y-5.23
X6.625Y-2.98
X6.81Y-2.23
X6.81Y-3.73
X6.9988Y-5.555
X7.0Y-4.48
X7.375Y-2.98
X7.56Y-2.23
X7.56Y-3.73
X7.75Y-4.48
X7.75Y-5.23
X7.75Y-5.555
X8.125Y-2.98
X8.31Y-2.23
X8.31Y-3.73
X8.5Y-4.48
X8.5Y-5.23
X8.875Y-2.98
X9.06Y-2.23
X9.06Y-3.73
X9.25Y-4.48
X9.25Y-5.23
X9.81Y-2.98
X9.905Y-3.73
X9.995Y-2.23
X10.0Y-4.48
X10.0Y-5.23
T0
M30
