M48
; DRILL file {KiCad (6.0.7)} date Thu Oct 27 18:22:06 2022
; FORMAT={-:-/ absolute / inch / decimal}
; #@! TF.CreationDate,2022-10-27T18:22:06+02:00
; #@! TF.GenerationSoftware,Kicad,Pcbnew,(6.0.7)
; #@! TF.FileFunction,NonPlated,1,2,NPTH
FMAT,2
INCH
; #@! TA.AperFunction,NonPlated,NPTH,ComponentDrill
T1C0.0256
; #@! TA.AperFunction,NonPlated,NPTH,ComponentDrill
T2C0.0689
; #@! TA.AperFunction,NonPlated,NPTH,ComponentDrill
T3C0.1181
; #@! TA.AperFunction,NonPlated,NPTH,ComponentDrill
T4C0.1200
; #@! TA.AperFunction,NonPlated,NPTH,ComponentDrill
T5C0.1570
%
G90
G05
T1
X5.5713Y-2.0324
X5.7988Y-2.0324
T2
X1.175Y-2.23
X1.175Y-2.98
X1.265Y-5.23
X1.266Y-3.73
X1.362Y-4.48
X1.575Y-2.23
X1.575Y-2.98
X1.665Y-5.23
X1.666Y-3.73
X1.762Y-4.48
X1.925Y-2.98
X2.109Y-5.23
X2.11Y-3.73
X2.1125Y-2.23
X2.3Y-4.48
X2.325Y-2.98
X2.509Y-5.23
X2.51Y-3.73
X2.5125Y-2.23
X2.675Y-2.98
X2.7Y-4.48
X2.86Y-2.23
X2.86Y-3.73
X2.953Y-5.23
X3.05Y-4.48
X3.075Y-2.98
X3.26Y-2.23
X3.26Y-3.73
X3.353Y-5.23
X3.425Y-2.98
X3.45Y-4.48
X3.61Y-2.23
X3.61Y-3.73
X3.8Y-4.48
X3.825Y-2.98
X4.01Y-2.23
X4.01Y-3.73
X4.175Y-2.98
X4.2Y-4.48
X4.36Y-2.23
X4.36Y-3.73
X4.456Y-5.23
X4.55Y-4.48
X4.575Y-2.98
X4.76Y-2.23
X4.76Y-3.73
X4.856Y-5.23
X4.925Y-2.98
X4.95Y-4.48
X5.11Y-2.23
X5.11Y-3.73
X5.3Y-4.48
X5.325Y-2.98
X5.51Y-2.23
X5.51Y-3.73
X5.675Y-2.98
X5.675Y-5.23
X5.7Y-4.48
X5.86Y-2.23
X5.86Y-3.73
X6.05Y-4.48
X6.075Y-2.98
X6.075Y-5.23
X6.26Y-2.23
X6.26Y-3.73
X6.33Y-5.23
X6.425Y-2.98
X6.45Y-4.48
X6.61Y-2.23
X6.61Y-3.73
X6.73Y-5.23
X6.8Y-4.48
X6.825Y-2.98
X7.01Y-2.23
X7.01Y-3.73
X7.175Y-2.98
X7.2Y-4.48
X7.36Y-2.23
X7.36Y-3.73
X7.55Y-4.48
X7.55Y-5.23
X7.575Y-2.98
X7.76Y-2.23
X7.76Y-3.73
X7.925Y-2.98
X7.95Y-4.48
X7.95Y-5.23
X8.11Y-2.23
X8.11Y-3.73
X8.3Y-4.48
X8.3Y-5.23
X8.325Y-2.98
X8.51Y-2.23
X8.51Y-3.73
X8.675Y-2.98
X8.7Y-4.48
X8.7Y-5.23
X8.86Y-2.23
X8.86Y-3.73
X9.05Y-4.48
X9.05Y-5.23
X9.075Y-2.98
X9.26Y-2.23
X9.26Y-3.73
X9.45Y-4.48
X9.45Y-5.23
X9.612Y-2.98
X9.704Y-3.73
X9.799Y-2.23
X9.8Y-4.48
X9.8Y-5.23
X10.012Y-2.98
X10.104Y-3.73
X10.199Y-2.23
X10.2Y-4.48
X10.2Y-5.23
T3
X1.225Y-2.13
X1.225Y-2.88
X1.315Y-5.13
X1.316Y-3.63
X1.412Y-4.38
X1.475Y-2.03
X1.475Y-2.78
X1.565Y-5.03
X1.566Y-3.53
X1.662Y-4.28
X1.975Y-2.88
X2.159Y-5.13
X2.16Y-3.63
X2.1625Y-2.13
X2.225Y-2.78
X2.35Y-4.38
X2.409Y-5.03
X2.41Y-3.53
X2.4125Y-2.03
X2.6Y-4.28
X2.725Y-2.88
X2.91Y-2.13
X2.91Y-3.63
X2.975Y-2.78
X3.003Y-5.13
X3.1Y-4.38
X3.16Y-2.03
X3.16Y-3.53
X3.253Y-5.03
X3.35Y-4.28
X3.475Y-2.88
X3.66Y-2.13
X3.66Y-3.63
X3.725Y-2.78
X3.85Y-4.38
X3.91Y-2.03
X3.91Y-3.53
X4.1Y-4.28
X4.225Y-2.88
X4.41Y-2.13
X4.41Y-3.63
X4.475Y-2.78
X4.506Y-5.13
X4.6Y-4.38
X4.66Y-2.03
X4.66Y-3.53
X4.756Y-5.03
X4.85Y-4.28
X4.975Y-2.88
X5.16Y-3.63
X5.21Y-2.43
X5.225Y-2.78
X5.35Y-4.38
X5.41Y-3.53
X5.46Y-2.33
X5.6Y-4.28
X5.725Y-2.88
X5.725Y-5.13
X5.91Y-3.63
X5.96Y-2.43
X5.975Y-2.78
X5.975Y-5.03
X6.1Y-4.38
X6.16Y-3.53
X6.21Y-2.33
X6.35Y-4.28
X6.38Y-5.13
X6.475Y-2.88
X6.63Y-5.03
X6.66Y-2.13
X6.66Y-3.63
X6.725Y-2.78
X6.85Y-4.38
X6.91Y-2.03
X6.91Y-3.53
X7.1Y-4.28
X7.225Y-2.88
X7.41Y-2.13
X7.41Y-3.63
X7.475Y-2.78
X7.6Y-4.38
X7.6Y-5.13
X7.66Y-2.03
X7.66Y-3.53
X7.85Y-4.28
X7.85Y-5.03
X7.975Y-2.88
X8.16Y-2.13
X8.16Y-3.63
X8.225Y-2.78
X8.35Y-4.38
X8.35Y-5.13
X8.41Y-2.03
X8.41Y-3.53
X8.6Y-4.28
X8.6Y-5.03
X8.725Y-2.88
X8.91Y-2.13
X8.91Y-3.63
X8.975Y-2.78
X9.1Y-4.38
X9.1Y-5.13
X9.16Y-2.03
X9.16Y-3.53
X9.35Y-4.28
X9.35Y-5.03
X9.662Y-2.88
X9.754Y-3.63
X9.849Y-2.13
X9.85Y-4.38
X9.85Y-5.13
X9.912Y-2.78
X10.004Y-3.53
X10.099Y-2.03
X10.1Y-4.28
X10.1Y-5.03
T4
X4.0Y-5.505
X4.186Y-5.505
X5.126Y-5.505
X6.06Y-5.505
X7.0Y-5.505
X7.75Y-5.505
T5
X1.375Y-2.23
X1.375Y-2.98
X1.465Y-5.23
X1.466Y-3.73
X1.562Y-4.48
X2.125Y-2.98
X2.309Y-5.23
X2.31Y-3.73
X2.3125Y-2.23
X2.5Y-4.48
X2.875Y-2.98
X3.06Y-2.23
X3.06Y-3.73
X3.153Y-5.23
X3.25Y-4.48
X3.625Y-2.98
X3.81Y-2.23
X3.81Y-3.73
X4.0Y-4.48
X4.0Y-4.905
X4.186Y-4.905
X4.375Y-2.98
X4.56Y-2.23
X4.56Y-3.73
X4.656Y-5.23
X4.75Y-4.48
X5.125Y-2.98
X5.126Y-4.905
X5.31Y-2.23
X5.31Y-3.73
X5.5Y-4.48
X5.875Y-2.98
X5.875Y-5.23
X6.06Y-2.23
X6.06Y-3.73
X6.06Y-4.905
X6.25Y-4.48
X6.53Y-5.23
X6.625Y-2.98
X6.81Y-2.23
X6.81Y-3.73
X7.0Y-4.48
X7.0Y-4.905
X7.375Y-2.98
X7.56Y-2.23
X7.56Y-3.73
X7.75Y-4.48
X7.75Y-4.905
X7.75Y-5.23
X8.125Y-2.98
X8.31Y-2.23
X8.31Y-3.73
X8.5Y-4.48
X8.5Y-5.23
X8.875Y-2.98
X9.06Y-2.23
X9.06Y-3.73
X9.25Y-4.48
X9.25Y-5.23
X9.812Y-2.98
X9.904Y-3.73
X9.999Y-2.23
X10.0Y-4.48
X10.0Y-5.23
T0
M30
