%TF.GenerationSoftware,KiCad,Pcbnew,(6.0.7)*%
%TF.CreationDate,2022-10-27T18:22:06+02:00*%
%TF.ProjectId,the PETER keyboard,74686520-5045-4544-9552-206b6579626f,rev?*%
%TF.SameCoordinates,Original*%
%TF.FileFunction,Profile,NP*%
%FSLAX46Y46*%
G04 Gerber Fmt 4.6, Leading zero omitted, Abs format (unit mm)*
G04 Created by KiCad (PCBNEW (6.0.7)) date 2022-10-27 18:22:06*
%MOMM*%
%LPD*%
G01*
G04 APERTURE LIST*
%TA.AperFunction,Profile*%
%ADD10C,0.100000*%
%TD*%
G04 APERTURE END LIST*
D10*
X95494974Y-139709074D02*
G75*
G03*
X94224974Y-140979026I26J-1270026D01*
G01*
X218338400Y-46990000D02*
X71437500Y-46990000D01*
X194554974Y-140979026D02*
X194564000Y-142367000D01*
X30713443Y-142366018D02*
X94234000Y-142367000D01*
X71437500Y-46990000D02*
X71437500Y-51054000D01*
X194564000Y-142367000D02*
X257922584Y-142372578D01*
X25205187Y-46983437D02*
G75*
G03*
X22665187Y-49523440I3J-2540003D01*
G01*
X265970840Y-134493000D02*
X265970835Y-49530000D01*
X94224974Y-140979026D02*
X94234000Y-142367000D01*
X190744974Y-139709074D02*
G75*
G03*
X189474974Y-140979026I26J-1270026D01*
G01*
X193284974Y-139709026D02*
X190744974Y-139709026D01*
X65913000Y-51054000D02*
G75*
G03*
X67183000Y-52324000I1270000J0D01*
G01*
X257922584Y-142372584D02*
G75*
G03*
X259192584Y-141102578I16J1269984D01*
G01*
X98034974Y-139709026D02*
X95494974Y-139709026D01*
X29443382Y-141096018D02*
G75*
G03*
X30713443Y-142366018I1270118J118D01*
G01*
X99304974Y-140979026D02*
G75*
G03*
X98034974Y-139709026I-1269974J26D01*
G01*
X263430840Y-137033000D02*
X260444160Y-137037360D01*
X218338400Y-51054000D02*
G75*
G03*
X219608400Y-52324000I1270000J0D01*
G01*
X263430835Y-46990000D02*
X223865000Y-46990000D01*
X28191867Y-137030800D02*
X25205187Y-137026440D01*
X218338400Y-46990000D02*
X218338400Y-51054000D01*
X29443443Y-141096018D02*
X29461867Y-138300800D01*
X194554974Y-140979026D02*
G75*
G03*
X193284974Y-139709026I-1269974J26D01*
G01*
X265970800Y-49530000D02*
G75*
G03*
X263430835Y-46990000I-2540000J0D01*
G01*
X222595000Y-52324000D02*
G75*
G03*
X223865000Y-51054000I0J1270000D01*
G01*
X70167500Y-52324000D02*
G75*
G03*
X71437500Y-51054000I0J1270000D01*
G01*
X65913000Y-46990000D02*
X25205187Y-46983440D01*
X219608400Y-52324000D02*
X222595000Y-52324000D01*
X22665187Y-49523440D02*
X22665187Y-134486440D01*
X260444160Y-137037360D02*
G75*
G03*
X259174160Y-138307360I-60J-1269940D01*
G01*
X65913000Y-46990000D02*
X65913000Y-51054000D01*
X67183000Y-52324000D02*
X70167500Y-52324000D01*
X99304974Y-140979026D02*
X99314000Y-142367000D01*
X99314000Y-142367000D02*
X189484000Y-142367000D01*
X263430840Y-137033040D02*
G75*
G03*
X265970840Y-134493000I-40J2540040D01*
G01*
X22665160Y-134486440D02*
G75*
G03*
X25205187Y-137026440I2540040J40D01*
G01*
X259174160Y-138307360D02*
X259192584Y-141102578D01*
X189474974Y-140979026D02*
X189484000Y-142367000D01*
X223865000Y-46990000D02*
X223865000Y-51054000D01*
X29461900Y-138300800D02*
G75*
G03*
X28191867Y-137030800I-1270000J0D01*
G01*
M02*
