M48
; DRILL file {KiCad (6.0.7)} date Wed Oct 26 19:46:56 2022
; FORMAT={-:-/ absolute / inch / decimal}
; #@! TF.CreationDate,2022-10-26T19:46:56+02:00
; #@! TF.GenerationSoftware,Kicad,Pcbnew,(6.0.7)
; #@! TF.FileFunction,Plated,1,2,PTH
FMAT,2
INCH
; #@! TA.AperFunction,Plated,PTH,ViaDrill
T1C0.0157
; #@! TA.AperFunction,Plated,PTH,ComponentDrill
T2C0.0236
; #@! TA.AperFunction,Plated,PTH,ComponentDrill
T3C0.0394
; #@! TA.AperFunction,Plated,PTH,ComponentDrill
T4C0.0591
%
G90
G05
T1
X1.088Y-2.2
X1.095Y-2.95
X1.0956Y-2.8168
X1.1875Y-3.565
X1.1875Y-3.695
X1.1875Y-5.0625
X1.19Y-4.098
X1.2841Y-4.4467
X1.285Y-4.315
X1.375Y-2.605
X1.845Y-2.82
X1.845Y-2.945
X2.028Y-4.0706
X2.03Y-2.195
X2.03Y-3.565
X2.03Y-3.695
X2.03Y-5.065
X2.22Y-4.315
X2.22Y-4.445
X2.595Y-2.82
X2.595Y-2.945
X2.78Y-2.195
X2.78Y-3.565
X2.78Y-3.695
X2.78Y-4.0556
X2.875Y-5.065
X2.97Y-4.315
X2.97Y-4.445
X3.345Y-2.82
X3.345Y-2.945
X3.53Y-2.195
X3.53Y-3.565
X3.53Y-3.695
X3.53Y-4.0403
X3.72Y-4.315
X4.095Y-2.815
X4.095Y-2.945
X4.28Y-2.195
X4.28Y-3.565
X4.28Y-3.695
X4.28Y-4.0243
X4.375Y-5.065
X4.47Y-4.315
X4.475Y-4.45
X4.845Y-2.81
X4.845Y-2.95
X5.03Y-3.57
X5.03Y-3.695
X5.03Y-4.0093
X5.22Y-4.315
X5.22Y-4.45
X5.4408Y-2.856
X5.45Y-1.955
X5.45Y-3.09
X5.4556Y-2.892
X5.4943Y-3.9
X5.5435Y-2.986
X5.544Y-3.134
X5.5457Y-3.9
X5.565Y-3.09
X5.575Y-3.825
X5.59Y-2.405
X5.59Y-4.16
X5.595Y-2.81
X5.595Y-2.95
X5.595Y-5.065
X5.615Y-3.9
X5.62Y-2.22
X5.622Y-3.136
X5.628Y-3.03
X5.6467Y-3.756
X5.66Y-3.945
X5.66Y-4.125
X5.675Y-3.425
X5.675Y-3.51
X5.678Y-4.58
X5.6898Y-3.6698
X5.708Y-3.738
X5.715Y-3.195
X5.745Y-4.405
X5.75Y-3.8837
X5.755Y-2.22
X5.774Y-3.716
X5.78Y-3.57
X5.7956Y-2.2665
X5.805Y-3.165
X5.915Y-1.955
X5.915Y-4.305
X5.922Y-3.746
X5.935Y-4.225
X5.935Y-4.2675
X5.9352Y-3.7964
X5.9377Y-2.1773
X5.9399Y-3.711
X5.97Y-4.47
X6.005Y-4.225
X6.008Y-3.43
X6.0088Y-3.9117
X6.03Y-3.882
X6.065Y-4.175
X6.1053Y-3.9398
X6.1446Y-3.9401
X6.145Y-3.9007
X6.204Y-3.058
X6.206Y-3.114
X6.24Y-3.825
X6.2405Y-3.058
X6.2424Y-3.1123
X6.25Y-5.07
X6.28Y-3.928
X6.304Y-4.58
X6.3193Y-3.165
X6.34Y-2.405
X6.345Y-2.81
X6.345Y-2.95
X6.38Y-3.74
X6.428Y-4.0355
X6.45Y-3.72
X6.47Y-3.555
X6.482Y-3.798
X6.53Y-2.195
X6.53Y-3.57
X6.53Y-3.695
X6.552Y-4.616
X6.72Y-4.31
X6.72Y-4.45
X6.75Y-3.24
X6.84Y-3.395
X7.06Y-3.295
X7.064Y-3.1855
X7.095Y-2.81
X7.095Y-2.95
X7.1547Y-3.9818
X7.16Y-3.9457
X7.28Y-2.195
X7.28Y-3.57
X7.28Y-3.695
X7.4695Y-4.6313
X7.47Y-4.31
X7.47Y-4.45
X7.47Y-5.07
X7.845Y-2.815
X7.845Y-2.95
X8.03Y-2.195
X8.03Y-3.57
X8.03Y-3.695
X8.22Y-4.31
X8.22Y-4.45
X8.22Y-4.6463
X8.22Y-5.07
X8.595Y-2.815
X8.595Y-2.95
X8.78Y-2.2
X8.78Y-3.57
X8.78Y-3.695
X8.97Y-4.45
X8.97Y-4.6613
X8.97Y-5.07
X8.975Y-4.31
X9.535Y-2.815
X9.535Y-2.95
X9.625Y-3.57
X9.625Y-3.695
X9.695Y-2.2
X9.72Y-4.31
X9.72Y-4.45
X9.72Y-4.686
X9.72Y-5.07
X9.995Y-2.6
T3
X1.2766Y-1.9544
X1.2766Y-2.5253
X1.375Y-2.5253
X1.4734Y-1.9544
X1.4734Y-2.5253
X6.9Y-3.1875
X6.9Y-3.2875
X6.9Y-3.3875
X7.0Y-3.1875
X7.0Y-3.2875
X7.0Y-3.3875
X9.8966Y-1.9544
X9.8966Y-2.5253
X9.995Y-2.5253
X10.0934Y-1.9544
X10.0934Y-2.5253
T2
G00X5.515Y-1.8769
M15
G01X5.515Y-1.9005
M16
G05
G00X5.515Y-2.0316
M15
G01X5.515Y-2.0749
M16
G05
G00X5.8551Y-1.8769
M15
G01X5.8551Y-1.9005
M16
G05
G00X5.8551Y-2.0316
M15
G01X5.8551Y-2.0749
M16
G05
T4
G00X1.1545Y-2.2556
M15
G01X1.1545Y-2.2044
M16
G05
G00X1.5955Y-2.2556
M15
G01X1.5955Y-2.2044
M16
G05
G00X9.7745Y-2.2556
M15
G01X9.7745Y-2.2044
M16
G05
G00X10.2155Y-2.2556
M15
G01X10.2155Y-2.2044
M16
G05
T0
M30
